ISO-10303-21;
HEADER;
/* Generated by software containing ST-Developer
 * from STEP Tools, Inc. (www.steptools.com) 
 */

FILE_DESCRIPTION(
/* description */ (''),
/* implementation_level */ '2;1');

FILE_NAME(
/* name */ 'elbow shaft right.step',
/* time_stamp */ '2026-09-26T21:38:33-07:00',
/* author */ (''),
/* organization */ (''),
/* preprocessor_version */ 'ST-DEVELOPER v20.2',
/* originating_system */ 'Autodesk Translation Framework v15.15.0.0',
/* authorisation */ '');

FILE_SCHEMA (('AUTOMOTIVE_DESIGN { 1 0 10303 214 3 1 1 }'));
ENDSEC;

DATA;
#10=MECHANICAL_DESIGN_GEOMETRIC_PRESENTATION_REPRESENTATION('',(#13),#1850);
#11=SHAPE_REPRESENTATION_RELATIONSHIP('SRR','None',#1857,#12);
#12=ADVANCED_BREP_SHAPE_REPRESENTATION('',(#14),#1849);
#13=STYLED_ITEM('',(#1866),#14);
#14=MANIFOLD_SOLID_BREP('Body1 (1) (1) (2)',#1072);
#15=CONICAL_SURFACE('',#1118,8.,0.785398163397448);
#16=CONICAL_SURFACE('',#1121,8.,0.785398163397448);
#17=CONICAL_SURFACE('',#1168,7.,0.785398163397448);
#18=CONICAL_SURFACE('',#1171,7.,0.785398163397448);
#19=ELLIPSE('',#1096,4.24264068711928,3.);
#20=B_SPLINE_CURVE_WITH_KNOTS('',3,(#1503,#1504,#1505,#1506,#1507,#1508,
#1509,#1510,#1511,#1512),.UNSPECIFIED.,.F.,.F.,(4,2,2,2,4),(0.,0.0604687558424056,
0.120937511684811,0.187798455458713,0.254659399232615),.UNSPECIFIED.);
#21=B_SPLINE_CURVE_WITH_KNOTS('',3,(#1513,#1514,#1515,#1516,#1517,#1518,
#1519,#1520,#1521,#1522,#1523,#1524,#1525,#1526,#1527,#1528,#1529,#1530,
#1531,#1532,#1533,#1534,#1535,#1536,#1537,#1538),.UNSPECIFIED.,.F.,.F.,
(4,2,2,2,2,2,2,2,2,2,2,2,4),(0.254659399232615,0.318104489371043,0.381549579509471,
0.441568212571962,0.501586845634453,0.561605478696943,0.621624111759434,
0.685069201897862,0.74851429203629,0.815375235810192,0.882236179584094,
0.942704935426499,1.00317369126891),.UNSPECIFIED.);
#22=B_SPLINE_CURVE_WITH_KNOTS('',3,(#1541,#1542,#1543,#1544,#1545,#1546,
#1547,#1548,#1549,#1550),.UNSPECIFIED.,.F.,.F.,(4,2,2,2,4),(0.,0.0600186330624907,
0.120037266124981,0.183482356263409,0.246927446401837),.UNSPECIFIED.);
#23=B_SPLINE_CURVE_WITH_KNOTS('',3,(#1551,#1552,#1553,#1554,#1555,#1556,
#1557,#1558,#1559,#1560,#1561,#1562,#1563,#1564,#1565,#1566,#1567,#1568,
#1569,#1570,#1571,#1572,#1573,#1574,#1575,#1576),.UNSPECIFIED.,.F.,.F.,
(4,2,2,2,2,2,2,2,2,2,2,2,4),(0.246927446401837,0.313788390175739,0.380649333949641,
0.441118089792047,0.501586845634453,0.562055601476858,0.622524357319264,
0.689385301093166,0.756246244867068,0.819691335005496,0.883136425143924,
0.943155058206415,1.00317369126891),.UNSPECIFIED.);
#24=FACE_BOUND('',#139,.T.);
#25=FACE_BOUND('',#140,.T.);
#26=FACE_BOUND('',#142,.T.);
#27=FACE_BOUND('',#143,.T.);
#28=FACE_BOUND('',#146,.T.);
#29=FACE_BOUND('',#150,.T.);
#30=FACE_BOUND('',#158,.T.);
#31=FACE_BOUND('',#169,.T.);
#32=FACE_BOUND('',#172,.T.);
#33=FACE_BOUND('',#173,.T.);
#34=FACE_BOUND('',#176,.T.);
#35=FACE_BOUND('',#177,.T.);
#36=FACE_BOUND('',#187,.T.);
#37=FACE_BOUND('',#188,.T.);
#38=FACE_BOUND('',#191,.T.);
#39=FACE_BOUND('',#192,.T.);
#40=FACE_BOUND('',#194,.T.);
#41=FACE_BOUND('',#195,.T.);
#42=FACE_BOUND('',#202,.T.);
#43=FACE_BOUND('',#213,.T.);
#44=PLANE('',#1089);
#45=PLANE('',#1100);
#46=PLANE('',#1102);
#47=PLANE('',#1106);
#48=PLANE('',#1110);
#49=PLANE('',#1113);
#50=PLANE('',#1116);
#51=PLANE('',#1117);
#52=PLANE('',#1124);
#53=PLANE('',#1125);
#54=PLANE('',#1130);
#55=PLANE('',#1131);
#56=PLANE('',#1132);
#57=PLANE('',#1133);
#58=PLANE('',#1134);
#59=PLANE('',#1137);
#60=PLANE('',#1138);
#61=PLANE('',#1143);
#62=PLANE('',#1144);
#63=PLANE('',#1145);
#64=PLANE('',#1146);
#65=PLANE('',#1147);
#66=PLANE('',#1148);
#67=PLANE('',#1151);
#68=PLANE('',#1154);
#69=PLANE('',#1156);
#70=PLANE('',#1161);
#71=PLANE('',#1162);
#72=PLANE('',#1163);
#73=PLANE('',#1166);
#74=PLANE('',#1167);
#75=PLANE('',#1170);
#76=PLANE('',#1173);
#77=PLANE('',#1176);
#78=PLANE('',#1179);
#79=PLANE('',#1180);
#80=FACE_OUTER_BOUND('',#137,.T.);
#81=FACE_OUTER_BOUND('',#138,.T.);
#82=FACE_OUTER_BOUND('',#141,.T.);
#83=FACE_OUTER_BOUND('',#144,.T.);
#84=FACE_OUTER_BOUND('',#145,.T.);
#85=FACE_OUTER_BOUND('',#147,.T.);
#86=FACE_OUTER_BOUND('',#148,.T.);
#87=FACE_OUTER_BOUND('',#149,.T.);
#88=FACE_OUTER_BOUND('',#151,.T.);
#89=FACE_OUTER_BOUND('',#152,.T.);
#90=FACE_OUTER_BOUND('',#153,.T.);
#91=FACE_OUTER_BOUND('',#154,.T.);
#92=FACE_OUTER_BOUND('',#155,.T.);
#93=FACE_OUTER_BOUND('',#156,.T.);
#94=FACE_OUTER_BOUND('',#157,.T.);
#95=FACE_OUTER_BOUND('',#159,.T.);
#96=FACE_OUTER_BOUND('',#160,.T.);
#97=FACE_OUTER_BOUND('',#161,.T.);
#98=FACE_OUTER_BOUND('',#162,.T.);
#99=FACE_OUTER_BOUND('',#163,.T.);
#100=FACE_OUTER_BOUND('',#164,.T.);
#101=FACE_OUTER_BOUND('',#165,.T.);
#102=FACE_OUTER_BOUND('',#166,.T.);
#103=FACE_OUTER_BOUND('',#167,.T.);
#104=FACE_OUTER_BOUND('',#168,.T.);
#105=FACE_OUTER_BOUND('',#170,.T.);
#106=FACE_OUTER_BOUND('',#171,.T.);
#107=FACE_OUTER_BOUND('',#174,.T.);
#108=FACE_OUTER_BOUND('',#175,.T.);
#109=FACE_OUTER_BOUND('',#178,.T.);
#110=FACE_OUTER_BOUND('',#179,.T.);
#111=FACE_OUTER_BOUND('',#180,.T.);
#112=FACE_OUTER_BOUND('',#181,.T.);
#113=FACE_OUTER_BOUND('',#182,.T.);
#114=FACE_OUTER_BOUND('',#183,.T.);
#115=FACE_OUTER_BOUND('',#184,.T.);
#116=FACE_OUTER_BOUND('',#185,.T.);
#117=FACE_OUTER_BOUND('',#186,.T.);
#118=FACE_OUTER_BOUND('',#189,.T.);
#119=FACE_OUTER_BOUND('',#190,.T.);
#120=FACE_OUTER_BOUND('',#193,.T.);
#121=FACE_OUTER_BOUND('',#196,.T.);
#122=FACE_OUTER_BOUND('',#197,.T.);
#123=FACE_OUTER_BOUND('',#198,.T.);
#124=FACE_OUTER_BOUND('',#199,.T.);
#125=FACE_OUTER_BOUND('',#200,.T.);
#126=FACE_OUTER_BOUND('',#201,.T.);
#127=FACE_OUTER_BOUND('',#203,.T.);
#128=FACE_OUTER_BOUND('',#204,.T.);
#129=FACE_OUTER_BOUND('',#205,.T.);
#130=FACE_OUTER_BOUND('',#206,.T.);
#131=FACE_OUTER_BOUND('',#207,.T.);
#132=FACE_OUTER_BOUND('',#208,.T.);
#133=FACE_OUTER_BOUND('',#209,.T.);
#134=FACE_OUTER_BOUND('',#210,.T.);
#135=FACE_OUTER_BOUND('',#211,.T.);
#136=FACE_OUTER_BOUND('',#212,.T.);
#137=EDGE_LOOP('',(#704,#705,#706,#707));
#138=EDGE_LOOP('',(#708,#709,#710,#711));
#139=EDGE_LOOP('',(#712));
#140=EDGE_LOOP('',(#713));
#141=EDGE_LOOP('',(#714,#715,#716,#717));
#142=EDGE_LOOP('',(#718,#719));
#143=EDGE_LOOP('',(#720,#721));
#144=EDGE_LOOP('',(#722,#723,#724,#725,#726,#727));
#145=EDGE_LOOP('',(#728));
#146=EDGE_LOOP('',(#729));
#147=EDGE_LOOP('',(#730,#731,#732,#733,#734,#735));
#148=EDGE_LOOP('',(#736,#737,#738,#739));
#149=EDGE_LOOP('',(#740));
#150=EDGE_LOOP('',(#741));
#151=EDGE_LOOP('',(#742,#743,#744,#745));
#152=EDGE_LOOP('',(#746));
#153=EDGE_LOOP('',(#747,#748,#749,#750));
#154=EDGE_LOOP('',(#751));
#155=EDGE_LOOP('',(#752,#753,#754,#755,#756));
#156=EDGE_LOOP('',(#757,#758,#759,#760,#761));
#157=EDGE_LOOP('',(#762,#763,#764,#765,#766,#767,#768));
#158=EDGE_LOOP('',(#769));
#159=EDGE_LOOP('',(#770,#771,#772,#773));
#160=EDGE_LOOP('',(#774,#775,#776,#777));
#161=EDGE_LOOP('',(#778,#779,#780,#781));
#162=EDGE_LOOP('',(#782,#783,#784,#785));
#163=EDGE_LOOP('',(#786,#787,#788,#789));
#164=EDGE_LOOP('',(#790,#791,#792,#793));
#165=EDGE_LOOP('',(#794,#795,#796,#797));
#166=EDGE_LOOP('',(#798,#799,#800,#801,#802,#803,#804,#805,#806,#807));
#167=EDGE_LOOP('',(#808,#809,#810,#811));
#168=EDGE_LOOP('',(#812,#813,#814,#815,#816,#817));
#169=EDGE_LOOP('',(#818,#819));
#170=EDGE_LOOP('',(#820,#821,#822,#823));
#171=EDGE_LOOP('',(#824,#825,#826,#827));
#172=EDGE_LOOP('',(#828));
#173=EDGE_LOOP('',(#829));
#174=EDGE_LOOP('',(#830,#831,#832,#833));
#175=EDGE_LOOP('',(#834,#835,#836,#837));
#176=EDGE_LOOP('',(#838));
#177=EDGE_LOOP('',(#839));
#178=EDGE_LOOP('',(#840,#841,#842,#843));
#179=EDGE_LOOP('',(#844,#845,#846,#847,#848,#849,#850,#851,#852,#853));
#180=EDGE_LOOP('',(#854,#855,#856,#857));
#181=EDGE_LOOP('',(#858,#859,#860,#861));
#182=EDGE_LOOP('',(#862,#863,#864,#865));
#183=EDGE_LOOP('',(#866,#867,#868,#869,#870,#871,#872,#873,#874,#875));
#184=EDGE_LOOP('',(#876,#877,#878,#879));
#185=EDGE_LOOP('',(#880,#881,#882,#883));
#186=EDGE_LOOP('',(#884,#885,#886,#887));
#187=EDGE_LOOP('',(#888));
#188=EDGE_LOOP('',(#889));
#189=EDGE_LOOP('',(#890,#891,#892,#893));
#190=EDGE_LOOP('',(#894,#895,#896,#897));
#191=EDGE_LOOP('',(#898));
#192=EDGE_LOOP('',(#899));
#193=EDGE_LOOP('',(#900,#901,#902,#903,#904,#905,#906,#907,#908,#909,#910,
#911,#912,#913,#914,#915,#916,#917,#918,#919,#920,#921,#922,#923));
#194=EDGE_LOOP('',(#924,#925));
#195=EDGE_LOOP('',(#926));
#196=EDGE_LOOP('',(#927,#928,#929,#930));
#197=EDGE_LOOP('',(#931,#932,#933,#934,#935));
#198=EDGE_LOOP('',(#936,#937,#938,#939));
#199=EDGE_LOOP('',(#940,#941,#942,#943));
#200=EDGE_LOOP('',(#944,#945,#946,#947));
#201=EDGE_LOOP('',(#948));
#202=EDGE_LOOP('',(#949));
#203=EDGE_LOOP('',(#950,#951,#952,#953));
#204=EDGE_LOOP('',(#954,#955,#956,#957));
#205=EDGE_LOOP('',(#958,#959,#960,#961));
#206=EDGE_LOOP('',(#962,#963,#964,#965));
#207=EDGE_LOOP('',(#966,#967,#968,#969));
#208=EDGE_LOOP('',(#970,#971,#972,#973));
#209=EDGE_LOOP('',(#974,#975,#976,#977));
#210=EDGE_LOOP('',(#978,#979,#980,#981));
#211=EDGE_LOOP('',(#982,#983,#984,#985,#986));
#212=EDGE_LOOP('',(#987,#988,#989,#990,#991,#992,#993,#994,#995,#996));
#213=EDGE_LOOP('',(#997));
#214=LINE('',#1483,#319);
#215=LINE('',#1488,#320);
#216=LINE('',#1490,#321);
#217=LINE('',#1492,#322);
#218=LINE('',#1493,#323);
#219=LINE('',#1584,#324);
#220=LINE('',#1592,#325);
#221=LINE('',#1594,#326);
#222=LINE('',#1596,#327);
#223=LINE('',#1598,#328);
#224=LINE('',#1599,#329);
#225=LINE('',#1604,#330);
#226=LINE('',#1611,#331);
#227=LINE('',#1616,#332);
#228=LINE('',#1620,#333);
#229=LINE('',#1622,#334);
#230=LINE('',#1625,#335);
#231=LINE('',#1627,#336);
#232=LINE('',#1628,#337);
#233=LINE('',#1632,#338);
#234=LINE('',#1634,#339);
#235=LINE('',#1636,#340);
#236=LINE('',#1637,#341);
#237=LINE('',#1645,#342);
#238=LINE('',#1650,#343);
#239=LINE('',#1651,#344);
#240=LINE('',#1652,#345);
#241=LINE('',#1655,#346);
#242=LINE('',#1657,#347);
#243=LINE('',#1658,#348);
#244=LINE('',#1663,#349);
#245=LINE('',#1667,#350);
#246=LINE('',#1668,#351);
#247=LINE('',#1670,#352);
#248=LINE('',#1672,#353);
#249=LINE('',#1674,#354);
#250=LINE('',#1676,#355);
#251=LINE('',#1677,#356);
#252=LINE('',#1679,#357);
#253=LINE('',#1683,#358);
#254=LINE('',#1685,#359);
#255=LINE('',#1686,#360);
#256=LINE('',#1689,#361);
#257=LINE('',#1690,#362);
#258=LINE('',#1698,#363);
#259=LINE('',#1700,#364);
#260=LINE('',#1702,#365);
#261=LINE('',#1703,#366);
#262=LINE('',#1707,#367);
#263=LINE('',#1709,#368);
#264=LINE('',#1711,#369);
#265=LINE('',#1712,#370);
#266=LINE('',#1720,#371);
#267=LINE('',#1724,#372);
#268=LINE('',#1726,#373);
#269=LINE('',#1728,#374);
#270=LINE('',#1729,#375);
#271=LINE('',#1731,#376);
#272=LINE('',#1733,#377);
#273=LINE('',#1734,#378);
#274=LINE('',#1735,#379);
#275=LINE('',#1738,#380);
#276=LINE('',#1740,#381);
#277=LINE('',#1741,#382);
#278=LINE('',#1744,#383);
#279=LINE('',#1746,#384);
#280=LINE('',#1747,#385);
#281=LINE('',#1749,#386);
#282=LINE('',#1751,#387);
#283=LINE('',#1752,#388);
#284=LINE('',#1754,#389);
#285=LINE('',#1755,#390);
#286=LINE('',#1760,#391);
#287=LINE('',#1762,#392);
#288=LINE('',#1766,#393);
#289=LINE('',#1769,#394);
#290=LINE('',#1771,#395);
#291=LINE('',#1772,#396);
#292=LINE('',#1777,#397);
#293=LINE('',#1779,#398);
#294=LINE('',#1783,#399);
#295=LINE('',#1787,#400);
#296=LINE('',#1788,#401);
#297=LINE('',#1792,#402);
#298=LINE('',#1795,#403);
#299=LINE('',#1797,#404);
#300=LINE('',#1798,#405);
#301=LINE('',#1801,#406);
#302=LINE('',#1802,#407);
#303=LINE('',#1805,#408);
#304=LINE('',#1806,#409);
#305=LINE('',#1810,#410);
#306=LINE('',#1814,#411);
#307=LINE('',#1816,#412);
#308=LINE('',#1817,#413);
#309=LINE('',#1820,#414);
#310=LINE('',#1824,#415);
#311=LINE('',#1825,#416);
#312=LINE('',#1830,#417);
#313=LINE('',#1832,#418);
#314=LINE('',#1833,#419);
#315=LINE('',#1836,#420);
#316=LINE('',#1840,#421);
#317=LINE('',#1841,#422);
#318=LINE('',#1845,#423);
#319=VECTOR('',#1187,13.1);
#320=VECTOR('',#1192,10.);
#321=VECTOR('',#1193,10.);
#322=VECTOR('',#1194,10.);
#323=VECTOR('',#1195,10.);
#324=VECTOR('',#1212,3.);
#325=VECTOR('',#1223,10.);
#326=VECTOR('',#1224,10.);
#327=VECTOR('',#1225,10.);
#328=VECTOR('',#1226,10.);
#329=VECTOR('',#1227,10.);
#330=VECTOR('',#1232,3.);
#331=VECTOR('',#1241,1.6);
#332=VECTOR('',#1248,1.6);
#333=VECTOR('',#1255,1.6);
#334=VECTOR('',#1258,1.6);
#335=VECTOR('',#1261,10.);
#336=VECTOR('',#1262,10.);
#337=VECTOR('',#1263,10.);
#338=VECTOR('',#1266,10.);
#339=VECTOR('',#1267,10.);
#340=VECTOR('',#1268,10.);
#341=VECTOR('',#1269,10.);
#342=VECTOR('',#1280,10.);
#343=VECTOR('',#1285,10.);
#344=VECTOR('',#1286,10.);
#345=VECTOR('',#1287,10.);
#346=VECTOR('',#1290,10.);
#347=VECTOR('',#1291,10.);
#348=VECTOR('',#1292,10.);
#349=VECTOR('',#1299,10.);
#350=VECTOR('',#1304,10.);
#351=VECTOR('',#1305,10.);
#352=VECTOR('',#1306,10.);
#353=VECTOR('',#1307,10.);
#354=VECTOR('',#1308,10.);
#355=VECTOR('',#1309,10.);
#356=VECTOR('',#1310,10.);
#357=VECTOR('',#1313,10.);
#358=VECTOR('',#1318,10.);
#359=VECTOR('',#1319,10.);
#360=VECTOR('',#1320,10.);
#361=VECTOR('',#1323,10.);
#362=VECTOR('',#1324,10.);
#363=VECTOR('',#1331,10.);
#364=VECTOR('',#1332,10.);
#365=VECTOR('',#1333,10.);
#366=VECTOR('',#1334,10.);
#367=VECTOR('',#1337,10.);
#368=VECTOR('',#1338,10.);
#369=VECTOR('',#1339,10.);
#370=VECTOR('',#1340,10.);
#371=VECTOR('',#1349,1.6);
#372=VECTOR('',#1352,10.);
#373=VECTOR('',#1353,10.);
#374=VECTOR('',#1354,10.);
#375=VECTOR('',#1355,10.);
#376=VECTOR('',#1356,10.);
#377=VECTOR('',#1357,10.);
#378=VECTOR('',#1358,10.);
#379=VECTOR('',#1359,10.);
#380=VECTOR('',#1362,10.);
#381=VECTOR('',#1363,10.);
#382=VECTOR('',#1364,10.);
#383=VECTOR('',#1367,10.);
#384=VECTOR('',#1368,10.);
#385=VECTOR('',#1369,10.);
#386=VECTOR('',#1372,10.);
#387=VECTOR('',#1375,10.);
#388=VECTOR('',#1376,10.);
#389=VECTOR('',#1377,10.);
#390=VECTOR('',#1378,10.);
#391=VECTOR('',#1385,1.6);
#392=VECTOR('',#1388,10.);
#393=VECTOR('',#1393,1.6);
#394=VECTOR('',#1396,10.);
#395=VECTOR('',#1397,10.);
#396=VECTOR('',#1398,10.);
#397=VECTOR('',#1403,10.);
#398=VECTOR('',#1404,10.);
#399=VECTOR('',#1407,10.);
#400=VECTOR('',#1410,10.);
#401=VECTOR('',#1411,10.);
#402=VECTOR('',#1416,1.6);
#403=VECTOR('',#1419,10.);
#404=VECTOR('',#1420,10.);
#405=VECTOR('',#1421,10.);
#406=VECTOR('',#1424,10.);
#407=VECTOR('',#1425,10.);
#408=VECTOR('',#1428,10.);
#409=VECTOR('',#1429,10.);
#410=VECTOR('',#1434,7.5);
#411=VECTOR('',#1439,10.);
#412=VECTOR('',#1440,10.);
#413=VECTOR('',#1441,10.);
#414=VECTOR('',#1444,10.);
#415=VECTOR('',#1449,10.);
#416=VECTOR('',#1450,10.);
#417=VECTOR('',#1457,10.);
#418=VECTOR('',#1458,10.);
#419=VECTOR('',#1459,10.);
#420=VECTOR('',#1462,10.);
#421=VECTOR('',#1467,10.);
#422=VECTOR('',#1468,10.);
#423=VECTOR('',#1475,10.);
#424=CIRCLE('',#1087,13.1);
#425=CIRCLE('',#1088,13.1);
#426=CIRCLE('',#1090,1.6);
#427=CIRCLE('',#1091,1.6);
#428=CIRCLE('',#1093,10.1);
#429=CIRCLE('',#1094,10.1);
#430=CIRCLE('',#1097,3.);
#431=CIRCLE('',#1098,3.);
#432=CIRCLE('',#1099,3.);
#433=CIRCLE('',#1101,1.6);
#434=CIRCLE('',#1104,3.);
#435=CIRCLE('',#1105,3.);
#436=CIRCLE('',#1107,1.6);
#437=CIRCLE('',#1109,1.6);
#438=CIRCLE('',#1112,1.6);
#439=CIRCLE('',#1119,10.);
#440=CIRCLE('',#1120,6.);
#441=CIRCLE('',#1122,10.);
#442=CIRCLE('',#1123,6.);
#443=CIRCLE('',#1127,10.);
#444=CIRCLE('',#1129,10.);
#445=CIRCLE('',#1135,1.6);
#446=CIRCLE('',#1136,1.6);
#447=CIRCLE('',#1139,1.6);
#448=CIRCLE('',#1140,1.6);
#449=CIRCLE('',#1142,1.6);
#450=CIRCLE('',#1150,1.6);
#451=CIRCLE('',#1152,1.6);
#452=CIRCLE('',#1155,1.6);
#453=CIRCLE('',#1157,5.);
#454=CIRCLE('',#1158,5.);
#455=CIRCLE('',#1159,7.5);
#456=CIRCLE('',#1165,7.5);
#457=CIRCLE('',#1169,9.);
#458=CIRCLE('',#1172,9.);
#459=CIRCLE('',#1175,9.);
#460=CIRCLE('',#1178,9.);
#461=VERTEX_POINT('',#1480);
#462=VERTEX_POINT('',#1482);
#463=VERTEX_POINT('',#1486);
#464=VERTEX_POINT('',#1487);
#465=VERTEX_POINT('',#1489);
#466=VERTEX_POINT('',#1491);
#467=VERTEX_POINT('',#1494);
#468=VERTEX_POINT('',#1496);
#469=VERTEX_POINT('',#1501);
#470=VERTEX_POINT('',#1502);
#471=VERTEX_POINT('',#1539);
#472=VERTEX_POINT('',#1540);
#473=VERTEX_POINT('',#1578);
#474=VERTEX_POINT('',#1579);
#475=VERTEX_POINT('',#1581);
#476=VERTEX_POINT('',#1583);
#477=VERTEX_POINT('',#1588);
#478=VERTEX_POINT('',#1591);
#479=VERTEX_POINT('',#1593);
#480=VERTEX_POINT('',#1595);
#481=VERTEX_POINT('',#1597);
#482=VERTEX_POINT('',#1601);
#483=VERTEX_POINT('',#1603);
#484=VERTEX_POINT('',#1607);
#485=VERTEX_POINT('',#1610);
#486=VERTEX_POINT('',#1615);
#487=VERTEX_POINT('',#1624);
#488=VERTEX_POINT('',#1626);
#489=VERTEX_POINT('',#1630);
#490=VERTEX_POINT('',#1631);
#491=VERTEX_POINT('',#1633);
#492=VERTEX_POINT('',#1635);
#493=VERTEX_POINT('',#1642);
#494=VERTEX_POINT('',#1644);
#495=VERTEX_POINT('',#1648);
#496=VERTEX_POINT('',#1649);
#497=VERTEX_POINT('',#1654);
#498=VERTEX_POINT('',#1656);
#499=VERTEX_POINT('',#1662);
#500=VERTEX_POINT('',#1666);
#501=VERTEX_POINT('',#1669);
#502=VERTEX_POINT('',#1671);
#503=VERTEX_POINT('',#1673);
#504=VERTEX_POINT('',#1675);
#505=VERTEX_POINT('',#1682);
#506=VERTEX_POINT('',#1684);
#507=VERTEX_POINT('',#1688);
#508=VERTEX_POINT('',#1691);
#509=VERTEX_POINT('',#1693);
#510=VERTEX_POINT('',#1696);
#511=VERTEX_POINT('',#1697);
#512=VERTEX_POINT('',#1699);
#513=VERTEX_POINT('',#1701);
#514=VERTEX_POINT('',#1705);
#515=VERTEX_POINT('',#1706);
#516=VERTEX_POINT('',#1708);
#517=VERTEX_POINT('',#1710);
#518=VERTEX_POINT('',#1713);
#519=VERTEX_POINT('',#1715);
#520=VERTEX_POINT('',#1718);
#521=VERTEX_POINT('',#1722);
#522=VERTEX_POINT('',#1723);
#523=VERTEX_POINT('',#1725);
#524=VERTEX_POINT('',#1727);
#525=VERTEX_POINT('',#1730);
#526=VERTEX_POINT('',#1732);
#527=VERTEX_POINT('',#1737);
#528=VERTEX_POINT('',#1739);
#529=VERTEX_POINT('',#1743);
#530=VERTEX_POINT('',#1745);
#531=VERTEX_POINT('',#1753);
#532=VERTEX_POINT('',#1758);
#533=VERTEX_POINT('',#1763);
#534=VERTEX_POINT('',#1768);
#535=VERTEX_POINT('',#1770);
#536=VERTEX_POINT('',#1773);
#537=VERTEX_POINT('',#1776);
#538=VERTEX_POINT('',#1778);
#539=VERTEX_POINT('',#1780);
#540=VERTEX_POINT('',#1782);
#541=VERTEX_POINT('',#1784);
#542=VERTEX_POINT('',#1786);
#543=VERTEX_POINT('',#1789);
#544=VERTEX_POINT('',#1794);
#545=VERTEX_POINT('',#1796);
#546=VERTEX_POINT('',#1800);
#547=VERTEX_POINT('',#1804);
#548=VERTEX_POINT('',#1808);
#549=VERTEX_POINT('',#1813);
#550=VERTEX_POINT('',#1815);
#551=VERTEX_POINT('',#1819);
#552=VERTEX_POINT('',#1823);
#553=VERTEX_POINT('',#1829);
#554=VERTEX_POINT('',#1831);
#555=VERTEX_POINT('',#1835);
#556=VERTEX_POINT('',#1839);
#557=EDGE_CURVE('',#461,#461,#424,.T.);
#558=EDGE_CURVE('',#461,#462,#214,.T.);
#559=EDGE_CURVE('',#462,#462,#425,.T.);
#560=EDGE_CURVE('',#463,#464,#215,.T.);
#561=EDGE_CURVE('',#465,#463,#216,.T.);
#562=EDGE_CURVE('',#466,#465,#217,.T.);
#563=EDGE_CURVE('',#466,#464,#218,.T.);
#564=EDGE_CURVE('',#467,#467,#426,.T.);
#565=EDGE_CURVE('',#468,#468,#427,.T.);
#566=EDGE_CURVE('',#464,#463,#428,.T.);
#567=EDGE_CURVE('',#465,#466,#429,.T.);
#568=EDGE_CURVE('',#469,#470,#20,.T.);
#569=EDGE_CURVE('',#470,#469,#21,.T.);
#570=EDGE_CURVE('',#471,#472,#22,.T.);
#571=EDGE_CURVE('',#472,#471,#23,.T.);
#572=EDGE_CURVE('',#473,#474,#19,.T.);
#573=EDGE_CURVE('',#475,#473,#430,.T.);
#574=EDGE_CURVE('',#475,#476,#219,.T.);
#575=EDGE_CURVE('',#476,#476,#431,.T.);
#576=EDGE_CURVE('',#474,#475,#432,.T.);
#577=EDGE_CURVE('',#477,#477,#433,.T.);
#578=EDGE_CURVE('',#474,#478,#220,.T.);
#579=EDGE_CURVE('',#478,#479,#221,.T.);
#580=EDGE_CURVE('',#479,#480,#222,.T.);
#581=EDGE_CURVE('',#481,#480,#223,.T.);
#582=EDGE_CURVE('',#481,#473,#224,.T.);
#583=EDGE_CURVE('',#482,#482,#434,.T.);
#584=EDGE_CURVE('',#482,#483,#225,.T.);
#585=EDGE_CURVE('',#483,#483,#435,.T.);
#586=EDGE_CURVE('',#484,#484,#436,.T.);
#587=EDGE_CURVE('',#468,#485,#226,.T.);
#588=EDGE_CURVE('',#485,#485,#437,.T.);
#589=EDGE_CURVE('',#467,#486,#227,.T.);
#590=EDGE_CURVE('',#486,#486,#438,.T.);
#591=EDGE_CURVE('',#470,#477,#228,.T.);
#592=EDGE_CURVE('',#472,#484,#229,.T.);
#593=EDGE_CURVE('',#487,#481,#230,.T.);
#594=EDGE_CURVE('',#487,#488,#231,.T.);
#595=EDGE_CURVE('',#478,#488,#232,.T.);
#596=EDGE_CURVE('',#489,#490,#233,.T.);
#597=EDGE_CURVE('',#490,#491,#234,.T.);
#598=EDGE_CURVE('',#491,#492,#235,.T.);
#599=EDGE_CURVE('',#492,#489,#236,.T.);
#600=EDGE_CURVE('',#491,#481,#439,.T.);
#601=EDGE_CURVE('',#480,#492,#440,.T.);
#602=EDGE_CURVE('',#478,#493,#441,.T.);
#603=EDGE_CURVE('',#493,#494,#237,.T.);
#604=EDGE_CURVE('',#494,#479,#442,.T.);
#605=EDGE_CURVE('',#495,#496,#238,.T.);
#606=EDGE_CURVE('',#496,#494,#239,.T.);
#607=EDGE_CURVE('',#493,#495,#240,.T.);
#608=EDGE_CURVE('',#497,#493,#241,.T.);
#609=EDGE_CURVE('',#497,#498,#242,.T.);
#610=EDGE_CURVE('',#495,#498,#243,.T.);
#611=EDGE_CURVE('',#488,#497,#443,.T.);
#612=EDGE_CURVE('',#491,#499,#244,.T.);
#613=EDGE_CURVE('',#499,#487,#444,.T.);
#614=EDGE_CURVE('',#498,#500,#245,.T.);
#615=EDGE_CURVE('',#500,#490,#246,.T.);
#616=EDGE_CURVE('',#489,#501,#247,.T.);
#617=EDGE_CURVE('',#502,#501,#248,.T.);
#618=EDGE_CURVE('',#502,#503,#249,.T.);
#619=EDGE_CURVE('',#504,#503,#250,.T.);
#620=EDGE_CURVE('',#504,#496,#251,.T.);
#621=EDGE_CURVE('',#500,#499,#252,.T.);
#622=EDGE_CURVE('',#503,#505,#253,.T.);
#623=EDGE_CURVE('',#506,#502,#254,.T.);
#624=EDGE_CURVE('',#505,#506,#255,.T.);
#625=EDGE_CURVE('',#507,#505,#256,.T.);
#626=EDGE_CURVE('',#504,#507,#257,.T.);
#627=EDGE_CURVE('',#508,#508,#445,.T.);
#628=EDGE_CURVE('',#509,#509,#446,.T.);
#629=EDGE_CURVE('',#510,#511,#258,.T.);
#630=EDGE_CURVE('',#512,#511,#259,.T.);
#631=EDGE_CURVE('',#512,#513,#260,.T.);
#632=EDGE_CURVE('',#510,#513,#261,.T.);
#633=EDGE_CURVE('',#514,#515,#262,.T.);
#634=EDGE_CURVE('',#516,#515,#263,.T.);
#635=EDGE_CURVE('',#517,#516,#264,.T.);
#636=EDGE_CURVE('',#517,#514,#265,.T.);
#637=EDGE_CURVE('',#518,#518,#447,.T.);
#638=EDGE_CURVE('',#519,#519,#448,.T.);
#639=EDGE_CURVE('',#520,#520,#449,.T.);
#640=EDGE_CURVE('',#520,#519,#266,.T.);
#641=EDGE_CURVE('',#521,#522,#267,.T.);
#642=EDGE_CURVE('',#523,#521,#268,.T.);
#643=EDGE_CURVE('',#524,#523,#269,.T.);
#644=EDGE_CURVE('',#524,#514,#270,.T.);
#645=EDGE_CURVE('',#525,#517,#271,.T.);
#646=EDGE_CURVE('',#526,#525,#272,.T.);
#647=EDGE_CURVE('',#513,#526,#273,.T.);
#648=EDGE_CURVE('',#522,#512,#274,.T.);
#649=EDGE_CURVE('',#525,#527,#275,.T.);
#650=EDGE_CURVE('',#527,#528,#276,.T.);
#651=EDGE_CURVE('',#528,#526,#277,.T.);
#652=EDGE_CURVE('',#522,#529,#278,.T.);
#653=EDGE_CURVE('',#529,#530,#279,.T.);
#654=EDGE_CURVE('',#530,#521,#280,.T.);
#655=EDGE_CURVE('',#511,#529,#281,.T.);
#656=EDGE_CURVE('',#528,#510,#282,.T.);
#657=EDGE_CURVE('',#507,#527,#283,.T.);
#658=EDGE_CURVE('',#506,#531,#284,.T.);
#659=EDGE_CURVE('',#530,#531,#285,.T.);
#660=EDGE_CURVE('',#532,#532,#450,.T.);
#661=EDGE_CURVE('',#532,#509,#286,.T.);
#662=EDGE_CURVE('',#531,#501,#287,.T.);
#663=EDGE_CURVE('',#533,#533,#451,.T.);
#664=EDGE_CURVE('',#533,#508,#288,.T.);
#665=EDGE_CURVE('',#534,#524,#289,.T.);
#666=EDGE_CURVE('',#535,#523,#290,.T.);
#667=EDGE_CURVE('',#534,#535,#291,.T.);
#668=EDGE_CURVE('',#536,#536,#452,.T.);
#669=EDGE_CURVE('',#516,#537,#292,.T.);
#670=EDGE_CURVE('',#538,#537,#293,.T.);
#671=EDGE_CURVE('',#539,#538,#453,.T.);
#672=EDGE_CURVE('',#540,#539,#294,.T.);
#673=EDGE_CURVE('',#541,#540,#454,.T.);
#674=EDGE_CURVE('',#542,#541,#295,.T.);
#675=EDGE_CURVE('',#542,#535,#296,.T.);
#676=EDGE_CURVE('',#543,#543,#455,.T.);
#677=EDGE_CURVE('',#536,#518,#297,.T.);
#678=EDGE_CURVE('',#537,#544,#298,.T.);
#679=EDGE_CURVE('',#515,#545,#299,.T.);
#680=EDGE_CURVE('',#544,#545,#300,.T.);
#681=EDGE_CURVE('',#544,#546,#301,.T.);
#682=EDGE_CURVE('',#538,#546,#302,.T.);
#683=EDGE_CURVE('',#545,#547,#303,.T.);
#684=EDGE_CURVE('',#546,#547,#304,.T.);
#685=EDGE_CURVE('',#548,#548,#456,.T.);
#686=EDGE_CURVE('',#548,#543,#305,.T.);
#687=EDGE_CURVE('',#549,#542,#306,.T.);
#688=EDGE_CURVE('',#541,#550,#307,.T.);
#689=EDGE_CURVE('',#550,#549,#308,.T.);
#690=EDGE_CURVE('',#540,#551,#309,.T.);
#691=EDGE_CURVE('',#551,#550,#457,.T.);
#692=EDGE_CURVE('',#539,#552,#310,.T.);
#693=EDGE_CURVE('',#552,#551,#311,.T.);
#694=EDGE_CURVE('',#546,#552,#458,.T.);
#695=EDGE_CURVE('',#553,#550,#312,.T.);
#696=EDGE_CURVE('',#553,#554,#313,.T.);
#697=EDGE_CURVE('',#554,#549,#314,.T.);
#698=EDGE_CURVE('',#551,#555,#315,.T.);
#699=EDGE_CURVE('',#555,#553,#459,.T.);
#700=EDGE_CURVE('',#556,#552,#316,.T.);
#701=EDGE_CURVE('',#556,#555,#317,.T.);
#702=EDGE_CURVE('',#547,#556,#460,.T.);
#703=EDGE_CURVE('',#554,#534,#318,.T.);
#704=ORIENTED_EDGE('',*,*,#557,.F.);
#705=ORIENTED_EDGE('',*,*,#558,.T.);
#706=ORIENTED_EDGE('',*,*,#559,.T.);
#707=ORIENTED_EDGE('',*,*,#558,.F.);
#708=ORIENTED_EDGE('',*,*,#560,.F.);
#709=ORIENTED_EDGE('',*,*,#561,.F.);
#710=ORIENTED_EDGE('',*,*,#562,.F.);
#711=ORIENTED_EDGE('',*,*,#563,.T.);
#712=ORIENTED_EDGE('',*,*,#564,.F.);
#713=ORIENTED_EDGE('',*,*,#565,.F.);
#714=ORIENTED_EDGE('',*,*,#566,.F.);
#715=ORIENTED_EDGE('',*,*,#563,.F.);
#716=ORIENTED_EDGE('',*,*,#567,.F.);
#717=ORIENTED_EDGE('',*,*,#561,.T.);
#718=ORIENTED_EDGE('',*,*,#568,.F.);
#719=ORIENTED_EDGE('',*,*,#569,.F.);
#720=ORIENTED_EDGE('',*,*,#570,.F.);
#721=ORIENTED_EDGE('',*,*,#571,.F.);
#722=ORIENTED_EDGE('',*,*,#572,.F.);
#723=ORIENTED_EDGE('',*,*,#573,.F.);
#724=ORIENTED_EDGE('',*,*,#574,.T.);
#725=ORIENTED_EDGE('',*,*,#575,.T.);
#726=ORIENTED_EDGE('',*,*,#574,.F.);
#727=ORIENTED_EDGE('',*,*,#576,.F.);
#728=ORIENTED_EDGE('',*,*,#575,.F.);
#729=ORIENTED_EDGE('',*,*,#577,.F.);
#730=ORIENTED_EDGE('',*,*,#572,.T.);
#731=ORIENTED_EDGE('',*,*,#578,.T.);
#732=ORIENTED_EDGE('',*,*,#579,.T.);
#733=ORIENTED_EDGE('',*,*,#580,.T.);
#734=ORIENTED_EDGE('',*,*,#581,.F.);
#735=ORIENTED_EDGE('',*,*,#582,.T.);
#736=ORIENTED_EDGE('',*,*,#583,.F.);
#737=ORIENTED_EDGE('',*,*,#584,.T.);
#738=ORIENTED_EDGE('',*,*,#585,.T.);
#739=ORIENTED_EDGE('',*,*,#584,.F.);
#740=ORIENTED_EDGE('',*,*,#585,.F.);
#741=ORIENTED_EDGE('',*,*,#586,.F.);
#742=ORIENTED_EDGE('',*,*,#565,.T.);
#743=ORIENTED_EDGE('',*,*,#587,.T.);
#744=ORIENTED_EDGE('',*,*,#588,.T.);
#745=ORIENTED_EDGE('',*,*,#587,.F.);
#746=ORIENTED_EDGE('',*,*,#588,.F.);
#747=ORIENTED_EDGE('',*,*,#564,.T.);
#748=ORIENTED_EDGE('',*,*,#589,.T.);
#749=ORIENTED_EDGE('',*,*,#590,.T.);
#750=ORIENTED_EDGE('',*,*,#589,.F.);
#751=ORIENTED_EDGE('',*,*,#590,.F.);
#752=ORIENTED_EDGE('',*,*,#568,.T.);
#753=ORIENTED_EDGE('',*,*,#591,.T.);
#754=ORIENTED_EDGE('',*,*,#577,.T.);
#755=ORIENTED_EDGE('',*,*,#591,.F.);
#756=ORIENTED_EDGE('',*,*,#569,.T.);
#757=ORIENTED_EDGE('',*,*,#570,.T.);
#758=ORIENTED_EDGE('',*,*,#592,.T.);
#759=ORIENTED_EDGE('',*,*,#586,.T.);
#760=ORIENTED_EDGE('',*,*,#592,.F.);
#761=ORIENTED_EDGE('',*,*,#571,.T.);
#762=ORIENTED_EDGE('',*,*,#576,.T.);
#763=ORIENTED_EDGE('',*,*,#573,.T.);
#764=ORIENTED_EDGE('',*,*,#582,.F.);
#765=ORIENTED_EDGE('',*,*,#593,.F.);
#766=ORIENTED_EDGE('',*,*,#594,.T.);
#767=ORIENTED_EDGE('',*,*,#595,.F.);
#768=ORIENTED_EDGE('',*,*,#578,.F.);
#769=ORIENTED_EDGE('',*,*,#583,.T.);
#770=ORIENTED_EDGE('',*,*,#596,.T.);
#771=ORIENTED_EDGE('',*,*,#597,.T.);
#772=ORIENTED_EDGE('',*,*,#598,.T.);
#773=ORIENTED_EDGE('',*,*,#599,.T.);
#774=ORIENTED_EDGE('',*,*,#598,.F.);
#775=ORIENTED_EDGE('',*,*,#600,.T.);
#776=ORIENTED_EDGE('',*,*,#581,.T.);
#777=ORIENTED_EDGE('',*,*,#601,.T.);
#778=ORIENTED_EDGE('',*,*,#579,.F.);
#779=ORIENTED_EDGE('',*,*,#602,.T.);
#780=ORIENTED_EDGE('',*,*,#603,.T.);
#781=ORIENTED_EDGE('',*,*,#604,.T.);
#782=ORIENTED_EDGE('',*,*,#605,.T.);
#783=ORIENTED_EDGE('',*,*,#606,.T.);
#784=ORIENTED_EDGE('',*,*,#603,.F.);
#785=ORIENTED_EDGE('',*,*,#607,.T.);
#786=ORIENTED_EDGE('',*,*,#607,.F.);
#787=ORIENTED_EDGE('',*,*,#608,.F.);
#788=ORIENTED_EDGE('',*,*,#609,.T.);
#789=ORIENTED_EDGE('',*,*,#610,.F.);
#790=ORIENTED_EDGE('',*,*,#602,.F.);
#791=ORIENTED_EDGE('',*,*,#595,.T.);
#792=ORIENTED_EDGE('',*,*,#611,.T.);
#793=ORIENTED_EDGE('',*,*,#608,.T.);
#794=ORIENTED_EDGE('',*,*,#600,.F.);
#795=ORIENTED_EDGE('',*,*,#612,.T.);
#796=ORIENTED_EDGE('',*,*,#613,.T.);
#797=ORIENTED_EDGE('',*,*,#593,.T.);
#798=ORIENTED_EDGE('',*,*,#605,.F.);
#799=ORIENTED_EDGE('',*,*,#610,.T.);
#800=ORIENTED_EDGE('',*,*,#614,.T.);
#801=ORIENTED_EDGE('',*,*,#615,.T.);
#802=ORIENTED_EDGE('',*,*,#596,.F.);
#803=ORIENTED_EDGE('',*,*,#616,.T.);
#804=ORIENTED_EDGE('',*,*,#617,.F.);
#805=ORIENTED_EDGE('',*,*,#618,.T.);
#806=ORIENTED_EDGE('',*,*,#619,.F.);
#807=ORIENTED_EDGE('',*,*,#620,.T.);
#808=ORIENTED_EDGE('',*,*,#597,.F.);
#809=ORIENTED_EDGE('',*,*,#615,.F.);
#810=ORIENTED_EDGE('',*,*,#621,.T.);
#811=ORIENTED_EDGE('',*,*,#612,.F.);
#812=ORIENTED_EDGE('',*,*,#611,.F.);
#813=ORIENTED_EDGE('',*,*,#594,.F.);
#814=ORIENTED_EDGE('',*,*,#613,.F.);
#815=ORIENTED_EDGE('',*,*,#621,.F.);
#816=ORIENTED_EDGE('',*,*,#614,.F.);
#817=ORIENTED_EDGE('',*,*,#609,.F.);
#818=ORIENTED_EDGE('',*,*,#567,.T.);
#819=ORIENTED_EDGE('',*,*,#562,.T.);
#820=ORIENTED_EDGE('',*,*,#622,.F.);
#821=ORIENTED_EDGE('',*,*,#618,.F.);
#822=ORIENTED_EDGE('',*,*,#623,.F.);
#823=ORIENTED_EDGE('',*,*,#624,.F.);
#824=ORIENTED_EDGE('',*,*,#622,.T.);
#825=ORIENTED_EDGE('',*,*,#625,.F.);
#826=ORIENTED_EDGE('',*,*,#626,.F.);
#827=ORIENTED_EDGE('',*,*,#619,.T.);
#828=ORIENTED_EDGE('',*,*,#627,.T.);
#829=ORIENTED_EDGE('',*,*,#628,.T.);
#830=ORIENTED_EDGE('',*,*,#629,.T.);
#831=ORIENTED_EDGE('',*,*,#630,.F.);
#832=ORIENTED_EDGE('',*,*,#631,.T.);
#833=ORIENTED_EDGE('',*,*,#632,.F.);
#834=ORIENTED_EDGE('',*,*,#633,.T.);
#835=ORIENTED_EDGE('',*,*,#634,.F.);
#836=ORIENTED_EDGE('',*,*,#635,.F.);
#837=ORIENTED_EDGE('',*,*,#636,.T.);
#838=ORIENTED_EDGE('',*,*,#637,.T.);
#839=ORIENTED_EDGE('',*,*,#638,.T.);
#840=ORIENTED_EDGE('',*,*,#639,.F.);
#841=ORIENTED_EDGE('',*,*,#640,.T.);
#842=ORIENTED_EDGE('',*,*,#638,.F.);
#843=ORIENTED_EDGE('',*,*,#640,.F.);
#844=ORIENTED_EDGE('',*,*,#641,.F.);
#845=ORIENTED_EDGE('',*,*,#642,.F.);
#846=ORIENTED_EDGE('',*,*,#643,.F.);
#847=ORIENTED_EDGE('',*,*,#644,.T.);
#848=ORIENTED_EDGE('',*,*,#636,.F.);
#849=ORIENTED_EDGE('',*,*,#645,.F.);
#850=ORIENTED_EDGE('',*,*,#646,.F.);
#851=ORIENTED_EDGE('',*,*,#647,.F.);
#852=ORIENTED_EDGE('',*,*,#631,.F.);
#853=ORIENTED_EDGE('',*,*,#648,.F.);
#854=ORIENTED_EDGE('',*,*,#649,.T.);
#855=ORIENTED_EDGE('',*,*,#650,.T.);
#856=ORIENTED_EDGE('',*,*,#651,.T.);
#857=ORIENTED_EDGE('',*,*,#646,.T.);
#858=ORIENTED_EDGE('',*,*,#652,.T.);
#859=ORIENTED_EDGE('',*,*,#653,.T.);
#860=ORIENTED_EDGE('',*,*,#654,.T.);
#861=ORIENTED_EDGE('',*,*,#641,.T.);
#862=ORIENTED_EDGE('',*,*,#630,.T.);
#863=ORIENTED_EDGE('',*,*,#655,.T.);
#864=ORIENTED_EDGE('',*,*,#652,.F.);
#865=ORIENTED_EDGE('',*,*,#648,.T.);
#866=ORIENTED_EDGE('',*,*,#653,.F.);
#867=ORIENTED_EDGE('',*,*,#655,.F.);
#868=ORIENTED_EDGE('',*,*,#629,.F.);
#869=ORIENTED_EDGE('',*,*,#656,.F.);
#870=ORIENTED_EDGE('',*,*,#650,.F.);
#871=ORIENTED_EDGE('',*,*,#657,.F.);
#872=ORIENTED_EDGE('',*,*,#625,.T.);
#873=ORIENTED_EDGE('',*,*,#624,.T.);
#874=ORIENTED_EDGE('',*,*,#658,.T.);
#875=ORIENTED_EDGE('',*,*,#659,.F.);
#876=ORIENTED_EDGE('',*,*,#651,.F.);
#877=ORIENTED_EDGE('',*,*,#656,.T.);
#878=ORIENTED_EDGE('',*,*,#632,.T.);
#879=ORIENTED_EDGE('',*,*,#647,.T.);
#880=ORIENTED_EDGE('',*,*,#660,.F.);
#881=ORIENTED_EDGE('',*,*,#661,.T.);
#882=ORIENTED_EDGE('',*,*,#628,.F.);
#883=ORIENTED_EDGE('',*,*,#661,.F.);
#884=ORIENTED_EDGE('',*,*,#623,.T.);
#885=ORIENTED_EDGE('',*,*,#617,.T.);
#886=ORIENTED_EDGE('',*,*,#662,.F.);
#887=ORIENTED_EDGE('',*,*,#658,.F.);
#888=ORIENTED_EDGE('',*,*,#660,.T.);
#889=ORIENTED_EDGE('',*,*,#663,.T.);
#890=ORIENTED_EDGE('',*,*,#663,.F.);
#891=ORIENTED_EDGE('',*,*,#664,.T.);
#892=ORIENTED_EDGE('',*,*,#627,.F.);
#893=ORIENTED_EDGE('',*,*,#664,.F.);
#894=ORIENTED_EDGE('',*,*,#665,.T.);
#895=ORIENTED_EDGE('',*,*,#643,.T.);
#896=ORIENTED_EDGE('',*,*,#666,.F.);
#897=ORIENTED_EDGE('',*,*,#667,.F.);
#898=ORIENTED_EDGE('',*,*,#639,.T.);
#899=ORIENTED_EDGE('',*,*,#668,.T.);
#900=ORIENTED_EDGE('',*,*,#606,.F.);
#901=ORIENTED_EDGE('',*,*,#620,.F.);
#902=ORIENTED_EDGE('',*,*,#626,.T.);
#903=ORIENTED_EDGE('',*,*,#657,.T.);
#904=ORIENTED_EDGE('',*,*,#649,.F.);
#905=ORIENTED_EDGE('',*,*,#645,.T.);
#906=ORIENTED_EDGE('',*,*,#635,.T.);
#907=ORIENTED_EDGE('',*,*,#669,.T.);
#908=ORIENTED_EDGE('',*,*,#670,.F.);
#909=ORIENTED_EDGE('',*,*,#671,.F.);
#910=ORIENTED_EDGE('',*,*,#672,.F.);
#911=ORIENTED_EDGE('',*,*,#673,.F.);
#912=ORIENTED_EDGE('',*,*,#674,.F.);
#913=ORIENTED_EDGE('',*,*,#675,.T.);
#914=ORIENTED_EDGE('',*,*,#666,.T.);
#915=ORIENTED_EDGE('',*,*,#642,.T.);
#916=ORIENTED_EDGE('',*,*,#654,.F.);
#917=ORIENTED_EDGE('',*,*,#659,.T.);
#918=ORIENTED_EDGE('',*,*,#662,.T.);
#919=ORIENTED_EDGE('',*,*,#616,.F.);
#920=ORIENTED_EDGE('',*,*,#599,.F.);
#921=ORIENTED_EDGE('',*,*,#601,.F.);
#922=ORIENTED_EDGE('',*,*,#580,.F.);
#923=ORIENTED_EDGE('',*,*,#604,.F.);
#924=ORIENTED_EDGE('',*,*,#566,.T.);
#925=ORIENTED_EDGE('',*,*,#560,.T.);
#926=ORIENTED_EDGE('',*,*,#676,.T.);
#927=ORIENTED_EDGE('',*,*,#668,.F.);
#928=ORIENTED_EDGE('',*,*,#677,.T.);
#929=ORIENTED_EDGE('',*,*,#637,.F.);
#930=ORIENTED_EDGE('',*,*,#677,.F.);
#931=ORIENTED_EDGE('',*,*,#678,.F.);
#932=ORIENTED_EDGE('',*,*,#669,.F.);
#933=ORIENTED_EDGE('',*,*,#634,.T.);
#934=ORIENTED_EDGE('',*,*,#679,.T.);
#935=ORIENTED_EDGE('',*,*,#680,.F.);
#936=ORIENTED_EDGE('',*,*,#678,.T.);
#937=ORIENTED_EDGE('',*,*,#681,.T.);
#938=ORIENTED_EDGE('',*,*,#682,.F.);
#939=ORIENTED_EDGE('',*,*,#670,.T.);
#940=ORIENTED_EDGE('',*,*,#680,.T.);
#941=ORIENTED_EDGE('',*,*,#683,.T.);
#942=ORIENTED_EDGE('',*,*,#684,.F.);
#943=ORIENTED_EDGE('',*,*,#681,.F.);
#944=ORIENTED_EDGE('',*,*,#685,.F.);
#945=ORIENTED_EDGE('',*,*,#686,.T.);
#946=ORIENTED_EDGE('',*,*,#676,.F.);
#947=ORIENTED_EDGE('',*,*,#686,.F.);
#948=ORIENTED_EDGE('',*,*,#559,.F.);
#949=ORIENTED_EDGE('',*,*,#685,.T.);
#950=ORIENTED_EDGE('',*,*,#687,.T.);
#951=ORIENTED_EDGE('',*,*,#674,.T.);
#952=ORIENTED_EDGE('',*,*,#688,.T.);
#953=ORIENTED_EDGE('',*,*,#689,.T.);
#954=ORIENTED_EDGE('',*,*,#690,.T.);
#955=ORIENTED_EDGE('',*,*,#691,.T.);
#956=ORIENTED_EDGE('',*,*,#688,.F.);
#957=ORIENTED_EDGE('',*,*,#673,.T.);
#958=ORIENTED_EDGE('',*,*,#692,.T.);
#959=ORIENTED_EDGE('',*,*,#693,.T.);
#960=ORIENTED_EDGE('',*,*,#690,.F.);
#961=ORIENTED_EDGE('',*,*,#672,.T.);
#962=ORIENTED_EDGE('',*,*,#682,.T.);
#963=ORIENTED_EDGE('',*,*,#694,.T.);
#964=ORIENTED_EDGE('',*,*,#692,.F.);
#965=ORIENTED_EDGE('',*,*,#671,.T.);
#966=ORIENTED_EDGE('',*,*,#689,.F.);
#967=ORIENTED_EDGE('',*,*,#695,.F.);
#968=ORIENTED_EDGE('',*,*,#696,.T.);
#969=ORIENTED_EDGE('',*,*,#697,.T.);
#970=ORIENTED_EDGE('',*,*,#691,.F.);
#971=ORIENTED_EDGE('',*,*,#698,.T.);
#972=ORIENTED_EDGE('',*,*,#699,.T.);
#973=ORIENTED_EDGE('',*,*,#695,.T.);
#974=ORIENTED_EDGE('',*,*,#693,.F.);
#975=ORIENTED_EDGE('',*,*,#700,.F.);
#976=ORIENTED_EDGE('',*,*,#701,.T.);
#977=ORIENTED_EDGE('',*,*,#698,.F.);
#978=ORIENTED_EDGE('',*,*,#694,.F.);
#979=ORIENTED_EDGE('',*,*,#684,.T.);
#980=ORIENTED_EDGE('',*,*,#702,.T.);
#981=ORIENTED_EDGE('',*,*,#700,.T.);
#982=ORIENTED_EDGE('',*,*,#687,.F.);
#983=ORIENTED_EDGE('',*,*,#697,.F.);
#984=ORIENTED_EDGE('',*,*,#703,.T.);
#985=ORIENTED_EDGE('',*,*,#667,.T.);
#986=ORIENTED_EDGE('',*,*,#675,.F.);
#987=ORIENTED_EDGE('',*,*,#702,.F.);
#988=ORIENTED_EDGE('',*,*,#683,.F.);
#989=ORIENTED_EDGE('',*,*,#679,.F.);
#990=ORIENTED_EDGE('',*,*,#633,.F.);
#991=ORIENTED_EDGE('',*,*,#644,.F.);
#992=ORIENTED_EDGE('',*,*,#665,.F.);
#993=ORIENTED_EDGE('',*,*,#703,.F.);
#994=ORIENTED_EDGE('',*,*,#696,.F.);
#995=ORIENTED_EDGE('',*,*,#699,.F.);
#996=ORIENTED_EDGE('',*,*,#701,.F.);
#997=ORIENTED_EDGE('',*,*,#557,.T.);
#998=CYLINDRICAL_SURFACE('',#1086,13.1);
#999=CYLINDRICAL_SURFACE('',#1092,10.1);
#1000=CYLINDRICAL_SURFACE('',#1095,3.);
#1001=CYLINDRICAL_SURFACE('',#1103,3.);
#1002=CYLINDRICAL_SURFACE('',#1108,1.6);
#1003=CYLINDRICAL_SURFACE('',#1111,1.6);
#1004=CYLINDRICAL_SURFACE('',#1114,1.6);
#1005=CYLINDRICAL_SURFACE('',#1115,1.6);
#1006=CYLINDRICAL_SURFACE('',#1126,10.);
#1007=CYLINDRICAL_SURFACE('',#1128,10.);
#1008=CYLINDRICAL_SURFACE('',#1141,1.6);
#1009=CYLINDRICAL_SURFACE('',#1149,1.6);
#1010=CYLINDRICAL_SURFACE('',#1153,1.6);
#1011=CYLINDRICAL_SURFACE('',#1160,1.6);
#1012=CYLINDRICAL_SURFACE('',#1164,7.5);
#1013=CYLINDRICAL_SURFACE('',#1174,9.);
#1014=CYLINDRICAL_SURFACE('',#1177,9.);
#1015=ADVANCED_FACE('',(#80),#998,.F.);
#1016=ADVANCED_FACE('',(#81,#24,#25),#44,.F.);
#1017=ADVANCED_FACE('',(#82,#26,#27),#999,.F.);
#1018=ADVANCED_FACE('',(#83),#1000,.F.);
#1019=ADVANCED_FACE('',(#84,#28),#45,.T.);
#1020=ADVANCED_FACE('',(#85),#46,.T.);
#1021=ADVANCED_FACE('',(#86),#1001,.F.);
#1022=ADVANCED_FACE('',(#87,#29),#47,.T.);
#1023=ADVANCED_FACE('',(#88),#1002,.F.);
#1024=ADVANCED_FACE('',(#89),#48,.T.);
#1025=ADVANCED_FACE('',(#90),#1003,.F.);
#1026=ADVANCED_FACE('',(#91),#49,.T.);
#1027=ADVANCED_FACE('',(#92),#1004,.F.);
#1028=ADVANCED_FACE('',(#93),#1005,.F.);
#1029=ADVANCED_FACE('',(#94,#30),#50,.T.);
#1030=ADVANCED_FACE('',(#95),#51,.T.);
#1031=ADVANCED_FACE('',(#96),#15,.T.);
#1032=ADVANCED_FACE('',(#97),#16,.T.);
#1033=ADVANCED_FACE('',(#98),#52,.T.);
#1034=ADVANCED_FACE('',(#99),#53,.T.);
#1035=ADVANCED_FACE('',(#100),#1006,.T.);
#1036=ADVANCED_FACE('',(#101),#1007,.T.);
#1037=ADVANCED_FACE('',(#102),#54,.T.);
#1038=ADVANCED_FACE('',(#103),#55,.T.);
#1039=ADVANCED_FACE('',(#104,#31),#56,.T.);
#1040=ADVANCED_FACE('',(#105),#57,.F.);
#1041=ADVANCED_FACE('',(#106,#32,#33),#58,.F.);
#1042=ADVANCED_FACE('',(#107),#59,.T.);
#1043=ADVANCED_FACE('',(#108,#34,#35),#60,.F.);
#1044=ADVANCED_FACE('',(#109),#1008,.F.);
#1045=ADVANCED_FACE('',(#110),#61,.F.);
#1046=ADVANCED_FACE('',(#111),#62,.T.);
#1047=ADVANCED_FACE('',(#112),#63,.T.);
#1048=ADVANCED_FACE('',(#113),#64,.T.);
#1049=ADVANCED_FACE('',(#114),#65,.F.);
#1050=ADVANCED_FACE('',(#115),#66,.T.);
#1051=ADVANCED_FACE('',(#116),#1009,.F.);
#1052=ADVANCED_FACE('',(#117,#36,#37),#67,.F.);
#1053=ADVANCED_FACE('',(#118),#1010,.F.);
#1054=ADVANCED_FACE('',(#119,#38,#39),#68,.F.);
#1055=ADVANCED_FACE('',(#120,#40,#41),#69,.F.);
#1056=ADVANCED_FACE('',(#121),#1011,.F.);
#1057=ADVANCED_FACE('',(#122),#70,.F.);
#1058=ADVANCED_FACE('',(#123),#71,.T.);
#1059=ADVANCED_FACE('',(#124),#72,.T.);
#1060=ADVANCED_FACE('',(#125),#1012,.F.);
#1061=ADVANCED_FACE('',(#126,#42),#73,.F.);
#1062=ADVANCED_FACE('',(#127),#74,.T.);
#1063=ADVANCED_FACE('',(#128),#17,.T.);
#1064=ADVANCED_FACE('',(#129),#75,.T.);
#1065=ADVANCED_FACE('',(#130),#18,.T.);
#1066=ADVANCED_FACE('',(#131),#76,.T.);
#1067=ADVANCED_FACE('',(#132),#1013,.T.);
#1068=ADVANCED_FACE('',(#133),#77,.T.);
#1069=ADVANCED_FACE('',(#134),#1014,.T.);
#1070=ADVANCED_FACE('',(#135),#78,.F.);
#1071=ADVANCED_FACE('',(#136,#43),#79,.F.);
#1072=CLOSED_SHELL('',(#1015,#1016,#1017,#1018,#1019,#1020,#1021,#1022,
#1023,#1024,#1025,#1026,#1027,#1028,#1029,#1030,#1031,#1032,#1033,#1034,
#1035,#1036,#1037,#1038,#1039,#1040,#1041,#1042,#1043,#1044,#1045,#1046,
#1047,#1048,#1049,#1050,#1051,#1052,#1053,#1054,#1055,#1056,#1057,#1058,
#1059,#1060,#1061,#1062,#1063,#1064,#1065,#1066,#1067,#1068,#1069,#1070,
#1071));
#1073=DERIVED_UNIT_ELEMENT(#1075,1.);
#1074=DERIVED_UNIT_ELEMENT(#1852,-3.);
#1075=(
MASS_UNIT()
NAMED_UNIT(*)
SI_UNIT(.KILO.,.GRAM.)
);
#1076=DERIVED_UNIT((#1073,#1074));
#1077=MEASURE_REPRESENTATION_ITEM('density measure',
POSITIVE_RATIO_MEASURE(7850.),#1076);
#1078=PROPERTY_DEFINITION_REPRESENTATION(#1083,#1080);
#1079=PROPERTY_DEFINITION_REPRESENTATION(#1084,#1081);
#1080=REPRESENTATION('material name',(#1082),#1849);
#1081=REPRESENTATION('density',(#1077),#1849);
#1082=DESCRIPTIVE_REPRESENTATION_ITEM('Steel','Steel');
#1083=PROPERTY_DEFINITION('material property','material name',#1859);
#1084=PROPERTY_DEFINITION('material property','density of part',#1859);
#1085=AXIS2_PLACEMENT_3D('',#1478,#1181,#1182);
#1086=AXIS2_PLACEMENT_3D('',#1479,#1183,#1184);
#1087=AXIS2_PLACEMENT_3D('',#1481,#1185,#1186);
#1088=AXIS2_PLACEMENT_3D('',#1484,#1188,#1189);
#1089=AXIS2_PLACEMENT_3D('',#1485,#1190,#1191);
#1090=AXIS2_PLACEMENT_3D('',#1495,#1196,#1197);
#1091=AXIS2_PLACEMENT_3D('',#1497,#1198,#1199);
#1092=AXIS2_PLACEMENT_3D('',#1498,#1200,#1201);
#1093=AXIS2_PLACEMENT_3D('',#1499,#1202,#1203);
#1094=AXIS2_PLACEMENT_3D('',#1500,#1204,#1205);
#1095=AXIS2_PLACEMENT_3D('',#1577,#1206,#1207);
#1096=AXIS2_PLACEMENT_3D('',#1580,#1208,#1209);
#1097=AXIS2_PLACEMENT_3D('',#1582,#1210,#1211);
#1098=AXIS2_PLACEMENT_3D('',#1585,#1213,#1214);
#1099=AXIS2_PLACEMENT_3D('',#1586,#1215,#1216);
#1100=AXIS2_PLACEMENT_3D('',#1587,#1217,#1218);
#1101=AXIS2_PLACEMENT_3D('',#1589,#1219,#1220);
#1102=AXIS2_PLACEMENT_3D('',#1590,#1221,#1222);
#1103=AXIS2_PLACEMENT_3D('',#1600,#1228,#1229);
#1104=AXIS2_PLACEMENT_3D('',#1602,#1230,#1231);
#1105=AXIS2_PLACEMENT_3D('',#1605,#1233,#1234);
#1106=AXIS2_PLACEMENT_3D('',#1606,#1235,#1236);
#1107=AXIS2_PLACEMENT_3D('',#1608,#1237,#1238);
#1108=AXIS2_PLACEMENT_3D('',#1609,#1239,#1240);
#1109=AXIS2_PLACEMENT_3D('',#1612,#1242,#1243);
#1110=AXIS2_PLACEMENT_3D('',#1613,#1244,#1245);
#1111=AXIS2_PLACEMENT_3D('',#1614,#1246,#1247);
#1112=AXIS2_PLACEMENT_3D('',#1617,#1249,#1250);
#1113=AXIS2_PLACEMENT_3D('',#1618,#1251,#1252);
#1114=AXIS2_PLACEMENT_3D('',#1619,#1253,#1254);
#1115=AXIS2_PLACEMENT_3D('',#1621,#1256,#1257);
#1116=AXIS2_PLACEMENT_3D('',#1623,#1259,#1260);
#1117=AXIS2_PLACEMENT_3D('',#1629,#1264,#1265);
#1118=AXIS2_PLACEMENT_3D('',#1638,#1270,#1271);
#1119=AXIS2_PLACEMENT_3D('',#1639,#1272,#1273);
#1120=AXIS2_PLACEMENT_3D('',#1640,#1274,#1275);
#1121=AXIS2_PLACEMENT_3D('',#1641,#1276,#1277);
#1122=AXIS2_PLACEMENT_3D('',#1643,#1278,#1279);
#1123=AXIS2_PLACEMENT_3D('',#1646,#1281,#1282);
#1124=AXIS2_PLACEMENT_3D('',#1647,#1283,#1284);
#1125=AXIS2_PLACEMENT_3D('',#1653,#1288,#1289);
#1126=AXIS2_PLACEMENT_3D('',#1659,#1293,#1294);
#1127=AXIS2_PLACEMENT_3D('',#1660,#1295,#1296);
#1128=AXIS2_PLACEMENT_3D('',#1661,#1297,#1298);
#1129=AXIS2_PLACEMENT_3D('',#1664,#1300,#1301);
#1130=AXIS2_PLACEMENT_3D('',#1665,#1302,#1303);
#1131=AXIS2_PLACEMENT_3D('',#1678,#1311,#1312);
#1132=AXIS2_PLACEMENT_3D('',#1680,#1314,#1315);
#1133=AXIS2_PLACEMENT_3D('',#1681,#1316,#1317);
#1134=AXIS2_PLACEMENT_3D('',#1687,#1321,#1322);
#1135=AXIS2_PLACEMENT_3D('',#1692,#1325,#1326);
#1136=AXIS2_PLACEMENT_3D('',#1694,#1327,#1328);
#1137=AXIS2_PLACEMENT_3D('',#1695,#1329,#1330);
#1138=AXIS2_PLACEMENT_3D('',#1704,#1335,#1336);
#1139=AXIS2_PLACEMENT_3D('',#1714,#1341,#1342);
#1140=AXIS2_PLACEMENT_3D('',#1716,#1343,#1344);
#1141=AXIS2_PLACEMENT_3D('',#1717,#1345,#1346);
#1142=AXIS2_PLACEMENT_3D('',#1719,#1347,#1348);
#1143=AXIS2_PLACEMENT_3D('',#1721,#1350,#1351);
#1144=AXIS2_PLACEMENT_3D('',#1736,#1360,#1361);
#1145=AXIS2_PLACEMENT_3D('',#1742,#1365,#1366);
#1146=AXIS2_PLACEMENT_3D('',#1748,#1370,#1371);
#1147=AXIS2_PLACEMENT_3D('',#1750,#1373,#1374);
#1148=AXIS2_PLACEMENT_3D('',#1756,#1379,#1380);
#1149=AXIS2_PLACEMENT_3D('',#1757,#1381,#1382);
#1150=AXIS2_PLACEMENT_3D('',#1759,#1383,#1384);
#1151=AXIS2_PLACEMENT_3D('',#1761,#1386,#1387);
#1152=AXIS2_PLACEMENT_3D('',#1764,#1389,#1390);
#1153=AXIS2_PLACEMENT_3D('',#1765,#1391,#1392);
#1154=AXIS2_PLACEMENT_3D('',#1767,#1394,#1395);
#1155=AXIS2_PLACEMENT_3D('',#1774,#1399,#1400);
#1156=AXIS2_PLACEMENT_3D('',#1775,#1401,#1402);
#1157=AXIS2_PLACEMENT_3D('',#1781,#1405,#1406);
#1158=AXIS2_PLACEMENT_3D('',#1785,#1408,#1409);
#1159=AXIS2_PLACEMENT_3D('',#1790,#1412,#1413);
#1160=AXIS2_PLACEMENT_3D('',#1791,#1414,#1415);
#1161=AXIS2_PLACEMENT_3D('',#1793,#1417,#1418);
#1162=AXIS2_PLACEMENT_3D('',#1799,#1422,#1423);
#1163=AXIS2_PLACEMENT_3D('',#1803,#1426,#1427);
#1164=AXIS2_PLACEMENT_3D('',#1807,#1430,#1431);
#1165=AXIS2_PLACEMENT_3D('',#1809,#1432,#1433);
#1166=AXIS2_PLACEMENT_3D('',#1811,#1435,#1436);
#1167=AXIS2_PLACEMENT_3D('',#1812,#1437,#1438);
#1168=AXIS2_PLACEMENT_3D('',#1818,#1442,#1443);
#1169=AXIS2_PLACEMENT_3D('',#1821,#1445,#1446);
#1170=AXIS2_PLACEMENT_3D('',#1822,#1447,#1448);
#1171=AXIS2_PLACEMENT_3D('',#1826,#1451,#1452);
#1172=AXIS2_PLACEMENT_3D('',#1827,#1453,#1454);
#1173=AXIS2_PLACEMENT_3D('',#1828,#1455,#1456);
#1174=AXIS2_PLACEMENT_3D('',#1834,#1460,#1461);
#1175=AXIS2_PLACEMENT_3D('',#1837,#1463,#1464);
#1176=AXIS2_PLACEMENT_3D('',#1838,#1465,#1466);
#1177=AXIS2_PLACEMENT_3D('',#1842,#1469,#1470);
#1178=AXIS2_PLACEMENT_3D('',#1843,#1471,#1472);
#1179=AXIS2_PLACEMENT_3D('',#1844,#1473,#1474);
#1180=AXIS2_PLACEMENT_3D('',#1846,#1476,#1477);
#1181=DIRECTION('axis',(0.,0.,1.));
#1182=DIRECTION('refdir',(1.,0.,0.));
#1183=DIRECTION('center_axis',(0.,-1.,0.));
#1184=DIRECTION('ref_axis',(-1.,0.,0.));
#1185=DIRECTION('center_axis',(0.,-1.,0.));
#1186=DIRECTION('ref_axis',(-1.,0.,0.));
#1187=DIRECTION('',(0.,-1.,0.));
#1188=DIRECTION('center_axis',(0.,-1.,0.));
#1189=DIRECTION('ref_axis',(-1.,0.,0.));
#1190=DIRECTION('center_axis',(1.,0.,1.27351314977188E-16));
#1191=DIRECTION('ref_axis',(-1.27351314977188E-16,0.,1.));
#1192=DIRECTION('',(1.27351314977188E-16,0.,-1.));
#1193=DIRECTION('',(0.,-1.,0.));
#1194=DIRECTION('',(-1.27351314977188E-16,0.,1.));
#1195=DIRECTION('',(0.,-1.,0.));
#1196=DIRECTION('center_axis',(-1.,0.,-1.27351314977188E-16));
#1197=DIRECTION('ref_axis',(0.,-1.,0.));
#1198=DIRECTION('center_axis',(-1.,0.,-1.27351314977188E-16));
#1199=DIRECTION('ref_axis',(0.,-1.,0.));
#1200=DIRECTION('center_axis',(0.,-1.,0.));
#1201=DIRECTION('ref_axis',(-1.,0.,0.));
#1202=DIRECTION('center_axis',(0.,1.,0.));
#1203=DIRECTION('ref_axis',(-1.,0.,0.));
#1204=DIRECTION('center_axis',(0.,-1.,0.));
#1205=DIRECTION('ref_axis',(-1.,0.,0.));
#1206=DIRECTION('center_axis',(1.,0.,0.));
#1207=DIRECTION('ref_axis',(0.,-1.,0.));
#1208=DIRECTION('center_axis',(0.707106781186547,0.707106781186548,0.));
#1209=DIRECTION('ref_axis',(0.707106781186548,-0.707106781186547,0.));
#1210=DIRECTION('center_axis',(1.,0.,0.));
#1211=DIRECTION('ref_axis',(0.,-1.,0.));
#1212=DIRECTION('',(1.,0.,0.));
#1213=DIRECTION('center_axis',(1.,0.,0.));
#1214=DIRECTION('ref_axis',(0.,-1.,0.));
#1215=DIRECTION('center_axis',(1.,0.,0.));
#1216=DIRECTION('ref_axis',(0.,-1.,0.));
#1217=DIRECTION('center_axis',(-1.,0.,0.));
#1218=DIRECTION('ref_axis',(0.,-1.,0.));
#1219=DIRECTION('center_axis',(-1.,0.,0.));
#1220=DIRECTION('ref_axis',(0.,-1.,0.));
#1221=DIRECTION('center_axis',(-0.707106781186547,-0.707106781186548,0.));
#1222=DIRECTION('ref_axis',(0.,0.,1.));
#1223=DIRECTION('',(0.,0.,-1.));
#1224=DIRECTION('',(0.707106781186548,-0.707106781186547,0.));
#1225=DIRECTION('',(0.,0.,1.));
#1226=DIRECTION('',(0.707106781186547,-0.707106781186548,0.));
#1227=DIRECTION('',(0.,0.,-1.));
#1228=DIRECTION('center_axis',(1.,0.,0.));
#1229=DIRECTION('ref_axis',(0.,-1.,0.));
#1230=DIRECTION('center_axis',(1.,0.,0.));
#1231=DIRECTION('ref_axis',(0.,-1.,0.));
#1232=DIRECTION('',(1.,0.,0.));
#1233=DIRECTION('center_axis',(1.,0.,0.));
#1234=DIRECTION('ref_axis',(0.,-1.,0.));
#1235=DIRECTION('center_axis',(-1.,0.,0.));
#1236=DIRECTION('ref_axis',(0.,-1.,0.));
#1237=DIRECTION('center_axis',(-1.,0.,0.));
#1238=DIRECTION('ref_axis',(0.,-1.,0.));
#1239=DIRECTION('center_axis',(1.,0.,0.));
#1240=DIRECTION('ref_axis',(0.,-1.,0.));
#1241=DIRECTION('',(1.,0.,0.));
#1242=DIRECTION('center_axis',(1.,0.,0.));
#1243=DIRECTION('ref_axis',(0.,-1.,0.));
#1244=DIRECTION('center_axis',(-1.,0.,0.));
#1245=DIRECTION('ref_axis',(0.,-1.,0.));
#1246=DIRECTION('center_axis',(1.,0.,0.));
#1247=DIRECTION('ref_axis',(0.,-1.,0.));
#1248=DIRECTION('',(1.,0.,0.));
#1249=DIRECTION('center_axis',(1.,0.,0.));
#1250=DIRECTION('ref_axis',(0.,-1.,0.));
#1251=DIRECTION('center_axis',(-1.,0.,0.));
#1252=DIRECTION('ref_axis',(0.,-1.,0.));
#1253=DIRECTION('center_axis',(-1.,0.,0.));
#1254=DIRECTION('ref_axis',(0.,-1.,0.));
#1255=DIRECTION('',(-1.,0.,0.));
#1256=DIRECTION('center_axis',(-1.,0.,0.));
#1257=DIRECTION('ref_axis',(0.,-1.,0.));
#1258=DIRECTION('',(-1.,0.,0.));
#1259=DIRECTION('center_axis',(-1.,0.,0.));
#1260=DIRECTION('ref_axis',(0.,0.,1.));
#1261=DIRECTION('',(0.,-1.,0.));
#1262=DIRECTION('',(0.,0.,-1.));
#1263=DIRECTION('',(0.,1.,0.));
#1264=DIRECTION('center_axis',(0.,-0.707106781186548,0.707106781186547));
#1265=DIRECTION('ref_axis',(1.,0.,0.));
#1266=DIRECTION('',(0.,0.707106781186547,0.707106781186548));
#1267=DIRECTION('',(-1.,0.,0.));
#1268=DIRECTION('',(0.,-0.707106781186547,-0.707106781186548));
#1269=DIRECTION('',(1.,0.,0.));
#1270=DIRECTION('center_axis',(0.,1.,0.));
#1271=DIRECTION('ref_axis',(-0.707106781186548,0.,0.707106781186548));
#1272=DIRECTION('center_axis',(0.,-1.,0.));
#1273=DIRECTION('ref_axis',(-0.707106781186547,0.,0.707106781186547));
#1274=DIRECTION('center_axis',(0.,1.,0.));
#1275=DIRECTION('ref_axis',(-0.707106781186548,0.,0.707106781186548));
#1276=DIRECTION('center_axis',(0.,1.,0.));
#1277=DIRECTION('ref_axis',(-0.707106781186548,0.,-0.707106781186548));
#1278=DIRECTION('center_axis',(0.,-1.,0.));
#1279=DIRECTION('ref_axis',(-0.707106781186547,0.,-0.707106781186547));
#1280=DIRECTION('',(0.,-0.707106781186547,0.707106781186547));
#1281=DIRECTION('center_axis',(0.,1.,0.));
#1282=DIRECTION('ref_axis',(-0.707106781186548,0.,-0.707106781186548));
#1283=DIRECTION('center_axis',(0.,-0.707106781186548,-0.707106781186547));
#1284=DIRECTION('ref_axis',(-1.,0.,0.));
#1285=DIRECTION('',(0.,-0.707106781186547,0.707106781186548));
#1286=DIRECTION('',(-1.,0.,0.));
#1287=DIRECTION('',(1.,0.,0.));
#1288=DIRECTION('center_axis',(0.,0.,-1.));
#1289=DIRECTION('ref_axis',(-1.,0.,0.));
#1290=DIRECTION('',(0.,-1.,0.));
#1291=DIRECTION('',(1.,0.,0.));
#1292=DIRECTION('',(0.,1.,0.));
#1293=DIRECTION('center_axis',(0.,-1.,0.));
#1294=DIRECTION('ref_axis',(-0.707106781186547,0.,-0.707106781186547));
#1295=DIRECTION('center_axis',(0.,-1.,0.));
#1296=DIRECTION('ref_axis',(-0.707106781186547,0.,-0.707106781186547));
#1297=DIRECTION('center_axis',(0.,1.,0.));
#1298=DIRECTION('ref_axis',(-0.707106781186547,0.,0.707106781186547));
#1299=DIRECTION('',(0.,1.,0.));
#1300=DIRECTION('center_axis',(0.,-1.,0.));
#1301=DIRECTION('ref_axis',(-0.707106781186547,0.,0.707106781186547));
#1302=DIRECTION('center_axis',(1.,0.,0.));
#1303=DIRECTION('ref_axis',(0.,0.,-1.));
#1304=DIRECTION('',(0.,0.,1.));
#1305=DIRECTION('',(0.,-1.,0.));
#1306=DIRECTION('',(0.,0.,-1.));
#1307=DIRECTION('',(0.,-1.,0.));
#1308=DIRECTION('',(0.,0.,-1.));
#1309=DIRECTION('',(0.,1.,0.));
#1310=DIRECTION('',(0.,0.,-1.));
#1311=DIRECTION('center_axis',(0.,0.,1.));
#1312=DIRECTION('ref_axis',(1.,0.,0.));
#1313=DIRECTION('',(-1.,0.,0.));
#1314=DIRECTION('center_axis',(0.,1.,0.));
#1315=DIRECTION('ref_axis',(0.,0.,1.));
#1316=DIRECTION('center_axis',(0.,-1.,0.));
#1317=DIRECTION('ref_axis',(0.,0.,-1.));
#1318=DIRECTION('',(1.,0.,0.));
#1319=DIRECTION('',(-1.,0.,0.));
#1320=DIRECTION('',(0.,0.,1.));
#1321=DIRECTION('center_axis',(0.,0.,1.));
#1322=DIRECTION('ref_axis',(1.,0.,0.));
#1323=DIRECTION('',(0.,1.,0.));
#1324=DIRECTION('',(1.,0.,0.));
#1325=DIRECTION('center_axis',(0.,0.,1.));
#1326=DIRECTION('ref_axis',(-1.,0.,0.));
#1327=DIRECTION('center_axis',(0.,0.,1.));
#1328=DIRECTION('ref_axis',(-1.,0.,0.));
#1329=DIRECTION('center_axis',(0.,1.,0.));
#1330=DIRECTION('ref_axis',(0.,0.,1.));
#1331=DIRECTION('',(0.,0.,1.));
#1332=DIRECTION('',(-1.,0.,0.));
#1333=DIRECTION('',(0.,0.,-1.));
#1334=DIRECTION('',(1.,0.,0.));
#1335=DIRECTION('center_axis',(0.,0.,1.));
#1336=DIRECTION('ref_axis',(1.,0.,0.));
#1337=DIRECTION('',(1.,0.,0.));
#1338=DIRECTION('',(0.,1.,0.));
#1339=DIRECTION('',(1.,0.,0.));
#1340=DIRECTION('',(0.,1.,0.));
#1341=DIRECTION('center_axis',(0.,0.,1.));
#1342=DIRECTION('ref_axis',(-1.,0.,0.));
#1343=DIRECTION('center_axis',(0.,0.,1.));
#1344=DIRECTION('ref_axis',(-1.,0.,0.));
#1345=DIRECTION('center_axis',(0.,0.,-1.));
#1346=DIRECTION('ref_axis',(-1.,0.,0.));
#1347=DIRECTION('center_axis',(0.,0.,-1.));
#1348=DIRECTION('ref_axis',(-1.,0.,0.));
#1349=DIRECTION('',(0.,0.,-1.));
#1350=DIRECTION('center_axis',(-1.,0.,0.));
#1351=DIRECTION('ref_axis',(0.,0.,-1.));
#1352=DIRECTION('',(0.,0.707106781186547,0.707106781186548));
#1353=DIRECTION('',(0.,0.,1.));
#1354=DIRECTION('',(0.,-1.,0.));
#1355=DIRECTION('',(0.,0.,-1.));
#1356=DIRECTION('',(0.,0.,1.));
#1357=DIRECTION('',(0.,-0.707106781186548,0.707106781186548));
#1358=DIRECTION('',(0.,-1.,0.));
#1359=DIRECTION('',(0.,1.,0.));
#1360=DIRECTION('center_axis',(0.,-0.707106781186548,-0.707106781186548));
#1361=DIRECTION('ref_axis',(-1.,0.,0.));
#1362=DIRECTION('',(-1.,0.,0.));
#1363=DIRECTION('',(0.,0.707106781186548,-0.707106781186548));
#1364=DIRECTION('',(1.,0.,0.));
#1365=DIRECTION('center_axis',(0.,-0.707106781186548,0.707106781186547));
#1366=DIRECTION('ref_axis',(1.,0.,0.));
#1367=DIRECTION('',(-1.,0.,0.));
#1368=DIRECTION('',(0.,-0.707106781186547,-0.707106781186548));
#1369=DIRECTION('',(1.,0.,0.));
#1370=DIRECTION('center_axis',(0.,0.,1.));
#1371=DIRECTION('ref_axis',(1.,0.,0.));
#1372=DIRECTION('',(0.,-1.,0.));
#1373=DIRECTION('center_axis',(1.,0.,0.));
#1374=DIRECTION('ref_axis',(0.,0.,1.));
#1375=DIRECTION('',(0.,1.,0.));
#1376=DIRECTION('',(0.,0.,-1.));
#1377=DIRECTION('',(0.,-1.,0.));
#1378=DIRECTION('',(0.,0.,-1.));
#1379=DIRECTION('center_axis',(0.,0.,-1.));
#1380=DIRECTION('ref_axis',(-1.,0.,0.));
#1381=DIRECTION('center_axis',(0.,0.,-1.));
#1382=DIRECTION('ref_axis',(-1.,0.,0.));
#1383=DIRECTION('center_axis',(0.,0.,-1.));
#1384=DIRECTION('ref_axis',(-1.,0.,0.));
#1385=DIRECTION('',(0.,0.,-1.));
#1386=DIRECTION('center_axis',(0.,0.,-1.));
#1387=DIRECTION('ref_axis',(1.,0.,0.));
#1388=DIRECTION('',(-1.,0.,0.));
#1389=DIRECTION('center_axis',(0.,0.,-1.));
#1390=DIRECTION('ref_axis',(-1.,0.,0.));
#1391=DIRECTION('center_axis',(0.,0.,-1.));
#1392=DIRECTION('ref_axis',(-1.,0.,0.));
#1393=DIRECTION('',(0.,0.,-1.));
#1394=DIRECTION('center_axis',(0.,0.,-1.));
#1395=DIRECTION('ref_axis',(1.,0.,0.));
#1396=DIRECTION('',(-1.,0.,0.));
#1397=DIRECTION('',(-1.,0.,0.));
#1398=DIRECTION('',(0.,-1.,0.));
#1399=DIRECTION('center_axis',(0.,0.,-1.));
#1400=DIRECTION('ref_axis',(-1.,0.,0.));
#1401=DIRECTION('center_axis',(0.,1.,0.));
#1402=DIRECTION('ref_axis',(0.,0.,1.));
#1403=DIRECTION('',(0.,0.,-1.));
#1404=DIRECTION('',(-1.,0.,0.));
#1405=DIRECTION('center_axis',(0.,1.,0.));
#1406=DIRECTION('ref_axis',(0.707106781186547,0.,-0.707106781186548));
#1407=DIRECTION('',(0.,0.,-1.));
#1408=DIRECTION('center_axis',(0.,1.,0.));
#1409=DIRECTION('ref_axis',(0.707106781186547,0.,0.707106781186548));
#1410=DIRECTION('',(1.,0.,0.));
#1411=DIRECTION('',(0.,0.,-1.));
#1412=DIRECTION('center_axis',(0.,1.,0.));
#1413=DIRECTION('ref_axis',(-1.,0.,0.));
#1414=DIRECTION('center_axis',(0.,0.,-1.));
#1415=DIRECTION('ref_axis',(-1.,0.,0.));
#1416=DIRECTION('',(0.,0.,-1.));
#1417=DIRECTION('center_axis',(1.,0.,0.));
#1418=DIRECTION('ref_axis',(0.,0.,-1.));
#1419=DIRECTION('',(0.,0.707106781186548,-0.707106781186548));
#1420=DIRECTION('',(0.,0.,-1.));
#1421=DIRECTION('',(0.,1.,0.));
#1422=DIRECTION('center_axis',(0.,-0.707106781186548,-0.707106781186548));
#1423=DIRECTION('ref_axis',(-1.,0.,0.));
#1424=DIRECTION('',(1.,0.,0.));
#1425=DIRECTION('',(0.,0.707106781186548,-0.707106781186547));
#1426=DIRECTION('center_axis',(0.,0.,-1.));
#1427=DIRECTION('ref_axis',(-1.,0.,0.));
#1428=DIRECTION('',(1.,0.,0.));
#1429=DIRECTION('',(0.,1.,0.));
#1430=DIRECTION('center_axis',(0.,-1.,0.));
#1431=DIRECTION('ref_axis',(-1.,0.,0.));
#1432=DIRECTION('center_axis',(0.,-1.,0.));
#1433=DIRECTION('ref_axis',(-1.,0.,0.));
#1434=DIRECTION('',(0.,-1.,0.));
#1435=DIRECTION('center_axis',(0.,-1.,0.));
#1436=DIRECTION('ref_axis',(1.,0.,0.));
#1437=DIRECTION('center_axis',(0.,-0.707106781186548,0.707106781186547));
#1438=DIRECTION('ref_axis',(1.,0.,0.));
#1439=DIRECTION('',(0.,-0.707106781186547,-0.707106781186548));
#1440=DIRECTION('',(0.,0.707106781186547,0.707106781186548));
#1441=DIRECTION('',(-1.,0.,0.));
#1442=DIRECTION('center_axis',(0.,1.,0.));
#1443=DIRECTION('ref_axis',(0.707106781186547,0.,0.707106781186548));
#1444=DIRECTION('',(0.707106781186546,0.707106781186549,0.));
#1445=DIRECTION('center_axis',(0.,-1.,0.));
#1446=DIRECTION('ref_axis',(0.707106781186547,0.,0.707106781186548));
#1447=DIRECTION('center_axis',(0.707106781186549,-0.707106781186546,0.));
#1448=DIRECTION('ref_axis',(0.,0.,-1.));
#1449=DIRECTION('',(0.707106781186546,0.707106781186549,0.));
#1450=DIRECTION('',(0.,0.,1.));
#1451=DIRECTION('center_axis',(0.,1.,0.));
#1452=DIRECTION('ref_axis',(0.707106781186547,0.,-0.707106781186548));
#1453=DIRECTION('center_axis',(0.,-1.,0.));
#1454=DIRECTION('ref_axis',(0.707106781186547,0.,-0.707106781186548));
#1455=DIRECTION('center_axis',(0.,0.,1.));
#1456=DIRECTION('ref_axis',(1.,0.,0.));
#1457=DIRECTION('',(0.,-1.,0.));
#1458=DIRECTION('',(-1.,0.,0.));
#1459=DIRECTION('',(0.,-1.,0.));
#1460=DIRECTION('center_axis',(0.,-1.,0.));
#1461=DIRECTION('ref_axis',(0.707106781186547,0.,0.707106781186548));
#1462=DIRECTION('',(0.,1.,0.));
#1463=DIRECTION('center_axis',(0.,-1.,0.));
#1464=DIRECTION('ref_axis',(0.707106781186547,0.,0.707106781186548));
#1465=DIRECTION('center_axis',(1.,0.,0.));
#1466=DIRECTION('ref_axis',(0.,0.,-1.));
#1467=DIRECTION('',(0.,-1.,0.));
#1468=DIRECTION('',(0.,0.,1.));
#1469=DIRECTION('center_axis',(0.,1.,0.));
#1470=DIRECTION('ref_axis',(0.707106781186547,0.,-0.707106781186548));
#1471=DIRECTION('center_axis',(0.,-1.,0.));
#1472=DIRECTION('ref_axis',(0.707106781186547,0.,-0.707106781186548));
#1473=DIRECTION('center_axis',(1.,0.,0.));
#1474=DIRECTION('ref_axis',(0.,0.,1.));
#1475=DIRECTION('',(0.,0.,-1.));
#1476=DIRECTION('center_axis',(0.,-1.,0.));
#1477=DIRECTION('ref_axis',(0.,0.,-1.));
#1478=CARTESIAN_POINT('',(0.,0.,0.));
#1479=CARTESIAN_POINT('Origin',(165.650003694436,35.,17.6840001483399));
#1480=CARTESIAN_POINT('',(178.750003694436,35.,17.6840001483399));
#1481=CARTESIAN_POINT('Origin',(165.650003694436,35.,17.6840001483399));
#1482=CARTESIAN_POINT('',(178.750003694436,27.,17.6840001483399));
#1483=CARTESIAN_POINT('',(178.750003694436,35.,17.6840001483399));
#1484=CARTESIAN_POINT('Origin',(165.650003694436,27.,17.6840001483399));
#1485=CARTESIAN_POINT('Origin',(-9.9,40.,8.78220211291865));
#1486=CARTESIAN_POINT('',(-9.9,25.,26.2177978870813));
#1487=CARTESIAN_POINT('',(-9.9,25.,8.78220211291865));
#1488=CARTESIAN_POINT('',(-9.9,25.,13.1411011868445));
#1489=CARTESIAN_POINT('',(-9.9,40.,26.2177978870813));
#1490=CARTESIAN_POINT('',(-9.9,40.,26.2177978870813));
#1491=CARTESIAN_POINT('',(-9.9,40.,8.78220211291865));
#1492=CARTESIAN_POINT('',(-9.9,40.,13.1411011868445));
#1493=CARTESIAN_POINT('',(-9.9,40.,8.78220211291865));
#1494=CARTESIAN_POINT('',(-9.9,31.6,13.8397460051716));
#1495=CARTESIAN_POINT('Origin',(-9.9,30.,13.8397460051716));
#1496=CARTESIAN_POINT('',(-9.9,36.6,21.1602539948284));
#1497=CARTESIAN_POINT('Origin',(-9.9,35.,21.1602539948284));
#1498=CARTESIAN_POINT('Origin',(-15.,40.,17.5));
#1499=CARTESIAN_POINT('Origin',(-15.,25.,17.5));
#1500=CARTESIAN_POINT('Origin',(-15.,40.,17.5));
#1501=CARTESIAN_POINT('',(-23.622048939196,30.,12.2397460051716));
#1502=CARTESIAN_POINT('',(-24.4134234311085,31.6,13.8397460051716));
#1503=CARTESIAN_POINT('Ctrl Pts',(-23.622048939196,30.,12.2397460051716));
#1504=CARTESIAN_POINT('Ctrl Pts',(-23.622048939196,30.2015625194747,12.2397460051716));
#1505=CARTESIAN_POINT('Ctrl Pts',(-23.6470849097461,30.4135960594991,12.280201524334));
#1506=CARTESIAN_POINT('Ctrl Pts',(-23.7402407754977,30.7984959980531,12.4377312946337));
#1507=CARTESIAN_POINT('Ctrl Pts',(-23.8076768085094,30.9716090357019,12.5546064237612));
#1508=CARTESIAN_POINT('Ctrl Pts',(-23.9568643946448,31.2583188518793,12.8297124941118));
#1509=CARTESIAN_POINT('Ctrl Pts',(-24.0508032052453,31.3864975670972,13.0120144222343));
#1510=CARTESIAN_POINT('Ctrl Pts',(-24.238839449041,31.5573930011364,13.4130819877239));
#1511=CARTESIAN_POINT('Ctrl Pts',(-24.3326551022153,31.6,13.6320264095454));
#1512=CARTESIAN_POINT('Ctrl Pts',(-24.4134234311085,31.6,13.8397460051716));
#1513=CARTESIAN_POINT('Ctrl Pts',(-24.4134234311085,31.6,13.8397460051716));
#1514=CARTESIAN_POINT('Ctrl Pts',(-24.4900653930331,31.6,14.0368534302864));
#1515=CARTESIAN_POINT('Ctrl Pts',(-24.5653511231528,31.5612629034516,14.2507329382574));
#1516=CARTESIAN_POINT('Ctrl Pts',(-24.6915765132751,31.396862838522,14.6492065697985));
#1517=CARTESIAN_POINT('Ctrl Pts',(-24.7428527658274,31.271029606134,14.8336237146789));
#1518=CARTESIAN_POINT('Ctrl Pts',(-24.8160843567408,30.9825048971257,15.117807679376));
#1519=CARTESIAN_POINT('Ctrl Pts',(-24.843992973394,30.8044425419079,15.2388945535833));
#1520=CARTESIAN_POINT('Ctrl Pts',(-24.8795885828861,30.4132093546413,15.3998750474617));
#1521=CARTESIAN_POINT('Ctrl Pts',(-24.8876363948516,30.2000621102083,15.4397460051716));
#1522=CARTESIAN_POINT('Ctrl Pts',(-24.8876363948516,29.7999378897917,15.4397460051716));
#1523=CARTESIAN_POINT('Ctrl Pts',(-24.8795885828861,29.5867906453587,15.3998750474617));
#1524=CARTESIAN_POINT('Ctrl Pts',(-24.843992973394,29.1955574580921,15.2388945535833));
#1525=CARTESIAN_POINT('Ctrl Pts',(-24.8160843567408,29.0174951028743,15.117807679376));
#1526=CARTESIAN_POINT('Ctrl Pts',(-24.7428527658274,28.728970393866,14.8336237146789));
#1527=CARTESIAN_POINT('Ctrl Pts',(-24.6915765132751,28.603137161478,14.6492065697985));
#1528=CARTESIAN_POINT('Ctrl Pts',(-24.5653511231528,28.4387370965484,14.2507329382574));
#1529=CARTESIAN_POINT('Ctrl Pts',(-24.4900653930331,28.4,14.0368534302864));
#1530=CARTESIAN_POINT('Ctrl Pts',(-24.3326551022153,28.4,13.6320264095454));
#1531=CARTESIAN_POINT('Ctrl Pts',(-24.238839449041,28.4426069988636,13.4130819877239));
#1532=CARTESIAN_POINT('Ctrl Pts',(-24.0508032052453,28.6135024329028,13.0120144222343));
#1533=CARTESIAN_POINT('Ctrl Pts',(-23.9568643946448,28.7416811481207,12.8297124941118));
#1534=CARTESIAN_POINT('Ctrl Pts',(-23.8076768085094,29.0283909642981,12.5546064237612));
#1535=CARTESIAN_POINT('Ctrl Pts',(-23.7402407754977,29.2015040019469,12.4377312946337));
#1536=CARTESIAN_POINT('Ctrl Pts',(-23.6470849097461,29.5864039405009,12.280201524334));
#1537=CARTESIAN_POINT('Ctrl Pts',(-23.622048939196,29.7984374805253,12.2397460051716));
#1538=CARTESIAN_POINT('Ctrl Pts',(-23.622048939196,30.,12.2397460051716));
#1539=CARTESIAN_POINT('',(-24.8876363948516,35.,19.5602539948284));
#1540=CARTESIAN_POINT('',(-24.4134234311085,36.6,21.1602539948284));
#1541=CARTESIAN_POINT('Ctrl Pts',(-24.8876363948516,35.,19.5602539948284));
#1542=CARTESIAN_POINT('Ctrl Pts',(-24.8876363948516,35.2000621102083,19.5602539948284));
#1543=CARTESIAN_POINT('Ctrl Pts',(-24.8795885828861,35.4132093546413,19.6001249525383));
#1544=CARTESIAN_POINT('Ctrl Pts',(-24.843992973394,35.8044425419079,19.7611054464167));
#1545=CARTESIAN_POINT('Ctrl Pts',(-24.8160843567408,35.9825048971257,19.882192320624));
#1546=CARTESIAN_POINT('Ctrl Pts',(-24.7428527658274,36.271029606134,20.1663762853211));
#1547=CARTESIAN_POINT('Ctrl Pts',(-24.6915765132751,36.396862838522,20.3507934302015));
#1548=CARTESIAN_POINT('Ctrl Pts',(-24.5653511231528,36.5612629034516,20.7492670617426));
#1549=CARTESIAN_POINT('Ctrl Pts',(-24.4900653930331,36.6,20.9631465697136));
#1550=CARTESIAN_POINT('Ctrl Pts',(-24.4134234311085,36.6,21.1602539948284));
#1551=CARTESIAN_POINT('Ctrl Pts',(-24.4134234311085,36.6,21.1602539948284));
#1552=CARTESIAN_POINT('Ctrl Pts',(-24.3326551022153,36.6,21.3679735904546));
#1553=CARTESIAN_POINT('Ctrl Pts',(-24.238839449041,36.5573930011364,21.5869180122761));
#1554=CARTESIAN_POINT('Ctrl Pts',(-24.0508032052453,36.3864975670972,21.9879855777657));
#1555=CARTESIAN_POINT('Ctrl Pts',(-23.9568643946448,36.2583188518793,22.1702875058882));
#1556=CARTESIAN_POINT('Ctrl Pts',(-23.8076768085094,35.9716090357019,22.4453935762388));
#1557=CARTESIAN_POINT('Ctrl Pts',(-23.7402407754977,35.7984959980531,22.5622687053663));
#1558=CARTESIAN_POINT('Ctrl Pts',(-23.6470849097461,35.4135960594991,22.719798475666));
#1559=CARTESIAN_POINT('Ctrl Pts',(-23.622048939196,35.2015625194747,22.7602539948284));
#1560=CARTESIAN_POINT('Ctrl Pts',(-23.622048939196,34.7984374805253,22.7602539948284));
#1561=CARTESIAN_POINT('Ctrl Pts',(-23.6470849097461,34.5864039405009,22.719798475666));
#1562=CARTESIAN_POINT('Ctrl Pts',(-23.7402407754977,34.2015040019469,22.5622687053663));
#1563=CARTESIAN_POINT('Ctrl Pts',(-23.8076768085094,34.0283909642981,22.4453935762388));
#1564=CARTESIAN_POINT('Ctrl Pts',(-23.9568643946448,33.7416811481207,22.1702875058882));
#1565=CARTESIAN_POINT('Ctrl Pts',(-24.0508032052453,33.6135024329028,21.9879855777657));
#1566=CARTESIAN_POINT('Ctrl Pts',(-24.238839449041,33.4426069988636,21.5869180122761));
#1567=CARTESIAN_POINT('Ctrl Pts',(-24.3326551022153,33.4,21.3679735904546));
#1568=CARTESIAN_POINT('Ctrl Pts',(-24.4900653930331,33.4,20.9631465697136));
#1569=CARTESIAN_POINT('Ctrl Pts',(-24.5653511231528,33.4387370965484,20.7492670617426));
#1570=CARTESIAN_POINT('Ctrl Pts',(-24.6915765132751,33.603137161478,20.3507934302015));
#1571=CARTESIAN_POINT('Ctrl Pts',(-24.7428527658274,33.728970393866,20.1663762853211));
#1572=CARTESIAN_POINT('Ctrl Pts',(-24.8160843567408,34.0174951028743,19.882192320624));
#1573=CARTESIAN_POINT('Ctrl Pts',(-24.843992973394,34.1955574580921,19.7611054464167));
#1574=CARTESIAN_POINT('Ctrl Pts',(-24.8795885828861,34.5867906453587,19.6001249525383));
#1575=CARTESIAN_POINT('Ctrl Pts',(-24.8876363948516,34.7999378897917,19.5602539948284));
#1576=CARTESIAN_POINT('Ctrl Pts',(-24.8876363948516,35.,19.5602539948284));
#1577=CARTESIAN_POINT('Origin',(-35.0000002235174,30.,13.8397460051716));
#1578=CARTESIAN_POINT('',(-35.0000002235174,29.,16.6681731299178));
#1579=CARTESIAN_POINT('',(-35.0000002235174,29.,11.0113188804254));
#1580=CARTESIAN_POINT('Origin',(-36.0000002235174,30.,13.8397460051716));
#1581=CARTESIAN_POINT('',(-35.0000002235174,33.,13.8397460051716));
#1582=CARTESIAN_POINT('Origin',(-35.0000002235174,30.,13.8397460051716));
#1583=CARTESIAN_POINT('',(-32.0000002235174,33.,13.8397460051716));
#1584=CARTESIAN_POINT('',(-35.0000002235174,33.,13.8397460051716));
#1585=CARTESIAN_POINT('Origin',(-32.0000002235174,30.,13.8397460051716));
#1586=CARTESIAN_POINT('Origin',(-35.0000002235174,30.,13.8397460051716));
#1587=CARTESIAN_POINT('Origin',(-32.0000002235174,30.,13.8397460051716));
#1588=CARTESIAN_POINT('',(-32.0000002235174,31.6,13.8397460051716));
#1589=CARTESIAN_POINT('Origin',(-32.0000002235174,30.,13.8397460051716));
#1590=CARTESIAN_POINT('Origin',(-33.0000002235174,27.,8.75000013038516));
#1591=CARTESIAN_POINT('',(-35.0000002235174,29.,10.));
#1592=CARTESIAN_POINT('',(-35.0000002235174,29.,8.75000013038516));
#1593=CARTESIAN_POINT('',(-31.0000002235174,25.,10.));
#1594=CARTESIAN_POINT('',(-35.0000002235174,29.,10.));
#1595=CARTESIAN_POINT('',(-31.0000002235174,25.,25.));
#1596=CARTESIAN_POINT('',(-31.0000002235174,25.,8.75000013038516));
#1597=CARTESIAN_POINT('',(-35.0000002235174,29.,25.));
#1598=CARTESIAN_POINT('',(-35.0000002235174,29.,25.));
#1599=CARTESIAN_POINT('',(-35.0000002235174,29.,8.75000013038516));
#1600=CARTESIAN_POINT('Origin',(-35.0000002235174,35.,21.1602539948284));
#1601=CARTESIAN_POINT('',(-35.0000002235174,38.,21.1602539948284));
#1602=CARTESIAN_POINT('Origin',(-35.0000002235174,35.,21.1602539948284));
#1603=CARTESIAN_POINT('',(-32.0000002235174,38.,21.1602539948284));
#1604=CARTESIAN_POINT('',(-35.0000002235174,38.,21.1602539948284));
#1605=CARTESIAN_POINT('Origin',(-32.0000002235174,35.,21.1602539948284));
#1606=CARTESIAN_POINT('Origin',(-32.0000002235174,35.,21.1602539948284));
#1607=CARTESIAN_POINT('',(-32.0000002235174,36.6,21.1602539948284));
#1608=CARTESIAN_POINT('Origin',(-32.0000002235174,35.,21.1602539948284));
#1609=CARTESIAN_POINT('Origin',(-9.99999992549419,35.,21.1602539948284));
#1610=CARTESIAN_POINT('',(20.0000000745058,36.6,21.1602539948284));
#1611=CARTESIAN_POINT('',(-9.99999992549419,36.6,21.1602539948284));
#1612=CARTESIAN_POINT('Origin',(20.0000000745058,35.,21.1602539948284));
#1613=CARTESIAN_POINT('Origin',(20.0000000745058,35.,21.1602539948284));
#1614=CARTESIAN_POINT('Origin',(-9.99999992549419,30.,13.8397460051716));
#1615=CARTESIAN_POINT('',(20.0000000745058,31.6,13.8397460051716));
#1616=CARTESIAN_POINT('',(-9.99999992549419,31.6,13.8397460051716));
#1617=CARTESIAN_POINT('Origin',(20.0000000745058,30.,13.8397460051716));
#1618=CARTESIAN_POINT('Origin',(20.0000000745058,30.,13.8397460051716));
#1619=CARTESIAN_POINT('Origin',(-9.99999992549419,30.,13.8397460051716));
#1620=CARTESIAN_POINT('',(-9.99999992549419,31.6,13.8397460051716));
#1621=CARTESIAN_POINT('Origin',(-9.99999992549419,35.,21.1602539948284));
#1622=CARTESIAN_POINT('',(-9.99999992549419,36.6,21.1602539948284));
#1623=CARTESIAN_POINT('Origin',(-35.0000002235174,20.,0.));
#1624=CARTESIAN_POINT('',(-35.0000002235174,40.,25.));
#1625=CARTESIAN_POINT('',(-35.0000002235174,10.,25.));
#1626=CARTESIAN_POINT('',(-35.0000002235174,40.,10.));
#1627=CARTESIAN_POINT('',(-35.0000002235174,40.,8.75));
#1628=CARTESIAN_POINT('',(-35.0000002235174,10.,10.));
#1629=CARTESIAN_POINT('Origin',(22.5000000372529,27.,33.));
#1630=CARTESIAN_POINT('',(32.0000000298023,25.,31.));
#1631=CARTESIAN_POINT('',(32.0000000298023,29.,35.));
#1632=CARTESIAN_POINT('',(32.0000000298023,18.25,24.25));
#1633=CARTESIAN_POINT('',(-25.0000002235174,29.,35.));
#1634=CARTESIAN_POINT('',(22.5000000372529,29.,35.));
#1635=CARTESIAN_POINT('',(-25.0000002235174,25.,31.));
#1636=CARTESIAN_POINT('',(-25.0000002235174,29.,35.));
#1637=CARTESIAN_POINT('',(22.5000000372529,25.,31.));
#1638=CARTESIAN_POINT('Origin',(-25.0000002235174,27.,25.));
#1639=CARTESIAN_POINT('Origin',(-25.0000002235174,29.,25.));
#1640=CARTESIAN_POINT('Origin',(-25.0000002235174,25.,25.));
#1641=CARTESIAN_POINT('Origin',(-25.0000002235174,27.,10.));
#1642=CARTESIAN_POINT('',(-25.0000002235174,29.,0.));
#1643=CARTESIAN_POINT('Origin',(-25.0000002235174,29.,10.));
#1644=CARTESIAN_POINT('',(-25.0000002235174,25.,4.));
#1645=CARTESIAN_POINT('',(-25.0000002235174,29.,0.));
#1646=CARTESIAN_POINT('Origin',(-25.0000002235174,25.,10.));
#1647=CARTESIAN_POINT('Origin',(130.000000149012,27.,2.));
#1648=CARTESIAN_POINT('',(32.0000000298023,29.,0.));
#1649=CARTESIAN_POINT('',(32.0000000298023,25.,4.));
#1650=CARTESIAN_POINT('',(32.0000000298023,27.,2.));
#1651=CARTESIAN_POINT('',(130.000000149012,25.,4.));
#1652=CARTESIAN_POINT('',(130.000000149012,29.,0.));
#1653=CARTESIAN_POINT('Origin',(170.,3.60822483003176E-15,0.));
#1654=CARTESIAN_POINT('',(-25.0000002235174,40.,0.));
#1655=CARTESIAN_POINT('',(-25.0000002235174,10.,0.));
#1656=CARTESIAN_POINT('',(32.0000000298023,40.,0.));
#1657=CARTESIAN_POINT('',(115.000000149012,40.,0.));
#1658=CARTESIAN_POINT('',(32.0000000298023,12.5,0.));
#1659=CARTESIAN_POINT('Origin',(-25.0000002235174,10.,10.));
#1660=CARTESIAN_POINT('Origin',(-25.0000002235174,40.,10.));
#1661=CARTESIAN_POINT('Origin',(-25.0000002235174,10.,25.));
#1662=CARTESIAN_POINT('',(-25.0000002235174,40.,35.));
#1663=CARTESIAN_POINT('',(-25.0000002235174,10.,35.));
#1664=CARTESIAN_POINT('Origin',(-25.0000002235174,40.,25.));
#1665=CARTESIAN_POINT('Origin',(32.0000000298023,25.,0.));
#1666=CARTESIAN_POINT('',(32.0000000298023,40.,35.0000005215406));
#1667=CARTESIAN_POINT('',(32.0000000298023,40.,17.5000002607703));
#1668=CARTESIAN_POINT('',(32.0000000298023,20.,35.));
#1669=CARTESIAN_POINT('',(32.0000000298023,25.,28.0000004172325));
#1670=CARTESIAN_POINT('',(32.0000000298023,25.,8.75000013038516));
#1671=CARTESIAN_POINT('',(32.0000000298023,35.,28.0000004172325));
#1672=CARTESIAN_POINT('',(32.0000000298023,40.,28.0000004172325));
#1673=CARTESIAN_POINT('',(32.0000000298023,35.,7.));
#1674=CARTESIAN_POINT('',(32.0000000298023,35.,28.0000004172325));
#1675=CARTESIAN_POINT('',(32.0000000298023,25.,7.));
#1676=CARTESIAN_POINT('',(32.0000000298023,25.,7.));
#1677=CARTESIAN_POINT('',(32.0000000298023,25.,8.75000013038516));
#1678=CARTESIAN_POINT('Origin',(-45.0000002235174,3.60822483003176E-15,
35.));
#1679=CARTESIAN_POINT('',(-30.0000002235174,40.,35.));
#1680=CARTESIAN_POINT('Origin',(90.0000002980232,40.,17.5000002607703));
#1681=CARTESIAN_POINT('Origin',(47.0000003278255,35.,17.5000002086163));
#1682=CARTESIAN_POINT('',(62.0000006258488,35.,7.));
#1683=CARTESIAN_POINT('',(39.5000001788139,35.,7.));
#1684=CARTESIAN_POINT('',(62.0000006258488,35.,28.0000004172325));
#1685=CARTESIAN_POINT('',(39.5000001788139,35.,28.0000004172325));
#1686=CARTESIAN_POINT('',(62.0000006258488,35.,7.));
#1687=CARTESIAN_POINT('Origin',(32.0000000298023,25.,7.));
#1688=CARTESIAN_POINT('',(62.0000000298023,25.,7.));
#1689=CARTESIAN_POINT('',(62.0000000298023,25.,7.));
#1690=CARTESIAN_POINT('',(76.0000001639128,25.,7.));
#1691=CARTESIAN_POINT('',(36.6000000745058,32.0000004768372,7.));
#1692=CARTESIAN_POINT('Origin',(35.0000000745058,32.0000004768372,7.));
#1693=CARTESIAN_POINT('',(60.6000005811453,32.0000004768372,7.));
#1694=CARTESIAN_POINT('Origin',(59.0000005811453,32.0000004768372,7.));
#1695=CARTESIAN_POINT('Origin',(90.0000002980232,40.,17.5000002607703));
#1696=CARTESIAN_POINT('',(62.0000000298023,40.,0.));
#1697=CARTESIAN_POINT('',(62.0000006258488,40.,35.0000005215406));
#1698=CARTESIAN_POINT('',(62.0000006258488,40.,22.7500003390014));
#1699=CARTESIAN_POINT('',(92.0000012218952,40.,35.0000005215406));
#1700=CARTESIAN_POINT('',(27.5000000372529,40.,35.));
#1701=CARTESIAN_POINT('',(92.0000012218952,40.,0.));
#1702=CARTESIAN_POINT('',(92.0000012218952,40.,26.2500003911555));
#1703=CARTESIAN_POINT('',(135.000000149012,40.,0.));
#1704=CARTESIAN_POINT('Origin',(82.0000012218952,25.,7.));
#1705=CARTESIAN_POINT('',(92.0000012218952,35.,7.));
#1706=CARTESIAN_POINT('',(122.000001221895,35.,7.));
#1707=CARTESIAN_POINT('',(94.5000017434359,35.,7.));
#1708=CARTESIAN_POINT('',(122.000001221895,25.,7.));
#1709=CARTESIAN_POINT('',(122.000001221895,25.,7.));
#1710=CARTESIAN_POINT('',(92.0000012218952,25.,7.));
#1711=CARTESIAN_POINT('',(86.0000007599592,25.,7.));
#1712=CARTESIAN_POINT('',(92.0000012218952,25.,7.));
#1713=CARTESIAN_POINT('',(120.600003308058,32.0000004768372,7.));
#1714=CARTESIAN_POINT('Origin',(119.000003308058,32.0000004768372,7.));
#1715=CARTESIAN_POINT('',(96.6000012665987,32.0000004768372,7.));
#1716=CARTESIAN_POINT('Origin',(95.0000012665987,32.0000004768372,7.));
#1717=CARTESIAN_POINT('Origin',(95.0000012665987,32.0000004768372,28.0000004172325));
#1718=CARTESIAN_POINT('',(96.6000012665987,32.0000004768372,28.0000004172325));
#1719=CARTESIAN_POINT('Origin',(95.0000012665987,32.0000004768372,28.0000004172325));
#1720=CARTESIAN_POINT('',(96.6000012665987,32.0000004768372,28.0000004172325));
#1721=CARTESIAN_POINT('Origin',(92.0000012218952,40.,35.0000005215406));
#1722=CARTESIAN_POINT('',(92.0000012218952,25.,31.));
#1723=CARTESIAN_POINT('',(92.0000012218952,29.,35.));
#1724=CARTESIAN_POINT('',(92.0000012218952,30.7500001303852,36.7500001303852));
#1725=CARTESIAN_POINT('',(92.0000012218952,25.,28.0000004172325));
#1726=CARTESIAN_POINT('',(92.0000012218952,25.,26.2500003911555));
#1727=CARTESIAN_POINT('',(92.0000012218952,35.,28.0000004172325));
#1728=CARTESIAN_POINT('',(92.0000012218952,40.,28.0000004172325));
#1729=CARTESIAN_POINT('',(92.0000012218952,35.,28.0000004172325));
#1730=CARTESIAN_POINT('',(92.0000012218952,25.,4.));
#1731=CARTESIAN_POINT('',(92.0000012218952,25.,8.75000013038516));
#1732=CARTESIAN_POINT('',(92.0000012218952,29.,0.));
#1733=CARTESIAN_POINT('',(92.0000012218952,27.,2.));
#1734=CARTESIAN_POINT('',(92.0000012218952,12.5,0.));
#1735=CARTESIAN_POINT('',(92.0000012218952,20.,35.));
#1736=CARTESIAN_POINT('Origin',(150.000000149012,27.,2.));
#1737=CARTESIAN_POINT('',(62.0000000298023,25.,4.));
#1738=CARTESIAN_POINT('',(150.000000149012,25.,4.));
#1739=CARTESIAN_POINT('',(62.0000000298023,29.,0.));
#1740=CARTESIAN_POINT('',(62.0000000298023,25.25,3.75));
#1741=CARTESIAN_POINT('',(150.000000149012,29.,0.));
#1742=CARTESIAN_POINT('Origin',(42.5000000372529,27.,33.));
#1743=CARTESIAN_POINT('',(62.0000006258488,29.,35.));
#1744=CARTESIAN_POINT('',(42.5000000372529,29.,35.));
#1745=CARTESIAN_POINT('',(62.0000006258488,25.,31.));
#1746=CARTESIAN_POINT('',(62.0000006258488,29.0000001043081,35.0000001043081));
#1747=CARTESIAN_POINT('',(32.5000000372529,25.,31.));
#1748=CARTESIAN_POINT('Origin',(-25.0000002235174,3.60822483003176E-15,
35.));
#1749=CARTESIAN_POINT('',(62.0000006258488,20.,35.));
#1750=CARTESIAN_POINT('Origin',(62.0000006258488,40.,28.0000004172325));
#1751=CARTESIAN_POINT('',(62.0000000298023,12.5,0.));
#1752=CARTESIAN_POINT('',(62.0000000298023,25.,12.2500001303852));
#1753=CARTESIAN_POINT('',(62.0000006258488,25.,28.0000004172325));
#1754=CARTESIAN_POINT('',(62.0000006258488,40.,28.0000004172325));
#1755=CARTESIAN_POINT('',(62.0000006258488,25.,22.7500003390014));
#1756=CARTESIAN_POINT('Origin',(190.,3.60822483003176E-15,0.));
#1757=CARTESIAN_POINT('Origin',(59.0000005811453,32.0000004768372,28.0000004172325));
#1758=CARTESIAN_POINT('',(60.6000005811453,32.0000004768372,28.0000004172325));
#1759=CARTESIAN_POINT('Origin',(59.0000005811453,32.0000004768372,28.0000004172325));
#1760=CARTESIAN_POINT('',(60.6000005811453,32.0000004768372,28.0000004172325));
#1761=CARTESIAN_POINT('Origin',(32.0000000298023,40.,28.0000004172325));
#1762=CARTESIAN_POINT('',(76.0000001639128,25.,28.0000004172325));
#1763=CARTESIAN_POINT('',(36.6000000745058,32.0000004768372,28.0000004172325));
#1764=CARTESIAN_POINT('Origin',(35.0000000745058,32.0000004768372,28.0000004172325));
#1765=CARTESIAN_POINT('Origin',(35.0000000745058,32.0000004768372,28.0000004172325));
#1766=CARTESIAN_POINT('',(36.6000000745058,32.0000004768372,28.0000004172325));
#1767=CARTESIAN_POINT('Origin',(82.0000012218952,40.,28.0000004172325));
#1768=CARTESIAN_POINT('',(122.000003308058,35.,28.0000004172325));
#1769=CARTESIAN_POINT('',(94.5000017434359,35.,28.0000004172325));
#1770=CARTESIAN_POINT('',(122.000003308058,25.,28.0000004172325));
#1771=CARTESIAN_POINT('',(86.0000007599592,25.,28.0000004172325));
#1772=CARTESIAN_POINT('',(122.000003308058,40.,28.0000004172325));
#1773=CARTESIAN_POINT('',(120.600003308058,32.0000004768372,28.0000004172325));
#1774=CARTESIAN_POINT('Origin',(119.000003308058,32.0000004768372,28.0000004172325));
#1775=CARTESIAN_POINT('Origin',(90.0000002980232,25.,17.5000002607703));
#1776=CARTESIAN_POINT('',(122.000001221895,25.,4.));
#1777=CARTESIAN_POINT('',(122.000001221895,25.,12.2500001303852));
#1778=CARTESIAN_POINT('',(183.000002563,25.,4.));
#1779=CARTESIAN_POINT('',(130.000000149012,25.,4.));
#1780=CARTESIAN_POINT('',(188.000002563,25.,9.));
#1781=CARTESIAN_POINT('Origin',(183.000002563,25.,9.));
#1782=CARTESIAN_POINT('',(188.000002563,25.,26.));
#1783=CARTESIAN_POINT('',(188.000002563,25.,8.75000013038516));
#1784=CARTESIAN_POINT('',(183.000002563,25.,31.));
#1785=CARTESIAN_POINT('Origin',(183.000002563,25.,26.));
#1786=CARTESIAN_POINT('',(122.000003308058,25.,31.));
#1787=CARTESIAN_POINT('',(22.5000000372529,25.,31.));
#1788=CARTESIAN_POINT('',(122.000003308058,25.,22.7500003390014));
#1789=CARTESIAN_POINT('',(173.150003694436,25.,17.6840001483399));
#1790=CARTESIAN_POINT('Origin',(165.650003694436,25.,17.6840001483399));
#1791=CARTESIAN_POINT('Origin',(119.000003308058,32.0000004768372,28.0000004172325));
#1792=CARTESIAN_POINT('',(120.600003308058,32.0000004768372,28.0000004172325));
#1793=CARTESIAN_POINT('Origin',(122.000001221895,25.,7.));
#1794=CARTESIAN_POINT('',(122.000001221895,29.,0.));
#1795=CARTESIAN_POINT('',(122.000001221895,25.25,3.75));
#1796=CARTESIAN_POINT('',(122.000003308058,35.,5.21540641784668E-7));
#1797=CARTESIAN_POINT('',(122.000003308058,35.,35.0000005215406));
#1798=CARTESIAN_POINT('',(122.000001221895,12.5,0.));
#1799=CARTESIAN_POINT('Origin',(130.000000149012,27.,2.));
#1800=CARTESIAN_POINT('',(183.000002563,29.,0.));
#1801=CARTESIAN_POINT('',(130.000000149012,29.,0.));
#1802=CARTESIAN_POINT('',(183.000002563,25.,4.));
#1803=CARTESIAN_POINT('Origin',(170.,3.60822483003176E-15,0.));
#1804=CARTESIAN_POINT('',(183.000002563,35.,0.));
#1805=CARTESIAN_POINT('',(163.500001654029,35.,0.));
#1806=CARTESIAN_POINT('',(183.000002563,10.,0.));
#1807=CARTESIAN_POINT('Origin',(165.650003694436,27.,17.6840001483399));
#1808=CARTESIAN_POINT('',(173.150003694436,27.,17.6840001483399));
#1809=CARTESIAN_POINT('Origin',(165.650003694436,27.,17.6840001483399));
#1810=CARTESIAN_POINT('',(173.150003694436,27.,17.6840001483399));
#1811=CARTESIAN_POINT('Origin',(165.650003694436,27.,17.6840001483399));
#1812=CARTESIAN_POINT('Origin',(22.5000000372529,27.,33.));
#1813=CARTESIAN_POINT('',(122.000003308058,29.,35.));
#1814=CARTESIAN_POINT('',(122.000003308058,29.0000001043081,35.0000001043081));
#1815=CARTESIAN_POINT('',(183.000002563,29.,35.));
#1816=CARTESIAN_POINT('',(183.000002563,25.,31.));
#1817=CARTESIAN_POINT('',(22.5000000372529,29.,35.));
#1818=CARTESIAN_POINT('Origin',(183.000002563,27.,26.));
#1819=CARTESIAN_POINT('',(192.000002563,29.,26.));
#1820=CARTESIAN_POINT('',(188.000002563,25.,26.));
#1821=CARTESIAN_POINT('Origin',(183.000002563,29.,26.));
#1822=CARTESIAN_POINT('Origin',(190.000002563,27.,8.75000013038516));
#1823=CARTESIAN_POINT('',(192.000002563,29.,9.));
#1824=CARTESIAN_POINT('',(188.000002563,25.,9.));
#1825=CARTESIAN_POINT('',(192.000002563,29.,8.75000013038516));
#1826=CARTESIAN_POINT('Origin',(183.000002563,27.,9.));
#1827=CARTESIAN_POINT('Origin',(183.000002563,29.,9.));
#1828=CARTESIAN_POINT('Origin',(-45.0000002235174,3.60822483003176E-15,
35.));
#1829=CARTESIAN_POINT('',(183.000002563,35.,35.));
#1830=CARTESIAN_POINT('',(183.000002563,10.,35.));
#1831=CARTESIAN_POINT('',(122.000003308058,35.,35.0000005215406));
#1832=CARTESIAN_POINT('',(56.0000015422702,35.,35.));
#1833=CARTESIAN_POINT('',(122.000003308058,20.,35.));
#1834=CARTESIAN_POINT('Origin',(183.000002563,10.,26.));
#1835=CARTESIAN_POINT('',(192.000002563,35.,26.));
#1836=CARTESIAN_POINT('',(192.000002563,10.,26.));
#1837=CARTESIAN_POINT('Origin',(183.000002563,35.,26.));
#1838=CARTESIAN_POINT('Origin',(192.000002563,20.,0.));
#1839=CARTESIAN_POINT('',(192.000002563,35.,9.));
#1840=CARTESIAN_POINT('',(192.000002563,10.,9.));
#1841=CARTESIAN_POINT('',(192.000002563,35.,8.75000026077032));
#1842=CARTESIAN_POINT('Origin',(183.000002563,10.,9.));
#1843=CARTESIAN_POINT('Origin',(183.000002563,35.,9.));
#1844=CARTESIAN_POINT('Origin',(122.000003308058,40.,28.0000004172325));
#1845=CARTESIAN_POINT('',(122.000003308058,35.,35.0000005215406));
#1846=CARTESIAN_POINT('Origin',(157.000003308058,35.,17.5000005215406));
#1847=UNCERTAINTY_MEASURE_WITH_UNIT(LENGTH_MEASURE(0.01),#1851,
'DISTANCE_ACCURACY_VALUE',
'Maximum model space distance between geometric entities at asserted c
onnectivities');
#1848=UNCERTAINTY_MEASURE_WITH_UNIT(LENGTH_MEASURE(0.01),#1851,
'DISTANCE_ACCURACY_VALUE',
'Maximum model space distance between geometric entities at asserted c
onnectivities');
#1849=(
GEOMETRIC_REPRESENTATION_CONTEXT(3)
GLOBAL_UNCERTAINTY_ASSIGNED_CONTEXT((#1847))
GLOBAL_UNIT_ASSIGNED_CONTEXT((#1851,#1853,#1854))
REPRESENTATION_CONTEXT('','3D')
);
#1850=(
GEOMETRIC_REPRESENTATION_CONTEXT(3)
GLOBAL_UNCERTAINTY_ASSIGNED_CONTEXT((#1848))
GLOBAL_UNIT_ASSIGNED_CONTEXT((#1851,#1853,#1854))
REPRESENTATION_CONTEXT('','3D')
);
#1851=(
LENGTH_UNIT()
NAMED_UNIT(*)
SI_UNIT(.MILLI.,.METRE.)
);
#1852=(
LENGTH_UNIT()
NAMED_UNIT(*)
SI_UNIT($,.METRE.)
);
#1853=(
NAMED_UNIT(*)
PLANE_ANGLE_UNIT()
SI_UNIT($,.RADIAN.)
);
#1854=(
NAMED_UNIT(*)
SI_UNIT($,.STERADIAN.)
SOLID_ANGLE_UNIT()
);
#1855=SHAPE_DEFINITION_REPRESENTATION(#1856,#1857);
#1856=PRODUCT_DEFINITION_SHAPE('',$,#1859);
#1857=SHAPE_REPRESENTATION('',(#1085),#1849);
#1858=PRODUCT_DEFINITION_CONTEXT('part definition',#1863,'design');
#1859=PRODUCT_DEFINITION('2026-09-26-21-38-33-004','elbow shaft right',
#1860,#1858);
#1860=PRODUCT_DEFINITION_FORMATION('',$,#1865);
#1861=PRODUCT_RELATED_PRODUCT_CATEGORY('elbow shaft right',
'elbow shaft right',(#1865));
#1862=APPLICATION_PROTOCOL_DEFINITION('international standard',
'automotive_design',2009,#1863);
#1863=APPLICATION_CONTEXT(
'Core Data for Automotive Mechanical Design Process');
#1864=PRODUCT_CONTEXT('part definition',#1863,'mechanical');
#1865=PRODUCT('2026-09-26-21-38-33-004','elbow shaft right',$,(#1864));
#1866=PRESENTATION_STYLE_ASSIGNMENT((#1867));
#1867=SURFACE_STYLE_USAGE(.BOTH.,#1868);
#1868=SURFACE_SIDE_STYLE('',(#1869));
#1869=SURFACE_STYLE_FILL_AREA(#1870);
#1870=FILL_AREA_STYLE('Steel - Satin',(#1871));
#1871=FILL_AREA_STYLE_COLOUR('Steel - Satin',#1872);
#1872=COLOUR_RGB('Steel - Satin',0.627450980392157,0.627450980392157,0.627450980392157);
ENDSEC;
END-ISO-10303-21;
