ISO-10303-21;
HEADER;
/* Generated by software containing ST-Developer
 * from STEP Tools, Inc. (www.steptools.com) 
 */

FILE_DESCRIPTION(
/* description */ (''),
/* implementation_level */ '2;1');

FILE_NAME(
/* name */ 'gripper holder.step',
/* time_stamp */ '2026-09-26T21:44:31-07:00',
/* author */ (''),
/* organization */ (''),
/* preprocessor_version */ 'ST-DEVELOPER v20.2',
/* originating_system */ 'Autodesk Translation Framework v15.15.0.0',
/* authorisation */ '');

FILE_SCHEMA (('AUTOMOTIVE_DESIGN { 1 0 10303 214 3 1 1 }'));
ENDSEC;

DATA;
#10=MECHANICAL_DESIGN_GEOMETRIC_PRESENTATION_REPRESENTATION('',(#13),#1124);
#11=SHAPE_REPRESENTATION_RELATIONSHIP('SRR','None',#1130,#12);
#12=ADVANCED_BREP_SHAPE_REPRESENTATION('',(#14),#1123);
#13=STYLED_ITEM('',(#1139),#14);
#14=MANIFOLD_SOLID_BREP('Body1',#684);
#15=CYLINDRICAL_SURFACE('',#694,1.6);
#16=CYLINDRICAL_SURFACE('',#713,1.6);
#17=CYLINDRICAL_SURFACE('',#714,1.6);
#18=CYLINDRICAL_SURFACE('',#715,1.6);
#19=CYLINDRICAL_SURFACE('',#716,1.6);
#20=CYLINDRICAL_SURFACE('',#717,3.5);
#21=CYLINDRICAL_SURFACE('',#718,10.5);
#22=CYLINDRICAL_SURFACE('',#719,13.5);
#23=CYLINDRICAL_SURFACE('',#724,1.6);
#24=CYLINDRICAL_SURFACE('',#726,1.6);
#25=CYLINDRICAL_SURFACE('',#729,1.6);
#26=FACE_BOUND('',#78,.T.);
#27=FACE_BOUND('',#79,.T.);
#28=FACE_BOUND('',#80,.T.);
#29=FACE_BOUND('',#81,.T.);
#30=FACE_BOUND('',#82,.T.);
#31=FACE_BOUND('',#85,.T.);
#32=FACE_BOUND('',#86,.T.);
#33=FACE_BOUND('',#87,.T.);
#34=FACE_BOUND('',#88,.T.);
#35=FACE_BOUND('',#89,.T.);
#36=FACE_BOUND('',#91,.T.);
#37=FACE_BOUND('',#92,.T.);
#38=FACE_BOUND('',#93,.T.);
#39=FACE_BOUND('',#94,.T.);
#40=FACE_BOUND('',#95,.T.);
#41=FACE_BOUND('',#97,.T.);
#42=FACE_BOUND('',#117,.T.);
#43=FACE_BOUND('',#118,.T.);
#44=FACE_OUTER_BOUND('',#77,.T.);
#45=FACE_OUTER_BOUND('',#83,.T.);
#46=FACE_OUTER_BOUND('',#84,.T.);
#47=FACE_OUTER_BOUND('',#90,.T.);
#48=FACE_OUTER_BOUND('',#96,.T.);
#49=FACE_OUTER_BOUND('',#98,.T.);
#50=FACE_OUTER_BOUND('',#99,.T.);
#51=FACE_OUTER_BOUND('',#100,.T.);
#52=FACE_OUTER_BOUND('',#101,.T.);
#53=FACE_OUTER_BOUND('',#102,.T.);
#54=FACE_OUTER_BOUND('',#103,.T.);
#55=FACE_OUTER_BOUND('',#104,.T.);
#56=FACE_OUTER_BOUND('',#105,.T.);
#57=FACE_OUTER_BOUND('',#106,.T.);
#58=FACE_OUTER_BOUND('',#107,.T.);
#59=FACE_OUTER_BOUND('',#108,.T.);
#60=FACE_OUTER_BOUND('',#109,.T.);
#61=FACE_OUTER_BOUND('',#110,.T.);
#62=FACE_OUTER_BOUND('',#111,.T.);
#63=FACE_OUTER_BOUND('',#112,.T.);
#64=FACE_OUTER_BOUND('',#113,.T.);
#65=FACE_OUTER_BOUND('',#114,.T.);
#66=FACE_OUTER_BOUND('',#115,.T.);
#67=FACE_OUTER_BOUND('',#116,.T.);
#68=FACE_OUTER_BOUND('',#119,.T.);
#69=FACE_OUTER_BOUND('',#120,.T.);
#70=FACE_OUTER_BOUND('',#121,.T.);
#71=FACE_OUTER_BOUND('',#122,.T.);
#72=FACE_OUTER_BOUND('',#123,.T.);
#73=FACE_OUTER_BOUND('',#124,.T.);
#74=FACE_OUTER_BOUND('',#125,.T.);
#75=FACE_OUTER_BOUND('',#126,.T.);
#76=FACE_OUTER_BOUND('',#127,.T.);
#77=EDGE_LOOP('',(#443,#444,#445,#446,#447,#448,#449,#450,#451,#452,#453,
#454));
#78=EDGE_LOOP('',(#455));
#79=EDGE_LOOP('',(#456));
#80=EDGE_LOOP('',(#457));
#81=EDGE_LOOP('',(#458));
#82=EDGE_LOOP('',(#459));
#83=EDGE_LOOP('',(#460,#461,#462,#463,#464,#465,#466,#467));
#84=EDGE_LOOP('',(#468));
#85=EDGE_LOOP('',(#469));
#86=EDGE_LOOP('',(#470));
#87=EDGE_LOOP('',(#471));
#88=EDGE_LOOP('',(#472));
#89=EDGE_LOOP('',(#473));
#90=EDGE_LOOP('',(#474,#475,#476,#477,#478,#479,#480,#481));
#91=EDGE_LOOP('',(#482));
#92=EDGE_LOOP('',(#483));
#93=EDGE_LOOP('',(#484));
#94=EDGE_LOOP('',(#485));
#95=EDGE_LOOP('',(#486));
#96=EDGE_LOOP('',(#487));
#97=EDGE_LOOP('',(#488));
#98=EDGE_LOOP('',(#489,#490,#491,#492));
#99=EDGE_LOOP('',(#493,#494,#495,#496));
#100=EDGE_LOOP('',(#497,#498,#499,#500));
#101=EDGE_LOOP('',(#501,#502,#503,#504));
#102=EDGE_LOOP('',(#505,#506,#507,#508));
#103=EDGE_LOOP('',(#509,#510,#511,#512));
#104=EDGE_LOOP('',(#513,#514,#515,#516));
#105=EDGE_LOOP('',(#517,#518,#519,#520));
#106=EDGE_LOOP('',(#521,#522,#523,#524));
#107=EDGE_LOOP('',(#525,#526,#527,#528));
#108=EDGE_LOOP('',(#529,#530,#531,#532));
#109=EDGE_LOOP('',(#533,#534,#535,#536));
#110=EDGE_LOOP('',(#537,#538,#539,#540,#541,#542,#543,#544));
#111=EDGE_LOOP('',(#545,#546,#547,#548));
#112=EDGE_LOOP('',(#549,#550,#551,#552));
#113=EDGE_LOOP('',(#553,#554,#555,#556));
#114=EDGE_LOOP('',(#557,#558,#559,#560));
#115=EDGE_LOOP('',(#561,#562,#563,#564));
#116=EDGE_LOOP('',(#565,#566,#567,#568,#569,#570,#571,#572,#573,#574,#575,
#576,#577,#578,#579,#580,#581,#582,#583,#584,#585,#586));
#117=EDGE_LOOP('',(#587));
#118=EDGE_LOOP('',(#588));
#119=EDGE_LOOP('',(#589,#590,#591,#592));
#120=EDGE_LOOP('',(#593,#594,#595,#596));
#121=EDGE_LOOP('',(#597,#598,#599,#600,#601,#602,#603,#604));
#122=EDGE_LOOP('',(#605,#606,#607,#608));
#123=EDGE_LOOP('',(#609,#610,#611,#612));
#124=EDGE_LOOP('',(#613,#614,#615,#616));
#125=EDGE_LOOP('',(#617,#618,#619,#620));
#126=EDGE_LOOP('',(#621,#622,#623,#624));
#127=EDGE_LOOP('',(#625,#626,#627,#628));
#128=LINE('',#938,#195);
#129=LINE('',#940,#196);
#130=LINE('',#942,#197);
#131=LINE('',#944,#198);
#132=LINE('',#946,#199);
#133=LINE('',#948,#200);
#134=LINE('',#950,#201);
#135=LINE('',#954,#202);
#136=LINE('',#956,#203);
#137=LINE('',#957,#204);
#138=LINE('',#970,#205);
#139=LINE('',#972,#206);
#140=LINE('',#976,#207);
#141=LINE('',#995,#208);
#142=LINE('',#997,#209);
#143=LINE('',#999,#210);
#144=LINE('',#1001,#211);
#145=LINE('',#1003,#212);
#146=LINE('',#1005,#213);
#147=LINE('',#1007,#214);
#148=LINE('',#1008,#215);
#149=LINE('',#1023,#216);
#150=LINE('',#1025,#217);
#151=LINE('',#1027,#218);
#152=LINE('',#1029,#219);
#153=LINE('',#1031,#220);
#154=LINE('',#1033,#221);
#155=LINE('',#1035,#222);
#156=LINE('',#1039,#223);
#157=LINE('',#1040,#224);
#158=LINE('',#1041,#225);
#159=LINE('',#1045,#226);
#160=LINE('',#1046,#227);
#161=LINE('',#1047,#228);
#162=LINE('',#1051,#229);
#163=LINE('',#1052,#230);
#164=LINE('',#1053,#231);
#165=LINE('',#1057,#232);
#166=LINE('',#1058,#233);
#167=LINE('',#1059,#234);
#168=LINE('',#1063,#235);
#169=LINE('',#1066,#236);
#170=LINE('',#1069,#237);
#171=LINE('',#1072,#238);
#172=LINE('',#1076,#239);
#173=LINE('',#1079,#240);
#174=LINE('',#1080,#241);
#175=LINE('',#1083,#242);
#176=LINE('',#1084,#243);
#177=LINE('',#1087,#244);
#178=LINE('',#1088,#245);
#179=LINE('',#1091,#246);
#180=LINE('',#1092,#247);
#181=LINE('',#1094,#248);
#182=LINE('',#1095,#249);
#183=LINE('',#1096,#250);
#184=LINE('',#1097,#251);
#185=LINE('',#1098,#252);
#186=LINE('',#1100,#253);
#187=LINE('',#1102,#254);
#188=LINE('',#1104,#255);
#189=LINE('',#1106,#256);
#190=LINE('',#1107,#257);
#191=LINE('',#1109,#258);
#192=LINE('',#1111,#259);
#193=LINE('',#1115,#260);
#194=LINE('',#1117,#261);
#195=VECTOR('',#751,10.);
#196=VECTOR('',#752,10.);
#197=VECTOR('',#753,10.);
#198=VECTOR('',#754,10.);
#199=VECTOR('',#755,10.);
#200=VECTOR('',#756,10.);
#201=VECTOR('',#757,10.);
#202=VECTOR('',#760,10.);
#203=VECTOR('',#761,10.);
#204=VECTOR('',#762,10.);
#205=VECTOR('',#775,10.);
#206=VECTOR('',#776,10.);
#207=VECTOR('',#779,1.6);
#208=VECTOR('',#800,10.);
#209=VECTOR('',#801,10.);
#210=VECTOR('',#802,10.);
#211=VECTOR('',#803,10.);
#212=VECTOR('',#804,10.);
#213=VECTOR('',#805,10.);
#214=VECTOR('',#806,10.);
#215=VECTOR('',#807,10.);
#216=VECTOR('',#824,1.6);
#217=VECTOR('',#827,1.6);
#218=VECTOR('',#830,1.6);
#219=VECTOR('',#833,1.6);
#220=VECTOR('',#836,3.5);
#221=VECTOR('',#839,10.5);
#222=VECTOR('',#842,13.5);
#223=VECTOR('',#845,10.);
#224=VECTOR('',#846,10.);
#225=VECTOR('',#847,10.);
#226=VECTOR('',#850,10.);
#227=VECTOR('',#851,10.);
#228=VECTOR('',#852,10.);
#229=VECTOR('',#855,10.);
#230=VECTOR('',#856,10.);
#231=VECTOR('',#857,10.);
#232=VECTOR('',#860,10.);
#233=VECTOR('',#861,10.);
#234=VECTOR('',#862,10.);
#235=VECTOR('',#867,1.6);
#236=VECTOR('',#870,10.);
#237=VECTOR('',#873,1.6);
#238=VECTOR('',#876,10.);
#239=VECTOR('',#881,1.6);
#240=VECTOR('',#884,10.);
#241=VECTOR('',#885,10.);
#242=VECTOR('',#888,10.);
#243=VECTOR('',#889,10.);
#244=VECTOR('',#892,10.);
#245=VECTOR('',#893,10.);
#246=VECTOR('',#896,10.);
#247=VECTOR('',#897,10.);
#248=VECTOR('',#900,10.);
#249=VECTOR('',#901,10.);
#250=VECTOR('',#902,10.);
#251=VECTOR('',#903,10.);
#252=VECTOR('',#904,10.);
#253=VECTOR('',#905,10.);
#254=VECTOR('',#906,10.);
#255=VECTOR('',#907,10.);
#256=VECTOR('',#908,10.);
#257=VECTOR('',#909,10.);
#258=VECTOR('',#912,10.);
#259=VECTOR('',#915,10.);
#260=VECTOR('',#922,10.);
#261=VECTOR('',#925,10.);
#262=CIRCLE('',#687,1.6);
#263=CIRCLE('',#688,1.6);
#264=CIRCLE('',#689,3.5);
#265=CIRCLE('',#690,1.6);
#266=CIRCLE('',#691,1.6);
#267=CIRCLE('',#692,1.6);
#268=CIRCLE('',#693,1.6);
#269=CIRCLE('',#695,1.6);
#270=CIRCLE('',#696,1.6);
#271=CIRCLE('',#697,1.6);
#272=CIRCLE('',#699,10.5);
#273=CIRCLE('',#700,3.5);
#274=CIRCLE('',#701,1.6);
#275=CIRCLE('',#702,1.6);
#276=CIRCLE('',#703,1.6);
#277=CIRCLE('',#704,1.6);
#278=CIRCLE('',#706,1.6);
#279=CIRCLE('',#707,1.6);
#280=CIRCLE('',#708,1.6);
#281=CIRCLE('',#709,13.5);
#282=CIRCLE('',#711,13.5);
#283=CIRCLE('',#712,10.5);
#284=CIRCLE('',#725,1.6);
#285=CIRCLE('',#727,1.6);
#286=CIRCLE('',#728,1.6);
#287=CIRCLE('',#730,1.6);
#288=VERTEX_POINT('',#934);
#289=VERTEX_POINT('',#935);
#290=VERTEX_POINT('',#937);
#291=VERTEX_POINT('',#939);
#292=VERTEX_POINT('',#941);
#293=VERTEX_POINT('',#943);
#294=VERTEX_POINT('',#945);
#295=VERTEX_POINT('',#947);
#296=VERTEX_POINT('',#949);
#297=VERTEX_POINT('',#951);
#298=VERTEX_POINT('',#953);
#299=VERTEX_POINT('',#955);
#300=VERTEX_POINT('',#958);
#301=VERTEX_POINT('',#960);
#302=VERTEX_POINT('',#962);
#303=VERTEX_POINT('',#964);
#304=VERTEX_POINT('',#966);
#305=VERTEX_POINT('',#969);
#306=VERTEX_POINT('',#971);
#307=VERTEX_POINT('',#973);
#308=VERTEX_POINT('',#975);
#309=VERTEX_POINT('',#980);
#310=VERTEX_POINT('',#982);
#311=VERTEX_POINT('',#984);
#312=VERTEX_POINT('',#986);
#313=VERTEX_POINT('',#988);
#314=VERTEX_POINT('',#990);
#315=VERTEX_POINT('',#993);
#316=VERTEX_POINT('',#994);
#317=VERTEX_POINT('',#996);
#318=VERTEX_POINT('',#998);
#319=VERTEX_POINT('',#1000);
#320=VERTEX_POINT('',#1002);
#321=VERTEX_POINT('',#1004);
#322=VERTEX_POINT('',#1006);
#323=VERTEX_POINT('',#1009);
#324=VERTEX_POINT('',#1011);
#325=VERTEX_POINT('',#1013);
#326=VERTEX_POINT('',#1015);
#327=VERTEX_POINT('',#1018);
#328=VERTEX_POINT('',#1020);
#329=VERTEX_POINT('',#1037);
#330=VERTEX_POINT('',#1038);
#331=VERTEX_POINT('',#1043);
#332=VERTEX_POINT('',#1044);
#333=VERTEX_POINT('',#1049);
#334=VERTEX_POINT('',#1050);
#335=VERTEX_POINT('',#1055);
#336=VERTEX_POINT('',#1056);
#337=VERTEX_POINT('',#1061);
#338=VERTEX_POINT('',#1065);
#339=VERTEX_POINT('',#1067);
#340=VERTEX_POINT('',#1070);
#341=VERTEX_POINT('',#1074);
#342=VERTEX_POINT('',#1078);
#343=VERTEX_POINT('',#1082);
#344=VERTEX_POINT('',#1086);
#345=VERTEX_POINT('',#1090);
#346=VERTEX_POINT('',#1099);
#347=VERTEX_POINT('',#1101);
#348=VERTEX_POINT('',#1103);
#349=VERTEX_POINT('',#1105);
#350=EDGE_CURVE('',#288,#289,#262,.T.);
#351=EDGE_CURVE('',#290,#288,#128,.T.);
#352=EDGE_CURVE('',#291,#290,#129,.T.);
#353=EDGE_CURVE('',#292,#291,#130,.T.);
#354=EDGE_CURVE('',#293,#292,#131,.T.);
#355=EDGE_CURVE('',#294,#293,#132,.T.);
#356=EDGE_CURVE('',#295,#294,#133,.T.);
#357=EDGE_CURVE('',#296,#295,#134,.T.);
#358=EDGE_CURVE('',#297,#296,#263,.T.);
#359=EDGE_CURVE('',#298,#297,#135,.T.);
#360=EDGE_CURVE('',#299,#298,#136,.T.);
#361=EDGE_CURVE('',#289,#299,#137,.T.);
#362=EDGE_CURVE('',#300,#300,#264,.T.);
#363=EDGE_CURVE('',#301,#301,#265,.T.);
#364=EDGE_CURVE('',#302,#302,#266,.T.);
#365=EDGE_CURVE('',#303,#303,#267,.T.);
#366=EDGE_CURVE('',#304,#304,#268,.T.);
#367=EDGE_CURVE('',#305,#288,#138,.T.);
#368=EDGE_CURVE('',#289,#306,#139,.T.);
#369=EDGE_CURVE('',#307,#306,#269,.T.);
#370=EDGE_CURVE('',#307,#308,#140,.T.);
#371=EDGE_CURVE('',#308,#308,#270,.T.);
#372=EDGE_CURVE('',#305,#307,#271,.T.);
#373=EDGE_CURVE('',#309,#309,#272,.T.);
#374=EDGE_CURVE('',#310,#310,#273,.T.);
#375=EDGE_CURVE('',#311,#311,#274,.T.);
#376=EDGE_CURVE('',#312,#312,#275,.T.);
#377=EDGE_CURVE('',#313,#313,#276,.T.);
#378=EDGE_CURVE('',#314,#314,#277,.T.);
#379=EDGE_CURVE('',#315,#316,#141,.T.);
#380=EDGE_CURVE('',#316,#317,#142,.T.);
#381=EDGE_CURVE('',#317,#318,#143,.T.);
#382=EDGE_CURVE('',#318,#319,#144,.T.);
#383=EDGE_CURVE('',#319,#320,#145,.T.);
#384=EDGE_CURVE('',#320,#321,#146,.T.);
#385=EDGE_CURVE('',#321,#322,#147,.T.);
#386=EDGE_CURVE('',#322,#315,#148,.T.);
#387=EDGE_CURVE('',#323,#323,#278,.T.);
#388=EDGE_CURVE('',#324,#324,#279,.T.);
#389=EDGE_CURVE('',#325,#325,#280,.T.);
#390=EDGE_CURVE('',#326,#326,#281,.T.);
#391=EDGE_CURVE('',#327,#327,#282,.T.);
#392=EDGE_CURVE('',#328,#328,#283,.T.);
#393=EDGE_CURVE('',#314,#304,#149,.T.);
#394=EDGE_CURVE('',#313,#303,#150,.T.);
#395=EDGE_CURVE('',#312,#302,#151,.T.);
#396=EDGE_CURVE('',#311,#301,#152,.T.);
#397=EDGE_CURVE('',#310,#300,#153,.T.);
#398=EDGE_CURVE('',#328,#309,#154,.T.);
#399=EDGE_CURVE('',#327,#326,#155,.T.);
#400=EDGE_CURVE('',#329,#330,#156,.T.);
#401=EDGE_CURVE('',#329,#321,#157,.T.);
#402=EDGE_CURVE('',#320,#330,#158,.T.);
#403=EDGE_CURVE('',#331,#332,#159,.T.);
#404=EDGE_CURVE('',#331,#317,#160,.T.);
#405=EDGE_CURVE('',#332,#316,#161,.T.);
#406=EDGE_CURVE('',#333,#334,#162,.T.);
#407=EDGE_CURVE('',#315,#333,#163,.T.);
#408=EDGE_CURVE('',#334,#322,#164,.T.);
#409=EDGE_CURVE('',#335,#336,#165,.T.);
#410=EDGE_CURVE('',#319,#336,#166,.T.);
#411=EDGE_CURVE('',#335,#318,#167,.T.);
#412=EDGE_CURVE('',#337,#337,#284,.T.);
#413=EDGE_CURVE('',#337,#325,#168,.T.);
#414=EDGE_CURVE('',#296,#338,#169,.T.);
#415=EDGE_CURVE('',#339,#338,#285,.T.);
#416=EDGE_CURVE('',#339,#324,#170,.T.);
#417=EDGE_CURVE('',#340,#339,#286,.T.);
#418=EDGE_CURVE('',#340,#297,#171,.T.);
#419=EDGE_CURVE('',#341,#341,#287,.T.);
#420=EDGE_CURVE('',#341,#323,#172,.T.);
#421=EDGE_CURVE('',#342,#299,#173,.T.);
#422=EDGE_CURVE('',#306,#342,#174,.T.);
#423=EDGE_CURVE('',#343,#305,#175,.T.);
#424=EDGE_CURVE('',#290,#343,#176,.T.);
#425=EDGE_CURVE('',#344,#295,#177,.T.);
#426=EDGE_CURVE('',#338,#344,#178,.T.);
#427=EDGE_CURVE('',#345,#340,#179,.T.);
#428=EDGE_CURVE('',#298,#345,#180,.T.);
#429=EDGE_CURVE('',#331,#342,#181,.T.);
#430=EDGE_CURVE('',#332,#333,#182,.T.);
#431=EDGE_CURVE('',#329,#334,#183,.T.);
#432=EDGE_CURVE('',#330,#336,#184,.T.);
#433=EDGE_CURVE('',#345,#335,#185,.T.);
#434=EDGE_CURVE('',#344,#346,#186,.T.);
#435=EDGE_CURVE('',#346,#347,#187,.T.);
#436=EDGE_CURVE('',#347,#348,#188,.T.);
#437=EDGE_CURVE('',#348,#349,#189,.T.);
#438=EDGE_CURVE('',#349,#343,#190,.T.);
#439=EDGE_CURVE('',#349,#291,#191,.T.);
#440=EDGE_CURVE('',#346,#294,#192,.T.);
#441=EDGE_CURVE('',#347,#293,#193,.T.);
#442=EDGE_CURVE('',#292,#348,#194,.T.);
#443=ORIENTED_EDGE('',*,*,#350,.F.);
#444=ORIENTED_EDGE('',*,*,#351,.F.);
#445=ORIENTED_EDGE('',*,*,#352,.F.);
#446=ORIENTED_EDGE('',*,*,#353,.F.);
#447=ORIENTED_EDGE('',*,*,#354,.F.);
#448=ORIENTED_EDGE('',*,*,#355,.F.);
#449=ORIENTED_EDGE('',*,*,#356,.F.);
#450=ORIENTED_EDGE('',*,*,#357,.F.);
#451=ORIENTED_EDGE('',*,*,#358,.F.);
#452=ORIENTED_EDGE('',*,*,#359,.F.);
#453=ORIENTED_EDGE('',*,*,#360,.F.);
#454=ORIENTED_EDGE('',*,*,#361,.F.);
#455=ORIENTED_EDGE('',*,*,#362,.F.);
#456=ORIENTED_EDGE('',*,*,#363,.F.);
#457=ORIENTED_EDGE('',*,*,#364,.F.);
#458=ORIENTED_EDGE('',*,*,#365,.F.);
#459=ORIENTED_EDGE('',*,*,#366,.F.);
#460=ORIENTED_EDGE('',*,*,#367,.T.);
#461=ORIENTED_EDGE('',*,*,#350,.T.);
#462=ORIENTED_EDGE('',*,*,#368,.T.);
#463=ORIENTED_EDGE('',*,*,#369,.F.);
#464=ORIENTED_EDGE('',*,*,#370,.T.);
#465=ORIENTED_EDGE('',*,*,#371,.F.);
#466=ORIENTED_EDGE('',*,*,#370,.F.);
#467=ORIENTED_EDGE('',*,*,#372,.F.);
#468=ORIENTED_EDGE('',*,*,#373,.F.);
#469=ORIENTED_EDGE('',*,*,#374,.T.);
#470=ORIENTED_EDGE('',*,*,#375,.T.);
#471=ORIENTED_EDGE('',*,*,#376,.T.);
#472=ORIENTED_EDGE('',*,*,#377,.T.);
#473=ORIENTED_EDGE('',*,*,#378,.T.);
#474=ORIENTED_EDGE('',*,*,#379,.T.);
#475=ORIENTED_EDGE('',*,*,#380,.T.);
#476=ORIENTED_EDGE('',*,*,#381,.T.);
#477=ORIENTED_EDGE('',*,*,#382,.T.);
#478=ORIENTED_EDGE('',*,*,#383,.T.);
#479=ORIENTED_EDGE('',*,*,#384,.T.);
#480=ORIENTED_EDGE('',*,*,#385,.T.);
#481=ORIENTED_EDGE('',*,*,#386,.T.);
#482=ORIENTED_EDGE('',*,*,#387,.T.);
#483=ORIENTED_EDGE('',*,*,#388,.T.);
#484=ORIENTED_EDGE('',*,*,#371,.T.);
#485=ORIENTED_EDGE('',*,*,#389,.T.);
#486=ORIENTED_EDGE('',*,*,#390,.F.);
#487=ORIENTED_EDGE('',*,*,#391,.T.);
#488=ORIENTED_EDGE('',*,*,#392,.T.);
#489=ORIENTED_EDGE('',*,*,#378,.F.);
#490=ORIENTED_EDGE('',*,*,#393,.T.);
#491=ORIENTED_EDGE('',*,*,#366,.T.);
#492=ORIENTED_EDGE('',*,*,#393,.F.);
#493=ORIENTED_EDGE('',*,*,#377,.F.);
#494=ORIENTED_EDGE('',*,*,#394,.T.);
#495=ORIENTED_EDGE('',*,*,#365,.T.);
#496=ORIENTED_EDGE('',*,*,#394,.F.);
#497=ORIENTED_EDGE('',*,*,#376,.F.);
#498=ORIENTED_EDGE('',*,*,#395,.T.);
#499=ORIENTED_EDGE('',*,*,#364,.T.);
#500=ORIENTED_EDGE('',*,*,#395,.F.);
#501=ORIENTED_EDGE('',*,*,#375,.F.);
#502=ORIENTED_EDGE('',*,*,#396,.T.);
#503=ORIENTED_EDGE('',*,*,#363,.T.);
#504=ORIENTED_EDGE('',*,*,#396,.F.);
#505=ORIENTED_EDGE('',*,*,#374,.F.);
#506=ORIENTED_EDGE('',*,*,#397,.T.);
#507=ORIENTED_EDGE('',*,*,#362,.T.);
#508=ORIENTED_EDGE('',*,*,#397,.F.);
#509=ORIENTED_EDGE('',*,*,#392,.F.);
#510=ORIENTED_EDGE('',*,*,#398,.T.);
#511=ORIENTED_EDGE('',*,*,#373,.T.);
#512=ORIENTED_EDGE('',*,*,#398,.F.);
#513=ORIENTED_EDGE('',*,*,#391,.F.);
#514=ORIENTED_EDGE('',*,*,#399,.T.);
#515=ORIENTED_EDGE('',*,*,#390,.T.);
#516=ORIENTED_EDGE('',*,*,#399,.F.);
#517=ORIENTED_EDGE('',*,*,#400,.F.);
#518=ORIENTED_EDGE('',*,*,#401,.T.);
#519=ORIENTED_EDGE('',*,*,#384,.F.);
#520=ORIENTED_EDGE('',*,*,#402,.T.);
#521=ORIENTED_EDGE('',*,*,#403,.F.);
#522=ORIENTED_EDGE('',*,*,#404,.T.);
#523=ORIENTED_EDGE('',*,*,#380,.F.);
#524=ORIENTED_EDGE('',*,*,#405,.F.);
#525=ORIENTED_EDGE('',*,*,#406,.F.);
#526=ORIENTED_EDGE('',*,*,#407,.F.);
#527=ORIENTED_EDGE('',*,*,#386,.F.);
#528=ORIENTED_EDGE('',*,*,#408,.F.);
#529=ORIENTED_EDGE('',*,*,#409,.T.);
#530=ORIENTED_EDGE('',*,*,#410,.F.);
#531=ORIENTED_EDGE('',*,*,#382,.F.);
#532=ORIENTED_EDGE('',*,*,#411,.F.);
#533=ORIENTED_EDGE('',*,*,#412,.F.);
#534=ORIENTED_EDGE('',*,*,#413,.T.);
#535=ORIENTED_EDGE('',*,*,#389,.F.);
#536=ORIENTED_EDGE('',*,*,#413,.F.);
#537=ORIENTED_EDGE('',*,*,#414,.T.);
#538=ORIENTED_EDGE('',*,*,#415,.F.);
#539=ORIENTED_EDGE('',*,*,#416,.T.);
#540=ORIENTED_EDGE('',*,*,#388,.F.);
#541=ORIENTED_EDGE('',*,*,#416,.F.);
#542=ORIENTED_EDGE('',*,*,#417,.F.);
#543=ORIENTED_EDGE('',*,*,#418,.T.);
#544=ORIENTED_EDGE('',*,*,#358,.T.);
#545=ORIENTED_EDGE('',*,*,#419,.F.);
#546=ORIENTED_EDGE('',*,*,#420,.T.);
#547=ORIENTED_EDGE('',*,*,#387,.F.);
#548=ORIENTED_EDGE('',*,*,#420,.F.);
#549=ORIENTED_EDGE('',*,*,#368,.F.);
#550=ORIENTED_EDGE('',*,*,#361,.T.);
#551=ORIENTED_EDGE('',*,*,#421,.F.);
#552=ORIENTED_EDGE('',*,*,#422,.F.);
#553=ORIENTED_EDGE('',*,*,#367,.F.);
#554=ORIENTED_EDGE('',*,*,#423,.F.);
#555=ORIENTED_EDGE('',*,*,#424,.F.);
#556=ORIENTED_EDGE('',*,*,#351,.T.);
#557=ORIENTED_EDGE('',*,*,#414,.F.);
#558=ORIENTED_EDGE('',*,*,#357,.T.);
#559=ORIENTED_EDGE('',*,*,#425,.F.);
#560=ORIENTED_EDGE('',*,*,#426,.F.);
#561=ORIENTED_EDGE('',*,*,#418,.F.);
#562=ORIENTED_EDGE('',*,*,#427,.F.);
#563=ORIENTED_EDGE('',*,*,#428,.F.);
#564=ORIENTED_EDGE('',*,*,#359,.T.);
#565=ORIENTED_EDGE('',*,*,#372,.T.);
#566=ORIENTED_EDGE('',*,*,#369,.T.);
#567=ORIENTED_EDGE('',*,*,#422,.T.);
#568=ORIENTED_EDGE('',*,*,#429,.F.);
#569=ORIENTED_EDGE('',*,*,#403,.T.);
#570=ORIENTED_EDGE('',*,*,#430,.T.);
#571=ORIENTED_EDGE('',*,*,#406,.T.);
#572=ORIENTED_EDGE('',*,*,#431,.F.);
#573=ORIENTED_EDGE('',*,*,#400,.T.);
#574=ORIENTED_EDGE('',*,*,#432,.T.);
#575=ORIENTED_EDGE('',*,*,#409,.F.);
#576=ORIENTED_EDGE('',*,*,#433,.F.);
#577=ORIENTED_EDGE('',*,*,#427,.T.);
#578=ORIENTED_EDGE('',*,*,#417,.T.);
#579=ORIENTED_EDGE('',*,*,#415,.T.);
#580=ORIENTED_EDGE('',*,*,#426,.T.);
#581=ORIENTED_EDGE('',*,*,#434,.T.);
#582=ORIENTED_EDGE('',*,*,#435,.T.);
#583=ORIENTED_EDGE('',*,*,#436,.T.);
#584=ORIENTED_EDGE('',*,*,#437,.T.);
#585=ORIENTED_EDGE('',*,*,#438,.T.);
#586=ORIENTED_EDGE('',*,*,#423,.T.);
#587=ORIENTED_EDGE('',*,*,#419,.T.);
#588=ORIENTED_EDGE('',*,*,#412,.T.);
#589=ORIENTED_EDGE('',*,*,#424,.T.);
#590=ORIENTED_EDGE('',*,*,#438,.F.);
#591=ORIENTED_EDGE('',*,*,#439,.T.);
#592=ORIENTED_EDGE('',*,*,#352,.T.);
#593=ORIENTED_EDGE('',*,*,#425,.T.);
#594=ORIENTED_EDGE('',*,*,#356,.T.);
#595=ORIENTED_EDGE('',*,*,#440,.F.);
#596=ORIENTED_EDGE('',*,*,#434,.F.);
#597=ORIENTED_EDGE('',*,*,#428,.T.);
#598=ORIENTED_EDGE('',*,*,#433,.T.);
#599=ORIENTED_EDGE('',*,*,#411,.T.);
#600=ORIENTED_EDGE('',*,*,#381,.F.);
#601=ORIENTED_EDGE('',*,*,#404,.F.);
#602=ORIENTED_EDGE('',*,*,#429,.T.);
#603=ORIENTED_EDGE('',*,*,#421,.T.);
#604=ORIENTED_EDGE('',*,*,#360,.T.);
#605=ORIENTED_EDGE('',*,*,#431,.T.);
#606=ORIENTED_EDGE('',*,*,#408,.T.);
#607=ORIENTED_EDGE('',*,*,#385,.F.);
#608=ORIENTED_EDGE('',*,*,#401,.F.);
#609=ORIENTED_EDGE('',*,*,#441,.F.);
#610=ORIENTED_EDGE('',*,*,#435,.F.);
#611=ORIENTED_EDGE('',*,*,#440,.T.);
#612=ORIENTED_EDGE('',*,*,#355,.T.);
#613=ORIENTED_EDGE('',*,*,#442,.T.);
#614=ORIENTED_EDGE('',*,*,#436,.F.);
#615=ORIENTED_EDGE('',*,*,#441,.T.);
#616=ORIENTED_EDGE('',*,*,#354,.T.);
#617=ORIENTED_EDGE('',*,*,#439,.F.);
#618=ORIENTED_EDGE('',*,*,#437,.F.);
#619=ORIENTED_EDGE('',*,*,#442,.F.);
#620=ORIENTED_EDGE('',*,*,#353,.T.);
#621=ORIENTED_EDGE('',*,*,#410,.T.);
#622=ORIENTED_EDGE('',*,*,#432,.F.);
#623=ORIENTED_EDGE('',*,*,#402,.F.);
#624=ORIENTED_EDGE('',*,*,#383,.F.);
#625=ORIENTED_EDGE('',*,*,#407,.T.);
#626=ORIENTED_EDGE('',*,*,#430,.F.);
#627=ORIENTED_EDGE('',*,*,#405,.T.);
#628=ORIENTED_EDGE('',*,*,#379,.F.);
#629=PLANE('',#686);
#630=PLANE('',#698);
#631=PLANE('',#705);
#632=PLANE('',#710);
#633=PLANE('',#720);
#634=PLANE('',#721);
#635=PLANE('',#722);
#636=PLANE('',#723);
#637=PLANE('',#731);
#638=PLANE('',#732);
#639=PLANE('',#733);
#640=PLANE('',#734);
#641=PLANE('',#735);
#642=PLANE('',#736);
#643=PLANE('',#737);
#644=PLANE('',#738);
#645=PLANE('',#739);
#646=PLANE('',#740);
#647=PLANE('',#741);
#648=PLANE('',#742);
#649=PLANE('',#743);
#650=PLANE('',#744);
#651=ADVANCED_FACE('',(#44,#26,#27,#28,#29,#30),#629,.T.);
#652=ADVANCED_FACE('',(#45),#15,.F.);
#653=ADVANCED_FACE('',(#46,#31,#32,#33,#34,#35),#630,.F.);
#654=ADVANCED_FACE('',(#47,#36,#37,#38,#39,#40),#631,.F.);
#655=ADVANCED_FACE('',(#48,#41),#632,.T.);
#656=ADVANCED_FACE('',(#49),#16,.F.);
#657=ADVANCED_FACE('',(#50),#17,.F.);
#658=ADVANCED_FACE('',(#51),#18,.F.);
#659=ADVANCED_FACE('',(#52),#19,.F.);
#660=ADVANCED_FACE('',(#53),#20,.F.);
#661=ADVANCED_FACE('',(#54),#21,.F.);
#662=ADVANCED_FACE('',(#55),#22,.T.);
#663=ADVANCED_FACE('',(#56),#633,.T.);
#664=ADVANCED_FACE('',(#57),#634,.T.);
#665=ADVANCED_FACE('',(#58),#635,.T.);
#666=ADVANCED_FACE('',(#59),#636,.T.);
#667=ADVANCED_FACE('',(#60),#23,.F.);
#668=ADVANCED_FACE('',(#61),#24,.F.);
#669=ADVANCED_FACE('',(#62),#25,.F.);
#670=ADVANCED_FACE('',(#63),#637,.F.);
#671=ADVANCED_FACE('',(#64),#638,.F.);
#672=ADVANCED_FACE('',(#65),#639,.F.);
#673=ADVANCED_FACE('',(#66),#640,.F.);
#674=ADVANCED_FACE('',(#67,#42,#43),#641,.T.);
#675=ADVANCED_FACE('',(#68),#642,.T.);
#676=ADVANCED_FACE('',(#69),#643,.T.);
#677=ADVANCED_FACE('',(#70),#644,.T.);
#678=ADVANCED_FACE('',(#71),#645,.T.);
#679=ADVANCED_FACE('',(#72),#646,.T.);
#680=ADVANCED_FACE('',(#73),#647,.T.);
#681=ADVANCED_FACE('',(#74),#648,.T.);
#682=ADVANCED_FACE('',(#75),#649,.T.);
#683=ADVANCED_FACE('',(#76),#650,.T.);
#684=CLOSED_SHELL('',(#651,#652,#653,#654,#655,#656,#657,#658,#659,#660,
#661,#662,#663,#664,#665,#666,#667,#668,#669,#670,#671,#672,#673,#674,#675,
#676,#677,#678,#679,#680,#681,#682,#683));
#685=AXIS2_PLACEMENT_3D('',#932,#745,#746);
#686=AXIS2_PLACEMENT_3D('',#933,#747,#748);
#687=AXIS2_PLACEMENT_3D('',#936,#749,#750);
#688=AXIS2_PLACEMENT_3D('',#952,#758,#759);
#689=AXIS2_PLACEMENT_3D('',#959,#763,#764);
#690=AXIS2_PLACEMENT_3D('',#961,#765,#766);
#691=AXIS2_PLACEMENT_3D('',#963,#767,#768);
#692=AXIS2_PLACEMENT_3D('',#965,#769,#770);
#693=AXIS2_PLACEMENT_3D('',#967,#771,#772);
#694=AXIS2_PLACEMENT_3D('',#968,#773,#774);
#695=AXIS2_PLACEMENT_3D('',#974,#777,#778);
#696=AXIS2_PLACEMENT_3D('',#977,#780,#781);
#697=AXIS2_PLACEMENT_3D('',#978,#782,#783);
#698=AXIS2_PLACEMENT_3D('',#979,#784,#785);
#699=AXIS2_PLACEMENT_3D('',#981,#786,#787);
#700=AXIS2_PLACEMENT_3D('',#983,#788,#789);
#701=AXIS2_PLACEMENT_3D('',#985,#790,#791);
#702=AXIS2_PLACEMENT_3D('',#987,#792,#793);
#703=AXIS2_PLACEMENT_3D('',#989,#794,#795);
#704=AXIS2_PLACEMENT_3D('',#991,#796,#797);
#705=AXIS2_PLACEMENT_3D('',#992,#798,#799);
#706=AXIS2_PLACEMENT_3D('',#1010,#808,#809);
#707=AXIS2_PLACEMENT_3D('',#1012,#810,#811);
#708=AXIS2_PLACEMENT_3D('',#1014,#812,#813);
#709=AXIS2_PLACEMENT_3D('',#1016,#814,#815);
#710=AXIS2_PLACEMENT_3D('',#1017,#816,#817);
#711=AXIS2_PLACEMENT_3D('',#1019,#818,#819);
#712=AXIS2_PLACEMENT_3D('',#1021,#820,#821);
#713=AXIS2_PLACEMENT_3D('',#1022,#822,#823);
#714=AXIS2_PLACEMENT_3D('',#1024,#825,#826);
#715=AXIS2_PLACEMENT_3D('',#1026,#828,#829);
#716=AXIS2_PLACEMENT_3D('',#1028,#831,#832);
#717=AXIS2_PLACEMENT_3D('',#1030,#834,#835);
#718=AXIS2_PLACEMENT_3D('',#1032,#837,#838);
#719=AXIS2_PLACEMENT_3D('',#1034,#840,#841);
#720=AXIS2_PLACEMENT_3D('',#1036,#843,#844);
#721=AXIS2_PLACEMENT_3D('',#1042,#848,#849);
#722=AXIS2_PLACEMENT_3D('',#1048,#853,#854);
#723=AXIS2_PLACEMENT_3D('',#1054,#858,#859);
#724=AXIS2_PLACEMENT_3D('',#1060,#863,#864);
#725=AXIS2_PLACEMENT_3D('',#1062,#865,#866);
#726=AXIS2_PLACEMENT_3D('',#1064,#868,#869);
#727=AXIS2_PLACEMENT_3D('',#1068,#871,#872);
#728=AXIS2_PLACEMENT_3D('',#1071,#874,#875);
#729=AXIS2_PLACEMENT_3D('',#1073,#877,#878);
#730=AXIS2_PLACEMENT_3D('',#1075,#879,#880);
#731=AXIS2_PLACEMENT_3D('',#1077,#882,#883);
#732=AXIS2_PLACEMENT_3D('',#1081,#886,#887);
#733=AXIS2_PLACEMENT_3D('',#1085,#890,#891);
#734=AXIS2_PLACEMENT_3D('',#1089,#894,#895);
#735=AXIS2_PLACEMENT_3D('',#1093,#898,#899);
#736=AXIS2_PLACEMENT_3D('',#1108,#910,#911);
#737=AXIS2_PLACEMENT_3D('',#1110,#913,#914);
#738=AXIS2_PLACEMENT_3D('',#1112,#916,#917);
#739=AXIS2_PLACEMENT_3D('',#1113,#918,#919);
#740=AXIS2_PLACEMENT_3D('',#1114,#920,#921);
#741=AXIS2_PLACEMENT_3D('',#1116,#923,#924);
#742=AXIS2_PLACEMENT_3D('',#1118,#926,#927);
#743=AXIS2_PLACEMENT_3D('',#1119,#928,#929);
#744=AXIS2_PLACEMENT_3D('',#1120,#930,#931);
#745=DIRECTION('axis',(0.,0.,1.));
#746=DIRECTION('refdir',(1.,0.,0.));
#747=DIRECTION('center_axis',(0.,0.,1.));
#748=DIRECTION('ref_axis',(1.,0.,0.));
#749=DIRECTION('center_axis',(0.,0.,1.));
#750=DIRECTION('ref_axis',(1.,1.72563323017096E-31,5.98699295060652E-47));
#751=DIRECTION('',(-1.,0.,0.));
#752=DIRECTION('',(0.,1.,0.));
#753=DIRECTION('',(-1.,0.,0.));
#754=DIRECTION('',(0.,-1.,0.));
#755=DIRECTION('',(1.,0.,0.));
#756=DIRECTION('',(0.,1.,0.));
#757=DIRECTION('',(1.,0.,0.));
#758=DIRECTION('center_axis',(0.,0.,1.));
#759=DIRECTION('ref_axis',(1.,1.72563323017096E-31,5.98699295060652E-47));
#760=DIRECTION('',(1.,0.,0.));
#761=DIRECTION('',(0.,1.,0.));
#762=DIRECTION('',(-1.,0.,0.));
#763=DIRECTION('center_axis',(0.,0.,1.));
#764=DIRECTION('ref_axis',(1.,0.,0.));
#765=DIRECTION('center_axis',(0.,0.,1.));
#766=DIRECTION('ref_axis',(1.,0.,0.));
#767=DIRECTION('center_axis',(0.,0.,1.));
#768=DIRECTION('ref_axis',(1.,0.,0.));
#769=DIRECTION('center_axis',(0.,0.,1.));
#770=DIRECTION('ref_axis',(1.,0.,0.));
#771=DIRECTION('center_axis',(0.,0.,1.));
#772=DIRECTION('ref_axis',(1.,0.,0.));
#773=DIRECTION('center_axis',(0.,3.4073340909212E-16,-1.));
#774=DIRECTION('ref_axis',(1.,1.72563323017096E-31,5.98699295060652E-47));
#775=DIRECTION('',(0.,3.4073340909212E-16,-1.));
#776=DIRECTION('',(0.,-3.4073340909212E-16,1.));
#777=DIRECTION('center_axis',(0.,0.,-1.));
#778=DIRECTION('ref_axis',(1.,1.72563323017096E-31,5.98699295060652E-47));
#779=DIRECTION('',(0.,3.4073340909212E-16,-1.));
#780=DIRECTION('center_axis',(0.,0.,1.));
#781=DIRECTION('ref_axis',(1.,1.72563323017096E-31,5.98699295060652E-47));
#782=DIRECTION('center_axis',(0.,0.,-1.));
#783=DIRECTION('ref_axis',(1.,1.72563323017096E-31,5.98699295060652E-47));
#784=DIRECTION('center_axis',(0.,0.,1.));
#785=DIRECTION('ref_axis',(1.,0.,0.));
#786=DIRECTION('center_axis',(0.,0.,1.));
#787=DIRECTION('ref_axis',(1.,0.,0.));
#788=DIRECTION('center_axis',(0.,0.,1.));
#789=DIRECTION('ref_axis',(1.,0.,0.));
#790=DIRECTION('center_axis',(0.,0.,1.));
#791=DIRECTION('ref_axis',(1.,0.,0.));
#792=DIRECTION('center_axis',(0.,0.,1.));
#793=DIRECTION('ref_axis',(1.,0.,0.));
#794=DIRECTION('center_axis',(0.,0.,1.));
#795=DIRECTION('ref_axis',(1.,0.,0.));
#796=DIRECTION('center_axis',(0.,0.,1.));
#797=DIRECTION('ref_axis',(1.,0.,0.));
#798=DIRECTION('center_axis',(0.,0.,1.));
#799=DIRECTION('ref_axis',(1.,0.,0.));
#800=DIRECTION('',(-1.,0.,0.));
#801=DIRECTION('',(-0.514495730623873,0.857492940594736,0.));
#802=DIRECTION('',(0.,1.,0.));
#803=DIRECTION('',(0.514495755427527,0.857492925712544,0.));
#804=DIRECTION('',(1.,0.,0.));
#805=DIRECTION('',(0.447213489942161,-0.894427243778807,0.));
#806=DIRECTION('',(0.,-1.,0.));
#807=DIRECTION('',(-0.447213489942161,-0.894427243778807,0.));
#808=DIRECTION('center_axis',(0.,0.,1.));
#809=DIRECTION('ref_axis',(1.,1.72563323017096E-31,5.98699295060651E-47));
#810=DIRECTION('center_axis',(0.,0.,1.));
#811=DIRECTION('ref_axis',(1.,1.72563323017096E-31,5.98699295060652E-47));
#812=DIRECTION('center_axis',(0.,0.,1.));
#813=DIRECTION('ref_axis',(1.,1.72563323017096E-31,5.98699295060651E-47));
#814=DIRECTION('center_axis',(0.,0.,-1.));
#815=DIRECTION('ref_axis',(1.,0.,0.));
#816=DIRECTION('center_axis',(0.,0.,-1.));
#817=DIRECTION('ref_axis',(1.,0.,0.));
#818=DIRECTION('center_axis',(0.,0.,-1.));
#819=DIRECTION('ref_axis',(1.,0.,0.));
#820=DIRECTION('center_axis',(0.,0.,1.));
#821=DIRECTION('ref_axis',(1.,0.,0.));
#822=DIRECTION('center_axis',(0.,0.,1.));
#823=DIRECTION('ref_axis',(1.,0.,0.));
#824=DIRECTION('',(0.,0.,1.));
#825=DIRECTION('center_axis',(0.,0.,1.));
#826=DIRECTION('ref_axis',(1.,0.,0.));
#827=DIRECTION('',(0.,0.,1.));
#828=DIRECTION('center_axis',(0.,0.,1.));
#829=DIRECTION('ref_axis',(1.,0.,0.));
#830=DIRECTION('',(0.,0.,1.));
#831=DIRECTION('center_axis',(0.,0.,1.));
#832=DIRECTION('ref_axis',(1.,0.,0.));
#833=DIRECTION('',(0.,0.,1.));
#834=DIRECTION('center_axis',(0.,0.,1.));
#835=DIRECTION('ref_axis',(1.,0.,0.));
#836=DIRECTION('',(0.,0.,1.));
#837=DIRECTION('center_axis',(0.,0.,-1.));
#838=DIRECTION('ref_axis',(1.,0.,0.));
#839=DIRECTION('',(0.,0.,1.));
#840=DIRECTION('center_axis',(0.,0.,-1.));
#841=DIRECTION('ref_axis',(1.,0.,0.));
#842=DIRECTION('',(0.,0.,1.));
#843=DIRECTION('center_axis',(0.894427243778807,0.447213489942161,0.));
#844=DIRECTION('ref_axis',(0.447213489942161,-0.894427243778807,0.));
#845=DIRECTION('',(-0.447213489942161,0.894427243778807,0.));
#846=DIRECTION('',(0.,0.,-1.));
#847=DIRECTION('',(0.,0.,1.));
#848=DIRECTION('center_axis',(-0.857492940594736,-0.514495730623873,0.));
#849=DIRECTION('ref_axis',(-0.514495730623873,0.857492940594736,0.));
#850=DIRECTION('',(0.514495730623873,-0.857492940594736,0.));
#851=DIRECTION('',(0.,0.,-1.));
#852=DIRECTION('',(0.,0.,-1.));
#853=DIRECTION('center_axis',(0.894427243778807,-0.447213489942161,0.));
#854=DIRECTION('ref_axis',(-0.447213489942161,-0.894427243778807,0.));
#855=DIRECTION('',(0.447213489942161,0.894427243778807,0.));
#856=DIRECTION('',(0.,0.,1.));
#857=DIRECTION('',(0.,0.,-1.));
#858=DIRECTION('center_axis',(-0.857492925712544,0.514495755427527,0.));
#859=DIRECTION('ref_axis',(0.514495755427527,0.857492925712544,0.));
#860=DIRECTION('',(0.514495755427527,0.857492925712544,0.));
#861=DIRECTION('',(0.,0.,1.));
#862=DIRECTION('',(0.,0.,-1.));
#863=DIRECTION('center_axis',(0.,3.69127859849796E-16,-1.));
#864=DIRECTION('ref_axis',(1.,1.72563323017096E-31,5.98699295060651E-47));
#865=DIRECTION('center_axis',(0.,0.,-1.));
#866=DIRECTION('ref_axis',(1.,1.72563323017096E-31,5.98699295060651E-47));
#867=DIRECTION('',(0.,3.69127859849796E-16,-1.));
#868=DIRECTION('center_axis',(0.,3.69127859849796E-16,-1.));
#869=DIRECTION('ref_axis',(1.,1.72563323017096E-31,5.98699295060652E-47));
#870=DIRECTION('',(0.,-3.69127859849796E-16,1.));
#871=DIRECTION('center_axis',(0.,0.,-1.));
#872=DIRECTION('ref_axis',(1.,1.72563323017096E-31,5.98699295060652E-47));
#873=DIRECTION('',(0.,3.69127859849796E-16,-1.));
#874=DIRECTION('center_axis',(0.,0.,-1.));
#875=DIRECTION('ref_axis',(1.,1.72563323017096E-31,5.98699295060652E-47));
#876=DIRECTION('',(0.,3.69127859849796E-16,-1.));
#877=DIRECTION('center_axis',(0.,3.4073340909212E-16,-1.));
#878=DIRECTION('ref_axis',(1.,1.72563323017096E-31,5.98699295060651E-47));
#879=DIRECTION('center_axis',(0.,0.,-1.));
#880=DIRECTION('ref_axis',(1.,1.72563323017096E-31,5.98699295060651E-47));
#881=DIRECTION('',(0.,3.4073340909212E-16,-1.));
#882=DIRECTION('center_axis',(0.,-1.,0.));
#883=DIRECTION('ref_axis',(-1.,0.,0.));
#884=DIRECTION('',(0.,0.,-1.));
#885=DIRECTION('',(-1.,0.,0.));
#886=DIRECTION('center_axis',(0.,-1.,0.));
#887=DIRECTION('ref_axis',(-1.,0.,0.));
#888=DIRECTION('',(-1.,0.,0.));
#889=DIRECTION('',(0.,0.,1.));
#890=DIRECTION('center_axis',(0.,1.,0.));
#891=DIRECTION('ref_axis',(1.,0.,0.));
#892=DIRECTION('',(0.,0.,-1.));
#893=DIRECTION('',(1.,0.,0.));
#894=DIRECTION('center_axis',(0.,1.,0.));
#895=DIRECTION('ref_axis',(1.,0.,0.));
#896=DIRECTION('',(1.,0.,0.));
#897=DIRECTION('',(0.,0.,1.));
#898=DIRECTION('center_axis',(0.,0.,1.));
#899=DIRECTION('ref_axis',(1.,0.,0.));
#900=DIRECTION('',(0.,1.,0.));
#901=DIRECTION('',(1.,0.,0.));
#902=DIRECTION('',(0.,-1.,0.));
#903=DIRECTION('',(-1.,0.,0.));
#904=DIRECTION('',(0.,1.,0.));
#905=DIRECTION('',(0.,1.,0.));
#906=DIRECTION('',(1.,0.,0.));
#907=DIRECTION('',(0.,-1.,0.));
#908=DIRECTION('',(-1.,0.,0.));
#909=DIRECTION('',(0.,1.,0.));
#910=DIRECTION('center_axis',(1.,0.,0.));
#911=DIRECTION('ref_axis',(0.,1.,0.));
#912=DIRECTION('',(0.,0.,-1.));
#913=DIRECTION('center_axis',(1.,0.,0.));
#914=DIRECTION('ref_axis',(0.,1.,0.));
#915=DIRECTION('',(0.,0.,-1.));
#916=DIRECTION('center_axis',(-1.,0.,0.));
#917=DIRECTION('ref_axis',(0.,1.,0.));
#918=DIRECTION('center_axis',(1.,0.,0.));
#919=DIRECTION('ref_axis',(0.,-1.,0.));
#920=DIRECTION('center_axis',(0.,-1.,0.));
#921=DIRECTION('ref_axis',(1.,0.,0.));
#922=DIRECTION('',(0.,0.,-1.));
#923=DIRECTION('center_axis',(-1.,0.,0.));
#924=DIRECTION('ref_axis',(0.,-1.,0.));
#925=DIRECTION('',(0.,0.,1.));
#926=DIRECTION('center_axis',(0.,1.,0.));
#927=DIRECTION('ref_axis',(-1.,0.,0.));
#928=DIRECTION('center_axis',(0.,1.,0.));
#929=DIRECTION('ref_axis',(-1.,0.,0.));
#930=DIRECTION('center_axis',(0.,-1.,0.));
#931=DIRECTION('ref_axis',(1.,0.,0.));
#932=CARTESIAN_POINT('',(0.,0.,0.));
#933=CARTESIAN_POINT('Origin',(21.0000003129244,-11.0000001639128,3.));
#934=CARTESIAN_POINT('',(-3.41776879659678,-14.5000002160668,3.));
#935=CARTESIAN_POINT('',(-4.51794527484632,-14.5000002160668,3.));
#936=CARTESIAN_POINT('Origin',(-3.96785703572155,-16.0024658327039,3.));
#937=CARTESIAN_POINT('',(0.,-14.5000002160668,3.));
#938=CARTESIAN_POINT('',(-5.00000007450581,-14.5000002160668,3.));
#939=CARTESIAN_POINT('',(0.,-22.,3.));
#940=CARTESIAN_POINT('',(0.,-16.5000000819564,3.));
#941=CARTESIAN_POINT('',(42.,-22.,3.));
#942=CARTESIAN_POINT('',(31.5000001564622,-22.,3.));
#943=CARTESIAN_POINT('',(42.,0.,3.));
#944=CARTESIAN_POINT('',(42.,-5.50000008195639,3.));
#945=CARTESIAN_POINT('',(0.,0.,3.));
#946=CARTESIAN_POINT('',(10.5000001564622,0.,3.));
#947=CARTESIAN_POINT('',(0.,-7.50000011175871,3.));
#948=CARTESIAN_POINT('',(0.,-16.5000000819564,3.));
#949=CARTESIAN_POINT('',(-3.40448186765276,-7.50000011175871,3.));
#950=CARTESIAN_POINT('',(0.,-7.50000011175871,3.));
#951=CARTESIAN_POINT('',(-4.53123174948064,-7.50000011175871,3.));
#952=CARTESIAN_POINT('Origin',(-3.9678568085667,-6.0024659131675,3.));
#953=CARTESIAN_POINT('',(-8.00000011920929,-7.50000011175871,3.));
#954=CARTESIAN_POINT('',(0.,-7.50000011175871,3.));
#955=CARTESIAN_POINT('',(-8.00000011920929,-14.5000002160668,3.));
#956=CARTESIAN_POINT('',(-8.00000011920929,-16.5000000819564,3.));
#957=CARTESIAN_POINT('',(-5.00000007450581,-14.5000002160668,3.));
#958=CARTESIAN_POINT('',(7.3321438107103,-11.0024667526544,3.));
#959=CARTESIAN_POINT('Origin',(10.8321438107103,-11.0024667526544,3.));
#960=CARTESIAN_POINT('',(9.23214381071029,-18.2524667526544,3.));
#961=CARTESIAN_POINT('Origin',(10.8321438107103,-18.2524667526544,3.));
#962=CARTESIAN_POINT('',(16.4821438107103,-11.0024667526544,3.));
#963=CARTESIAN_POINT('Origin',(18.0821438107103,-11.0024667526544,3.));
#964=CARTESIAN_POINT('',(1.9821438107103,-11.0024667526544,3.));
#965=CARTESIAN_POINT('Origin',(3.5821438107103,-11.0024667526544,3.));
#966=CARTESIAN_POINT('',(9.23214381071029,-3.75246675265438,3.));
#967=CARTESIAN_POINT('Origin',(10.8321438107103,-3.75246675265438,3.));
#968=CARTESIAN_POINT('Origin',(-3.96785703572155,-16.0024658327039,39.100001335144));
#969=CARTESIAN_POINT('',(-3.41776879659681,-14.5000002160668,35.));
#970=CARTESIAN_POINT('',(-3.41776879659681,-14.5000002160668,39.100001335144));
#971=CARTESIAN_POINT('',(-4.5179452748463,-14.5000002160668,35.));
#972=CARTESIAN_POINT('',(-4.51794527484629,-14.5000002160668,39.100001335144));
#973=CARTESIAN_POINT('',(-5.56785703572155,-16.0024658327039,35.));
#974=CARTESIAN_POINT('Origin',(-3.96785703572155,-16.0024658327039,35.));
#975=CARTESIAN_POINT('',(-5.56785703572155,-16.0024658327039,-1.999998664856));
#976=CARTESIAN_POINT('',(-5.56785703572155,-16.0024658327039,39.100001335144));
#977=CARTESIAN_POINT('Origin',(-3.96785703572155,-16.0024658327039,-2.));
#978=CARTESIAN_POINT('Origin',(-3.96785703572155,-16.0024658327039,35.));
#979=CARTESIAN_POINT('Origin',(21.0000003129244,-11.0000001639128,-1.));
#980=CARTESIAN_POINT('',(0.33214381071029,-11.0024667526543,-1.));
#981=CARTESIAN_POINT('Origin',(10.8321438107103,-11.0024667526543,-1.));
#982=CARTESIAN_POINT('',(7.33214381071029,-11.0024667526544,-1.));
#983=CARTESIAN_POINT('Origin',(10.8321438107103,-11.0024667526544,-1.));
#984=CARTESIAN_POINT('',(9.2321438107103,-18.2524667526544,-1.));
#985=CARTESIAN_POINT('Origin',(10.8321438107103,-18.2524667526544,-1.));
#986=CARTESIAN_POINT('',(16.4821438107103,-11.0024667526544,-1.));
#987=CARTESIAN_POINT('Origin',(18.0821438107103,-11.0024667526544,-1.));
#988=CARTESIAN_POINT('',(1.9821438107103,-11.0024667526544,-1.));
#989=CARTESIAN_POINT('Origin',(3.5821438107103,-11.0024667526544,-1.));
#990=CARTESIAN_POINT('',(9.2321438107103,-3.75246675265438,-1.));
#991=CARTESIAN_POINT('Origin',(10.8321438107103,-3.75246675265438,-1.));
#992=CARTESIAN_POINT('Origin',(21.0000003129244,-11.0000001639128,-2.));
#993=CARTESIAN_POINT('',(47.0000007003546,-27.0000004023314,-2.));
#994=CARTESIAN_POINT('',(-5.00000007450581,-27.0000004023314,-2.));
#995=CARTESIAN_POINT('',(47.0000007003546,-27.0000004023314,-2.));
#996=CARTESIAN_POINT('',(-8.00000011920929,-22.,-2.));
#997=CARTESIAN_POINT('',(-8.00000011920929,-22.,-2.));
#998=CARTESIAN_POINT('',(-8.00000011920929,0.,-2.));
#999=CARTESIAN_POINT('',(-8.00000011920929,-22.,-2.));
#1000=CARTESIAN_POINT('',(-5.00000007450581,5.00000007450581,-2.));
#1001=CARTESIAN_POINT('',(-8.00000011920929,0.,-2.));
#1002=CARTESIAN_POINT('',(47.0000007003546,5.00000007450581,-2.));
#1003=CARTESIAN_POINT('',(-5.00000007450581,5.00000007450581,-2.));
#1004=CARTESIAN_POINT('',(49.5,0.,-2.));
#1005=CARTESIAN_POINT('',(49.5,0.,-2.));
#1006=CARTESIAN_POINT('',(49.5,-22.0000003278255,-2.));
#1007=CARTESIAN_POINT('',(49.5,0.,-2.));
#1008=CARTESIAN_POINT('',(47.0000007003546,-27.0000004023314,-2.));
#1009=CARTESIAN_POINT('',(44.0321439834447,-16.002466389104,-1.999998664856));
#1010=CARTESIAN_POINT('Origin',(45.6321439834447,-16.002466389104,-2.));
#1011=CARTESIAN_POINT('',(-5.5678568085667,-6.0024659131675,-1.999998664856));
#1012=CARTESIAN_POINT('Origin',(-3.9678568085667,-6.0024659131675,-2.));
#1013=CARTESIAN_POINT('',(44.0321440481402,-6.00246654169409,-1.999998664856));
#1014=CARTESIAN_POINT('Origin',(45.6321440481402,-6.00246654169409,-2.));
#1015=CARTESIAN_POINT('',(-2.66785618928971,-11.0024667526543,-2.));
#1016=CARTESIAN_POINT('Origin',(10.8321438107103,-11.0024667526543,-2.));
#1017=CARTESIAN_POINT('Origin',(10.8321438107103,-11.0024667526543,-4.));
#1018=CARTESIAN_POINT('',(-2.66785618928971,-11.0024667526543,-4.));
#1019=CARTESIAN_POINT('Origin',(10.8321438107103,-11.0024667526543,-4.));
#1020=CARTESIAN_POINT('',(0.33214381071029,-11.0024667526543,-4.));
#1021=CARTESIAN_POINT('Origin',(10.8321438107103,-11.0024667526543,-4.));
#1022=CARTESIAN_POINT('Origin',(10.8321438107103,-3.75246675265438,1.));
#1023=CARTESIAN_POINT('',(9.2321438107103,-3.75246675265438,1.));
#1024=CARTESIAN_POINT('Origin',(3.5821438107103,-11.0024667526544,1.));
#1025=CARTESIAN_POINT('',(1.9821438107103,-11.0024667526544,1.));
#1026=CARTESIAN_POINT('Origin',(18.0821438107103,-11.0024667526544,1.));
#1027=CARTESIAN_POINT('',(16.4821438107103,-11.0024667526544,1.));
#1028=CARTESIAN_POINT('Origin',(10.8321438107103,-18.2524667526544,1.));
#1029=CARTESIAN_POINT('',(9.2321438107103,-18.2524667526544,1.));
#1030=CARTESIAN_POINT('Origin',(10.8321438107103,-11.0024667526544,1.));
#1031=CARTESIAN_POINT('',(7.33214381071029,-11.0024667526544,1.));
#1032=CARTESIAN_POINT('Origin',(10.8321438107103,-11.0024667526543,0.));
#1033=CARTESIAN_POINT('',(0.33214381071029,-11.0024667526543,0.));
#1034=CARTESIAN_POINT('Origin',(10.8321438107103,-11.0024667526543,0.));
#1035=CARTESIAN_POINT('',(-2.66785618928971,-11.0024667526543,0.));
#1036=CARTESIAN_POINT('Origin',(47.0000007003546,5.00000007450581,35.));
#1037=CARTESIAN_POINT('',(49.5,0.,35.));
#1038=CARTESIAN_POINT('',(47.0000007003546,5.00000007450581,35.));
#1039=CARTESIAN_POINT('',(49.5,0.,35.));
#1040=CARTESIAN_POINT('',(49.5,0.,35.));
#1041=CARTESIAN_POINT('',(47.0000007003546,5.00000007450581,0.));
#1042=CARTESIAN_POINT('Origin',(-5.00000007450581,-27.0000004023314,35.));
#1043=CARTESIAN_POINT('',(-8.00000011920929,-22.,35.));
#1044=CARTESIAN_POINT('',(-5.00000007450581,-27.0000004023314,35.));
#1045=CARTESIAN_POINT('',(-8.00000011920929,-22.,35.));
#1046=CARTESIAN_POINT('',(-8.00000011920929,-22.,35.));
#1047=CARTESIAN_POINT('',(-5.00000007450581,-27.0000004023314,0.));
#1048=CARTESIAN_POINT('Origin',(49.5,-22.0000003278255,35.));
#1049=CARTESIAN_POINT('',(47.0000007003546,-27.0000004023314,35.));
#1050=CARTESIAN_POINT('',(49.5,-22.0000003278255,35.));
#1051=CARTESIAN_POINT('',(47.0000007003546,-27.0000004023314,35.));
#1052=CARTESIAN_POINT('',(47.0000007003546,-27.0000004023314,0.));
#1053=CARTESIAN_POINT('',(49.5,-22.0000003278255,35.));
#1054=CARTESIAN_POINT('Origin',(-8.00000011920929,0.,35.));
#1055=CARTESIAN_POINT('',(-8.00000011920929,0.,35.));
#1056=CARTESIAN_POINT('',(-5.00000007450581,5.00000007450581,35.));
#1057=CARTESIAN_POINT('',(-8.00000011920929,0.,35.));
#1058=CARTESIAN_POINT('',(-5.00000007450581,5.00000007450581,0.));
#1059=CARTESIAN_POINT('',(-8.00000011920929,0.,35.));
#1060=CARTESIAN_POINT('Origin',(45.6321440481402,-6.00246654169411,39.100001335144));
#1061=CARTESIAN_POINT('',(44.0321440481402,-6.00246654169411,35.));
#1062=CARTESIAN_POINT('Origin',(45.6321440481402,-6.00246654169411,35.));
#1063=CARTESIAN_POINT('',(44.0321440481402,-6.00246654169411,39.100001335144));
#1064=CARTESIAN_POINT('Origin',(-3.9678568085667,-6.00246591316751,39.100001335144));
#1065=CARTESIAN_POINT('',(-3.40448186765273,-7.50000011175871,35.));
#1066=CARTESIAN_POINT('',(-3.40448186765273,-7.50000011175871,39.100001335144));
#1067=CARTESIAN_POINT('',(-5.5678568085667,-6.00246591316751,35.));
#1068=CARTESIAN_POINT('Origin',(-3.9678568085667,-6.00246591316751,35.));
#1069=CARTESIAN_POINT('',(-5.5678568085667,-6.00246591316751,39.100001335144));
#1070=CARTESIAN_POINT('',(-4.53123174948067,-7.50000011175871,35.));
#1071=CARTESIAN_POINT('Origin',(-3.9678568085667,-6.00246591316751,35.));
#1072=CARTESIAN_POINT('',(-4.53123174948067,-7.50000011175871,39.100001335144));
#1073=CARTESIAN_POINT('Origin',(45.6321439834447,-16.0024663891041,39.100001335144));
#1074=CARTESIAN_POINT('',(44.0321439834447,-16.0024663891041,35.));
#1075=CARTESIAN_POINT('Origin',(45.6321439834447,-16.0024663891041,35.));
#1076=CARTESIAN_POINT('',(44.0321439834447,-16.0024663891041,39.100001335144));
#1077=CARTESIAN_POINT('Origin',(0.,-14.5000002160668,35.));
#1078=CARTESIAN_POINT('',(-8.00000011920929,-14.5000002160668,35.));
#1079=CARTESIAN_POINT('',(-8.00000011920929,-14.5000002160668,20.));
#1080=CARTESIAN_POINT('',(8.00000011920929,-14.5000002160668,35.));
#1081=CARTESIAN_POINT('Origin',(0.,-14.5000002160668,35.));
#1082=CARTESIAN_POINT('',(0.,-14.5000002160668,35.));
#1083=CARTESIAN_POINT('',(8.00000011920929,-14.5000002160668,35.));
#1084=CARTESIAN_POINT('',(0.,-14.5000002160668,17.5));
#1085=CARTESIAN_POINT('Origin',(-5.00000007450581,-7.50000011175871,35.));
#1086=CARTESIAN_POINT('',(0.,-7.50000011175871,35.));
#1087=CARTESIAN_POINT('',(0.,-7.50000011175871,17.5));
#1088=CARTESIAN_POINT('',(8.00000011920929,-7.50000011175871,35.));
#1089=CARTESIAN_POINT('Origin',(-5.00000007450581,-7.50000011175871,35.));
#1090=CARTESIAN_POINT('',(-8.00000011920929,-7.50000011175871,35.));
#1091=CARTESIAN_POINT('',(8.00000011920929,-7.50000011175871,35.));
#1092=CARTESIAN_POINT('',(-8.00000011920929,-7.50000011175871,20.));
#1093=CARTESIAN_POINT('Origin',(21.0000003129244,-11.0000001639128,35.));
#1094=CARTESIAN_POINT('',(-8.00000011920929,-22.,35.));
#1095=CARTESIAN_POINT('',(47.0000007003546,-27.0000004023314,35.));
#1096=CARTESIAN_POINT('',(49.5,0.,35.));
#1097=CARTESIAN_POINT('',(-5.00000007450581,5.00000007450581,35.));
#1098=CARTESIAN_POINT('',(-8.00000011920929,-22.,35.));
#1099=CARTESIAN_POINT('',(0.,0.,35.));
#1100=CARTESIAN_POINT('',(0.,-22.,35.));
#1101=CARTESIAN_POINT('',(42.,0.,35.));
#1102=CARTESIAN_POINT('',(0.,0.,35.));
#1103=CARTESIAN_POINT('',(42.,-22.,35.));
#1104=CARTESIAN_POINT('',(42.,0.,35.));
#1105=CARTESIAN_POINT('',(0.,-22.,35.));
#1106=CARTESIAN_POINT('',(42.,-22.,35.));
#1107=CARTESIAN_POINT('',(0.,-22.,35.));
#1108=CARTESIAN_POINT('Origin',(0.,-22.,0.));
#1109=CARTESIAN_POINT('',(0.,-22.,5.));
#1110=CARTESIAN_POINT('Origin',(0.,-22.,0.));
#1111=CARTESIAN_POINT('',(0.,0.,5.));
#1112=CARTESIAN_POINT('Origin',(-8.00000011920929,-22.,35.));
#1113=CARTESIAN_POINT('Origin',(49.5,0.,35.));
#1114=CARTESIAN_POINT('Origin',(0.,0.,0.));
#1115=CARTESIAN_POINT('',(42.,0.,5.));
#1116=CARTESIAN_POINT('Origin',(42.,0.,0.));
#1117=CARTESIAN_POINT('',(42.,-22.,0.));
#1118=CARTESIAN_POINT('Origin',(42.,-22.,0.));
#1119=CARTESIAN_POINT('Origin',(47.0000007003546,5.00000007450581,0.));
#1120=CARTESIAN_POINT('Origin',(-5.00000007450581,-27.0000004023314,0.));
#1121=UNCERTAINTY_MEASURE_WITH_UNIT(LENGTH_MEASURE(0.01),#1125,
'DISTANCE_ACCURACY_VALUE',
'Maximum model space distance between geometric entities at asserted c
onnectivities');
#1122=UNCERTAINTY_MEASURE_WITH_UNIT(LENGTH_MEASURE(0.01),#1125,
'DISTANCE_ACCURACY_VALUE',
'Maximum model space distance between geometric entities at asserted c
onnectivities');
#1123=(
GEOMETRIC_REPRESENTATION_CONTEXT(3)
GLOBAL_UNCERTAINTY_ASSIGNED_CONTEXT((#1121))
GLOBAL_UNIT_ASSIGNED_CONTEXT((#1125,#1126,#1127))
REPRESENTATION_CONTEXT('','3D')
);
#1124=(
GEOMETRIC_REPRESENTATION_CONTEXT(3)
GLOBAL_UNCERTAINTY_ASSIGNED_CONTEXT((#1122))
GLOBAL_UNIT_ASSIGNED_CONTEXT((#1125,#1126,#1127))
REPRESENTATION_CONTEXT('','3D')
);
#1125=(
LENGTH_UNIT()
NAMED_UNIT(*)
SI_UNIT(.MILLI.,.METRE.)
);
#1126=(
NAMED_UNIT(*)
PLANE_ANGLE_UNIT()
SI_UNIT($,.RADIAN.)
);
#1127=(
NAMED_UNIT(*)
SI_UNIT($,.STERADIAN.)
SOLID_ANGLE_UNIT()
);
#1128=SHAPE_DEFINITION_REPRESENTATION(#1129,#1130);
#1129=PRODUCT_DEFINITION_SHAPE('',$,#1132);
#1130=SHAPE_REPRESENTATION('',(#685),#1123);
#1131=PRODUCT_DEFINITION_CONTEXT('part definition',#1136,'design');
#1132=PRODUCT_DEFINITION('2026-09-02-10-55-34-379',
'rack & pinion servo holder',#1133,#1131);
#1133=PRODUCT_DEFINITION_FORMATION('',$,#1138);
#1134=PRODUCT_RELATED_PRODUCT_CATEGORY('rack & pinion servo holder',
'rack & pinion servo holder',(#1138));
#1135=APPLICATION_PROTOCOL_DEFINITION('international standard',
'automotive_design',2009,#1136);
#1136=APPLICATION_CONTEXT(
'Core Data for Automotive Mechanical Design Process');
#1137=PRODUCT_CONTEXT('part definition',#1136,'mechanical');
#1138=PRODUCT('2026-09-02-10-55-34-379','rack & pinion servo holder',$,
(#1137));
#1139=PRESENTATION_STYLE_ASSIGNMENT((#1140));
#1140=SURFACE_STYLE_USAGE(.BOTH.,#1141);
#1141=SURFACE_SIDE_STYLE('',(#1142));
#1142=SURFACE_STYLE_FILL_AREA(#1143);
#1143=FILL_AREA_STYLE('Steel - Satin',(#1144));
#1144=FILL_AREA_STYLE_COLOUR('Steel - Satin',#1145);
#1145=COLOUR_RGB('Steel - Satin',0.627450980392157,0.627450980392157,0.627450980392157);
ENDSEC;
END-ISO-10303-21;
