ISO-10303-21;
HEADER;
/* Generated by software containing ST-Developer
 * from STEP Tools, Inc. (www.steptools.com) 
 */

FILE_DESCRIPTION(
/* description */ (''),
/* implementation_level */ '2;1');

FILE_NAME(
/* name */ 'shoulder shaft connect support.step',
/* time_stamp */ '2026-09-26T21:36:25-07:00',
/* author */ (''),
/* organization */ (''),
/* preprocessor_version */ 'ST-DEVELOPER v20.2',
/* originating_system */ 'Autodesk Translation Framework v15.15.0.0',
/* authorisation */ '');

FILE_SCHEMA (('AUTOMOTIVE_DESIGN { 1 0 10303 214 3 1 1 }'));
ENDSEC;

DATA;
#10=MECHANICAL_DESIGN_GEOMETRIC_PRESENTATION_REPRESENTATION('',(#13),#457);
#11=SHAPE_REPRESENTATION_RELATIONSHIP('SRR','None',#464,#12);
#12=ADVANCED_BREP_SHAPE_REPRESENTATION('',(#14),#456);
#13=STYLED_ITEM('',(#473),#14);
#14=MANIFOLD_SOLID_BREP('Body1',#243);
#15=B_SPLINE_CURVE_WITH_KNOTS('',3,(#411,#412,#413,#414,#415,#416,#417,
#418,#419,#420,#421,#422,#423,#424,#425,#426,#427,#428,#429,#430,#431,#432,
#433,#434,#435,#436,#437,#438,#439,#440,#441,#442,#443,#444),
 .UNSPECIFIED.,.T.,.F.,(4,2,2,2,2,2,2,2,2,2,2,2,2,2,2,2,4),(0.,0.060318619961277,
0.120637239922554,0.180955600774317,0.241273961626079,0.301592322477842,
0.361910683329604,0.422229303290881,0.482547923252158,0.542866543213435,
0.603185163174712,0.663503524026475,0.723821884878238,0.78414024573,0.844458606581763,
0.90477722654304,0.965095846504317),.UNSPECIFIED.);
#16=FACE_BOUND('',#47,.T.);
#17=FACE_BOUND('',#50,.T.);
#18=FACE_BOUND('',#52,.T.);
#19=FACE_BOUND('',#54,.T.);
#20=FACE_BOUND('',#56,.T.);
#21=FACE_BOUND('',#60,.T.);
#22=FACE_BOUND('',#62,.T.);
#23=FACE_BOUND('',#66,.T.);
#24=PLANE('',#260);
#25=PLANE('',#265);
#26=PLANE('',#267);
#27=PLANE('',#268);
#28=PLANE('',#269);
#29=PLANE('',#279);
#30=PLANE('',#283);
#31=FACE_OUTER_BOUND('',#45,.T.);
#32=FACE_OUTER_BOUND('',#46,.T.);
#33=FACE_OUTER_BOUND('',#48,.T.);
#34=FACE_OUTER_BOUND('',#49,.T.);
#35=FACE_OUTER_BOUND('',#51,.T.);
#36=FACE_OUTER_BOUND('',#53,.T.);
#37=FACE_OUTER_BOUND('',#55,.T.);
#38=FACE_OUTER_BOUND('',#57,.T.);
#39=FACE_OUTER_BOUND('',#58,.T.);
#40=FACE_OUTER_BOUND('',#59,.T.);
#41=FACE_OUTER_BOUND('',#61,.T.);
#42=FACE_OUTER_BOUND('',#63,.T.);
#43=FACE_OUTER_BOUND('',#64,.T.);
#44=FACE_OUTER_BOUND('',#65,.T.);
#45=EDGE_LOOP('',(#162,#163,#164,#165));
#46=EDGE_LOOP('',(#166));
#47=EDGE_LOOP('',(#167));
#48=EDGE_LOOP('',(#168,#169,#170,#171));
#49=EDGE_LOOP('',(#172));
#50=EDGE_LOOP('',(#173));
#51=EDGE_LOOP('',(#174,#175,#176,#177));
#52=EDGE_LOOP('',(#178));
#53=EDGE_LOOP('',(#179,#180,#181,#182));
#54=EDGE_LOOP('',(#183));
#55=EDGE_LOOP('',(#184,#185,#186,#187));
#56=EDGE_LOOP('',(#188,#189));
#57=EDGE_LOOP('',(#190,#191,#192,#193));
#58=EDGE_LOOP('',(#194,#195,#196,#197));
#59=EDGE_LOOP('',(#198,#199,#200,#201));
#60=EDGE_LOOP('',(#202));
#61=EDGE_LOOP('',(#203,#204,#205,#206));
#62=EDGE_LOOP('',(#207));
#63=EDGE_LOOP('',(#208,#209,#210,#211));
#64=EDGE_LOOP('',(#212,#213,#214,#215));
#65=EDGE_LOOP('',(#216,#217,#218,#219));
#66=EDGE_LOOP('',(#220,#221));
#67=LINE('',#361,#83);
#68=LINE('',#370,#84);
#69=LINE('',#378,#85);
#70=LINE('',#380,#86);
#71=LINE('',#382,#87);
#72=LINE('',#383,#88);
#73=LINE('',#387,#89);
#74=LINE('',#389,#90);
#75=LINE('',#391,#91);
#76=LINE('',#392,#92);
#77=LINE('',#398,#93);
#78=LINE('',#406,#94);
#79=LINE('',#409,#95);
#80=LINE('',#446,#96);
#81=LINE('',#450,#97);
#82=LINE('',#452,#98);
#83=VECTOR('',#290,1.9);
#84=VECTOR('',#301,1.9);
#85=VECTOR('',#310,10.);
#86=VECTOR('',#311,10.);
#87=VECTOR('',#312,10.);
#88=VECTOR('',#313,10.);
#89=VECTOR('',#316,10.);
#90=VECTOR('',#317,10.);
#91=VECTOR('',#318,10.);
#92=VECTOR('',#319,10.);
#93=VECTOR('',#326,10.);
#94=VECTOR('',#339,10.);
#95=VECTOR('',#342,10.);
#96=VECTOR('',#345,10.);
#97=VECTOR('',#350,1.6);
#98=VECTOR('',#353,1.6);
#99=CIRCLE('',#258,1.9);
#100=CIRCLE('',#259,1.9);
#101=CIRCLE('',#261,1.6);
#102=CIRCLE('',#263,1.9);
#103=CIRCLE('',#264,1.9);
#104=CIRCLE('',#266,1.6);
#105=CIRCLE('',#270,27.5);
#106=CIRCLE('',#271,27.5);
#107=CIRCLE('',#272,15.1);
#108=CIRCLE('',#274,27.5);
#109=CIRCLE('',#276,27.5);
#110=CIRCLE('',#278,15.1);
#111=CIRCLE('',#280,1.6);
#112=VERTEX_POINT('',#358);
#113=VERTEX_POINT('',#360);
#114=VERTEX_POINT('',#364);
#115=VERTEX_POINT('',#367);
#116=VERTEX_POINT('',#369);
#117=VERTEX_POINT('',#373);
#118=VERTEX_POINT('',#376);
#119=VERTEX_POINT('',#377);
#120=VERTEX_POINT('',#379);
#121=VERTEX_POINT('',#381);
#122=VERTEX_POINT('',#385);
#123=VERTEX_POINT('',#386);
#124=VERTEX_POINT('',#388);
#125=VERTEX_POINT('',#390);
#126=VERTEX_POINT('',#396);
#127=VERTEX_POINT('',#397);
#128=VERTEX_POINT('',#405);
#129=VERTEX_POINT('',#407);
#130=VERTEX_POINT('',#410);
#131=VERTEX_POINT('',#447);
#132=EDGE_CURVE('',#112,#112,#99,.T.);
#133=EDGE_CURVE('',#112,#113,#67,.T.);
#134=EDGE_CURVE('',#113,#113,#100,.T.);
#135=EDGE_CURVE('',#114,#114,#101,.T.);
#136=EDGE_CURVE('',#115,#115,#102,.T.);
#137=EDGE_CURVE('',#115,#116,#68,.T.);
#138=EDGE_CURVE('',#116,#116,#103,.T.);
#139=EDGE_CURVE('',#117,#117,#104,.T.);
#140=EDGE_CURVE('',#118,#119,#69,.T.);
#141=EDGE_CURVE('',#120,#118,#70,.T.);
#142=EDGE_CURVE('',#121,#120,#71,.T.);
#143=EDGE_CURVE('',#119,#121,#72,.T.);
#144=EDGE_CURVE('',#122,#123,#73,.T.);
#145=EDGE_CURVE('',#124,#122,#74,.T.);
#146=EDGE_CURVE('',#125,#124,#75,.T.);
#147=EDGE_CURVE('',#123,#125,#76,.T.);
#148=EDGE_CURVE('',#119,#122,#105,.T.);
#149=EDGE_CURVE('',#123,#118,#106,.T.);
#150=EDGE_CURVE('',#126,#127,#77,.T.);
#151=EDGE_CURVE('',#127,#126,#107,.T.);
#152=EDGE_CURVE('',#124,#121,#108,.T.);
#153=EDGE_CURVE('',#120,#125,#109,.T.);
#154=EDGE_CURVE('',#128,#127,#78,.T.);
#155=EDGE_CURVE('',#129,#128,#110,.T.);
#156=EDGE_CURVE('',#129,#126,#79,.T.);
#157=EDGE_CURVE('',#130,#130,#15,.T.);
#158=EDGE_CURVE('',#128,#129,#80,.T.);
#159=EDGE_CURVE('',#131,#131,#111,.T.);
#160=EDGE_CURVE('',#130,#117,#81,.T.);
#161=EDGE_CURVE('',#131,#114,#82,.T.);
#162=ORIENTED_EDGE('',*,*,#132,.F.);
#163=ORIENTED_EDGE('',*,*,#133,.T.);
#164=ORIENTED_EDGE('',*,*,#134,.T.);
#165=ORIENTED_EDGE('',*,*,#133,.F.);
#166=ORIENTED_EDGE('',*,*,#134,.F.);
#167=ORIENTED_EDGE('',*,*,#135,.F.);
#168=ORIENTED_EDGE('',*,*,#136,.F.);
#169=ORIENTED_EDGE('',*,*,#137,.T.);
#170=ORIENTED_EDGE('',*,*,#138,.T.);
#171=ORIENTED_EDGE('',*,*,#137,.F.);
#172=ORIENTED_EDGE('',*,*,#138,.F.);
#173=ORIENTED_EDGE('',*,*,#139,.F.);
#174=ORIENTED_EDGE('',*,*,#140,.F.);
#175=ORIENTED_EDGE('',*,*,#141,.F.);
#176=ORIENTED_EDGE('',*,*,#142,.F.);
#177=ORIENTED_EDGE('',*,*,#143,.F.);
#178=ORIENTED_EDGE('',*,*,#136,.T.);
#179=ORIENTED_EDGE('',*,*,#144,.F.);
#180=ORIENTED_EDGE('',*,*,#145,.F.);
#181=ORIENTED_EDGE('',*,*,#146,.F.);
#182=ORIENTED_EDGE('',*,*,#147,.F.);
#183=ORIENTED_EDGE('',*,*,#132,.T.);
#184=ORIENTED_EDGE('',*,*,#140,.T.);
#185=ORIENTED_EDGE('',*,*,#148,.T.);
#186=ORIENTED_EDGE('',*,*,#144,.T.);
#187=ORIENTED_EDGE('',*,*,#149,.T.);
#188=ORIENTED_EDGE('',*,*,#150,.T.);
#189=ORIENTED_EDGE('',*,*,#151,.T.);
#190=ORIENTED_EDGE('',*,*,#143,.T.);
#191=ORIENTED_EDGE('',*,*,#152,.F.);
#192=ORIENTED_EDGE('',*,*,#145,.T.);
#193=ORIENTED_EDGE('',*,*,#148,.F.);
#194=ORIENTED_EDGE('',*,*,#141,.T.);
#195=ORIENTED_EDGE('',*,*,#149,.F.);
#196=ORIENTED_EDGE('',*,*,#147,.T.);
#197=ORIENTED_EDGE('',*,*,#153,.F.);
#198=ORIENTED_EDGE('',*,*,#151,.F.);
#199=ORIENTED_EDGE('',*,*,#154,.F.);
#200=ORIENTED_EDGE('',*,*,#155,.F.);
#201=ORIENTED_EDGE('',*,*,#156,.T.);
#202=ORIENTED_EDGE('',*,*,#157,.F.);
#203=ORIENTED_EDGE('',*,*,#150,.F.);
#204=ORIENTED_EDGE('',*,*,#156,.F.);
#205=ORIENTED_EDGE('',*,*,#158,.F.);
#206=ORIENTED_EDGE('',*,*,#154,.T.);
#207=ORIENTED_EDGE('',*,*,#159,.F.);
#208=ORIENTED_EDGE('',*,*,#157,.T.);
#209=ORIENTED_EDGE('',*,*,#160,.T.);
#210=ORIENTED_EDGE('',*,*,#139,.T.);
#211=ORIENTED_EDGE('',*,*,#160,.F.);
#212=ORIENTED_EDGE('',*,*,#159,.T.);
#213=ORIENTED_EDGE('',*,*,#161,.T.);
#214=ORIENTED_EDGE('',*,*,#135,.T.);
#215=ORIENTED_EDGE('',*,*,#161,.F.);
#216=ORIENTED_EDGE('',*,*,#142,.T.);
#217=ORIENTED_EDGE('',*,*,#153,.T.);
#218=ORIENTED_EDGE('',*,*,#146,.T.);
#219=ORIENTED_EDGE('',*,*,#152,.T.);
#220=ORIENTED_EDGE('',*,*,#158,.T.);
#221=ORIENTED_EDGE('',*,*,#155,.T.);
#222=CYLINDRICAL_SURFACE('',#257,1.9);
#223=CYLINDRICAL_SURFACE('',#262,1.9);
#224=CYLINDRICAL_SURFACE('',#273,27.5);
#225=CYLINDRICAL_SURFACE('',#275,27.5);
#226=CYLINDRICAL_SURFACE('',#277,15.1);
#227=CYLINDRICAL_SURFACE('',#281,1.6);
#228=CYLINDRICAL_SURFACE('',#282,1.6);
#229=ADVANCED_FACE('',(#31),#222,.F.);
#230=ADVANCED_FACE('',(#32,#16),#24,.T.);
#231=ADVANCED_FACE('',(#33),#223,.F.);
#232=ADVANCED_FACE('',(#34,#17),#25,.T.);
#233=ADVANCED_FACE('',(#35,#18),#26,.F.);
#234=ADVANCED_FACE('',(#36,#19),#27,.F.);
#235=ADVANCED_FACE('',(#37,#20),#28,.F.);
#236=ADVANCED_FACE('',(#38),#224,.T.);
#237=ADVANCED_FACE('',(#39),#225,.T.);
#238=ADVANCED_FACE('',(#40,#21),#226,.F.);
#239=ADVANCED_FACE('',(#41,#22),#29,.F.);
#240=ADVANCED_FACE('',(#42),#227,.F.);
#241=ADVANCED_FACE('',(#43),#228,.F.);
#242=ADVANCED_FACE('',(#44,#23),#30,.T.);
#243=CLOSED_SHELL('',(#229,#230,#231,#232,#233,#234,#235,#236,#237,#238,
#239,#240,#241,#242));
#244=DERIVED_UNIT_ELEMENT(#246,1.);
#245=DERIVED_UNIT_ELEMENT(#459,-3.);
#246=(
MASS_UNIT()
NAMED_UNIT(*)
SI_UNIT(.KILO.,.GRAM.)
);
#247=DERIVED_UNIT((#244,#245));
#248=MEASURE_REPRESENTATION_ITEM('density measure',
POSITIVE_RATIO_MEASURE(7850.),#247);
#249=PROPERTY_DEFINITION_REPRESENTATION(#254,#251);
#250=PROPERTY_DEFINITION_REPRESENTATION(#255,#252);
#251=REPRESENTATION('material name',(#253),#456);
#252=REPRESENTATION('density',(#248),#456);
#253=DESCRIPTIVE_REPRESENTATION_ITEM('Steel','Steel');
#254=PROPERTY_DEFINITION('material property','material name',#466);
#255=PROPERTY_DEFINITION('material property','density of part',#466);
#256=AXIS2_PLACEMENT_3D('',#356,#284,#285);
#257=AXIS2_PLACEMENT_3D('',#357,#286,#287);
#258=AXIS2_PLACEMENT_3D('',#359,#288,#289);
#259=AXIS2_PLACEMENT_3D('',#362,#291,#292);
#260=AXIS2_PLACEMENT_3D('',#363,#293,#294);
#261=AXIS2_PLACEMENT_3D('',#365,#295,#296);
#262=AXIS2_PLACEMENT_3D('',#366,#297,#298);
#263=AXIS2_PLACEMENT_3D('',#368,#299,#300);
#264=AXIS2_PLACEMENT_3D('',#371,#302,#303);
#265=AXIS2_PLACEMENT_3D('',#372,#304,#305);
#266=AXIS2_PLACEMENT_3D('',#374,#306,#307);
#267=AXIS2_PLACEMENT_3D('',#375,#308,#309);
#268=AXIS2_PLACEMENT_3D('',#384,#314,#315);
#269=AXIS2_PLACEMENT_3D('',#393,#320,#321);
#270=AXIS2_PLACEMENT_3D('',#394,#322,#323);
#271=AXIS2_PLACEMENT_3D('',#395,#324,#325);
#272=AXIS2_PLACEMENT_3D('',#399,#327,#328);
#273=AXIS2_PLACEMENT_3D('',#400,#329,#330);
#274=AXIS2_PLACEMENT_3D('',#401,#331,#332);
#275=AXIS2_PLACEMENT_3D('',#402,#333,#334);
#276=AXIS2_PLACEMENT_3D('',#403,#335,#336);
#277=AXIS2_PLACEMENT_3D('',#404,#337,#338);
#278=AXIS2_PLACEMENT_3D('',#408,#340,#341);
#279=AXIS2_PLACEMENT_3D('',#445,#343,#344);
#280=AXIS2_PLACEMENT_3D('',#448,#346,#347);
#281=AXIS2_PLACEMENT_3D('',#449,#348,#349);
#282=AXIS2_PLACEMENT_3D('',#451,#351,#352);
#283=AXIS2_PLACEMENT_3D('',#453,#354,#355);
#284=DIRECTION('axis',(0.,0.,1.));
#285=DIRECTION('refdir',(1.,0.,0.));
#286=DIRECTION('center_axis',(-1.,0.,0.));
#287=DIRECTION('ref_axis',(0.,1.,0.));
#288=DIRECTION('center_axis',(-1.,0.,0.));
#289=DIRECTION('ref_axis',(0.,1.,0.));
#290=DIRECTION('',(-1.,0.,0.));
#291=DIRECTION('center_axis',(-1.,0.,0.));
#292=DIRECTION('ref_axis',(0.,1.,0.));
#293=DIRECTION('center_axis',(1.,0.,0.));
#294=DIRECTION('ref_axis',(0.,1.,0.));
#295=DIRECTION('center_axis',(1.,0.,0.));
#296=DIRECTION('ref_axis',(0.,-1.,0.));
#297=DIRECTION('center_axis',(1.,0.,0.));
#298=DIRECTION('ref_axis',(0.,-1.,0.));
#299=DIRECTION('center_axis',(1.,0.,0.));
#300=DIRECTION('ref_axis',(0.,-1.,0.));
#301=DIRECTION('',(1.,0.,0.));
#302=DIRECTION('center_axis',(1.,0.,0.));
#303=DIRECTION('ref_axis',(0.,-1.,0.));
#304=DIRECTION('center_axis',(-1.,0.,0.));
#305=DIRECTION('ref_axis',(0.,-1.,0.));
#306=DIRECTION('center_axis',(-1.,0.,0.));
#307=DIRECTION('ref_axis',(0.,-1.,0.));
#308=DIRECTION('center_axis',(1.,0.,0.));
#309=DIRECTION('ref_axis',(0.,-1.,0.));
#310=DIRECTION('',(0.,1.,0.));
#311=DIRECTION('',(0.,0.,-1.));
#312=DIRECTION('',(0.,-1.,0.));
#313=DIRECTION('',(0.,0.,1.));
#314=DIRECTION('center_axis',(-1.,0.,0.));
#315=DIRECTION('ref_axis',(0.,1.,0.));
#316=DIRECTION('',(0.,-1.,0.));
#317=DIRECTION('',(0.,0.,-1.));
#318=DIRECTION('',(0.,1.,0.));
#319=DIRECTION('',(0.,0.,1.));
#320=DIRECTION('center_axis',(0.,0.,1.));
#321=DIRECTION('ref_axis',(1.,0.,0.));
#322=DIRECTION('center_axis',(0.,0.,-1.));
#323=DIRECTION('ref_axis',(-1.,0.,0.));
#324=DIRECTION('center_axis',(0.,0.,-1.));
#325=DIRECTION('ref_axis',(-1.,0.,0.));
#326=DIRECTION('',(0.,1.,0.));
#327=DIRECTION('center_axis',(0.,0.,1.));
#328=DIRECTION('ref_axis',(-1.,0.,0.));
#329=DIRECTION('center_axis',(0.,0.,-1.));
#330=DIRECTION('ref_axis',(-1.,0.,0.));
#331=DIRECTION('center_axis',(0.,0.,1.));
#332=DIRECTION('ref_axis',(-1.,0.,0.));
#333=DIRECTION('center_axis',(0.,0.,-1.));
#334=DIRECTION('ref_axis',(-1.,0.,0.));
#335=DIRECTION('center_axis',(0.,0.,1.));
#336=DIRECTION('ref_axis',(-1.,0.,0.));
#337=DIRECTION('center_axis',(0.,0.,-1.));
#338=DIRECTION('ref_axis',(-1.,0.,0.));
#339=DIRECTION('',(0.,0.,-1.));
#340=DIRECTION('center_axis',(0.,0.,-1.));
#341=DIRECTION('ref_axis',(-1.,0.,0.));
#342=DIRECTION('',(0.,0.,-1.));
#343=DIRECTION('center_axis',(1.,0.,0.));
#344=DIRECTION('ref_axis',(0.,-1.,0.));
#345=DIRECTION('',(0.,-1.,0.));
#346=DIRECTION('center_axis',(-1.,0.,0.));
#347=DIRECTION('ref_axis',(0.,-1.,0.));
#348=DIRECTION('center_axis',(-1.,0.,0.));
#349=DIRECTION('ref_axis',(0.,-1.,0.));
#350=DIRECTION('',(-1.,0.,0.));
#351=DIRECTION('center_axis',(1.,0.,0.));
#352=DIRECTION('ref_axis',(0.,-1.,0.));
#353=DIRECTION('',(1.,0.,0.));
#354=DIRECTION('center_axis',(0.,0.,1.));
#355=DIRECTION('ref_axis',(1.,0.,0.));
#356=CARTESIAN_POINT('',(0.,0.,0.));
#357=CARTESIAN_POINT('Origin',(25.000000372529,0.,3.));
#358=CARTESIAN_POINT('',(25.000000372529,-1.9,3.));
#359=CARTESIAN_POINT('Origin',(25.000000372529,0.,3.));
#360=CARTESIAN_POINT('',(21.000000372529,-1.9,3.));
#361=CARTESIAN_POINT('',(25.000000372529,-1.9,3.));
#362=CARTESIAN_POINT('Origin',(21.000000372529,0.,3.));
#363=CARTESIAN_POINT('Origin',(21.000000372529,0.,3.));
#364=CARTESIAN_POINT('',(21.000000372529,1.6,3.));
#365=CARTESIAN_POINT('Origin',(21.000000372529,0.,3.));
#366=CARTESIAN_POINT('Origin',(-25.000000372529,0.,3.));
#367=CARTESIAN_POINT('',(-25.000000372529,1.9,3.));
#368=CARTESIAN_POINT('Origin',(-25.000000372529,0.,3.));
#369=CARTESIAN_POINT('',(-21.000000372529,1.9,3.));
#370=CARTESIAN_POINT('',(-25.000000372529,1.9,3.));
#371=CARTESIAN_POINT('Origin',(-21.000000372529,0.,3.));
#372=CARTESIAN_POINT('Origin',(-21.000000372529,0.,3.));
#373=CARTESIAN_POINT('',(-21.000000372529,1.6,3.));
#374=CARTESIAN_POINT('Origin',(-21.000000372529,0.,3.));
#375=CARTESIAN_POINT('Origin',(-25.000000372529,11.4564384244646,6.));
#376=CARTESIAN_POINT('',(-25.000000372529,-11.4564384244646,0.));
#377=CARTESIAN_POINT('',(-25.000000372529,11.4564384244646,0.));
#378=CARTESIAN_POINT('',(-25.000000372529,5.72821921223229,0.));
#379=CARTESIAN_POINT('',(-25.000000372529,-11.4564384244646,6.));
#380=CARTESIAN_POINT('',(-25.000000372529,-11.4564384244646,6.));
#381=CARTESIAN_POINT('',(-25.000000372529,11.4564384244646,6.));
#382=CARTESIAN_POINT('',(-25.000000372529,5.72821921223229,6.));
#383=CARTESIAN_POINT('',(-25.000000372529,11.4564384244646,6.));
#384=CARTESIAN_POINT('Origin',(25.000000372529,-11.4564384244646,6.));
#385=CARTESIAN_POINT('',(25.000000372529,11.4564384244646,0.));
#386=CARTESIAN_POINT('',(25.000000372529,-11.4564384244646,0.));
#387=CARTESIAN_POINT('',(25.000000372529,-5.72821921223229,0.));
#388=CARTESIAN_POINT('',(25.000000372529,11.4564384244646,6.));
#389=CARTESIAN_POINT('',(25.000000372529,11.4564384244646,6.));
#390=CARTESIAN_POINT('',(25.000000372529,-11.4564384244646,6.));
#391=CARTESIAN_POINT('',(25.000000372529,-5.72821921223229,6.));
#392=CARTESIAN_POINT('',(25.000000372529,-11.4564384244646,6.));
#393=CARTESIAN_POINT('Origin',(0.,0.,0.));
#394=CARTESIAN_POINT('Origin',(-5.55111512312578E-16,-2.22044604925031E-15,
0.));
#395=CARTESIAN_POINT('Origin',(-5.55111512312578E-16,-2.22044604925031E-15,
0.));
#396=CARTESIAN_POINT('',(13.1,-7.50999334220744,0.));
#397=CARTESIAN_POINT('',(13.1,7.50999334220744,0.));
#398=CARTESIAN_POINT('',(13.1,3.75499667110372,0.));
#399=CARTESIAN_POINT('Origin',(0.,0.,0.));
#400=CARTESIAN_POINT('Origin',(-5.55111512312578E-16,-2.22044604925031E-15,
6.));
#401=CARTESIAN_POINT('Origin',(-5.55111512312578E-16,-2.22044604925031E-15,
6.));
#402=CARTESIAN_POINT('Origin',(-5.55111512312578E-16,-2.22044604925031E-15,
6.));
#403=CARTESIAN_POINT('Origin',(-5.55111512312578E-16,-2.22044604925031E-15,
6.));
#404=CARTESIAN_POINT('Origin',(0.,0.,6.));
#405=CARTESIAN_POINT('',(13.1,7.50999334220744,6.));
#406=CARTESIAN_POINT('',(13.1,7.50999334220744,6.));
#407=CARTESIAN_POINT('',(13.1,-7.50999334220744,6.));
#408=CARTESIAN_POINT('Origin',(0.,0.,6.));
#409=CARTESIAN_POINT('',(13.1,-7.50999334220744,6.));
#410=CARTESIAN_POINT('',(-15.0149925074906,1.6,3.));
#411=CARTESIAN_POINT('Ctrl Pts',(-15.0149925074906,1.6,3.));
#412=CARTESIAN_POINT('Ctrl Pts',(-15.0149925074906,1.6,3.20106206653759));
#413=CARTESIAN_POINT('Ctrl Pts',(-15.0194473653724,1.55978677006585,3.41542206641476));
#414=CARTESIAN_POINT('Ctrl Pts',(-15.035512952165,1.39645413880035,3.80958392897708));
#415=CARTESIAN_POINT('Ctrl Pts',(-15.0468889662356,1.27334296655289,3.98939873324407));
#416=CARTESIAN_POINT('Ctrl Pts',(-15.0682234732034,0.989399343110905,4.27334235668605));
#417=CARTESIAN_POINT('Ctrl Pts',(-15.0795715585714,0.809584272045753,4.39645400545119));
#418=CARTESIAN_POINT('Ctrl Pts',(-15.0955731937906,0.41542151324824,4.55978699047527));
#419=CARTESIAN_POINT('Ctrl Pts',(-15.1,0.201061202839208,4.6));
#420=CARTESIAN_POINT('Ctrl Pts',(-15.1,-0.201061202839208,4.6));
#421=CARTESIAN_POINT('Ctrl Pts',(-15.0955731937906,-0.415421513248239,4.55978699047527));
#422=CARTESIAN_POINT('Ctrl Pts',(-15.0795715585714,-0.809584272045753,4.39645400545119));
#423=CARTESIAN_POINT('Ctrl Pts',(-15.0682234732034,-0.989399343110905,4.27334235668605));
#424=CARTESIAN_POINT('Ctrl Pts',(-15.0468889662356,-1.27334296655289,3.98939873324407));
#425=CARTESIAN_POINT('Ctrl Pts',(-15.035512952165,-1.39645413880035,3.80958392897708));
#426=CARTESIAN_POINT('Ctrl Pts',(-15.0194473653724,-1.55978677006585,3.41542206641476));
#427=CARTESIAN_POINT('Ctrl Pts',(-15.0149925074906,-1.6,3.20106206653759));
#428=CARTESIAN_POINT('Ctrl Pts',(-15.0149925074906,-1.6,2.79893793346241));
#429=CARTESIAN_POINT('Ctrl Pts',(-15.0194473653724,-1.55978677006585,2.58457793358524));
#430=CARTESIAN_POINT('Ctrl Pts',(-15.035512952165,-1.39645413880035,2.19041607102292));
#431=CARTESIAN_POINT('Ctrl Pts',(-15.0468889662356,-1.27334296655289,2.01060126675594));
#432=CARTESIAN_POINT('Ctrl Pts',(-15.0682234732034,-0.989399343110905,1.72665764331395));
#433=CARTESIAN_POINT('Ctrl Pts',(-15.0795715585714,-0.809584272045753,1.60354599454881));
#434=CARTESIAN_POINT('Ctrl Pts',(-15.0955731937906,-0.41542151324824,1.44021300952474));
#435=CARTESIAN_POINT('Ctrl Pts',(-15.1,-0.201061202839209,1.4));
#436=CARTESIAN_POINT('Ctrl Pts',(-15.1,0.201061202839208,1.4));
#437=CARTESIAN_POINT('Ctrl Pts',(-15.0955731937906,0.41542151324824,1.44021300952474));
#438=CARTESIAN_POINT('Ctrl Pts',(-15.0795715585714,0.809584272045753,1.60354599454881));
#439=CARTESIAN_POINT('Ctrl Pts',(-15.0682234732034,0.989399343110905,1.72665764331395));
#440=CARTESIAN_POINT('Ctrl Pts',(-15.0468889662356,1.27334296655289,2.01060126675594));
#441=CARTESIAN_POINT('Ctrl Pts',(-15.035512952165,1.39645413880035,2.19041607102292));
#442=CARTESIAN_POINT('Ctrl Pts',(-15.0194473653724,1.55978677006585,2.58457793358524));
#443=CARTESIAN_POINT('Ctrl Pts',(-15.0149925074906,1.6,2.79893793346241));
#444=CARTESIAN_POINT('Ctrl Pts',(-15.0149925074906,1.6,3.));
#445=CARTESIAN_POINT('Origin',(13.1,7.50999334220744,6.));
#446=CARTESIAN_POINT('',(13.1,3.75499667110372,6.));
#447=CARTESIAN_POINT('',(13.1,1.6,3.));
#448=CARTESIAN_POINT('Origin',(13.1,0.,3.));
#449=CARTESIAN_POINT('Origin',(13.,0.,3.));
#450=CARTESIAN_POINT('',(13.,1.6,3.));
#451=CARTESIAN_POINT('Origin',(13.,0.,3.));
#452=CARTESIAN_POINT('',(13.,1.6,3.));
#453=CARTESIAN_POINT('Origin',(0.,0.,6.));
#454=UNCERTAINTY_MEASURE_WITH_UNIT(LENGTH_MEASURE(0.01),#458,
'DISTANCE_ACCURACY_VALUE',
'Maximum model space distance between geometric entities at asserted c
onnectivities');
#455=UNCERTAINTY_MEASURE_WITH_UNIT(LENGTH_MEASURE(0.01),#458,
'DISTANCE_ACCURACY_VALUE',
'Maximum model space distance between geometric entities at asserted c
onnectivities');
#456=(
GEOMETRIC_REPRESENTATION_CONTEXT(3)
GLOBAL_UNCERTAINTY_ASSIGNED_CONTEXT((#454))
GLOBAL_UNIT_ASSIGNED_CONTEXT((#458,#460,#461))
REPRESENTATION_CONTEXT('','3D')
);
#457=(
GEOMETRIC_REPRESENTATION_CONTEXT(3)
GLOBAL_UNCERTAINTY_ASSIGNED_CONTEXT((#455))
GLOBAL_UNIT_ASSIGNED_CONTEXT((#458,#460,#461))
REPRESENTATION_CONTEXT('','3D')
);
#458=(
LENGTH_UNIT()
NAMED_UNIT(*)
SI_UNIT(.MILLI.,.METRE.)
);
#459=(
LENGTH_UNIT()
NAMED_UNIT(*)
SI_UNIT($,.METRE.)
);
#460=(
NAMED_UNIT(*)
PLANE_ANGLE_UNIT()
SI_UNIT($,.RADIAN.)
);
#461=(
NAMED_UNIT(*)
SI_UNIT($,.STERADIAN.)
SOLID_ANGLE_UNIT()
);
#462=SHAPE_DEFINITION_REPRESENTATION(#463,#464);
#463=PRODUCT_DEFINITION_SHAPE('',$,#466);
#464=SHAPE_REPRESENTATION('',(#256),#456);
#465=PRODUCT_DEFINITION_CONTEXT('part definition',#470,'design');
#466=PRODUCT_DEFINITION('2026-09-26-21-36-25-159',
'shoulder shaft connect support',#467,#465);
#467=PRODUCT_DEFINITION_FORMATION('',$,#472);
#468=PRODUCT_RELATED_PRODUCT_CATEGORY('shoulder shaft connect support',
'shoulder shaft connect support',(#472));
#469=APPLICATION_PROTOCOL_DEFINITION('international standard',
'automotive_design',2009,#470);
#470=APPLICATION_CONTEXT(
'Core Data for Automotive Mechanical Design Process');
#471=PRODUCT_CONTEXT('part definition',#470,'mechanical');
#472=PRODUCT('2026-09-26-21-36-25-159','shoulder shaft connect support',
$,(#471));
#473=PRESENTATION_STYLE_ASSIGNMENT((#474));
#474=SURFACE_STYLE_USAGE(.BOTH.,#475);
#475=SURFACE_SIDE_STYLE('',(#476));
#476=SURFACE_STYLE_FILL_AREA(#477);
#477=FILL_AREA_STYLE('Steel - Satin',(#478));
#478=FILL_AREA_STYLE_COLOUR('Steel - Satin',#479);
#479=COLOUR_RGB('Steel - Satin',0.627450980392157,0.627450980392157,0.627450980392157);
ENDSEC;
END-ISO-10303-21;
