ISO-10303-21;
HEADER;
/* Generated by software containing ST-Developer
 * from STEP Tools, Inc. (www.steptools.com) 
 */

FILE_DESCRIPTION(
/* description */ (''),
/* implementation_level */ '2;1');

FILE_NAME(
/* name */ 'shoulder servo holder.step',
/* time_stamp */ '2026-09-26T21:34:17-07:00',
/* author */ (''),
/* organization */ (''),
/* preprocessor_version */ 'ST-DEVELOPER v20.2',
/* originating_system */ 'Autodesk Translation Framework v15.15.0.0',
/* authorisation */ '');

FILE_SCHEMA (('AUTOMOTIVE_DESIGN { 1 0 10303 214 3 1 1 }'));
ENDSEC;

DATA;
#10=MECHANICAL_DESIGN_GEOMETRIC_PRESENTATION_REPRESENTATION('',(#13,#14),
#1840);
#11=SHAPE_REPRESENTATION_RELATIONSHIP('SRR','None',#1847,#12);
#12=ADVANCED_BREP_SHAPE_REPRESENTATION('',(#15,#16),#1839);
#13=STYLED_ITEM('',(#1856),#15);
#14=STYLED_ITEM('',(#1856),#16);
#15=MANIFOLD_SOLID_BREP('servo holder',#1095);
#16=MANIFOLD_SOLID_BREP('servo holder (1)',#1096);
#17=LINE('',#1548,#113);
#18=LINE('',#1552,#114);
#19=LINE('',#1566,#115);
#20=LINE('',#1570,#116);
#21=LINE('',#1575,#117);
#22=LINE('',#1577,#118);
#23=LINE('',#1579,#119);
#24=LINE('',#1580,#120);
#25=LINE('',#1583,#121);
#26=LINE('',#1587,#122);
#27=LINE('',#1590,#123);
#28=LINE('',#1593,#124);
#29=LINE('',#1595,#125);
#30=LINE('',#1597,#126);
#31=LINE('',#1599,#127);
#32=LINE('',#1601,#128);
#33=LINE('',#1603,#129);
#34=LINE('',#1605,#130);
#35=LINE('',#1606,#131);
#36=LINE('',#1617,#132);
#37=LINE('',#1619,#133);
#38=LINE('',#1621,#134);
#39=LINE('',#1622,#135);
#40=LINE('',#1625,#136);
#41=LINE('',#1629,#137);
#42=LINE('',#1633,#138);
#43=LINE('',#1637,#139);
#44=LINE('',#1642,#140);
#45=LINE('',#1644,#141);
#46=LINE('',#1646,#142);
#47=LINE('',#1647,#143);
#48=LINE('',#1649,#144);
#49=LINE('',#1651,#145);
#50=LINE('',#1652,#146);
#51=LINE('',#1656,#147);
#52=LINE('',#1658,#148);
#53=LINE('',#1660,#149);
#54=LINE('',#1661,#150);
#55=LINE('',#1663,#151);
#56=LINE('',#1665,#152);
#57=LINE('',#1666,#153);
#58=LINE('',#1669,#154);
#59=LINE('',#1670,#155);
#60=LINE('',#1675,#156);
#61=LINE('',#1677,#157);
#62=LINE('',#1680,#158);
#63=LINE('',#1681,#159);
#64=LINE('',#1682,#160);
#65=LINE('',#1684,#161);
#66=LINE('',#1686,#162);
#67=LINE('',#1688,#163);
#68=LINE('',#1690,#164);
#69=LINE('',#1692,#165);
#70=LINE('',#1695,#166);
#71=LINE('',#1699,#167);
#72=LINE('',#1703,#168);
#73=LINE('',#1707,#169);
#74=LINE('',#1711,#170);
#75=LINE('',#1712,#171);
#76=LINE('',#1714,#172);
#77=LINE('',#1717,#173);
#78=LINE('',#1718,#174);
#79=LINE('',#1722,#175);
#80=LINE('',#1724,#176);
#81=LINE('',#1725,#177);
#82=LINE('',#1726,#178);
#83=LINE('',#1728,#179);
#84=LINE('',#1731,#180);
#85=LINE('',#1742,#181);
#86=LINE('',#1748,#182);
#87=LINE('',#1750,#183);
#88=LINE('',#1752,#184);
#89=LINE('',#1755,#185);
#90=LINE('',#1758,#186);
#91=LINE('',#1772,#187);
#92=LINE('',#1776,#188);
#93=LINE('',#1790,#189);
#94=LINE('',#1794,#190);
#95=LINE('',#1799,#191);
#96=LINE('',#1801,#192);
#97=LINE('',#1803,#193);
#98=LINE('',#1804,#194);
#99=LINE('',#1807,#195);
#100=LINE('',#1811,#196);
#101=LINE('',#1814,#197);
#102=LINE('',#1817,#198);
#103=LINE('',#1818,#199);
#104=LINE('',#1819,#200);
#105=LINE('',#1821,#201);
#106=LINE('',#1823,#202);
#107=LINE('',#1826,#203);
#108=LINE('',#1827,#204);
#109=LINE('',#1829,#205);
#110=LINE('',#1831,#206);
#111=LINE('',#1833,#207);
#112=LINE('',#1835,#208);
#113=VECTOR('',#1235,1.9);
#114=VECTOR('',#1240,1.9);
#115=VECTOR('',#1257,1.9);
#116=VECTOR('',#1262,1.9);
#117=VECTOR('',#1267,10.);
#118=VECTOR('',#1268,10.);
#119=VECTOR('',#1269,10.);
#120=VECTOR('',#1270,10.);
#121=VECTOR('',#1273,10.);
#122=VECTOR('',#1276,10.);
#123=VECTOR('',#1279,10.);
#124=VECTOR('',#1280,10.);
#125=VECTOR('',#1281,10.);
#126=VECTOR('',#1282,10.);
#127=VECTOR('',#1283,10.);
#128=VECTOR('',#1284,10.);
#129=VECTOR('',#1285,10.);
#130=VECTOR('',#1286,10.);
#131=VECTOR('',#1287,10.);
#132=VECTOR('',#1298,10.);
#133=VECTOR('',#1299,10.);
#134=VECTOR('',#1300,10.);
#135=VECTOR('',#1301,10.);
#136=VECTOR('',#1304,1.6);
#137=VECTOR('',#1309,1.6);
#138=VECTOR('',#1314,1.6);
#139=VECTOR('',#1319,1.6);
#140=VECTOR('',#1324,10.);
#141=VECTOR('',#1325,10.);
#142=VECTOR('',#1326,10.);
#143=VECTOR('',#1327,10.);
#144=VECTOR('',#1328,10.);
#145=VECTOR('',#1329,10.);
#146=VECTOR('',#1330,10.);
#147=VECTOR('',#1333,10.);
#148=VECTOR('',#1334,10.);
#149=VECTOR('',#1335,10.);
#150=VECTOR('',#1336,10.);
#151=VECTOR('',#1337,10.);
#152=VECTOR('',#1338,10.);
#153=VECTOR('',#1339,10.);
#154=VECTOR('',#1342,10.);
#155=VECTOR('',#1343,10.);
#156=VECTOR('',#1348,10.);
#157=VECTOR('',#1349,10.);
#158=VECTOR('',#1352,10.);
#159=VECTOR('',#1353,10.);
#160=VECTOR('',#1354,10.);
#161=VECTOR('',#1357,10.);
#162=VECTOR('',#1360,10.);
#163=VECTOR('',#1363,10.);
#164=VECTOR('',#1366,10.);
#165=VECTOR('',#1369,10.);
#166=VECTOR('',#1372,2.);
#167=VECTOR('',#1377,2.);
#168=VECTOR('',#1382,2.);
#169=VECTOR('',#1387,2.);
#170=VECTOR('',#1392,10.);
#171=VECTOR('',#1393,10.);
#172=VECTOR('',#1396,10.);
#173=VECTOR('',#1399,10.);
#174=VECTOR('',#1400,10.);
#175=VECTOR('',#1405,10.);
#176=VECTOR('',#1406,10.);
#177=VECTOR('',#1407,10.);
#178=VECTOR('',#1408,10.);
#179=VECTOR('',#1411,10.);
#180=VECTOR('',#1416,10.);
#181=VECTOR('',#1431,13.);
#182=VECTOR('',#1436,10.);
#183=VECTOR('',#1437,10.);
#184=VECTOR('',#1438,10.);
#185=VECTOR('',#1441,10.);
#186=VECTOR('',#1444,10.);
#187=VECTOR('',#1461,1.9);
#188=VECTOR('',#1466,1.9);
#189=VECTOR('',#1483,1.9);
#190=VECTOR('',#1488,1.9);
#191=VECTOR('',#1493,10.);
#192=VECTOR('',#1494,10.);
#193=VECTOR('',#1495,10.);
#194=VECTOR('',#1496,10.);
#195=VECTOR('',#1499,10.);
#196=VECTOR('',#1502,10.);
#197=VECTOR('',#1505,10.);
#198=VECTOR('',#1508,10.);
#199=VECTOR('',#1509,10.);
#200=VECTOR('',#1510,10.);
#201=VECTOR('',#1513,1.6);
#202=VECTOR('',#1516,1.6);
#203=VECTOR('',#1519,10.);
#204=VECTOR('',#1520,10.);
#205=VECTOR('',#1523,10.);
#206=VECTOR('',#1526,10.);
#207=VECTOR('',#1529,10.);
#208=VECTOR('',#1532,10.);
#209=CYLINDRICAL_SURFACE('',#1116,1.9);
#210=CYLINDRICAL_SURFACE('',#1118,1.9);
#211=CYLINDRICAL_SURFACE('',#1126,1.9);
#212=CYLINDRICAL_SURFACE('',#1128,1.9);
#213=CYLINDRICAL_SURFACE('',#1139,1.6);
#214=CYLINDRICAL_SURFACE('',#1141,1.6);
#215=CYLINDRICAL_SURFACE('',#1143,1.6);
#216=CYLINDRICAL_SURFACE('',#1145,1.6);
#217=CYLINDRICAL_SURFACE('',#1155,5.);
#218=CYLINDRICAL_SURFACE('',#1157,5.);
#219=CYLINDRICAL_SURFACE('',#1158,2.);
#220=CYLINDRICAL_SURFACE('',#1160,2.);
#221=CYLINDRICAL_SURFACE('',#1162,2.);
#222=CYLINDRICAL_SURFACE('',#1164,2.);
#223=CYLINDRICAL_SURFACE('',#1179,13.);
#224=CYLINDRICAL_SURFACE('',#1184,10.);
#225=CYLINDRICAL_SURFACE('',#1192,1.9);
#226=CYLINDRICAL_SURFACE('',#1194,1.9);
#227=CYLINDRICAL_SURFACE('',#1202,1.9);
#228=CYLINDRICAL_SURFACE('',#1204,1.9);
#229=CYLINDRICAL_SURFACE('',#1211,1.6);
#230=CYLINDRICAL_SURFACE('',#1212,1.6);
#231=CYLINDRICAL_SURFACE('',#1215,5.);
#232=CYLINDRICAL_SURFACE('',#1217,5.);
#233=FACE_BOUND('',#328,.T.);
#234=FACE_BOUND('',#330,.T.);
#235=FACE_BOUND('',#334,.T.);
#236=FACE_BOUND('',#336,.T.);
#237=FACE_BOUND('',#341,.T.);
#238=FACE_BOUND('',#342,.T.);
#239=FACE_BOUND('',#343,.T.);
#240=FACE_BOUND('',#344,.T.);
#241=FACE_BOUND('',#345,.T.);
#242=FACE_BOUND('',#347,.T.);
#243=FACE_BOUND('',#348,.T.);
#244=FACE_BOUND('',#354,.T.);
#245=FACE_BOUND('',#355,.T.);
#246=FACE_BOUND('',#357,.T.);
#247=FACE_BOUND('',#358,.T.);
#248=FACE_BOUND('',#361,.T.);
#249=FACE_BOUND('',#375,.T.);
#250=FACE_BOUND('',#376,.T.);
#251=FACE_BOUND('',#378,.T.);
#252=FACE_BOUND('',#379,.T.);
#253=FACE_BOUND('',#385,.T.);
#254=FACE_BOUND('',#386,.T.);
#255=FACE_BOUND('',#388,.T.);
#256=FACE_BOUND('',#391,.T.);
#257=FACE_BOUND('',#394,.T.);
#258=FACE_BOUND('',#396,.T.);
#259=FACE_BOUND('',#400,.T.);
#260=FACE_BOUND('',#402,.T.);
#261=FACE_BOUND('',#407,.T.);
#262=FACE_BOUND('',#409,.T.);
#263=FACE_BOUND('',#410,.T.);
#264=FACE_BOUND('',#419,.T.);
#265=FACE_BOUND('',#420,.T.);
#266=FACE_OUTER_BOUND('',#327,.T.);
#267=FACE_OUTER_BOUND('',#329,.T.);
#268=FACE_OUTER_BOUND('',#331,.T.);
#269=FACE_OUTER_BOUND('',#332,.T.);
#270=FACE_OUTER_BOUND('',#333,.T.);
#271=FACE_OUTER_BOUND('',#335,.T.);
#272=FACE_OUTER_BOUND('',#337,.T.);
#273=FACE_OUTER_BOUND('',#338,.T.);
#274=FACE_OUTER_BOUND('',#339,.T.);
#275=FACE_OUTER_BOUND('',#340,.T.);
#276=FACE_OUTER_BOUND('',#346,.T.);
#277=FACE_OUTER_BOUND('',#349,.T.);
#278=FACE_OUTER_BOUND('',#350,.T.);
#279=FACE_OUTER_BOUND('',#351,.T.);
#280=FACE_OUTER_BOUND('',#352,.T.);
#281=FACE_OUTER_BOUND('',#353,.T.);
#282=FACE_OUTER_BOUND('',#356,.T.);
#283=FACE_OUTER_BOUND('',#359,.T.);
#284=FACE_OUTER_BOUND('',#360,.T.);
#285=FACE_OUTER_BOUND('',#362,.T.);
#286=FACE_OUTER_BOUND('',#363,.T.);
#287=FACE_OUTER_BOUND('',#364,.T.);
#288=FACE_OUTER_BOUND('',#365,.T.);
#289=FACE_OUTER_BOUND('',#366,.T.);
#290=FACE_OUTER_BOUND('',#367,.T.);
#291=FACE_OUTER_BOUND('',#368,.T.);
#292=FACE_OUTER_BOUND('',#369,.T.);
#293=FACE_OUTER_BOUND('',#370,.T.);
#294=FACE_OUTER_BOUND('',#371,.T.);
#295=FACE_OUTER_BOUND('',#372,.T.);
#296=FACE_OUTER_BOUND('',#373,.T.);
#297=FACE_OUTER_BOUND('',#374,.T.);
#298=FACE_OUTER_BOUND('',#377,.T.);
#299=FACE_OUTER_BOUND('',#380,.T.);
#300=FACE_OUTER_BOUND('',#381,.T.);
#301=FACE_OUTER_BOUND('',#382,.T.);
#302=FACE_OUTER_BOUND('',#383,.T.);
#303=FACE_OUTER_BOUND('',#384,.T.);
#304=FACE_OUTER_BOUND('',#387,.T.);
#305=FACE_OUTER_BOUND('',#389,.T.);
#306=FACE_OUTER_BOUND('',#390,.T.);
#307=FACE_OUTER_BOUND('',#392,.T.);
#308=FACE_OUTER_BOUND('',#393,.T.);
#309=FACE_OUTER_BOUND('',#395,.T.);
#310=FACE_OUTER_BOUND('',#397,.T.);
#311=FACE_OUTER_BOUND('',#398,.T.);
#312=FACE_OUTER_BOUND('',#399,.T.);
#313=FACE_OUTER_BOUND('',#401,.T.);
#314=FACE_OUTER_BOUND('',#403,.T.);
#315=FACE_OUTER_BOUND('',#404,.T.);
#316=FACE_OUTER_BOUND('',#405,.T.);
#317=FACE_OUTER_BOUND('',#406,.T.);
#318=FACE_OUTER_BOUND('',#408,.T.);
#319=FACE_OUTER_BOUND('',#411,.T.);
#320=FACE_OUTER_BOUND('',#412,.T.);
#321=FACE_OUTER_BOUND('',#413,.T.);
#322=FACE_OUTER_BOUND('',#414,.T.);
#323=FACE_OUTER_BOUND('',#415,.T.);
#324=FACE_OUTER_BOUND('',#416,.T.);
#325=FACE_OUTER_BOUND('',#417,.T.);
#326=FACE_OUTER_BOUND('',#418,.T.);
#327=EDGE_LOOP('',(#709));
#328=EDGE_LOOP('',(#710));
#329=EDGE_LOOP('',(#711));
#330=EDGE_LOOP('',(#712));
#331=EDGE_LOOP('',(#713,#714,#715,#716));
#332=EDGE_LOOP('',(#717,#718,#719,#720));
#333=EDGE_LOOP('',(#721));
#334=EDGE_LOOP('',(#722));
#335=EDGE_LOOP('',(#723));
#336=EDGE_LOOP('',(#724));
#337=EDGE_LOOP('',(#725,#726,#727,#728));
#338=EDGE_LOOP('',(#729,#730,#731,#732));
#339=EDGE_LOOP('',(#733,#734,#735,#736));
#340=EDGE_LOOP('',(#737,#738,#739,#740,#741,#742));
#341=EDGE_LOOP('',(#743,#744,#745,#746,#747,#748,#749,#750));
#342=EDGE_LOOP('',(#751));
#343=EDGE_LOOP('',(#752));
#344=EDGE_LOOP('',(#753));
#345=EDGE_LOOP('',(#754));
#346=EDGE_LOOP('',(#755,#756,#757,#758,#759,#760));
#347=EDGE_LOOP('',(#761));
#348=EDGE_LOOP('',(#762));
#349=EDGE_LOOP('',(#763,#764,#765,#766));
#350=EDGE_LOOP('',(#767,#768,#769,#770));
#351=EDGE_LOOP('',(#771,#772,#773,#774));
#352=EDGE_LOOP('',(#775,#776,#777,#778));
#353=EDGE_LOOP('',(#779,#780,#781,#782,#783,#784,#785,#786));
#354=EDGE_LOOP('',(#787));
#355=EDGE_LOOP('',(#788));
#356=EDGE_LOOP('',(#789,#790,#791,#792,#793,#794,#795,#796));
#357=EDGE_LOOP('',(#797));
#358=EDGE_LOOP('',(#798));
#359=EDGE_LOOP('',(#799,#800,#801,#802));
#360=EDGE_LOOP('',(#803,#804,#805,#806,#807,#808));
#361=EDGE_LOOP('',(#809,#810,#811,#812));
#362=EDGE_LOOP('',(#813,#814,#815,#816));
#363=EDGE_LOOP('',(#817,#818,#819,#820));
#364=EDGE_LOOP('',(#821,#822,#823,#824));
#365=EDGE_LOOP('',(#825,#826,#827,#828));
#366=EDGE_LOOP('',(#829,#830,#831,#832));
#367=EDGE_LOOP('',(#833,#834,#835,#836));
#368=EDGE_LOOP('',(#837,#838,#839,#840));
#369=EDGE_LOOP('',(#841,#842,#843,#844));
#370=EDGE_LOOP('',(#845,#846,#847,#848));
#371=EDGE_LOOP('',(#849,#850,#851,#852));
#372=EDGE_LOOP('',(#853,#854,#855,#856));
#373=EDGE_LOOP('',(#857,#858,#859,#860));
#374=EDGE_LOOP('',(#861,#862,#863,#864));
#375=EDGE_LOOP('',(#865));
#376=EDGE_LOOP('',(#866));
#377=EDGE_LOOP('',(#867,#868,#869,#870,#871,#872,#873,#874));
#378=EDGE_LOOP('',(#875));
#379=EDGE_LOOP('',(#876));
#380=EDGE_LOOP('',(#877,#878,#879,#880));
#381=EDGE_LOOP('',(#881,#882,#883,#884));
#382=EDGE_LOOP('',(#885,#886,#887,#888));
#383=EDGE_LOOP('',(#889,#890,#891,#892));
#384=EDGE_LOOP('',(#893,#894,#895,#896,#897,#898));
#385=EDGE_LOOP('',(#899));
#386=EDGE_LOOP('',(#900));
#387=EDGE_LOOP('',(#901));
#388=EDGE_LOOP('',(#902));
#389=EDGE_LOOP('',(#903,#904,#905,#906));
#390=EDGE_LOOP('',(#907,#908,#909,#910,#911,#912));
#391=EDGE_LOOP('',(#913));
#392=EDGE_LOOP('',(#914,#915,#916,#917));
#393=EDGE_LOOP('',(#918));
#394=EDGE_LOOP('',(#919));
#395=EDGE_LOOP('',(#920));
#396=EDGE_LOOP('',(#921));
#397=EDGE_LOOP('',(#922,#923,#924,#925));
#398=EDGE_LOOP('',(#926,#927,#928,#929));
#399=EDGE_LOOP('',(#930));
#400=EDGE_LOOP('',(#931));
#401=EDGE_LOOP('',(#932));
#402=EDGE_LOOP('',(#933));
#403=EDGE_LOOP('',(#934,#935,#936,#937));
#404=EDGE_LOOP('',(#938,#939,#940,#941));
#405=EDGE_LOOP('',(#942,#943,#944,#945));
#406=EDGE_LOOP('',(#946,#947,#948,#949,#950,#951));
#407=EDGE_LOOP('',(#952));
#408=EDGE_LOOP('',(#953,#954,#955,#956,#957,#958));
#409=EDGE_LOOP('',(#959));
#410=EDGE_LOOP('',(#960));
#411=EDGE_LOOP('',(#961,#962,#963,#964));
#412=EDGE_LOOP('',(#965,#966,#967,#968));
#413=EDGE_LOOP('',(#969,#970,#971,#972));
#414=EDGE_LOOP('',(#973,#974,#975,#976));
#415=EDGE_LOOP('',(#977,#978,#979,#980));
#416=EDGE_LOOP('',(#981,#982,#983,#984));
#417=EDGE_LOOP('',(#985,#986,#987,#988));
#418=EDGE_LOOP('',(#989,#990,#991,#992,#993,#994));
#419=EDGE_LOOP('',(#995));
#420=EDGE_LOOP('',(#996));
#421=CIRCLE('',#1111,1.9);
#422=CIRCLE('',#1112,1.6);
#423=CIRCLE('',#1114,1.9);
#424=CIRCLE('',#1115,1.6);
#425=CIRCLE('',#1117,1.9);
#426=CIRCLE('',#1119,1.9);
#427=CIRCLE('',#1121,1.9);
#428=CIRCLE('',#1122,1.6);
#429=CIRCLE('',#1124,1.9);
#430=CIRCLE('',#1125,1.6);
#431=CIRCLE('',#1127,1.9);
#432=CIRCLE('',#1129,1.9);
#433=CIRCLE('',#1132,5.);
#434=CIRCLE('',#1133,5.);
#435=CIRCLE('',#1134,2.);
#436=CIRCLE('',#1135,2.);
#437=CIRCLE('',#1136,2.);
#438=CIRCLE('',#1137,2.);
#439=CIRCLE('',#1140,1.6);
#440=CIRCLE('',#1142,1.6);
#441=CIRCLE('',#1144,1.6);
#442=CIRCLE('',#1146,1.6);
#443=CIRCLE('',#1151,5.);
#444=CIRCLE('',#1152,5.);
#445=CIRCLE('',#1159,2.);
#446=CIRCLE('',#1161,2.);
#447=CIRCLE('',#1163,2.);
#448=CIRCLE('',#1165,2.);
#449=CIRCLE('',#1177,13.);
#450=CIRCLE('',#1178,10.);
#451=CIRCLE('',#1180,13.);
#452=CIRCLE('',#1182,5.);
#453=CIRCLE('',#1183,5.);
#454=CIRCLE('',#1185,10.);
#455=CIRCLE('',#1187,1.9);
#456=CIRCLE('',#1188,1.6);
#457=CIRCLE('',#1190,1.9);
#458=CIRCLE('',#1191,1.6);
#459=CIRCLE('',#1193,1.9);
#460=CIRCLE('',#1195,1.9);
#461=CIRCLE('',#1197,1.9);
#462=CIRCLE('',#1198,1.6);
#463=CIRCLE('',#1200,1.9);
#464=CIRCLE('',#1201,1.6);
#465=CIRCLE('',#1203,1.9);
#466=CIRCLE('',#1205,1.9);
#467=CIRCLE('',#1208,5.);
#468=CIRCLE('',#1209,5.);
#469=VERTEX_POINT('',#1537);
#470=VERTEX_POINT('',#1539);
#471=VERTEX_POINT('',#1542);
#472=VERTEX_POINT('',#1544);
#473=VERTEX_POINT('',#1547);
#474=VERTEX_POINT('',#1551);
#475=VERTEX_POINT('',#1555);
#476=VERTEX_POINT('',#1557);
#477=VERTEX_POINT('',#1560);
#478=VERTEX_POINT('',#1562);
#479=VERTEX_POINT('',#1565);
#480=VERTEX_POINT('',#1569);
#481=VERTEX_POINT('',#1573);
#482=VERTEX_POINT('',#1574);
#483=VERTEX_POINT('',#1576);
#484=VERTEX_POINT('',#1578);
#485=VERTEX_POINT('',#1582);
#486=VERTEX_POINT('',#1584);
#487=VERTEX_POINT('',#1586);
#488=VERTEX_POINT('',#1588);
#489=VERTEX_POINT('',#1591);
#490=VERTEX_POINT('',#1592);
#491=VERTEX_POINT('',#1594);
#492=VERTEX_POINT('',#1596);
#493=VERTEX_POINT('',#1598);
#494=VERTEX_POINT('',#1600);
#495=VERTEX_POINT('',#1602);
#496=VERTEX_POINT('',#1604);
#497=VERTEX_POINT('',#1607);
#498=VERTEX_POINT('',#1609);
#499=VERTEX_POINT('',#1611);
#500=VERTEX_POINT('',#1613);
#501=VERTEX_POINT('',#1616);
#502=VERTEX_POINT('',#1618);
#503=VERTEX_POINT('',#1620);
#504=VERTEX_POINT('',#1624);
#505=VERTEX_POINT('',#1628);
#506=VERTEX_POINT('',#1632);
#507=VERTEX_POINT('',#1636);
#508=VERTEX_POINT('',#1640);
#509=VERTEX_POINT('',#1641);
#510=VERTEX_POINT('',#1643);
#511=VERTEX_POINT('',#1645);
#512=VERTEX_POINT('',#1648);
#513=VERTEX_POINT('',#1650);
#514=VERTEX_POINT('',#1654);
#515=VERTEX_POINT('',#1655);
#516=VERTEX_POINT('',#1657);
#517=VERTEX_POINT('',#1659);
#518=VERTEX_POINT('',#1662);
#519=VERTEX_POINT('',#1664);
#520=VERTEX_POINT('',#1668);
#521=VERTEX_POINT('',#1672);
#522=VERTEX_POINT('',#1674);
#523=VERTEX_POINT('',#1676);
#524=VERTEX_POINT('',#1678);
#525=VERTEX_POINT('',#1694);
#526=VERTEX_POINT('',#1698);
#527=VERTEX_POINT('',#1702);
#528=VERTEX_POINT('',#1706);
#529=VERTEX_POINT('',#1710);
#530=VERTEX_POINT('',#1716);
#531=VERTEX_POINT('',#1721);
#532=VERTEX_POINT('',#1723);
#533=VERTEX_POINT('',#1735);
#534=VERTEX_POINT('',#1737);
#535=VERTEX_POINT('',#1740);
#536=VERTEX_POINT('',#1744);
#537=VERTEX_POINT('',#1745);
#538=VERTEX_POINT('',#1747);
#539=VERTEX_POINT('',#1749);
#540=VERTEX_POINT('',#1751);
#541=VERTEX_POINT('',#1753);
#542=VERTEX_POINT('',#1757);
#543=VERTEX_POINT('',#1761);
#544=VERTEX_POINT('',#1763);
#545=VERTEX_POINT('',#1766);
#546=VERTEX_POINT('',#1768);
#547=VERTEX_POINT('',#1771);
#548=VERTEX_POINT('',#1775);
#549=VERTEX_POINT('',#1779);
#550=VERTEX_POINT('',#1781);
#551=VERTEX_POINT('',#1784);
#552=VERTEX_POINT('',#1786);
#553=VERTEX_POINT('',#1789);
#554=VERTEX_POINT('',#1793);
#555=VERTEX_POINT('',#1797);
#556=VERTEX_POINT('',#1798);
#557=VERTEX_POINT('',#1800);
#558=VERTEX_POINT('',#1802);
#559=VERTEX_POINT('',#1806);
#560=VERTEX_POINT('',#1808);
#561=VERTEX_POINT('',#1810);
#562=VERTEX_POINT('',#1812);
#563=VERTEX_POINT('',#1816);
#564=VERTEX_POINT('',#1825);
#565=EDGE_CURVE('',#469,#469,#421,.T.);
#566=EDGE_CURVE('',#470,#470,#422,.T.);
#567=EDGE_CURVE('',#471,#471,#423,.T.);
#568=EDGE_CURVE('',#472,#472,#424,.T.);
#569=EDGE_CURVE('',#471,#473,#17,.T.);
#570=EDGE_CURVE('',#473,#473,#425,.T.);
#571=EDGE_CURVE('',#469,#474,#18,.T.);
#572=EDGE_CURVE('',#474,#474,#426,.T.);
#573=EDGE_CURVE('',#475,#475,#427,.T.);
#574=EDGE_CURVE('',#476,#476,#428,.T.);
#575=EDGE_CURVE('',#477,#477,#429,.T.);
#576=EDGE_CURVE('',#478,#478,#430,.T.);
#577=EDGE_CURVE('',#477,#479,#19,.T.);
#578=EDGE_CURVE('',#479,#479,#431,.T.);
#579=EDGE_CURVE('',#475,#480,#20,.T.);
#580=EDGE_CURVE('',#480,#480,#432,.T.);
#581=EDGE_CURVE('',#481,#482,#21,.T.);
#582=EDGE_CURVE('',#483,#481,#22,.T.);
#583=EDGE_CURVE('',#484,#483,#23,.T.);
#584=EDGE_CURVE('',#482,#484,#24,.T.);
#585=EDGE_CURVE('',#481,#485,#25,.T.);
#586=EDGE_CURVE('',#485,#486,#433,.T.);
#587=EDGE_CURVE('',#486,#487,#26,.T.);
#588=EDGE_CURVE('',#487,#488,#434,.T.);
#589=EDGE_CURVE('',#488,#483,#27,.T.);
#590=EDGE_CURVE('',#489,#490,#28,.T.);
#591=EDGE_CURVE('',#490,#491,#29,.T.);
#592=EDGE_CURVE('',#491,#492,#30,.T.);
#593=EDGE_CURVE('',#492,#493,#31,.T.);
#594=EDGE_CURVE('',#493,#494,#32,.T.);
#595=EDGE_CURVE('',#494,#495,#33,.T.);
#596=EDGE_CURVE('',#495,#496,#34,.T.);
#597=EDGE_CURVE('',#496,#489,#35,.T.);
#598=EDGE_CURVE('',#497,#497,#435,.T.);
#599=EDGE_CURVE('',#498,#498,#436,.T.);
#600=EDGE_CURVE('',#499,#499,#437,.T.);
#601=EDGE_CURVE('',#500,#500,#438,.T.);
#602=EDGE_CURVE('',#482,#501,#36,.T.);
#603=EDGE_CURVE('',#501,#502,#37,.T.);
#604=EDGE_CURVE('',#502,#503,#38,.T.);
#605=EDGE_CURVE('',#503,#485,#39,.T.);
#606=EDGE_CURVE('',#472,#504,#40,.T.);
#607=EDGE_CURVE('',#504,#504,#439,.T.);
#608=EDGE_CURVE('',#470,#505,#41,.T.);
#609=EDGE_CURVE('',#505,#505,#440,.T.);
#610=EDGE_CURVE('',#478,#506,#42,.T.);
#611=EDGE_CURVE('',#506,#506,#441,.T.);
#612=EDGE_CURVE('',#476,#507,#43,.T.);
#613=EDGE_CURVE('',#507,#507,#442,.T.);
#614=EDGE_CURVE('',#508,#509,#44,.T.);
#615=EDGE_CURVE('',#509,#510,#45,.T.);
#616=EDGE_CURVE('',#510,#511,#46,.T.);
#617=EDGE_CURVE('',#511,#493,#47,.T.);
#618=EDGE_CURVE('',#512,#492,#48,.T.);
#619=EDGE_CURVE('',#512,#513,#49,.T.);
#620=EDGE_CURVE('',#508,#513,#50,.T.);
#621=EDGE_CURVE('',#514,#515,#51,.T.);
#622=EDGE_CURVE('',#515,#516,#52,.T.);
#623=EDGE_CURVE('',#516,#517,#53,.T.);
#624=EDGE_CURVE('',#517,#491,#54,.T.);
#625=EDGE_CURVE('',#518,#490,#55,.T.);
#626=EDGE_CURVE('',#518,#519,#56,.T.);
#627=EDGE_CURVE('',#514,#519,#57,.T.);
#628=EDGE_CURVE('',#520,#484,#58,.T.);
#629=EDGE_CURVE('',#501,#520,#59,.T.);
#630=EDGE_CURVE('',#503,#521,#443,.T.);
#631=EDGE_CURVE('',#522,#502,#60,.T.);
#632=EDGE_CURVE('',#523,#522,#61,.T.);
#633=EDGE_CURVE('',#524,#523,#444,.T.);
#634=EDGE_CURVE('',#521,#524,#62,.T.);
#635=EDGE_CURVE('',#515,#508,#63,.T.);
#636=EDGE_CURVE('',#509,#514,#64,.T.);
#637=EDGE_CURVE('',#513,#516,#65,.T.);
#638=EDGE_CURVE('',#522,#520,#66,.T.);
#639=EDGE_CURVE('',#521,#486,#67,.T.);
#640=EDGE_CURVE('',#524,#487,#68,.T.);
#641=EDGE_CURVE('',#523,#488,#69,.T.);
#642=EDGE_CURVE('',#500,#525,#70,.T.);
#643=EDGE_CURVE('',#525,#525,#445,.T.);
#644=EDGE_CURVE('',#499,#526,#71,.T.);
#645=EDGE_CURVE('',#526,#526,#446,.T.);
#646=EDGE_CURVE('',#498,#527,#72,.T.);
#647=EDGE_CURVE('',#527,#527,#447,.T.);
#648=EDGE_CURVE('',#497,#528,#73,.T.);
#649=EDGE_CURVE('',#528,#528,#448,.T.);
#650=EDGE_CURVE('',#518,#529,#74,.T.);
#651=EDGE_CURVE('',#529,#489,#75,.T.);
#652=EDGE_CURVE('',#512,#517,#76,.T.);
#653=EDGE_CURVE('',#530,#511,#77,.T.);
#654=EDGE_CURVE('',#494,#530,#78,.T.);
#655=EDGE_CURVE('',#531,#529,#79,.T.);
#656=EDGE_CURVE('',#532,#531,#80,.T.);
#657=EDGE_CURVE('',#530,#532,#81,.T.);
#658=EDGE_CURVE('',#519,#510,#82,.T.);
#659=EDGE_CURVE('',#495,#532,#83,.T.);
#660=EDGE_CURVE('',#531,#496,#84,.T.);
#661=EDGE_CURVE('',#533,#533,#449,.T.);
#662=EDGE_CURVE('',#534,#534,#450,.T.);
#663=EDGE_CURVE('',#535,#535,#451,.T.);
#664=EDGE_CURVE('',#535,#533,#85,.T.);
#665=EDGE_CURVE('',#536,#537,#452,.T.);
#666=EDGE_CURVE('',#538,#536,#86,.T.);
#667=EDGE_CURVE('',#539,#538,#87,.T.);
#668=EDGE_CURVE('',#540,#539,#88,.T.);
#669=EDGE_CURVE('',#541,#540,#453,.T.);
#670=EDGE_CURVE('',#537,#541,#89,.T.);
#671=EDGE_CURVE('',#534,#542,#90,.T.);
#672=EDGE_CURVE('',#542,#542,#454,.T.);
#673=EDGE_CURVE('',#543,#543,#455,.T.);
#674=EDGE_CURVE('',#544,#544,#456,.T.);
#675=EDGE_CURVE('',#545,#545,#457,.T.);
#676=EDGE_CURVE('',#546,#546,#458,.T.);
#677=EDGE_CURVE('',#545,#547,#91,.T.);
#678=EDGE_CURVE('',#547,#547,#459,.T.);
#679=EDGE_CURVE('',#543,#548,#92,.T.);
#680=EDGE_CURVE('',#548,#548,#460,.T.);
#681=EDGE_CURVE('',#549,#549,#461,.T.);
#682=EDGE_CURVE('',#550,#550,#462,.T.);
#683=EDGE_CURVE('',#551,#551,#463,.T.);
#684=EDGE_CURVE('',#552,#552,#464,.T.);
#685=EDGE_CURVE('',#551,#553,#93,.T.);
#686=EDGE_CURVE('',#553,#553,#465,.T.);
#687=EDGE_CURVE('',#549,#554,#94,.T.);
#688=EDGE_CURVE('',#554,#554,#466,.T.);
#689=EDGE_CURVE('',#555,#556,#95,.T.);
#690=EDGE_CURVE('',#557,#555,#96,.T.);
#691=EDGE_CURVE('',#558,#557,#97,.T.);
#692=EDGE_CURVE('',#556,#558,#98,.T.);
#693=EDGE_CURVE('',#555,#559,#99,.T.);
#694=EDGE_CURVE('',#559,#560,#467,.T.);
#695=EDGE_CURVE('',#560,#561,#100,.T.);
#696=EDGE_CURVE('',#561,#562,#468,.T.);
#697=EDGE_CURVE('',#562,#557,#101,.T.);
#698=EDGE_CURVE('',#556,#563,#102,.T.);
#699=EDGE_CURVE('',#563,#538,#103,.T.);
#700=EDGE_CURVE('',#536,#559,#104,.T.);
#701=EDGE_CURVE('',#546,#552,#105,.T.);
#702=EDGE_CURVE('',#550,#544,#106,.T.);
#703=EDGE_CURVE('',#564,#558,#107,.T.);
#704=EDGE_CURVE('',#563,#564,#108,.T.);
#705=EDGE_CURVE('',#539,#564,#109,.T.);
#706=EDGE_CURVE('',#537,#560,#110,.T.);
#707=EDGE_CURVE('',#541,#561,#111,.T.);
#708=EDGE_CURVE('',#540,#562,#112,.T.);
#709=ORIENTED_EDGE('',*,*,#565,.F.);
#710=ORIENTED_EDGE('',*,*,#566,.T.);
#711=ORIENTED_EDGE('',*,*,#567,.F.);
#712=ORIENTED_EDGE('',*,*,#568,.T.);
#713=ORIENTED_EDGE('',*,*,#567,.T.);
#714=ORIENTED_EDGE('',*,*,#569,.T.);
#715=ORIENTED_EDGE('',*,*,#570,.F.);
#716=ORIENTED_EDGE('',*,*,#569,.F.);
#717=ORIENTED_EDGE('',*,*,#565,.T.);
#718=ORIENTED_EDGE('',*,*,#571,.T.);
#719=ORIENTED_EDGE('',*,*,#572,.F.);
#720=ORIENTED_EDGE('',*,*,#571,.F.);
#721=ORIENTED_EDGE('',*,*,#573,.F.);
#722=ORIENTED_EDGE('',*,*,#574,.T.);
#723=ORIENTED_EDGE('',*,*,#575,.F.);
#724=ORIENTED_EDGE('',*,*,#576,.T.);
#725=ORIENTED_EDGE('',*,*,#575,.T.);
#726=ORIENTED_EDGE('',*,*,#577,.T.);
#727=ORIENTED_EDGE('',*,*,#578,.F.);
#728=ORIENTED_EDGE('',*,*,#577,.F.);
#729=ORIENTED_EDGE('',*,*,#573,.T.);
#730=ORIENTED_EDGE('',*,*,#579,.T.);
#731=ORIENTED_EDGE('',*,*,#580,.F.);
#732=ORIENTED_EDGE('',*,*,#579,.F.);
#733=ORIENTED_EDGE('',*,*,#581,.F.);
#734=ORIENTED_EDGE('',*,*,#582,.F.);
#735=ORIENTED_EDGE('',*,*,#583,.F.);
#736=ORIENTED_EDGE('',*,*,#584,.F.);
#737=ORIENTED_EDGE('',*,*,#582,.T.);
#738=ORIENTED_EDGE('',*,*,#585,.T.);
#739=ORIENTED_EDGE('',*,*,#586,.T.);
#740=ORIENTED_EDGE('',*,*,#587,.T.);
#741=ORIENTED_EDGE('',*,*,#588,.T.);
#742=ORIENTED_EDGE('',*,*,#589,.T.);
#743=ORIENTED_EDGE('',*,*,#590,.T.);
#744=ORIENTED_EDGE('',*,*,#591,.T.);
#745=ORIENTED_EDGE('',*,*,#592,.T.);
#746=ORIENTED_EDGE('',*,*,#593,.T.);
#747=ORIENTED_EDGE('',*,*,#594,.T.);
#748=ORIENTED_EDGE('',*,*,#595,.T.);
#749=ORIENTED_EDGE('',*,*,#596,.T.);
#750=ORIENTED_EDGE('',*,*,#597,.T.);
#751=ORIENTED_EDGE('',*,*,#598,.T.);
#752=ORIENTED_EDGE('',*,*,#599,.T.);
#753=ORIENTED_EDGE('',*,*,#600,.T.);
#754=ORIENTED_EDGE('',*,*,#601,.T.);
#755=ORIENTED_EDGE('',*,*,#581,.T.);
#756=ORIENTED_EDGE('',*,*,#602,.T.);
#757=ORIENTED_EDGE('',*,*,#603,.T.);
#758=ORIENTED_EDGE('',*,*,#604,.T.);
#759=ORIENTED_EDGE('',*,*,#605,.T.);
#760=ORIENTED_EDGE('',*,*,#585,.F.);
#761=ORIENTED_EDGE('',*,*,#578,.T.);
#762=ORIENTED_EDGE('',*,*,#580,.T.);
#763=ORIENTED_EDGE('',*,*,#568,.F.);
#764=ORIENTED_EDGE('',*,*,#606,.T.);
#765=ORIENTED_EDGE('',*,*,#607,.F.);
#766=ORIENTED_EDGE('',*,*,#606,.F.);
#767=ORIENTED_EDGE('',*,*,#566,.F.);
#768=ORIENTED_EDGE('',*,*,#608,.T.);
#769=ORIENTED_EDGE('',*,*,#609,.F.);
#770=ORIENTED_EDGE('',*,*,#608,.F.);
#771=ORIENTED_EDGE('',*,*,#576,.F.);
#772=ORIENTED_EDGE('',*,*,#610,.T.);
#773=ORIENTED_EDGE('',*,*,#611,.F.);
#774=ORIENTED_EDGE('',*,*,#610,.F.);
#775=ORIENTED_EDGE('',*,*,#574,.F.);
#776=ORIENTED_EDGE('',*,*,#612,.T.);
#777=ORIENTED_EDGE('',*,*,#613,.F.);
#778=ORIENTED_EDGE('',*,*,#612,.F.);
#779=ORIENTED_EDGE('',*,*,#614,.T.);
#780=ORIENTED_EDGE('',*,*,#615,.T.);
#781=ORIENTED_EDGE('',*,*,#616,.T.);
#782=ORIENTED_EDGE('',*,*,#617,.T.);
#783=ORIENTED_EDGE('',*,*,#593,.F.);
#784=ORIENTED_EDGE('',*,*,#618,.F.);
#785=ORIENTED_EDGE('',*,*,#619,.T.);
#786=ORIENTED_EDGE('',*,*,#620,.F.);
#787=ORIENTED_EDGE('',*,*,#609,.T.);
#788=ORIENTED_EDGE('',*,*,#607,.T.);
#789=ORIENTED_EDGE('',*,*,#621,.T.);
#790=ORIENTED_EDGE('',*,*,#622,.T.);
#791=ORIENTED_EDGE('',*,*,#623,.T.);
#792=ORIENTED_EDGE('',*,*,#624,.T.);
#793=ORIENTED_EDGE('',*,*,#591,.F.);
#794=ORIENTED_EDGE('',*,*,#625,.F.);
#795=ORIENTED_EDGE('',*,*,#626,.T.);
#796=ORIENTED_EDGE('',*,*,#627,.F.);
#797=ORIENTED_EDGE('',*,*,#613,.T.);
#798=ORIENTED_EDGE('',*,*,#611,.T.);
#799=ORIENTED_EDGE('',*,*,#628,.F.);
#800=ORIENTED_EDGE('',*,*,#629,.F.);
#801=ORIENTED_EDGE('',*,*,#602,.F.);
#802=ORIENTED_EDGE('',*,*,#584,.T.);
#803=ORIENTED_EDGE('',*,*,#630,.F.);
#804=ORIENTED_EDGE('',*,*,#604,.F.);
#805=ORIENTED_EDGE('',*,*,#631,.F.);
#806=ORIENTED_EDGE('',*,*,#632,.F.);
#807=ORIENTED_EDGE('',*,*,#633,.F.);
#808=ORIENTED_EDGE('',*,*,#634,.F.);
#809=ORIENTED_EDGE('',*,*,#614,.F.);
#810=ORIENTED_EDGE('',*,*,#635,.F.);
#811=ORIENTED_EDGE('',*,*,#621,.F.);
#812=ORIENTED_EDGE('',*,*,#636,.F.);
#813=ORIENTED_EDGE('',*,*,#635,.T.);
#814=ORIENTED_EDGE('',*,*,#620,.T.);
#815=ORIENTED_EDGE('',*,*,#637,.T.);
#816=ORIENTED_EDGE('',*,*,#622,.F.);
#817=ORIENTED_EDGE('',*,*,#629,.T.);
#818=ORIENTED_EDGE('',*,*,#638,.F.);
#819=ORIENTED_EDGE('',*,*,#631,.T.);
#820=ORIENTED_EDGE('',*,*,#603,.F.);
#821=ORIENTED_EDGE('',*,*,#630,.T.);
#822=ORIENTED_EDGE('',*,*,#639,.T.);
#823=ORIENTED_EDGE('',*,*,#586,.F.);
#824=ORIENTED_EDGE('',*,*,#605,.F.);
#825=ORIENTED_EDGE('',*,*,#634,.T.);
#826=ORIENTED_EDGE('',*,*,#640,.T.);
#827=ORIENTED_EDGE('',*,*,#587,.F.);
#828=ORIENTED_EDGE('',*,*,#639,.F.);
#829=ORIENTED_EDGE('',*,*,#633,.T.);
#830=ORIENTED_EDGE('',*,*,#641,.T.);
#831=ORIENTED_EDGE('',*,*,#588,.F.);
#832=ORIENTED_EDGE('',*,*,#640,.F.);
#833=ORIENTED_EDGE('',*,*,#601,.F.);
#834=ORIENTED_EDGE('',*,*,#642,.T.);
#835=ORIENTED_EDGE('',*,*,#643,.F.);
#836=ORIENTED_EDGE('',*,*,#642,.F.);
#837=ORIENTED_EDGE('',*,*,#600,.F.);
#838=ORIENTED_EDGE('',*,*,#644,.T.);
#839=ORIENTED_EDGE('',*,*,#645,.F.);
#840=ORIENTED_EDGE('',*,*,#644,.F.);
#841=ORIENTED_EDGE('',*,*,#599,.F.);
#842=ORIENTED_EDGE('',*,*,#646,.T.);
#843=ORIENTED_EDGE('',*,*,#647,.F.);
#844=ORIENTED_EDGE('',*,*,#646,.F.);
#845=ORIENTED_EDGE('',*,*,#598,.F.);
#846=ORIENTED_EDGE('',*,*,#648,.T.);
#847=ORIENTED_EDGE('',*,*,#649,.F.);
#848=ORIENTED_EDGE('',*,*,#648,.F.);
#849=ORIENTED_EDGE('',*,*,#650,.F.);
#850=ORIENTED_EDGE('',*,*,#625,.T.);
#851=ORIENTED_EDGE('',*,*,#590,.F.);
#852=ORIENTED_EDGE('',*,*,#651,.F.);
#853=ORIENTED_EDGE('',*,*,#652,.F.);
#854=ORIENTED_EDGE('',*,*,#618,.T.);
#855=ORIENTED_EDGE('',*,*,#592,.F.);
#856=ORIENTED_EDGE('',*,*,#624,.F.);
#857=ORIENTED_EDGE('',*,*,#653,.F.);
#858=ORIENTED_EDGE('',*,*,#654,.F.);
#859=ORIENTED_EDGE('',*,*,#594,.F.);
#860=ORIENTED_EDGE('',*,*,#617,.F.);
#861=ORIENTED_EDGE('',*,*,#652,.T.);
#862=ORIENTED_EDGE('',*,*,#623,.F.);
#863=ORIENTED_EDGE('',*,*,#637,.F.);
#864=ORIENTED_EDGE('',*,*,#619,.F.);
#865=ORIENTED_EDGE('',*,*,#645,.T.);
#866=ORIENTED_EDGE('',*,*,#647,.T.);
#867=ORIENTED_EDGE('',*,*,#650,.T.);
#868=ORIENTED_EDGE('',*,*,#655,.F.);
#869=ORIENTED_EDGE('',*,*,#656,.F.);
#870=ORIENTED_EDGE('',*,*,#657,.F.);
#871=ORIENTED_EDGE('',*,*,#653,.T.);
#872=ORIENTED_EDGE('',*,*,#616,.F.);
#873=ORIENTED_EDGE('',*,*,#658,.F.);
#874=ORIENTED_EDGE('',*,*,#626,.F.);
#875=ORIENTED_EDGE('',*,*,#643,.T.);
#876=ORIENTED_EDGE('',*,*,#649,.T.);
#877=ORIENTED_EDGE('',*,*,#654,.T.);
#878=ORIENTED_EDGE('',*,*,#657,.T.);
#879=ORIENTED_EDGE('',*,*,#659,.F.);
#880=ORIENTED_EDGE('',*,*,#595,.F.);
#881=ORIENTED_EDGE('',*,*,#636,.T.);
#882=ORIENTED_EDGE('',*,*,#627,.T.);
#883=ORIENTED_EDGE('',*,*,#658,.T.);
#884=ORIENTED_EDGE('',*,*,#615,.F.);
#885=ORIENTED_EDGE('',*,*,#656,.T.);
#886=ORIENTED_EDGE('',*,*,#660,.T.);
#887=ORIENTED_EDGE('',*,*,#596,.F.);
#888=ORIENTED_EDGE('',*,*,#659,.T.);
#889=ORIENTED_EDGE('',*,*,#651,.T.);
#890=ORIENTED_EDGE('',*,*,#597,.F.);
#891=ORIENTED_EDGE('',*,*,#660,.F.);
#892=ORIENTED_EDGE('',*,*,#655,.T.);
#893=ORIENTED_EDGE('',*,*,#583,.T.);
#894=ORIENTED_EDGE('',*,*,#589,.F.);
#895=ORIENTED_EDGE('',*,*,#641,.F.);
#896=ORIENTED_EDGE('',*,*,#632,.T.);
#897=ORIENTED_EDGE('',*,*,#638,.T.);
#898=ORIENTED_EDGE('',*,*,#628,.T.);
#899=ORIENTED_EDGE('',*,*,#570,.T.);
#900=ORIENTED_EDGE('',*,*,#572,.T.);
#901=ORIENTED_EDGE('',*,*,#661,.F.);
#902=ORIENTED_EDGE('',*,*,#662,.T.);
#903=ORIENTED_EDGE('',*,*,#663,.F.);
#904=ORIENTED_EDGE('',*,*,#664,.T.);
#905=ORIENTED_EDGE('',*,*,#661,.T.);
#906=ORIENTED_EDGE('',*,*,#664,.F.);
#907=ORIENTED_EDGE('',*,*,#665,.F.);
#908=ORIENTED_EDGE('',*,*,#666,.F.);
#909=ORIENTED_EDGE('',*,*,#667,.F.);
#910=ORIENTED_EDGE('',*,*,#668,.F.);
#911=ORIENTED_EDGE('',*,*,#669,.F.);
#912=ORIENTED_EDGE('',*,*,#670,.F.);
#913=ORIENTED_EDGE('',*,*,#663,.T.);
#914=ORIENTED_EDGE('',*,*,#662,.F.);
#915=ORIENTED_EDGE('',*,*,#671,.T.);
#916=ORIENTED_EDGE('',*,*,#672,.F.);
#917=ORIENTED_EDGE('',*,*,#671,.F.);
#918=ORIENTED_EDGE('',*,*,#673,.F.);
#919=ORIENTED_EDGE('',*,*,#674,.T.);
#920=ORIENTED_EDGE('',*,*,#675,.F.);
#921=ORIENTED_EDGE('',*,*,#676,.T.);
#922=ORIENTED_EDGE('',*,*,#675,.T.);
#923=ORIENTED_EDGE('',*,*,#677,.T.);
#924=ORIENTED_EDGE('',*,*,#678,.F.);
#925=ORIENTED_EDGE('',*,*,#677,.F.);
#926=ORIENTED_EDGE('',*,*,#673,.T.);
#927=ORIENTED_EDGE('',*,*,#679,.T.);
#928=ORIENTED_EDGE('',*,*,#680,.F.);
#929=ORIENTED_EDGE('',*,*,#679,.F.);
#930=ORIENTED_EDGE('',*,*,#681,.F.);
#931=ORIENTED_EDGE('',*,*,#682,.T.);
#932=ORIENTED_EDGE('',*,*,#683,.F.);
#933=ORIENTED_EDGE('',*,*,#684,.T.);
#934=ORIENTED_EDGE('',*,*,#683,.T.);
#935=ORIENTED_EDGE('',*,*,#685,.T.);
#936=ORIENTED_EDGE('',*,*,#686,.F.);
#937=ORIENTED_EDGE('',*,*,#685,.F.);
#938=ORIENTED_EDGE('',*,*,#681,.T.);
#939=ORIENTED_EDGE('',*,*,#687,.T.);
#940=ORIENTED_EDGE('',*,*,#688,.F.);
#941=ORIENTED_EDGE('',*,*,#687,.F.);
#942=ORIENTED_EDGE('',*,*,#689,.F.);
#943=ORIENTED_EDGE('',*,*,#690,.F.);
#944=ORIENTED_EDGE('',*,*,#691,.F.);
#945=ORIENTED_EDGE('',*,*,#692,.F.);
#946=ORIENTED_EDGE('',*,*,#690,.T.);
#947=ORIENTED_EDGE('',*,*,#693,.T.);
#948=ORIENTED_EDGE('',*,*,#694,.T.);
#949=ORIENTED_EDGE('',*,*,#695,.T.);
#950=ORIENTED_EDGE('',*,*,#696,.T.);
#951=ORIENTED_EDGE('',*,*,#697,.T.);
#952=ORIENTED_EDGE('',*,*,#672,.T.);
#953=ORIENTED_EDGE('',*,*,#689,.T.);
#954=ORIENTED_EDGE('',*,*,#698,.T.);
#955=ORIENTED_EDGE('',*,*,#699,.T.);
#956=ORIENTED_EDGE('',*,*,#666,.T.);
#957=ORIENTED_EDGE('',*,*,#700,.T.);
#958=ORIENTED_EDGE('',*,*,#693,.F.);
#959=ORIENTED_EDGE('',*,*,#686,.T.);
#960=ORIENTED_EDGE('',*,*,#688,.T.);
#961=ORIENTED_EDGE('',*,*,#676,.F.);
#962=ORIENTED_EDGE('',*,*,#701,.T.);
#963=ORIENTED_EDGE('',*,*,#684,.F.);
#964=ORIENTED_EDGE('',*,*,#701,.F.);
#965=ORIENTED_EDGE('',*,*,#682,.F.);
#966=ORIENTED_EDGE('',*,*,#702,.T.);
#967=ORIENTED_EDGE('',*,*,#674,.F.);
#968=ORIENTED_EDGE('',*,*,#702,.F.);
#969=ORIENTED_EDGE('',*,*,#703,.F.);
#970=ORIENTED_EDGE('',*,*,#704,.F.);
#971=ORIENTED_EDGE('',*,*,#698,.F.);
#972=ORIENTED_EDGE('',*,*,#692,.T.);
#973=ORIENTED_EDGE('',*,*,#704,.T.);
#974=ORIENTED_EDGE('',*,*,#705,.F.);
#975=ORIENTED_EDGE('',*,*,#667,.T.);
#976=ORIENTED_EDGE('',*,*,#699,.F.);
#977=ORIENTED_EDGE('',*,*,#665,.T.);
#978=ORIENTED_EDGE('',*,*,#706,.T.);
#979=ORIENTED_EDGE('',*,*,#694,.F.);
#980=ORIENTED_EDGE('',*,*,#700,.F.);
#981=ORIENTED_EDGE('',*,*,#670,.T.);
#982=ORIENTED_EDGE('',*,*,#707,.T.);
#983=ORIENTED_EDGE('',*,*,#695,.F.);
#984=ORIENTED_EDGE('',*,*,#706,.F.);
#985=ORIENTED_EDGE('',*,*,#669,.T.);
#986=ORIENTED_EDGE('',*,*,#708,.T.);
#987=ORIENTED_EDGE('',*,*,#696,.F.);
#988=ORIENTED_EDGE('',*,*,#707,.F.);
#989=ORIENTED_EDGE('',*,*,#691,.T.);
#990=ORIENTED_EDGE('',*,*,#697,.F.);
#991=ORIENTED_EDGE('',*,*,#708,.F.);
#992=ORIENTED_EDGE('',*,*,#668,.T.);
#993=ORIENTED_EDGE('',*,*,#705,.T.);
#994=ORIENTED_EDGE('',*,*,#703,.T.);
#995=ORIENTED_EDGE('',*,*,#678,.T.);
#996=ORIENTED_EDGE('',*,*,#680,.T.);
#997=PLANE('',#1110);
#998=PLANE('',#1113);
#999=PLANE('',#1120);
#1000=PLANE('',#1123);
#1001=PLANE('',#1130);
#1002=PLANE('',#1131);
#1003=PLANE('',#1138);
#1004=PLANE('',#1147);
#1005=PLANE('',#1148);
#1006=PLANE('',#1149);
#1007=PLANE('',#1150);
#1008=PLANE('',#1153);
#1009=PLANE('',#1154);
#1010=PLANE('',#1156);
#1011=PLANE('',#1166);
#1012=PLANE('',#1167);
#1013=PLANE('',#1168);
#1014=PLANE('',#1169);
#1015=PLANE('',#1170);
#1016=PLANE('',#1171);
#1017=PLANE('',#1172);
#1018=PLANE('',#1173);
#1019=PLANE('',#1174);
#1020=PLANE('',#1175);
#1021=PLANE('',#1176);
#1022=PLANE('',#1181);
#1023=PLANE('',#1186);
#1024=PLANE('',#1189);
#1025=PLANE('',#1196);
#1026=PLANE('',#1199);
#1027=PLANE('',#1206);
#1028=PLANE('',#1207);
#1029=PLANE('',#1210);
#1030=PLANE('',#1213);
#1031=PLANE('',#1214);
#1032=PLANE('',#1216);
#1033=PLANE('',#1218);
#1034=ADVANCED_FACE('',(#266,#233),#997,.T.);
#1035=ADVANCED_FACE('',(#267,#234),#998,.T.);
#1036=ADVANCED_FACE('',(#268),#209,.F.);
#1037=ADVANCED_FACE('',(#269),#210,.F.);
#1038=ADVANCED_FACE('',(#270,#235),#999,.T.);
#1039=ADVANCED_FACE('',(#271,#236),#1000,.T.);
#1040=ADVANCED_FACE('',(#272),#211,.F.);
#1041=ADVANCED_FACE('',(#273),#212,.F.);
#1042=ADVANCED_FACE('',(#274),#1001,.F.);
#1043=ADVANCED_FACE('',(#275,#237,#238,#239,#240,#241),#1002,.T.);
#1044=ADVANCED_FACE('',(#276,#242,#243),#1003,.T.);
#1045=ADVANCED_FACE('',(#277),#213,.F.);
#1046=ADVANCED_FACE('',(#278),#214,.F.);
#1047=ADVANCED_FACE('',(#279),#215,.F.);
#1048=ADVANCED_FACE('',(#280),#216,.F.);
#1049=ADVANCED_FACE('',(#281,#244,#245),#1004,.F.);
#1050=ADVANCED_FACE('',(#282,#246,#247),#1005,.F.);
#1051=ADVANCED_FACE('',(#283),#1006,.F.);
#1052=ADVANCED_FACE('',(#284,#248),#1007,.F.);
#1053=ADVANCED_FACE('',(#285),#1008,.F.);
#1054=ADVANCED_FACE('',(#286),#1009,.T.);
#1055=ADVANCED_FACE('',(#287),#217,.T.);
#1056=ADVANCED_FACE('',(#288),#1010,.T.);
#1057=ADVANCED_FACE('',(#289),#218,.T.);
#1058=ADVANCED_FACE('',(#290),#219,.F.);
#1059=ADVANCED_FACE('',(#291),#220,.F.);
#1060=ADVANCED_FACE('',(#292),#221,.F.);
#1061=ADVANCED_FACE('',(#293),#222,.F.);
#1062=ADVANCED_FACE('',(#294),#1011,.F.);
#1063=ADVANCED_FACE('',(#295),#1012,.F.);
#1064=ADVANCED_FACE('',(#296),#1013,.F.);
#1065=ADVANCED_FACE('',(#297,#249,#250),#1014,.F.);
#1066=ADVANCED_FACE('',(#298,#251,#252),#1015,.F.);
#1067=ADVANCED_FACE('',(#299),#1016,.T.);
#1068=ADVANCED_FACE('',(#300),#1017,.F.);
#1069=ADVANCED_FACE('',(#301),#1018,.T.);
#1070=ADVANCED_FACE('',(#302),#1019,.T.);
#1071=ADVANCED_FACE('',(#303,#253,#254),#1020,.T.);
#1072=ADVANCED_FACE('',(#304,#255),#1021,.T.);
#1073=ADVANCED_FACE('',(#305),#223,.F.);
#1074=ADVANCED_FACE('',(#306,#256),#1022,.F.);
#1075=ADVANCED_FACE('',(#307),#224,.F.);
#1076=ADVANCED_FACE('',(#308,#257),#1023,.T.);
#1077=ADVANCED_FACE('',(#309,#258),#1024,.T.);
#1078=ADVANCED_FACE('',(#310),#225,.F.);
#1079=ADVANCED_FACE('',(#311),#226,.F.);
#1080=ADVANCED_FACE('',(#312,#259),#1025,.T.);
#1081=ADVANCED_FACE('',(#313,#260),#1026,.T.);
#1082=ADVANCED_FACE('',(#314),#227,.F.);
#1083=ADVANCED_FACE('',(#315),#228,.F.);
#1084=ADVANCED_FACE('',(#316),#1027,.F.);
#1085=ADVANCED_FACE('',(#317,#261),#1028,.T.);
#1086=ADVANCED_FACE('',(#318,#262,#263),#1029,.T.);
#1087=ADVANCED_FACE('',(#319),#229,.F.);
#1088=ADVANCED_FACE('',(#320),#230,.F.);
#1089=ADVANCED_FACE('',(#321),#1030,.F.);
#1090=ADVANCED_FACE('',(#322),#1031,.T.);
#1091=ADVANCED_FACE('',(#323),#231,.T.);
#1092=ADVANCED_FACE('',(#324),#1032,.T.);
#1093=ADVANCED_FACE('',(#325),#232,.T.);
#1094=ADVANCED_FACE('',(#326,#264,#265),#1033,.T.);
#1095=CLOSED_SHELL('',(#1034,#1035,#1036,#1037,#1038,#1039,#1040,#1041,
#1042,#1043,#1044,#1045,#1046,#1047,#1048,#1049,#1050,#1051,#1052,#1053,
#1054,#1055,#1056,#1057,#1058,#1059,#1060,#1061,#1062,#1063,#1064,#1065,
#1066,#1067,#1068,#1069,#1070,#1071));
#1096=CLOSED_SHELL('',(#1072,#1073,#1074,#1075,#1076,#1077,#1078,#1079,
#1080,#1081,#1082,#1083,#1084,#1085,#1086,#1087,#1088,#1089,#1090,#1091,
#1092,#1093,#1094));
#1097=DERIVED_UNIT_ELEMENT(#1099,1.);
#1098=DERIVED_UNIT_ELEMENT(#1842,-3.);
#1099=(
MASS_UNIT()
NAMED_UNIT(*)
SI_UNIT(.KILO.,.GRAM.)
);
#1100=DERIVED_UNIT((#1097,#1098));
#1101=MEASURE_REPRESENTATION_ITEM('density measure',
POSITIVE_RATIO_MEASURE(7850.),#1100);
#1102=PROPERTY_DEFINITION_REPRESENTATION(#1107,#1104);
#1103=PROPERTY_DEFINITION_REPRESENTATION(#1108,#1105);
#1104=REPRESENTATION('material name',(#1106),#1839);
#1105=REPRESENTATION('density',(#1101),#1839);
#1106=DESCRIPTIVE_REPRESENTATION_ITEM('Steel','Steel');
#1107=PROPERTY_DEFINITION('material property','material name',#1849);
#1108=PROPERTY_DEFINITION('material property','density of part',#1849);
#1109=AXIS2_PLACEMENT_3D('',#1535,#1219,#1220);
#1110=AXIS2_PLACEMENT_3D('',#1536,#1221,#1222);
#1111=AXIS2_PLACEMENT_3D('',#1538,#1223,#1224);
#1112=AXIS2_PLACEMENT_3D('',#1540,#1225,#1226);
#1113=AXIS2_PLACEMENT_3D('',#1541,#1227,#1228);
#1114=AXIS2_PLACEMENT_3D('',#1543,#1229,#1230);
#1115=AXIS2_PLACEMENT_3D('',#1545,#1231,#1232);
#1116=AXIS2_PLACEMENT_3D('',#1546,#1233,#1234);
#1117=AXIS2_PLACEMENT_3D('',#1549,#1236,#1237);
#1118=AXIS2_PLACEMENT_3D('',#1550,#1238,#1239);
#1119=AXIS2_PLACEMENT_3D('',#1553,#1241,#1242);
#1120=AXIS2_PLACEMENT_3D('',#1554,#1243,#1244);
#1121=AXIS2_PLACEMENT_3D('',#1556,#1245,#1246);
#1122=AXIS2_PLACEMENT_3D('',#1558,#1247,#1248);
#1123=AXIS2_PLACEMENT_3D('',#1559,#1249,#1250);
#1124=AXIS2_PLACEMENT_3D('',#1561,#1251,#1252);
#1125=AXIS2_PLACEMENT_3D('',#1563,#1253,#1254);
#1126=AXIS2_PLACEMENT_3D('',#1564,#1255,#1256);
#1127=AXIS2_PLACEMENT_3D('',#1567,#1258,#1259);
#1128=AXIS2_PLACEMENT_3D('',#1568,#1260,#1261);
#1129=AXIS2_PLACEMENT_3D('',#1571,#1263,#1264);
#1130=AXIS2_PLACEMENT_3D('',#1572,#1265,#1266);
#1131=AXIS2_PLACEMENT_3D('',#1581,#1271,#1272);
#1132=AXIS2_PLACEMENT_3D('',#1585,#1274,#1275);
#1133=AXIS2_PLACEMENT_3D('',#1589,#1277,#1278);
#1134=AXIS2_PLACEMENT_3D('',#1608,#1288,#1289);
#1135=AXIS2_PLACEMENT_3D('',#1610,#1290,#1291);
#1136=AXIS2_PLACEMENT_3D('',#1612,#1292,#1293);
#1137=AXIS2_PLACEMENT_3D('',#1614,#1294,#1295);
#1138=AXIS2_PLACEMENT_3D('',#1615,#1296,#1297);
#1139=AXIS2_PLACEMENT_3D('',#1623,#1302,#1303);
#1140=AXIS2_PLACEMENT_3D('',#1626,#1305,#1306);
#1141=AXIS2_PLACEMENT_3D('',#1627,#1307,#1308);
#1142=AXIS2_PLACEMENT_3D('',#1630,#1310,#1311);
#1143=AXIS2_PLACEMENT_3D('',#1631,#1312,#1313);
#1144=AXIS2_PLACEMENT_3D('',#1634,#1315,#1316);
#1145=AXIS2_PLACEMENT_3D('',#1635,#1317,#1318);
#1146=AXIS2_PLACEMENT_3D('',#1638,#1320,#1321);
#1147=AXIS2_PLACEMENT_3D('',#1639,#1322,#1323);
#1148=AXIS2_PLACEMENT_3D('',#1653,#1331,#1332);
#1149=AXIS2_PLACEMENT_3D('',#1667,#1340,#1341);
#1150=AXIS2_PLACEMENT_3D('',#1671,#1344,#1345);
#1151=AXIS2_PLACEMENT_3D('',#1673,#1346,#1347);
#1152=AXIS2_PLACEMENT_3D('',#1679,#1350,#1351);
#1153=AXIS2_PLACEMENT_3D('',#1683,#1355,#1356);
#1154=AXIS2_PLACEMENT_3D('',#1685,#1358,#1359);
#1155=AXIS2_PLACEMENT_3D('',#1687,#1361,#1362);
#1156=AXIS2_PLACEMENT_3D('',#1689,#1364,#1365);
#1157=AXIS2_PLACEMENT_3D('',#1691,#1367,#1368);
#1158=AXIS2_PLACEMENT_3D('',#1693,#1370,#1371);
#1159=AXIS2_PLACEMENT_3D('',#1696,#1373,#1374);
#1160=AXIS2_PLACEMENT_3D('',#1697,#1375,#1376);
#1161=AXIS2_PLACEMENT_3D('',#1700,#1378,#1379);
#1162=AXIS2_PLACEMENT_3D('',#1701,#1380,#1381);
#1163=AXIS2_PLACEMENT_3D('',#1704,#1383,#1384);
#1164=AXIS2_PLACEMENT_3D('',#1705,#1385,#1386);
#1165=AXIS2_PLACEMENT_3D('',#1708,#1388,#1389);
#1166=AXIS2_PLACEMENT_3D('',#1709,#1390,#1391);
#1167=AXIS2_PLACEMENT_3D('',#1713,#1394,#1395);
#1168=AXIS2_PLACEMENT_3D('',#1715,#1397,#1398);
#1169=AXIS2_PLACEMENT_3D('',#1719,#1401,#1402);
#1170=AXIS2_PLACEMENT_3D('',#1720,#1403,#1404);
#1171=AXIS2_PLACEMENT_3D('',#1727,#1409,#1410);
#1172=AXIS2_PLACEMENT_3D('',#1729,#1412,#1413);
#1173=AXIS2_PLACEMENT_3D('',#1730,#1414,#1415);
#1174=AXIS2_PLACEMENT_3D('',#1732,#1417,#1418);
#1175=AXIS2_PLACEMENT_3D('',#1733,#1419,#1420);
#1176=AXIS2_PLACEMENT_3D('',#1734,#1421,#1422);
#1177=AXIS2_PLACEMENT_3D('',#1736,#1423,#1424);
#1178=AXIS2_PLACEMENT_3D('',#1738,#1425,#1426);
#1179=AXIS2_PLACEMENT_3D('',#1739,#1427,#1428);
#1180=AXIS2_PLACEMENT_3D('',#1741,#1429,#1430);
#1181=AXIS2_PLACEMENT_3D('',#1743,#1432,#1433);
#1182=AXIS2_PLACEMENT_3D('',#1746,#1434,#1435);
#1183=AXIS2_PLACEMENT_3D('',#1754,#1439,#1440);
#1184=AXIS2_PLACEMENT_3D('',#1756,#1442,#1443);
#1185=AXIS2_PLACEMENT_3D('',#1759,#1445,#1446);
#1186=AXIS2_PLACEMENT_3D('',#1760,#1447,#1448);
#1187=AXIS2_PLACEMENT_3D('',#1762,#1449,#1450);
#1188=AXIS2_PLACEMENT_3D('',#1764,#1451,#1452);
#1189=AXIS2_PLACEMENT_3D('',#1765,#1453,#1454);
#1190=AXIS2_PLACEMENT_3D('',#1767,#1455,#1456);
#1191=AXIS2_PLACEMENT_3D('',#1769,#1457,#1458);
#1192=AXIS2_PLACEMENT_3D('',#1770,#1459,#1460);
#1193=AXIS2_PLACEMENT_3D('',#1773,#1462,#1463);
#1194=AXIS2_PLACEMENT_3D('',#1774,#1464,#1465);
#1195=AXIS2_PLACEMENT_3D('',#1777,#1467,#1468);
#1196=AXIS2_PLACEMENT_3D('',#1778,#1469,#1470);
#1197=AXIS2_PLACEMENT_3D('',#1780,#1471,#1472);
#1198=AXIS2_PLACEMENT_3D('',#1782,#1473,#1474);
#1199=AXIS2_PLACEMENT_3D('',#1783,#1475,#1476);
#1200=AXIS2_PLACEMENT_3D('',#1785,#1477,#1478);
#1201=AXIS2_PLACEMENT_3D('',#1787,#1479,#1480);
#1202=AXIS2_PLACEMENT_3D('',#1788,#1481,#1482);
#1203=AXIS2_PLACEMENT_3D('',#1791,#1484,#1485);
#1204=AXIS2_PLACEMENT_3D('',#1792,#1486,#1487);
#1205=AXIS2_PLACEMENT_3D('',#1795,#1489,#1490);
#1206=AXIS2_PLACEMENT_3D('',#1796,#1491,#1492);
#1207=AXIS2_PLACEMENT_3D('',#1805,#1497,#1498);
#1208=AXIS2_PLACEMENT_3D('',#1809,#1500,#1501);
#1209=AXIS2_PLACEMENT_3D('',#1813,#1503,#1504);
#1210=AXIS2_PLACEMENT_3D('',#1815,#1506,#1507);
#1211=AXIS2_PLACEMENT_3D('',#1820,#1511,#1512);
#1212=AXIS2_PLACEMENT_3D('',#1822,#1514,#1515);
#1213=AXIS2_PLACEMENT_3D('',#1824,#1517,#1518);
#1214=AXIS2_PLACEMENT_3D('',#1828,#1521,#1522);
#1215=AXIS2_PLACEMENT_3D('',#1830,#1524,#1525);
#1216=AXIS2_PLACEMENT_3D('',#1832,#1527,#1528);
#1217=AXIS2_PLACEMENT_3D('',#1834,#1530,#1531);
#1218=AXIS2_PLACEMENT_3D('',#1836,#1533,#1534);
#1219=DIRECTION('axis',(0.,0.,1.));
#1220=DIRECTION('refdir',(1.,0.,0.));
#1221=DIRECTION('center_axis',(0.,-1.,0.));
#1222=DIRECTION('ref_axis',(1.,0.,0.));
#1223=DIRECTION('center_axis',(0.,1.,0.));
#1224=DIRECTION('ref_axis',(1.,0.,0.));
#1225=DIRECTION('center_axis',(0.,1.,0.));
#1226=DIRECTION('ref_axis',(1.,0.,0.));
#1227=DIRECTION('center_axis',(0.,-1.,0.));
#1228=DIRECTION('ref_axis',(1.,0.,0.));
#1229=DIRECTION('center_axis',(0.,1.,0.));
#1230=DIRECTION('ref_axis',(1.,0.,0.));
#1231=DIRECTION('center_axis',(0.,1.,0.));
#1232=DIRECTION('ref_axis',(1.,0.,0.));
#1233=DIRECTION('center_axis',(0.,1.,0.));
#1234=DIRECTION('ref_axis',(1.,0.,0.));
#1235=DIRECTION('',(0.,-1.,0.));
#1236=DIRECTION('center_axis',(0.,1.,0.));
#1237=DIRECTION('ref_axis',(1.,0.,0.));
#1238=DIRECTION('center_axis',(0.,1.,0.));
#1239=DIRECTION('ref_axis',(1.,0.,0.));
#1240=DIRECTION('',(0.,-1.,0.));
#1241=DIRECTION('center_axis',(0.,1.,0.));
#1242=DIRECTION('ref_axis',(1.,0.,0.));
#1243=DIRECTION('center_axis',(0.,1.,0.));
#1244=DIRECTION('ref_axis',(-1.,0.,0.));
#1245=DIRECTION('center_axis',(0.,-1.,0.));
#1246=DIRECTION('ref_axis',(-1.,0.,0.));
#1247=DIRECTION('center_axis',(0.,-1.,0.));
#1248=DIRECTION('ref_axis',(-1.,0.,0.));
#1249=DIRECTION('center_axis',(0.,1.,0.));
#1250=DIRECTION('ref_axis',(-1.,0.,0.));
#1251=DIRECTION('center_axis',(0.,-1.,0.));
#1252=DIRECTION('ref_axis',(-1.,0.,0.));
#1253=DIRECTION('center_axis',(0.,-1.,0.));
#1254=DIRECTION('ref_axis',(-1.,0.,0.));
#1255=DIRECTION('center_axis',(0.,-1.,0.));
#1256=DIRECTION('ref_axis',(-1.,0.,0.));
#1257=DIRECTION('',(0.,1.,0.));
#1258=DIRECTION('center_axis',(0.,-1.,0.));
#1259=DIRECTION('ref_axis',(-1.,0.,0.));
#1260=DIRECTION('center_axis',(0.,-1.,0.));
#1261=DIRECTION('ref_axis',(-1.,0.,0.));
#1262=DIRECTION('',(0.,1.,0.));
#1263=DIRECTION('center_axis',(0.,-1.,0.));
#1264=DIRECTION('ref_axis',(-1.,0.,0.));
#1265=DIRECTION('center_axis',(0.,0.,1.));
#1266=DIRECTION('ref_axis',(1.,0.,0.));
#1267=DIRECTION('',(-1.,0.,0.));
#1268=DIRECTION('',(0.,1.,0.));
#1269=DIRECTION('',(1.,0.,0.));
#1270=DIRECTION('',(0.,-1.,0.));
#1271=DIRECTION('center_axis',(1.,0.,0.));
#1272=DIRECTION('ref_axis',(0.,0.,-1.));
#1273=DIRECTION('',(0.,0.,1.));
#1274=DIRECTION('center_axis',(1.,0.,0.));
#1275=DIRECTION('ref_axis',(0.,0.707106781186547,0.707106781186547));
#1276=DIRECTION('',(0.,-1.,0.));
#1277=DIRECTION('center_axis',(1.,0.,0.));
#1278=DIRECTION('ref_axis',(0.,-0.707106781186547,0.707106781186547));
#1279=DIRECTION('',(0.,0.,-1.));
#1280=DIRECTION('',(0.,1.,0.));
#1281=DIRECTION('',(0.,0.,-1.));
#1282=DIRECTION('',(0.,-1.,0.));
#1283=DIRECTION('',(0.,0.,1.));
#1284=DIRECTION('',(0.,1.,0.));
#1285=DIRECTION('',(0.,0.,1.));
#1286=DIRECTION('',(0.,1.,0.));
#1287=DIRECTION('',(0.,0.,-1.));
#1288=DIRECTION('center_axis',(-1.,0.,0.));
#1289=DIRECTION('ref_axis',(0.,-1.,0.));
#1290=DIRECTION('center_axis',(-1.,0.,0.));
#1291=DIRECTION('ref_axis',(0.,-1.,0.));
#1292=DIRECTION('center_axis',(-1.,0.,0.));
#1293=DIRECTION('ref_axis',(0.,-1.,0.));
#1294=DIRECTION('center_axis',(-1.,0.,0.));
#1295=DIRECTION('ref_axis',(0.,-1.,0.));
#1296=DIRECTION('center_axis',(0.,1.,0.));
#1297=DIRECTION('ref_axis',(0.,0.,1.));
#1298=DIRECTION('',(0.,0.,-1.));
#1299=DIRECTION('',(-1.,0.,0.));
#1300=DIRECTION('',(0.,0.,1.));
#1301=DIRECTION('',(1.,0.,0.));
#1302=DIRECTION('center_axis',(0.,1.,0.));
#1303=DIRECTION('ref_axis',(1.,0.,0.));
#1304=DIRECTION('',(0.,1.,0.));
#1305=DIRECTION('center_axis',(0.,-1.,0.));
#1306=DIRECTION('ref_axis',(1.,0.,0.));
#1307=DIRECTION('center_axis',(0.,1.,0.));
#1308=DIRECTION('ref_axis',(1.,0.,0.));
#1309=DIRECTION('',(0.,1.,0.));
#1310=DIRECTION('center_axis',(0.,-1.,0.));
#1311=DIRECTION('ref_axis',(1.,0.,0.));
#1312=DIRECTION('center_axis',(0.,-1.,0.));
#1313=DIRECTION('ref_axis',(-1.,0.,0.));
#1314=DIRECTION('',(0.,-1.,0.));
#1315=DIRECTION('center_axis',(0.,1.,0.));
#1316=DIRECTION('ref_axis',(-1.,0.,0.));
#1317=DIRECTION('center_axis',(0.,-1.,0.));
#1318=DIRECTION('ref_axis',(-1.,0.,0.));
#1319=DIRECTION('',(0.,-1.,0.));
#1320=DIRECTION('center_axis',(0.,1.,0.));
#1321=DIRECTION('ref_axis',(-1.,0.,0.));
#1322=DIRECTION('center_axis',(0.,-1.,0.));
#1323=DIRECTION('ref_axis',(0.,0.,-1.));
#1324=DIRECTION('',(0.,0.,1.));
#1325=DIRECTION('',(1.,0.,0.));
#1326=DIRECTION('',(0.,0.,-1.));
#1327=DIRECTION('',(1.,0.,0.));
#1328=DIRECTION('',(1.,0.,0.));
#1329=DIRECTION('',(0.,0.,-1.));
#1330=DIRECTION('',(1.,0.,0.));
#1331=DIRECTION('center_axis',(0.,1.,0.));
#1332=DIRECTION('ref_axis',(0.,0.,1.));
#1333=DIRECTION('',(0.,0.,-1.));
#1334=DIRECTION('',(1.,0.,0.));
#1335=DIRECTION('',(0.,0.,1.));
#1336=DIRECTION('',(1.,0.,0.));
#1337=DIRECTION('',(1.,0.,0.));
#1338=DIRECTION('',(0.,0.,1.));
#1339=DIRECTION('',(1.,0.,0.));
#1340=DIRECTION('center_axis',(-1.,0.,0.));
#1341=DIRECTION('ref_axis',(0.,0.,1.));
#1342=DIRECTION('',(0.,0.,1.));
#1343=DIRECTION('',(0.,-1.,0.));
#1344=DIRECTION('center_axis',(1.,0.,0.));
#1345=DIRECTION('ref_axis',(0.,0.,-1.));
#1346=DIRECTION('center_axis',(1.,0.,0.));
#1347=DIRECTION('ref_axis',(0.,0.707106781186547,0.707106781186547));
#1348=DIRECTION('',(0.,1.,0.));
#1349=DIRECTION('',(0.,0.,-1.));
#1350=DIRECTION('center_axis',(1.,0.,0.));
#1351=DIRECTION('ref_axis',(0.,-0.707106781186547,0.707106781186547));
#1352=DIRECTION('',(0.,-1.,0.));
#1353=DIRECTION('',(0.,-1.,0.));
#1354=DIRECTION('',(0.,1.,0.));
#1355=DIRECTION('center_axis',(0.,0.,-1.));
#1356=DIRECTION('ref_axis',(0.,1.,0.));
#1357=DIRECTION('',(0.,1.,0.));
#1358=DIRECTION('center_axis',(0.,0.,-1.));
#1359=DIRECTION('ref_axis',(-1.,0.,0.));
#1360=DIRECTION('',(1.,0.,0.));
#1361=DIRECTION('center_axis',(-1.,0.,0.));
#1362=DIRECTION('ref_axis',(0.,0.707106781186547,0.707106781186547));
#1363=DIRECTION('',(1.,0.,0.));
#1364=DIRECTION('center_axis',(0.,0.,1.));
#1365=DIRECTION('ref_axis',(1.,0.,0.));
#1366=DIRECTION('',(1.,0.,0.));
#1367=DIRECTION('center_axis',(1.,0.,0.));
#1368=DIRECTION('ref_axis',(0.,-0.707106781186547,0.707106781186547));
#1369=DIRECTION('',(1.,0.,0.));
#1370=DIRECTION('center_axis',(1.,0.,0.));
#1371=DIRECTION('ref_axis',(0.,-1.,0.));
#1372=DIRECTION('',(-1.,0.,0.));
#1373=DIRECTION('center_axis',(1.,0.,0.));
#1374=DIRECTION('ref_axis',(0.,-1.,0.));
#1375=DIRECTION('center_axis',(1.,0.,0.));
#1376=DIRECTION('ref_axis',(0.,-1.,0.));
#1377=DIRECTION('',(-1.,0.,0.));
#1378=DIRECTION('center_axis',(1.,0.,0.));
#1379=DIRECTION('ref_axis',(0.,-1.,0.));
#1380=DIRECTION('center_axis',(1.,0.,0.));
#1381=DIRECTION('ref_axis',(0.,-1.,0.));
#1382=DIRECTION('',(-1.,0.,0.));
#1383=DIRECTION('center_axis',(1.,0.,0.));
#1384=DIRECTION('ref_axis',(0.,-1.,0.));
#1385=DIRECTION('center_axis',(1.,0.,0.));
#1386=DIRECTION('ref_axis',(0.,-1.,0.));
#1387=DIRECTION('',(-1.,0.,0.));
#1388=DIRECTION('center_axis',(1.,0.,0.));
#1389=DIRECTION('ref_axis',(0.,-1.,0.));
#1390=DIRECTION('center_axis',(0.,0.,1.));
#1391=DIRECTION('ref_axis',(0.,-1.,0.));
#1392=DIRECTION('',(0.,-1.,0.));
#1393=DIRECTION('',(1.,0.,0.));
#1394=DIRECTION('center_axis',(0.,0.,-1.));
#1395=DIRECTION('ref_axis',(0.,1.,0.));
#1396=DIRECTION('',(0.,1.,0.));
#1397=DIRECTION('center_axis',(0.,0.,1.));
#1398=DIRECTION('ref_axis',(0.,-1.,0.));
#1399=DIRECTION('',(0.,-1.,0.));
#1400=DIRECTION('',(-1.,0.,0.));
#1401=DIRECTION('center_axis',(1.,0.,0.));
#1402=DIRECTION('ref_axis',(0.,0.,-1.));
#1403=DIRECTION('center_axis',(1.,0.,0.));
#1404=DIRECTION('ref_axis',(0.,0.,-1.));
#1405=DIRECTION('',(0.,0.,-1.));
#1406=DIRECTION('',(0.,1.,0.));
#1407=DIRECTION('',(0.,0.,1.));
#1408=DIRECTION('',(0.,-1.,0.));
#1409=DIRECTION('center_axis',(0.,1.,0.));
#1410=DIRECTION('ref_axis',(0.,0.,1.));
#1411=DIRECTION('',(-1.,0.,0.));
#1412=DIRECTION('center_axis',(0.,0.,1.));
#1413=DIRECTION('ref_axis',(0.,-1.,0.));
#1414=DIRECTION('center_axis',(0.,0.,-1.));
#1415=DIRECTION('ref_axis',(-1.,0.,0.));
#1416=DIRECTION('',(1.,0.,0.));
#1417=DIRECTION('center_axis',(0.,-1.,0.));
#1418=DIRECTION('ref_axis',(0.,0.,-1.));
#1419=DIRECTION('center_axis',(0.,-1.,0.));
#1420=DIRECTION('ref_axis',(0.,0.,-1.));
#1421=DIRECTION('center_axis',(1.,0.,0.));
#1422=DIRECTION('ref_axis',(0.,1.,0.));
#1423=DIRECTION('center_axis',(-1.,0.,0.));
#1424=DIRECTION('ref_axis',(0.,1.,0.));
#1425=DIRECTION('center_axis',(-1.,0.,0.));
#1426=DIRECTION('ref_axis',(0.,-1.,0.));
#1427=DIRECTION('center_axis',(-1.,0.,0.));
#1428=DIRECTION('ref_axis',(0.,1.,0.));
#1429=DIRECTION('center_axis',(-1.,1.22464679914735E-16,0.));
#1430=DIRECTION('ref_axis',(0.,1.,0.));
#1431=DIRECTION('',(-1.,0.,0.));
#1432=DIRECTION('center_axis',(-1.,1.22464679914735E-16,0.));
#1433=DIRECTION('ref_axis',(0.,0.,-1.));
#1434=DIRECTION('center_axis',(-1.,1.22464679914735E-16,0.));
#1435=DIRECTION('ref_axis',(-8.65956056235493E-17,-0.707106781186547,0.707106781186547));
#1436=DIRECTION('',(0.,0.,1.));
#1437=DIRECTION('',(-1.22464679914735E-16,-1.,0.));
#1438=DIRECTION('',(0.,0.,-1.));
#1439=DIRECTION('center_axis',(-1.,1.22464679914735E-16,0.));
#1440=DIRECTION('ref_axis',(8.65956056235493E-17,0.707106781186547,0.707106781186547));
#1441=DIRECTION('',(1.22464679914735E-16,1.,0.));
#1442=DIRECTION('center_axis',(1.,0.,0.));
#1443=DIRECTION('ref_axis',(0.,-1.,0.));
#1444=DIRECTION('',(-1.,0.,0.));
#1445=DIRECTION('center_axis',(1.,-1.22464679914735E-16,0.));
#1446=DIRECTION('ref_axis',(0.,-1.,0.));
#1447=DIRECTION('center_axis',(1.22464679914735E-16,1.,0.));
#1448=DIRECTION('ref_axis',(-1.,1.22464679914735E-16,0.));
#1449=DIRECTION('center_axis',(-1.22464679914735E-16,-1.,0.));
#1450=DIRECTION('ref_axis',(-1.,1.22464679914735E-16,0.));
#1451=DIRECTION('center_axis',(-1.22464679914735E-16,-1.,0.));
#1452=DIRECTION('ref_axis',(-1.,1.22464679914735E-16,0.));
#1453=DIRECTION('center_axis',(1.22464679914735E-16,1.,0.));
#1454=DIRECTION('ref_axis',(-1.,1.22464679914735E-16,0.));
#1455=DIRECTION('center_axis',(-1.22464679914735E-16,-1.,0.));
#1456=DIRECTION('ref_axis',(-1.,1.22464679914735E-16,0.));
#1457=DIRECTION('center_axis',(-1.22464679914735E-16,-1.,0.));
#1458=DIRECTION('ref_axis',(-1.,1.22464679914735E-16,0.));
#1459=DIRECTION('center_axis',(-1.22464679914735E-16,-1.,0.));
#1460=DIRECTION('ref_axis',(-1.,1.22464679914735E-16,0.));
#1461=DIRECTION('',(1.22464679914735E-16,1.,0.));
#1462=DIRECTION('center_axis',(-1.22464679914735E-16,-1.,0.));
#1463=DIRECTION('ref_axis',(-1.,1.22464679914735E-16,0.));
#1464=DIRECTION('center_axis',(-1.22464679914735E-16,-1.,0.));
#1465=DIRECTION('ref_axis',(-1.,1.22464679914735E-16,0.));
#1466=DIRECTION('',(1.22464679914735E-16,1.,0.));
#1467=DIRECTION('center_axis',(-1.22464679914735E-16,-1.,0.));
#1468=DIRECTION('ref_axis',(-1.,1.22464679914735E-16,0.));
#1469=DIRECTION('center_axis',(-1.22464679914735E-16,-1.,0.));
#1470=DIRECTION('ref_axis',(1.,-1.22464679914735E-16,0.));
#1471=DIRECTION('center_axis',(1.22464679914735E-16,1.,0.));
#1472=DIRECTION('ref_axis',(1.,-1.22464679914735E-16,0.));
#1473=DIRECTION('center_axis',(1.22464679914735E-16,1.,0.));
#1474=DIRECTION('ref_axis',(1.,-1.22464679914735E-16,0.));
#1475=DIRECTION('center_axis',(-1.22464679914735E-16,-1.,0.));
#1476=DIRECTION('ref_axis',(1.,-1.22464679914735E-16,0.));
#1477=DIRECTION('center_axis',(1.22464679914735E-16,1.,0.));
#1478=DIRECTION('ref_axis',(1.,-1.22464679914735E-16,0.));
#1479=DIRECTION('center_axis',(1.22464679914735E-16,1.,0.));
#1480=DIRECTION('ref_axis',(1.,-1.22464679914735E-16,0.));
#1481=DIRECTION('center_axis',(1.22464679914735E-16,1.,0.));
#1482=DIRECTION('ref_axis',(1.,-1.22464679914735E-16,0.));
#1483=DIRECTION('',(-1.22464679914735E-16,-1.,0.));
#1484=DIRECTION('center_axis',(1.22464679914735E-16,1.,0.));
#1485=DIRECTION('ref_axis',(1.,-1.22464679914735E-16,0.));
#1486=DIRECTION('center_axis',(1.22464679914735E-16,1.,0.));
#1487=DIRECTION('ref_axis',(1.,-1.22464679914735E-16,0.));
#1488=DIRECTION('',(-1.22464679914735E-16,-1.,0.));
#1489=DIRECTION('center_axis',(1.22464679914735E-16,1.,0.));
#1490=DIRECTION('ref_axis',(1.,-1.22464679914735E-16,0.));
#1491=DIRECTION('center_axis',(0.,0.,1.));
#1492=DIRECTION('ref_axis',(-1.,1.22464679914735E-16,0.));
#1493=DIRECTION('',(1.,-1.22464679914735E-16,0.));
#1494=DIRECTION('',(-1.22464679914735E-16,-1.,0.));
#1495=DIRECTION('',(-1.,1.22464679914735E-16,0.));
#1496=DIRECTION('',(1.22464679914735E-16,1.,0.));
#1497=DIRECTION('center_axis',(-1.,1.22464679914735E-16,0.));
#1498=DIRECTION('ref_axis',(0.,0.,-1.));
#1499=DIRECTION('',(0.,0.,1.));
#1500=DIRECTION('center_axis',(-1.,1.22464679914735E-16,0.));
#1501=DIRECTION('ref_axis',(-8.65956056235493E-17,-0.707106781186547,0.707106781186547));
#1502=DIRECTION('',(1.22464679914735E-16,1.,0.));
#1503=DIRECTION('center_axis',(-1.,1.22464679914735E-16,0.));
#1504=DIRECTION('ref_axis',(8.65956056235493E-17,0.707106781186547,0.707106781186547));
#1505=DIRECTION('',(0.,0.,-1.));
#1506=DIRECTION('center_axis',(-1.22464679914735E-16,-1.,0.));
#1507=DIRECTION('ref_axis',(0.,0.,1.));
#1508=DIRECTION('',(0.,0.,-1.));
#1509=DIRECTION('',(1.,-1.22464679914735E-16,0.));
#1510=DIRECTION('',(-1.,1.22464679914735E-16,0.));
#1511=DIRECTION('center_axis',(-1.22464679914735E-16,-1.,0.));
#1512=DIRECTION('ref_axis',(-1.,1.22464679914735E-16,0.));
#1513=DIRECTION('',(-1.22464679914735E-16,-1.,0.));
#1514=DIRECTION('center_axis',(1.22464679914735E-16,1.,0.));
#1515=DIRECTION('ref_axis',(1.,-1.22464679914735E-16,0.));
#1516=DIRECTION('',(1.22464679914735E-16,1.,0.));
#1517=DIRECTION('center_axis',(1.,-1.22464679914735E-16,0.));
#1518=DIRECTION('ref_axis',(0.,0.,1.));
#1519=DIRECTION('',(0.,0.,1.));
#1520=DIRECTION('',(1.22464679914735E-16,1.,0.));
#1521=DIRECTION('center_axis',(0.,0.,-1.));
#1522=DIRECTION('ref_axis',(1.,-1.22464679914735E-16,0.));
#1523=DIRECTION('',(-1.,1.22464679914735E-16,0.));
#1524=DIRECTION('center_axis',(1.,-1.22464679914735E-16,0.));
#1525=DIRECTION('ref_axis',(-8.65956056235493E-17,-0.707106781186547,0.707106781186547));
#1526=DIRECTION('',(-1.,1.22464679914735E-16,0.));
#1527=DIRECTION('center_axis',(0.,0.,1.));
#1528=DIRECTION('ref_axis',(-1.,1.22464679914735E-16,0.));
#1529=DIRECTION('',(-1.,1.22464679914735E-16,0.));
#1530=DIRECTION('center_axis',(-1.,1.22464679914735E-16,0.));
#1531=DIRECTION('ref_axis',(8.65956056235493E-17,0.707106781186547,0.707106781186547));
#1532=DIRECTION('',(-1.,1.22464679914735E-16,0.));
#1533=DIRECTION('center_axis',(1.22464679914735E-16,1.,0.));
#1534=DIRECTION('ref_axis',(0.,0.,-1.));
#1535=CARTESIAN_POINT('',(0.,0.,0.));
#1536=CARTESIAN_POINT('Origin',(71.0050067901611,25.9999995231628,147.000002190471));
#1537=CARTESIAN_POINT('',(69.1050067901611,25.9999995231628,147.000002190471));
#1538=CARTESIAN_POINT('Origin',(71.0050067901611,25.9999995231628,147.000002190471));
#1539=CARTESIAN_POINT('',(69.4050067901611,25.9999995231628,147.000002190471));
#1540=CARTESIAN_POINT('Origin',(71.0050067901611,25.9999995231628,147.000002190471));
#1541=CARTESIAN_POINT('Origin',(71.0050067901611,25.9999995231628,75.0000011175871));
#1542=CARTESIAN_POINT('',(69.1050067901611,25.9999995231628,75.0000011175871));
#1543=CARTESIAN_POINT('Origin',(71.0050067901611,25.9999995231628,75.0000011175871));
#1544=CARTESIAN_POINT('',(69.4050067901611,25.9999995231628,75.0000011175871));
#1545=CARTESIAN_POINT('Origin',(71.0050067901611,25.9999995231628,75.0000011175871));
#1546=CARTESIAN_POINT('Origin',(71.0050067901611,22.9999995231628,75.0000011175871));
#1547=CARTESIAN_POINT('',(69.1050067901611,22.9999995231628,75.0000011175871));
#1548=CARTESIAN_POINT('',(69.1050067901611,22.9999995231628,75.0000011175871));
#1549=CARTESIAN_POINT('Origin',(71.0050067901611,22.9999995231628,75.0000011175871));
#1550=CARTESIAN_POINT('Origin',(71.0050067901611,22.9999995231628,147.000002190471));
#1551=CARTESIAN_POINT('',(69.1050067901611,22.9999995231628,147.000002190471));
#1552=CARTESIAN_POINT('',(69.1050067901611,22.9999995231628,147.000002190471));
#1553=CARTESIAN_POINT('Origin',(71.0050067901611,22.9999995231628,147.000002190471));
#1554=CARTESIAN_POINT('Origin',(71.0050067901611,60.0000019073486,147.000002190471));
#1555=CARTESIAN_POINT('',(72.9050067901611,60.0000019073486,147.000002190471));
#1556=CARTESIAN_POINT('Origin',(71.0050067901611,60.0000019073486,147.000002190471));
#1557=CARTESIAN_POINT('',(72.6050067901611,60.0000019073486,147.000002190471));
#1558=CARTESIAN_POINT('Origin',(71.0050067901611,60.0000019073486,147.000002190471));
#1559=CARTESIAN_POINT('Origin',(71.0050067901611,60.0000019073486,75.0000011175871));
#1560=CARTESIAN_POINT('',(72.9050067901611,60.0000019073486,75.0000011175871));
#1561=CARTESIAN_POINT('Origin',(71.0050067901611,60.0000019073486,75.0000011175871));
#1562=CARTESIAN_POINT('',(72.6050067901611,60.0000019073486,75.0000011175871));
#1563=CARTESIAN_POINT('Origin',(71.0050067901611,60.0000019073486,75.0000011175871));
#1564=CARTESIAN_POINT('Origin',(71.0050067901611,63.0000019073486,75.0000011175871));
#1565=CARTESIAN_POINT('',(72.9050067901611,63.0000019073486,75.0000011175871));
#1566=CARTESIAN_POINT('',(72.9050067901611,63.0000019073486,75.0000011175871));
#1567=CARTESIAN_POINT('Origin',(71.0050067901611,63.0000019073486,75.0000011175871));
#1568=CARTESIAN_POINT('Origin',(71.0050067901611,63.0000019073486,147.000002190471));
#1569=CARTESIAN_POINT('',(72.9050067901611,63.0000019073486,147.000002190471));
#1570=CARTESIAN_POINT('',(72.9050067901611,63.0000019073486,147.000002190471));
#1571=CARTESIAN_POINT('Origin',(71.0050067901611,63.0000019073486,147.000002190471));
#1572=CARTESIAN_POINT('Origin',(91.9999980926514,63.0000019073486,67.2000028610229));
#1573=CARTESIAN_POINT('',(97.0000057220459,63.0000019073486,67.2000028610229));
#1574=CARTESIAN_POINT('',(92.8049980926514,63.0000019073486,67.2000028610229));
#1575=CARTESIAN_POINT('',(78.5025024414063,63.0000019073486,67.2000028610229));
#1576=CARTESIAN_POINT('',(97.0000057220459,22.9999995231628,67.2000028610229));
#1577=CARTESIAN_POINT('',(97.0000057220459,63.0000019073486,67.2000028610229));
#1578=CARTESIAN_POINT('',(92.8049980926514,22.9999995231628,67.2000028610229));
#1579=CARTESIAN_POINT('',(81.826183795929,22.9999995231628,67.2000028610229));
#1580=CARTESIAN_POINT('',(92.8049980926514,63.0000019073486,67.2000028610229));
#1581=CARTESIAN_POINT('Origin',(97.0000057220459,63.0000019073486,67.0000028610229));
#1582=CARTESIAN_POINT('',(97.0000057220459,63.0000019073486,152.999998092651));
#1583=CARTESIAN_POINT('',(97.0000057220459,63.0000019073486,156.999998092651));
#1584=CARTESIAN_POINT('',(97.0000057220459,58.0000019073486,157.999998092651));
#1585=CARTESIAN_POINT('Origin',(97.0000057220459,58.0000019073486,152.999998092651));
#1586=CARTESIAN_POINT('',(97.0000057220459,27.9999995231628,157.999998092651));
#1587=CARTESIAN_POINT('',(97.0000057220459,63.0000019073486,157.999998092651));
#1588=CARTESIAN_POINT('',(97.0000057220459,22.9999995231628,152.999998092651));
#1589=CARTESIAN_POINT('Origin',(97.0000057220459,27.9999995231628,152.999998092651));
#1590=CARTESIAN_POINT('',(97.0000057220459,22.9999995231628,156.999998092651));
#1591=CARTESIAN_POINT('',(97.0000067901611,48.0000019073486,143.59999679029));
#1592=CARTESIAN_POINT('',(97.0000067901611,58.0999987013638,143.59999679029));
#1593=CARTESIAN_POINT('',(97.0000057220459,60.5500003043562,143.59999679029));
#1594=CARTESIAN_POINT('',(97.0000067901611,58.0999987013638,78.3999982476234));
#1595=CARTESIAN_POINT('',(97.0000057220459,58.0999987013638,72.7000005543232));
#1596=CARTESIAN_POINT('',(97.0000067901611,27.8999993763864,78.3999982476234));
#1597=CARTESIAN_POINT('',(97.0000057220459,45.4500006418675,78.3999982476234));
#1598=CARTESIAN_POINT('',(97.0000067901611,27.8999993763864,143.59999679029));
#1599=CARTESIAN_POINT('',(97.0000057220459,27.8999993763864,105.299999825656));
#1600=CARTESIAN_POINT('',(97.0000067901611,37.9999995231628,143.59999679029));
#1601=CARTESIAN_POINT('',(97.0000057220459,50.5000007152557,143.59999679029));
#1602=CARTESIAN_POINT('',(97.0000057220459,37.9999995231628,149.000001907349));
#1603=CARTESIAN_POINT('',(97.0000057220459,37.9999995231628,143.5));
#1604=CARTESIAN_POINT('',(97.0000057220459,48.0000019073486,149.000001907349));
#1605=CARTESIAN_POINT('',(97.0000057220459,37.9999995231628,149.000001907349));
#1606=CARTESIAN_POINT('',(97.0000057220459,48.0000019073486,149.000001907349));
#1607=CARTESIAN_POINT('',(97.0000067901612,53.5000038351597,148.500004760349));
#1608=CARTESIAN_POINT('Origin',(97.0000067901612,51.5000038351597,148.500004760349));
#1609=CARTESIAN_POINT('',(97.0000067901611,53.5000018397292,73.4999946734228));
#1610=CARTESIAN_POINT('Origin',(97.0000067901611,51.5000018397292,73.4999946734228));
#1611=CARTESIAN_POINT('',(97.0000067901611,36.5000004590352,73.5000070758701));
#1612=CARTESIAN_POINT('Origin',(97.0000067901611,34.5000004590352,73.5000070758701));
#1613=CARTESIAN_POINT('',(97.0000067901612,36.5000014768138,148.499993359413));
#1614=CARTESIAN_POINT('Origin',(97.0000067901612,34.5000014768138,148.499993359413));
#1615=CARTESIAN_POINT('Origin',(65.0050067901611,63.0000019073486,62.0000028610229));
#1616=CARTESIAN_POINT('',(92.8049980926514,63.0000019073486,62.0000028610229));
#1617=CARTESIAN_POINT('',(92.8049980926514,63.0000019073486,64.5000028610229));
#1618=CARTESIAN_POINT('',(66.2050067901611,63.0000019073486,62.0000028610229));
#1619=CARTESIAN_POINT('',(91.9999980926514,63.0000019073486,62.0000028610229));
#1620=CARTESIAN_POINT('',(66.2050067901611,63.0000019073486,152.999998092651));
#1621=CARTESIAN_POINT('',(66.2050067901611,63.0000019073486,62.0000028610229));
#1622=CARTESIAN_POINT('',(94.0000057220459,63.0000019073486,152.999998092651));
#1623=CARTESIAN_POINT('Origin',(71.0050067901611,22.9999995231628,75.0000011175871));
#1624=CARTESIAN_POINT('',(69.4050067901611,27.8999993763864,75.0000011175871));
#1625=CARTESIAN_POINT('',(69.4050067901611,22.9999995231628,75.0000011175871));
#1626=CARTESIAN_POINT('Origin',(71.0050067901611,27.8999993763864,75.0000011175871));
#1627=CARTESIAN_POINT('Origin',(71.0050067901611,22.9999995231628,147.000002190471));
#1628=CARTESIAN_POINT('',(69.4050067901611,27.8999993763864,147.000002190471));
#1629=CARTESIAN_POINT('',(69.4050067901611,22.9999995231628,147.000002190471));
#1630=CARTESIAN_POINT('Origin',(71.0050067901611,27.8999993763864,147.000002190471));
#1631=CARTESIAN_POINT('Origin',(71.0050067901611,63.0000019073486,75.0000011175871));
#1632=CARTESIAN_POINT('',(72.6050067901611,58.0999987013638,75.0000011175871));
#1633=CARTESIAN_POINT('',(72.6050067901611,63.0000019073486,75.0000011175871));
#1634=CARTESIAN_POINT('Origin',(71.0050067901611,58.0999987013638,75.0000011175871));
#1635=CARTESIAN_POINT('Origin',(71.0050067901611,63.0000019073486,147.000002190471));
#1636=CARTESIAN_POINT('',(72.6050067901611,58.0999987013638,147.000002190471));
#1637=CARTESIAN_POINT('',(72.6050067901611,63.0000019073486,147.000002190471));
#1638=CARTESIAN_POINT('Origin',(71.0050067901611,58.0999987013638,147.000002190471));
#1639=CARTESIAN_POINT('Origin',(66.0050067901611,27.8999993763864,153.099996577948));
#1640=CARTESIAN_POINT('',(66.2050067901611,27.8999993763864,66.8999985046685));
#1641=CARTESIAN_POINT('',(66.2050067901611,27.8999993763864,153.099996577948));
#1642=CARTESIAN_POINT('',(66.2050067901611,27.8999993763864,107.549999719486));
#1643=CARTESIAN_POINT('',(84.2050067901611,27.8999993763864,153.099996577948));
#1644=CARTESIAN_POINT('',(66.0050067901611,27.8999993763864,153.099996577948));
#1645=CARTESIAN_POINT('',(84.2050067901611,27.8999993763864,143.59999679029));
#1646=CARTESIAN_POINT('',(84.2050067901611,27.8999993763864,153.099996577948));
#1647=CARTESIAN_POINT('',(94.0000067901611,27.8999993763864,143.59999679029));
#1648=CARTESIAN_POINT('',(84.2050067901611,27.8999993763864,78.3999982476234));
#1649=CARTESIAN_POINT('',(94.0000067901611,27.8999993763864,78.3999982476234));
#1650=CARTESIAN_POINT('',(84.2050067901611,27.8999993763864,66.8999985046685));
#1651=CARTESIAN_POINT('',(84.2050067901611,27.8999993763864,153.099996577948));
#1652=CARTESIAN_POINT('',(66.0050067901611,27.8999993763864,66.8999985046685));
#1653=CARTESIAN_POINT('Origin',(66.0050067901611,58.0999987013638,66.8999985046685));
#1654=CARTESIAN_POINT('',(66.2050067901611,58.0999987013638,153.099996577948));
#1655=CARTESIAN_POINT('',(66.2050067901611,58.0999987013638,66.8999985046685));
#1656=CARTESIAN_POINT('',(66.2050067901611,58.0999987013638,64.4500006828457));
#1657=CARTESIAN_POINT('',(84.2050067901611,58.0999987013638,66.8999985046685));
#1658=CARTESIAN_POINT('',(66.0050067901611,58.0999987013638,66.8999985046685));
#1659=CARTESIAN_POINT('',(84.2050067901611,58.0999987013638,78.3999982476234));
#1660=CARTESIAN_POINT('',(84.2050067901611,58.0999987013638,66.8999985046685));
#1661=CARTESIAN_POINT('',(94.0000067901611,58.0999987013638,78.3999982476234));
#1662=CARTESIAN_POINT('',(84.2050067901611,58.0999987013638,143.59999679029));
#1663=CARTESIAN_POINT('',(94.0000067901611,58.0999987013638,143.59999679029));
#1664=CARTESIAN_POINT('',(84.2050067901611,58.0999987013638,153.099996577948));
#1665=CARTESIAN_POINT('',(84.2050067901611,58.0999987013638,66.8999985046685));
#1666=CARTESIAN_POINT('',(66.0050067901611,58.0999987013638,153.099996577948));
#1667=CARTESIAN_POINT('Origin',(92.8049980926514,63.0000019073486,62.0000028610229));
#1668=CARTESIAN_POINT('',(92.8049980926514,22.9999995231628,62.0000028610229));
#1669=CARTESIAN_POINT('',(92.8049980926514,22.9999995231628,71.0000014305115));
#1670=CARTESIAN_POINT('',(92.8049980926514,63.0000019073486,62.0000028610229));
#1671=CARTESIAN_POINT('Origin',(66.2050067901611,22.9999995231628,62.0000028610229));
#1672=CARTESIAN_POINT('',(66.2050067901611,58.0000019073486,157.999998092651));
#1673=CARTESIAN_POINT('Origin',(66.2050067901611,58.0000019073486,152.999998092651));
#1674=CARTESIAN_POINT('',(66.2050067901611,22.9999995231628,62.0000028610229));
#1675=CARTESIAN_POINT('',(66.2050067901611,43.0000007152557,62.0000028610229));
#1676=CARTESIAN_POINT('',(66.2050067901611,22.9999995231628,152.999998092651));
#1677=CARTESIAN_POINT('',(66.2050067901611,22.9999995231628,68.5000014305115));
#1678=CARTESIAN_POINT('',(66.2050067901611,27.9999995231628,157.999998092651));
#1679=CARTESIAN_POINT('Origin',(66.2050067901611,27.9999995231628,152.999998092651));
#1680=CARTESIAN_POINT('',(66.2050067901611,22.9999995231628,157.999998092651));
#1681=CARTESIAN_POINT('',(66.2050067901611,25.4499994497746,66.8999985046685));
#1682=CARTESIAN_POINT('',(66.2050067901611,40.5499991122633,153.099996577948));
#1683=CARTESIAN_POINT('Origin',(66.0050067901611,27.8999993763864,66.8999985046685));
#1684=CARTESIAN_POINT('',(84.2050067901611,27.8999993763864,66.8999985046685));
#1685=CARTESIAN_POINT('Origin',(91.9999980926514,63.0000019073486,62.0000028610229));
#1686=CARTESIAN_POINT('',(65.0050067901611,22.9999995231628,62.0000028610229));
#1687=CARTESIAN_POINT('Origin',(79.5025062561035,58.0000019073486,152.999998092651));
#1688=CARTESIAN_POINT('',(79.5025062561035,58.0000019073486,157.999998092651));
#1689=CARTESIAN_POINT('Origin',(94.0000057220459,22.9999995231628,157.999998092651));
#1690=CARTESIAN_POINT('',(94.0000057220459,27.9999995231628,157.999998092651));
#1691=CARTESIAN_POINT('Origin',(82.8261876106262,27.9999995231628,152.999998092651));
#1692=CARTESIAN_POINT('',(82.8261876106262,22.9999995231628,152.999998092651));
#1693=CARTESIAN_POINT('Origin',(84.2050067901611,34.5000014768138,148.499993359413));
#1694=CARTESIAN_POINT('',(84.2050067901611,36.5000014768138,148.499993359413));
#1695=CARTESIAN_POINT('',(84.2050067901611,36.5000014768138,148.499993359413));
#1696=CARTESIAN_POINT('Origin',(84.2050067901611,34.5000014768138,148.499993359413));
#1697=CARTESIAN_POINT('Origin',(84.2050067901611,34.5000004590352,73.5000070758701));
#1698=CARTESIAN_POINT('',(84.2050067901611,36.5000004590352,73.5000070758701));
#1699=CARTESIAN_POINT('',(84.2050067901611,36.5000004590352,73.5000070758701));
#1700=CARTESIAN_POINT('Origin',(84.2050067901611,34.5000004590352,73.5000070758701));
#1701=CARTESIAN_POINT('Origin',(84.2050067901611,51.5000018397292,73.4999946734228));
#1702=CARTESIAN_POINT('',(84.2050067901611,53.5000018397292,73.4999946734228));
#1703=CARTESIAN_POINT('',(84.2050067901611,53.5000018397292,73.4999946734228));
#1704=CARTESIAN_POINT('Origin',(84.2050067901611,51.5000018397292,73.4999946734228));
#1705=CARTESIAN_POINT('Origin',(84.2050067901611,51.5000038351597,148.500004760349));
#1706=CARTESIAN_POINT('',(84.2050067901611,53.5000038351597,148.500004760349));
#1707=CARTESIAN_POINT('',(84.2050067901611,53.5000038351597,148.500004760349));
#1708=CARTESIAN_POINT('Origin',(84.2050067901611,51.5000038351597,148.500004760349));
#1709=CARTESIAN_POINT('Origin',(84.2050067901611,58.0999987013638,143.59999679029));
#1710=CARTESIAN_POINT('',(84.2050067901611,48.0000019073486,143.59999679029));
#1711=CARTESIAN_POINT('',(84.2050067901611,50.5499988701195,143.59999679029));
#1712=CARTESIAN_POINT('',(88.1025024414063,48.0000019073486,143.59999679029));
#1713=CARTESIAN_POINT('Origin',(84.2050067901611,27.8999993763864,78.3999982476234));
#1714=CARTESIAN_POINT('',(84.2050067901611,35.4499992076308,78.3999982476234));
#1715=CARTESIAN_POINT('Origin',(84.2050067901611,37.9999995231628,143.59999679029));
#1716=CARTESIAN_POINT('',(84.2050067901611,37.9999995231628,143.59999679029));
#1717=CARTESIAN_POINT('',(84.2050067901611,40.499999281019,143.59999679029));
#1718=CARTESIAN_POINT('',(89.1025062561035,37.9999995231628,143.59999679029));
#1719=CARTESIAN_POINT('Origin',(84.2050067901611,42.9999990388751,109.999997541308));
#1720=CARTESIAN_POINT('Origin',(84.2050067901611,42.9999990388751,109.999997541308));
#1721=CARTESIAN_POINT('',(84.2050067901611,48.0000019073486,149.000001907349));
#1722=CARTESIAN_POINT('',(84.2050067901611,48.0000019073486,126.749998770654));
#1723=CARTESIAN_POINT('',(84.2050067901611,37.9999995231628,149.000001907349));
#1724=CARTESIAN_POINT('',(84.2050067901611,45.5000004731119,149.000001907349));
#1725=CARTESIAN_POINT('',(84.2050067901611,37.9999995231628,129.499999724329));
#1726=CARTESIAN_POINT('',(84.2050067901611,58.0999987013638,153.099996577948));
#1727=CARTESIAN_POINT('Origin',(94.0000057220459,37.9999995231628,149.000001907349));
#1728=CARTESIAN_POINT('',(94.0000057220459,37.9999995231628,149.000001907349));
#1729=CARTESIAN_POINT('Origin',(66.0050067901611,58.0999987013638,153.099996577948));
#1730=CARTESIAN_POINT('Origin',(84.0000057220459,48.0000019073486,149.000001907349));
#1731=CARTESIAN_POINT('',(94.0000057220459,48.0000019073486,149.000001907349));
#1732=CARTESIAN_POINT('Origin',(91.9999980926514,48.0000019073486,143.5));
#1733=CARTESIAN_POINT('Origin',(71.6523694992065,22.9999995231628,75.));
#1734=CARTESIAN_POINT('Origin',(-67.7949932098389,42.9999983310699,130.200002861023));
#1735=CARTESIAN_POINT('',(-67.7949932098389,29.9999983310699,130.200002861023));
#1736=CARTESIAN_POINT('Origin',(-67.7949932098389,42.9999983310699,130.200002861023));
#1737=CARTESIAN_POINT('',(-67.7949932098389,52.9999983310699,130.200002861023));
#1738=CARTESIAN_POINT('Origin',(-67.7949932098389,42.9999983310699,130.200002861023));
#1739=CARTESIAN_POINT('Origin',(-59.7949932098389,42.9999983310699,130.200002861023));
#1740=CARTESIAN_POINT('',(-59.7949932098389,29.9999983310699,130.200002861023));
#1741=CARTESIAN_POINT('Origin',(-59.7949932098389,42.9999983310699,130.200002861023));
#1742=CARTESIAN_POINT('',(-59.7949932098389,29.9999983310699,130.200002861023));
#1743=CARTESIAN_POINT('Origin',(-59.7949932098389,62.9999995231628,62.0000028610229));
#1744=CARTESIAN_POINT('',(-59.7949932098389,22.9999971389771,152.999998092651));
#1745=CARTESIAN_POINT('',(-59.7949932098389,27.9999971389771,157.999998092651));
#1746=CARTESIAN_POINT('Origin',(-59.7949932098389,27.9999971389771,152.999998092651));
#1747=CARTESIAN_POINT('',(-59.7949932098389,22.9999971389771,62.0000028610229));
#1748=CARTESIAN_POINT('',(-59.7949932098389,22.9999971389771,62.0000028610229));
#1749=CARTESIAN_POINT('',(-59.7949932098389,62.9999995231628,62.0000028610229));
#1750=CARTESIAN_POINT('',(-59.7949932098389,42.99999833107,62.0000028610229));
#1751=CARTESIAN_POINT('',(-59.7949932098389,62.9999995231628,152.999998092651));
#1752=CARTESIAN_POINT('',(-59.7949932098389,62.9999995231628,68.5000014305115));
#1753=CARTESIAN_POINT('',(-59.7949932098389,57.9999995231628,157.999998092651));
#1754=CARTESIAN_POINT('Origin',(-59.7949932098389,57.9999995231628,152.999998092651));
#1755=CARTESIAN_POINT('',(-59.7949932098389,62.9999995231628,157.999998092651));
#1756=CARTESIAN_POINT('Origin',(-90.5899921417237,42.9999983310699,130.200002861023));
#1757=CARTESIAN_POINT('',(-90.5899921417237,52.9999983310699,130.200002861023));
#1758=CARTESIAN_POINT('',(-90.5899921417237,52.9999983310699,130.200002861023));
#1759=CARTESIAN_POINT('Origin',(-90.5899921417237,42.9999983310699,130.200002861023));
#1760=CARTESIAN_POINT('Origin',(-64.5949932098389,59.9999995231628,147.000002190471));
#1761=CARTESIAN_POINT('',(-62.6949932098389,59.9999995231628,147.000002190471));
#1762=CARTESIAN_POINT('Origin',(-64.5949932098389,59.9999995231628,147.000002190471));
#1763=CARTESIAN_POINT('',(-66.1949932098389,59.9999995231628,147.000002190471));
#1764=CARTESIAN_POINT('Origin',(-64.5949932098389,59.9999995231628,147.000002190471));
#1765=CARTESIAN_POINT('Origin',(-64.5949932098389,59.9999995231628,75.0000011175871));
#1766=CARTESIAN_POINT('',(-62.6949932098389,59.9999995231628,75.0000011175871));
#1767=CARTESIAN_POINT('Origin',(-64.5949932098389,59.9999995231628,75.0000011175871));
#1768=CARTESIAN_POINT('',(-62.9949932098389,59.9999995231628,75.0000011175871));
#1769=CARTESIAN_POINT('Origin',(-64.5949932098389,59.9999995231628,75.0000011175871));
#1770=CARTESIAN_POINT('Origin',(-64.5949932098389,62.9999995231628,75.0000011175871));
#1771=CARTESIAN_POINT('',(-62.6949932098389,62.9999995231628,75.0000011175871));
#1772=CARTESIAN_POINT('',(-62.6949932098389,62.9999995231628,75.0000011175871));
#1773=CARTESIAN_POINT('Origin',(-64.5949932098389,62.9999995231628,75.0000011175871));
#1774=CARTESIAN_POINT('Origin',(-64.5949932098389,62.9999995231628,147.000002190471));
#1775=CARTESIAN_POINT('',(-62.6949932098389,62.9999995231628,147.000002190471));
#1776=CARTESIAN_POINT('',(-62.6949932098389,62.9999995231628,147.000002190471));
#1777=CARTESIAN_POINT('Origin',(-64.5949932098389,62.9999995231628,147.000002190471));
#1778=CARTESIAN_POINT('Origin',(-64.5949932098389,25.9999971389771,147.000002190471));
#1779=CARTESIAN_POINT('',(-66.4949932098389,25.9999971389771,147.000002190471));
#1780=CARTESIAN_POINT('Origin',(-64.5949932098389,25.9999971389771,147.000002190471));
#1781=CARTESIAN_POINT('',(-66.1949932098389,25.9999971389771,147.000002190471));
#1782=CARTESIAN_POINT('Origin',(-64.5949932098389,25.9999971389771,147.000002190471));
#1783=CARTESIAN_POINT('Origin',(-64.5949932098389,25.9999971389771,75.0000011175871));
#1784=CARTESIAN_POINT('',(-66.4949932098389,25.9999971389771,75.0000011175871));
#1785=CARTESIAN_POINT('Origin',(-64.5949932098389,25.9999971389771,75.0000011175871));
#1786=CARTESIAN_POINT('',(-62.9949932098389,25.9999971389771,75.0000011175871));
#1787=CARTESIAN_POINT('Origin',(-64.5949932098389,25.9999971389771,75.0000011175871));
#1788=CARTESIAN_POINT('Origin',(-64.5949932098389,22.9999971389771,75.0000011175871));
#1789=CARTESIAN_POINT('',(-66.4949932098389,22.9999971389771,75.0000011175871));
#1790=CARTESIAN_POINT('',(-66.4949932098389,22.9999971389771,75.0000011175871));
#1791=CARTESIAN_POINT('Origin',(-64.5949932098389,22.9999971389771,75.0000011175871));
#1792=CARTESIAN_POINT('Origin',(-64.5949932098389,22.9999971389771,147.000002190471));
#1793=CARTESIAN_POINT('',(-66.4949932098389,22.9999971389771,147.000002190471));
#1794=CARTESIAN_POINT('',(-66.4949932098389,22.9999971389771,147.000002190471));
#1795=CARTESIAN_POINT('Origin',(-64.5949932098389,22.9999971389771,147.000002190471));
#1796=CARTESIAN_POINT('Origin',(-85.5899845123292,22.9999971389771,67.2000028610229));
#1797=CARTESIAN_POINT('',(-90.5899921417237,22.9999971389771,67.2000028610229));
#1798=CARTESIAN_POINT('',(-86.3949845123292,22.9999971389771,67.2000028610229));
#1799=CARTESIAN_POINT('',(-72.092488861084,22.9999971389771,67.2000028610229));
#1800=CARTESIAN_POINT('',(-90.5899921417237,62.9999995231628,67.2000028610229));
#1801=CARTESIAN_POINT('',(-90.5899921417237,22.9999971389771,67.2000028610229));
#1802=CARTESIAN_POINT('',(-86.3949845123291,62.9999995231628,67.2000028610229));
#1803=CARTESIAN_POINT('',(-75.4161702156067,62.9999995231628,67.2000028610229));
#1804=CARTESIAN_POINT('',(-86.3949845123292,22.9999971389771,67.2000028610229));
#1805=CARTESIAN_POINT('Origin',(-90.5899921417237,22.9999971389771,67.0000028610229));
#1806=CARTESIAN_POINT('',(-90.5899921417237,22.9999971389771,152.999998092651));
#1807=CARTESIAN_POINT('',(-90.5899921417237,22.9999971389771,156.999998092651));
#1808=CARTESIAN_POINT('',(-90.5899921417237,27.9999971389771,157.999998092651));
#1809=CARTESIAN_POINT('Origin',(-90.5899921417237,27.9999971389771,152.999998092651));
#1810=CARTESIAN_POINT('',(-90.5899921417237,57.9999995231628,157.999998092651));
#1811=CARTESIAN_POINT('',(-90.5899921417237,22.9999971389771,157.999998092651));
#1812=CARTESIAN_POINT('',(-90.5899921417237,62.9999995231628,152.999998092651));
#1813=CARTESIAN_POINT('Origin',(-90.5899921417237,57.9999995231628,152.999998092651));
#1814=CARTESIAN_POINT('',(-90.5899921417237,62.9999995231628,156.999998092651));
#1815=CARTESIAN_POINT('Origin',(-58.5949932098389,22.9999971389771,62.0000028610229));
#1816=CARTESIAN_POINT('',(-86.3949845123292,22.9999971389771,62.0000028610229));
#1817=CARTESIAN_POINT('',(-86.3949845123292,22.9999971389771,64.5000028610229));
#1818=CARTESIAN_POINT('',(-85.5899845123292,22.9999971389771,62.0000028610229));
#1819=CARTESIAN_POINT('',(-87.5899921417237,22.9999971389771,152.999998092651));
#1820=CARTESIAN_POINT('Origin',(-64.5949932098389,62.9999995231628,75.0000011175871));
#1821=CARTESIAN_POINT('',(-62.9949932098389,62.9999995231628,75.0000011175871));
#1822=CARTESIAN_POINT('Origin',(-64.5949932098389,22.9999971389771,147.000002190471));
#1823=CARTESIAN_POINT('',(-66.1949932098389,22.9999971389771,147.000002190471));
#1824=CARTESIAN_POINT('Origin',(-86.3949845123292,22.9999971389771,62.0000028610229));
#1825=CARTESIAN_POINT('',(-86.3949845123291,62.9999995231628,62.0000028610229));
#1826=CARTESIAN_POINT('',(-86.3949845123291,62.9999995231628,71.0000014305115));
#1827=CARTESIAN_POINT('',(-86.3949845123292,22.9999971389771,62.0000028610229));
#1828=CARTESIAN_POINT('Origin',(-85.5899845123292,22.9999971389771,62.0000028610229));
#1829=CARTESIAN_POINT('',(-58.5949932098389,62.9999995231628,62.0000028610229));
#1830=CARTESIAN_POINT('Origin',(-73.0924926757813,27.9999971389771,152.999998092651));
#1831=CARTESIAN_POINT('',(-73.0924926757813,27.9999971389771,157.999998092651));
#1832=CARTESIAN_POINT('Origin',(-87.5899921417237,62.9999995231628,157.999998092651));
#1833=CARTESIAN_POINT('',(-87.5899921417237,57.9999995231628,157.999998092651));
#1834=CARTESIAN_POINT('Origin',(-76.416174030304,57.9999995231628,152.999998092651));
#1835=CARTESIAN_POINT('',(-76.416174030304,62.9999995231628,152.999998092651));
#1836=CARTESIAN_POINT('Origin',(-65.2423559188843,62.9999995231628,75.));
#1837=UNCERTAINTY_MEASURE_WITH_UNIT(LENGTH_MEASURE(0.01),#1841,
'DISTANCE_ACCURACY_VALUE',
'Maximum model space distance between geometric entities at asserted c
onnectivities');
#1838=UNCERTAINTY_MEASURE_WITH_UNIT(LENGTH_MEASURE(0.01),#1841,
'DISTANCE_ACCURACY_VALUE',
'Maximum model space distance between geometric entities at asserted c
onnectivities');
#1839=(
GEOMETRIC_REPRESENTATION_CONTEXT(3)
GLOBAL_UNCERTAINTY_ASSIGNED_CONTEXT((#1837))
GLOBAL_UNIT_ASSIGNED_CONTEXT((#1841,#1843,#1844))
REPRESENTATION_CONTEXT('','3D')
);
#1840=(
GEOMETRIC_REPRESENTATION_CONTEXT(3)
GLOBAL_UNCERTAINTY_ASSIGNED_CONTEXT((#1838))
GLOBAL_UNIT_ASSIGNED_CONTEXT((#1841,#1843,#1844))
REPRESENTATION_CONTEXT('','3D')
);
#1841=(
LENGTH_UNIT()
NAMED_UNIT(*)
SI_UNIT(.MILLI.,.METRE.)
);
#1842=(
LENGTH_UNIT()
NAMED_UNIT(*)
SI_UNIT($,.METRE.)
);
#1843=(
NAMED_UNIT(*)
PLANE_ANGLE_UNIT()
SI_UNIT($,.RADIAN.)
);
#1844=(
NAMED_UNIT(*)
SI_UNIT($,.STERADIAN.)
SOLID_ANGLE_UNIT()
);
#1845=SHAPE_DEFINITION_REPRESENTATION(#1846,#1847);
#1846=PRODUCT_DEFINITION_SHAPE('',$,#1849);
#1847=SHAPE_REPRESENTATION('',(#1109),#1839);
#1848=PRODUCT_DEFINITION_CONTEXT('part definition',#1853,'design');
#1849=PRODUCT_DEFINITION('2026-09-26-21-34-17-226',
'shoulder servvo holder',#1850,#1848);
#1850=PRODUCT_DEFINITION_FORMATION('',$,#1855);
#1851=PRODUCT_RELATED_PRODUCT_CATEGORY('shoulder servvo holder',
'shoulder servvo holder',(#1855));
#1852=APPLICATION_PROTOCOL_DEFINITION('international standard',
'automotive_design',2009,#1853);
#1853=APPLICATION_CONTEXT(
'Core Data for Automotive Mechanical Design Process');
#1854=PRODUCT_CONTEXT('part definition',#1853,'mechanical');
#1855=PRODUCT('2026-09-26-21-34-17-226','shoulder servvo holder',$,(#1854));
#1856=PRESENTATION_STYLE_ASSIGNMENT((#1857));
#1857=SURFACE_STYLE_USAGE(.BOTH.,#1858);
#1858=SURFACE_SIDE_STYLE('',(#1859));
#1859=SURFACE_STYLE_FILL_AREA(#1860);
#1860=FILL_AREA_STYLE('Steel - Satin',(#1861));
#1861=FILL_AREA_STYLE_COLOUR('Steel - Satin',#1862);
#1862=COLOUR_RGB('Steel - Satin',0.627450980392157,0.627450980392157,0.627450980392157);
ENDSEC;
END-ISO-10303-21;
