ISO-10303-21;
HEADER;
/* Generated by software containing ST-Developer
 * from STEP Tools, Inc. (www.steptools.com) 
 */

FILE_DESCRIPTION(
/* description */ (''),
/* implementation_level */ '2;1');

FILE_NAME(
/* name */ 'shoulder shaft support.step',
/* time_stamp */ '2026-09-26T21:37:13-07:00',
/* author */ (''),
/* organization */ (''),
/* preprocessor_version */ 'ST-DEVELOPER v20.2',
/* originating_system */ 'Autodesk Translation Framework v15.15.0.0',
/* authorisation */ '');

FILE_SCHEMA (('AUTOMOTIVE_DESIGN { 1 0 10303 214 3 1 1 }'));
ENDSEC;

DATA;
#10=MECHANICAL_DESIGN_GEOMETRIC_PRESENTATION_REPRESENTATION('',(#13),#1175);
#11=SHAPE_REPRESENTATION_RELATIONSHIP('SRR','None',#1182,#12);
#12=ADVANCED_BREP_SHAPE_REPRESENTATION('',(#14),#1174);
#13=STYLED_ITEM('',(#1191),#14);
#14=MANIFOLD_SOLID_BREP('Body5',#723);
#15=CYLINDRICAL_SURFACE('',#761,1.6);
#16=CYLINDRICAL_SURFACE('',#762,1.6);
#17=CYLINDRICAL_SURFACE('',#764,1.6);
#18=CYLINDRICAL_SURFACE('',#765,1.6);
#19=CYLINDRICAL_SURFACE('',#778,1.6);
#20=CYLINDRICAL_SURFACE('',#779,1.6);
#21=CYLINDRICAL_SURFACE('',#781,1.6);
#22=CYLINDRICAL_SURFACE('',#782,1.6);
#23=FACE_BOUND('',#94,.T.);
#24=FACE_BOUND('',#95,.T.);
#25=FACE_BOUND('',#97,.T.);
#26=FACE_BOUND('',#98,.T.);
#27=FACE_BOUND('',#102,.T.);
#28=FACE_BOUND('',#103,.T.);
#29=FACE_BOUND('',#105,.T.);
#30=FACE_BOUND('',#106,.T.);
#31=FACE_BOUND('',#115,.T.);
#32=FACE_BOUND('',#116,.T.);
#33=FACE_BOUND('',#123,.T.);
#34=FACE_BOUND('',#124,.T.);
#35=FACE_BOUND('',#126,.T.);
#36=FACE_BOUND('',#132,.T.);
#37=FACE_BOUND('',#134,.T.);
#38=FACE_BOUND('',#135,.T.);
#39=FACE_BOUND('',#141,.T.);
#40=FACE_BOUND('',#142,.T.);
#41=CIRCLE('',#738,1.6);
#42=CIRCLE('',#739,1.6);
#43=CIRCLE('',#741,1.6);
#44=CIRCLE('',#742,1.6);
#45=CIRCLE('',#746,1.6);
#46=CIRCLE('',#747,1.6);
#47=CIRCLE('',#749,1.6);
#48=CIRCLE('',#750,1.6);
#49=CIRCLE('',#759,1.6);
#50=CIRCLE('',#760,1.6);
#51=CIRCLE('',#763,1.6);
#52=CIRCLE('',#766,1.6);
#53=CIRCLE('',#776,1.6);
#54=CIRCLE('',#777,1.6);
#55=CIRCLE('',#780,1.6);
#56=CIRCLE('',#783,1.6);
#57=FACE_OUTER_BOUND('',#93,.T.);
#58=FACE_OUTER_BOUND('',#96,.T.);
#59=FACE_OUTER_BOUND('',#99,.T.);
#60=FACE_OUTER_BOUND('',#100,.T.);
#61=FACE_OUTER_BOUND('',#101,.T.);
#62=FACE_OUTER_BOUND('',#104,.T.);
#63=FACE_OUTER_BOUND('',#107,.T.);
#64=FACE_OUTER_BOUND('',#108,.T.);
#65=FACE_OUTER_BOUND('',#109,.T.);
#66=FACE_OUTER_BOUND('',#110,.T.);
#67=FACE_OUTER_BOUND('',#111,.T.);
#68=FACE_OUTER_BOUND('',#112,.T.);
#69=FACE_OUTER_BOUND('',#113,.T.);
#70=FACE_OUTER_BOUND('',#114,.T.);
#71=FACE_OUTER_BOUND('',#117,.T.);
#72=FACE_OUTER_BOUND('',#118,.T.);
#73=FACE_OUTER_BOUND('',#119,.T.);
#74=FACE_OUTER_BOUND('',#120,.T.);
#75=FACE_OUTER_BOUND('',#121,.T.);
#76=FACE_OUTER_BOUND('',#122,.T.);
#77=FACE_OUTER_BOUND('',#125,.T.);
#78=FACE_OUTER_BOUND('',#127,.T.);
#79=FACE_OUTER_BOUND('',#128,.T.);
#80=FACE_OUTER_BOUND('',#129,.T.);
#81=FACE_OUTER_BOUND('',#130,.T.);
#82=FACE_OUTER_BOUND('',#131,.T.);
#83=FACE_OUTER_BOUND('',#133,.T.);
#84=FACE_OUTER_BOUND('',#136,.T.);
#85=FACE_OUTER_BOUND('',#137,.T.);
#86=FACE_OUTER_BOUND('',#138,.T.);
#87=FACE_OUTER_BOUND('',#139,.T.);
#88=FACE_OUTER_BOUND('',#140,.T.);
#89=FACE_OUTER_BOUND('',#143,.T.);
#90=FACE_OUTER_BOUND('',#144,.T.);
#91=FACE_OUTER_BOUND('',#145,.T.);
#92=FACE_OUTER_BOUND('',#146,.T.);
#93=EDGE_LOOP('',(#467,#468,#469,#470));
#94=EDGE_LOOP('',(#471));
#95=EDGE_LOOP('',(#472));
#96=EDGE_LOOP('',(#473,#474,#475,#476));
#97=EDGE_LOOP('',(#477));
#98=EDGE_LOOP('',(#478));
#99=EDGE_LOOP('',(#479,#480,#481,#482));
#100=EDGE_LOOP('',(#483,#484,#485,#486,#487,#488,#489,#490,#491,#492));
#101=EDGE_LOOP('',(#493,#494,#495,#496));
#102=EDGE_LOOP('',(#497));
#103=EDGE_LOOP('',(#498));
#104=EDGE_LOOP('',(#499,#500,#501,#502));
#105=EDGE_LOOP('',(#503));
#106=EDGE_LOOP('',(#504));
#107=EDGE_LOOP('',(#505,#506,#507,#508));
#108=EDGE_LOOP('',(#509,#510,#511,#512,#513,#514,#515,#516,#517,#518));
#109=EDGE_LOOP('',(#519,#520,#521,#522));
#110=EDGE_LOOP('',(#523,#524,#525,#526));
#111=EDGE_LOOP('',(#527,#528,#529,#530));
#112=EDGE_LOOP('',(#531,#532,#533,#534));
#113=EDGE_LOOP('',(#535,#536,#537,#538));
#114=EDGE_LOOP('',(#539,#540,#541,#542));
#115=EDGE_LOOP('',(#543));
#116=EDGE_LOOP('',(#544));
#117=EDGE_LOOP('',(#545,#546,#547,#548));
#118=EDGE_LOOP('',(#549,#550,#551,#552));
#119=EDGE_LOOP('',(#553,#554,#555,#556));
#120=EDGE_LOOP('',(#557,#558,#559,#560));
#121=EDGE_LOOP('',(#561,#562,#563,#564,#565,#566,#567,#568,#569,#570));
#122=EDGE_LOOP('',(#571,#572,#573,#574));
#123=EDGE_LOOP('',(#575));
#124=EDGE_LOOP('',(#576));
#125=EDGE_LOOP('',(#577,#578,#579,#580));
#126=EDGE_LOOP('',(#581,#582,#583,#584));
#127=EDGE_LOOP('',(#585,#586,#587,#588));
#128=EDGE_LOOP('',(#589,#590,#591,#592));
#129=EDGE_LOOP('',(#593,#594,#595,#596));
#130=EDGE_LOOP('',(#597,#598,#599,#600));
#131=EDGE_LOOP('',(#601,#602,#603,#604));
#132=EDGE_LOOP('',(#605,#606,#607,#608));
#133=EDGE_LOOP('',(#609,#610,#611,#612));
#134=EDGE_LOOP('',(#613));
#135=EDGE_LOOP('',(#614));
#136=EDGE_LOOP('',(#615,#616,#617,#618));
#137=EDGE_LOOP('',(#619,#620,#621,#622));
#138=EDGE_LOOP('',(#623,#624,#625,#626));
#139=EDGE_LOOP('',(#627,#628,#629,#630));
#140=EDGE_LOOP('',(#631,#632,#633,#634));
#141=EDGE_LOOP('',(#635));
#142=EDGE_LOOP('',(#636));
#143=EDGE_LOOP('',(#637,#638,#639,#640,#641,#642,#643,#644,#645,#646));
#144=EDGE_LOOP('',(#647,#648,#649,#650));
#145=EDGE_LOOP('',(#651,#652,#653,#654));
#146=EDGE_LOOP('',(#655,#656,#657,#658));
#147=LINE('',#979,#227);
#148=LINE('',#981,#228);
#149=LINE('',#983,#229);
#150=LINE('',#984,#230);
#151=LINE('',#992,#231);
#152=LINE('',#994,#232);
#153=LINE('',#996,#233);
#154=LINE('',#997,#234);
#155=LINE('',#1004,#235);
#156=LINE('',#1006,#236);
#157=LINE('',#1007,#237);
#158=LINE('',#1009,#238);
#159=LINE('',#1011,#239);
#160=LINE('',#1013,#240);
#161=LINE('',#1015,#241);
#162=LINE('',#1017,#242);
#163=LINE('',#1019,#243);
#164=LINE('',#1020,#244);
#165=LINE('',#1024,#245);
#166=LINE('',#1026,#246);
#167=LINE('',#1028,#247);
#168=LINE('',#1029,#248);
#169=LINE('',#1037,#249);
#170=LINE('',#1039,#250);
#171=LINE('',#1041,#251);
#172=LINE('',#1042,#252);
#173=LINE('',#1049,#253);
#174=LINE('',#1051,#254);
#175=LINE('',#1052,#255);
#176=LINE('',#1054,#256);
#177=LINE('',#1056,#257);
#178=LINE('',#1058,#258);
#179=LINE('',#1060,#259);
#180=LINE('',#1062,#260);
#181=LINE('',#1064,#261);
#182=LINE('',#1065,#262);
#183=LINE('',#1067,#263);
#184=LINE('',#1069,#264);
#185=LINE('',#1072,#265);
#186=LINE('',#1073,#266);
#187=LINE('',#1076,#267);
#188=LINE('',#1077,#268);
#189=LINE('',#1080,#269);
#190=LINE('',#1081,#270);
#191=LINE('',#1084,#271);
#192=LINE('',#1085,#272);
#193=LINE('',#1091,#273);
#194=LINE('',#1094,#274);
#195=LINE('',#1097,#275);
#196=LINE('',#1100,#276);
#197=LINE('',#1104,#277);
#198=LINE('',#1105,#278);
#199=LINE('',#1107,#279);
#200=LINE('',#1111,#280);
#201=LINE('',#1113,#281);
#202=LINE('',#1115,#282);
#203=LINE('',#1116,#283);
#204=LINE('',#1119,#284);
#205=LINE('',#1121,#285);
#206=LINE('',#1122,#286);
#207=LINE('',#1125,#287);
#208=LINE('',#1126,#288);
#209=LINE('',#1129,#289);
#210=LINE('',#1130,#290);
#211=LINE('',#1132,#291);
#212=LINE('',#1136,#292);
#213=LINE('',#1137,#293);
#214=LINE('',#1138,#294);
#215=LINE('',#1141,#295);
#216=LINE('',#1142,#296);
#217=LINE('',#1148,#297);
#218=LINE('',#1151,#298);
#219=LINE('',#1154,#299);
#220=LINE('',#1157,#300);
#221=LINE('',#1161,#301);
#222=LINE('',#1162,#302);
#223=LINE('',#1164,#303);
#224=LINE('',#1166,#304);
#225=LINE('',#1167,#305);
#226=LINE('',#1170,#306);
#227=VECTOR('',#793,10.);
#228=VECTOR('',#794,10.);
#229=VECTOR('',#795,10.);
#230=VECTOR('',#796,10.);
#231=VECTOR('',#803,10.);
#232=VECTOR('',#804,10.);
#233=VECTOR('',#805,10.);
#234=VECTOR('',#806,10.);
#235=VECTOR('',#813,10.);
#236=VECTOR('',#814,10.);
#237=VECTOR('',#815,10.);
#238=VECTOR('',#818,10.);
#239=VECTOR('',#819,10.);
#240=VECTOR('',#820,10.);
#241=VECTOR('',#821,10.);
#242=VECTOR('',#822,10.);
#243=VECTOR('',#823,10.);
#244=VECTOR('',#824,10.);
#245=VECTOR('',#827,10.);
#246=VECTOR('',#828,10.);
#247=VECTOR('',#829,10.);
#248=VECTOR('',#830,10.);
#249=VECTOR('',#837,10.);
#250=VECTOR('',#838,10.);
#251=VECTOR('',#839,10.);
#252=VECTOR('',#840,10.);
#253=VECTOR('',#847,10.);
#254=VECTOR('',#848,10.);
#255=VECTOR('',#849,10.);
#256=VECTOR('',#852,10.);
#257=VECTOR('',#853,10.);
#258=VECTOR('',#854,10.);
#259=VECTOR('',#855,10.);
#260=VECTOR('',#856,10.);
#261=VECTOR('',#857,10.);
#262=VECTOR('',#858,10.);
#263=VECTOR('',#861,10.);
#264=VECTOR('',#864,10.);
#265=VECTOR('',#867,10.);
#266=VECTOR('',#868,10.);
#267=VECTOR('',#871,10.);
#268=VECTOR('',#872,10.);
#269=VECTOR('',#875,10.);
#270=VECTOR('',#876,10.);
#271=VECTOR('',#879,10.);
#272=VECTOR('',#880,10.);
#273=VECTOR('',#887,1.6);
#274=VECTOR('',#890,1.6);
#275=VECTOR('',#895,1.6);
#276=VECTOR('',#898,1.6);
#277=VECTOR('',#903,10.);
#278=VECTOR('',#904,10.);
#279=VECTOR('',#907,10.);
#280=VECTOR('',#910,10.);
#281=VECTOR('',#911,10.);
#282=VECTOR('',#912,10.);
#283=VECTOR('',#913,10.);
#284=VECTOR('',#916,10.);
#285=VECTOR('',#917,10.);
#286=VECTOR('',#918,10.);
#287=VECTOR('',#921,10.);
#288=VECTOR('',#922,10.);
#289=VECTOR('',#925,10.);
#290=VECTOR('',#926,10.);
#291=VECTOR('',#929,10.);
#292=VECTOR('',#932,10.);
#293=VECTOR('',#933,10.);
#294=VECTOR('',#934,10.);
#295=VECTOR('',#937,10.);
#296=VECTOR('',#938,10.);
#297=VECTOR('',#945,1.6);
#298=VECTOR('',#948,1.6);
#299=VECTOR('',#953,1.6);
#300=VECTOR('',#956,1.6);
#301=VECTOR('',#961,10.);
#302=VECTOR('',#962,10.);
#303=VECTOR('',#965,10.);
#304=VECTOR('',#966,10.);
#305=VECTOR('',#967,10.);
#306=VECTOR('',#972,10.);
#307=VERTEX_POINT('',#977);
#308=VERTEX_POINT('',#978);
#309=VERTEX_POINT('',#980);
#310=VERTEX_POINT('',#982);
#311=VERTEX_POINT('',#985);
#312=VERTEX_POINT('',#987);
#313=VERTEX_POINT('',#990);
#314=VERTEX_POINT('',#991);
#315=VERTEX_POINT('',#993);
#316=VERTEX_POINT('',#995);
#317=VERTEX_POINT('',#998);
#318=VERTEX_POINT('',#1000);
#319=VERTEX_POINT('',#1003);
#320=VERTEX_POINT('',#1005);
#321=VERTEX_POINT('',#1010);
#322=VERTEX_POINT('',#1012);
#323=VERTEX_POINT('',#1014);
#324=VERTEX_POINT('',#1016);
#325=VERTEX_POINT('',#1018);
#326=VERTEX_POINT('',#1022);
#327=VERTEX_POINT('',#1023);
#328=VERTEX_POINT('',#1025);
#329=VERTEX_POINT('',#1027);
#330=VERTEX_POINT('',#1030);
#331=VERTEX_POINT('',#1032);
#332=VERTEX_POINT('',#1035);
#333=VERTEX_POINT('',#1036);
#334=VERTEX_POINT('',#1038);
#335=VERTEX_POINT('',#1040);
#336=VERTEX_POINT('',#1043);
#337=VERTEX_POINT('',#1045);
#338=VERTEX_POINT('',#1048);
#339=VERTEX_POINT('',#1050);
#340=VERTEX_POINT('',#1055);
#341=VERTEX_POINT('',#1057);
#342=VERTEX_POINT('',#1059);
#343=VERTEX_POINT('',#1061);
#344=VERTEX_POINT('',#1063);
#345=VERTEX_POINT('',#1071);
#346=VERTEX_POINT('',#1075);
#347=VERTEX_POINT('',#1079);
#348=VERTEX_POINT('',#1083);
#349=VERTEX_POINT('',#1086);
#350=VERTEX_POINT('',#1088);
#351=VERTEX_POINT('',#1093);
#352=VERTEX_POINT('',#1099);
#353=VERTEX_POINT('',#1103);
#354=VERTEX_POINT('',#1109);
#355=VERTEX_POINT('',#1110);
#356=VERTEX_POINT('',#1112);
#357=VERTEX_POINT('',#1114);
#358=VERTEX_POINT('',#1118);
#359=VERTEX_POINT('',#1120);
#360=VERTEX_POINT('',#1124);
#361=VERTEX_POINT('',#1128);
#362=VERTEX_POINT('',#1134);
#363=VERTEX_POINT('',#1135);
#364=VERTEX_POINT('',#1140);
#365=VERTEX_POINT('',#1143);
#366=VERTEX_POINT('',#1145);
#367=VERTEX_POINT('',#1150);
#368=VERTEX_POINT('',#1156);
#369=VERTEX_POINT('',#1160);
#370=VERTEX_POINT('',#1165);
#371=EDGE_CURVE('',#307,#308,#147,.T.);
#372=EDGE_CURVE('',#309,#307,#148,.T.);
#373=EDGE_CURVE('',#309,#310,#149,.T.);
#374=EDGE_CURVE('',#308,#310,#150,.T.);
#375=EDGE_CURVE('',#311,#311,#41,.T.);
#376=EDGE_CURVE('',#312,#312,#42,.T.);
#377=EDGE_CURVE('',#313,#314,#151,.T.);
#378=EDGE_CURVE('',#315,#313,#152,.T.);
#379=EDGE_CURVE('',#315,#316,#153,.T.);
#380=EDGE_CURVE('',#314,#316,#154,.T.);
#381=EDGE_CURVE('',#317,#317,#43,.T.);
#382=EDGE_CURVE('',#318,#318,#44,.T.);
#383=EDGE_CURVE('',#308,#319,#155,.T.);
#384=EDGE_CURVE('',#320,#319,#156,.T.);
#385=EDGE_CURVE('',#307,#320,#157,.T.);
#386=EDGE_CURVE('',#310,#315,#158,.T.);
#387=EDGE_CURVE('',#321,#313,#159,.T.);
#388=EDGE_CURVE('',#322,#321,#160,.T.);
#389=EDGE_CURVE('',#323,#322,#161,.T.);
#390=EDGE_CURVE('',#323,#324,#162,.T.);
#391=EDGE_CURVE('',#325,#324,#163,.T.);
#392=EDGE_CURVE('',#319,#325,#164,.T.);
#393=EDGE_CURVE('',#326,#327,#165,.T.);
#394=EDGE_CURVE('',#328,#326,#166,.T.);
#395=EDGE_CURVE('',#328,#329,#167,.T.);
#396=EDGE_CURVE('',#327,#329,#168,.T.);
#397=EDGE_CURVE('',#330,#330,#45,.T.);
#398=EDGE_CURVE('',#331,#331,#46,.T.);
#399=EDGE_CURVE('',#332,#333,#169,.T.);
#400=EDGE_CURVE('',#334,#332,#170,.T.);
#401=EDGE_CURVE('',#334,#335,#171,.T.);
#402=EDGE_CURVE('',#333,#335,#172,.T.);
#403=EDGE_CURVE('',#336,#336,#47,.T.);
#404=EDGE_CURVE('',#337,#337,#48,.T.);
#405=EDGE_CURVE('',#338,#327,#173,.T.);
#406=EDGE_CURVE('',#339,#338,#174,.T.);
#407=EDGE_CURVE('',#339,#326,#175,.T.);
#408=EDGE_CURVE('',#329,#334,#176,.T.);
#409=EDGE_CURVE('',#332,#340,#177,.T.);
#410=EDGE_CURVE('',#341,#340,#178,.T.);
#411=EDGE_CURVE('',#341,#342,#179,.T.);
#412=EDGE_CURVE('',#342,#343,#180,.T.);
#413=EDGE_CURVE('',#343,#344,#181,.T.);
#414=EDGE_CURVE('',#338,#344,#182,.T.);
#415=EDGE_CURVE('',#335,#328,#183,.T.);
#416=EDGE_CURVE('',#316,#309,#184,.T.);
#417=EDGE_CURVE('',#333,#345,#185,.T.);
#418=EDGE_CURVE('',#340,#345,#186,.T.);
#419=EDGE_CURVE('',#345,#346,#187,.T.);
#420=EDGE_CURVE('',#346,#341,#188,.T.);
#421=EDGE_CURVE('',#347,#339,#189,.T.);
#422=EDGE_CURVE('',#344,#347,#190,.T.);
#423=EDGE_CURVE('',#348,#342,#191,.T.);
#424=EDGE_CURVE('',#346,#348,#192,.T.);
#425=EDGE_CURVE('',#349,#349,#49,.T.);
#426=EDGE_CURVE('',#350,#350,#50,.T.);
#427=EDGE_CURVE('',#350,#336,#193,.T.);
#428=EDGE_CURVE('',#331,#351,#194,.T.);
#429=EDGE_CURVE('',#351,#351,#51,.T.);
#430=EDGE_CURVE('',#349,#337,#195,.T.);
#431=EDGE_CURVE('',#330,#352,#196,.T.);
#432=EDGE_CURVE('',#352,#352,#52,.T.);
#433=EDGE_CURVE('',#353,#347,#197,.T.);
#434=EDGE_CURVE('',#353,#348,#198,.T.);
#435=EDGE_CURVE('',#343,#353,#199,.T.);
#436=EDGE_CURVE('',#354,#355,#200,.T.);
#437=EDGE_CURVE('',#356,#354,#201,.T.);
#438=EDGE_CURVE('',#357,#356,#202,.T.);
#439=EDGE_CURVE('',#355,#357,#203,.T.);
#440=EDGE_CURVE('',#358,#356,#204,.T.);
#441=EDGE_CURVE('',#358,#359,#205,.T.);
#442=EDGE_CURVE('',#357,#359,#206,.T.);
#443=EDGE_CURVE('',#359,#360,#207,.T.);
#444=EDGE_CURVE('',#360,#355,#208,.T.);
#445=EDGE_CURVE('',#354,#361,#209,.T.);
#446=EDGE_CURVE('',#361,#358,#210,.T.);
#447=EDGE_CURVE('',#360,#361,#211,.T.);
#448=EDGE_CURVE('',#362,#363,#212,.T.);
#449=EDGE_CURVE('',#324,#362,#213,.T.);
#450=EDGE_CURVE('',#363,#323,#214,.T.);
#451=EDGE_CURVE('',#364,#322,#215,.T.);
#452=EDGE_CURVE('',#363,#364,#216,.T.);
#453=EDGE_CURVE('',#365,#365,#53,.T.);
#454=EDGE_CURVE('',#366,#366,#54,.T.);
#455=EDGE_CURVE('',#366,#317,#217,.T.);
#456=EDGE_CURVE('',#312,#367,#218,.T.);
#457=EDGE_CURVE('',#367,#367,#55,.T.);
#458=EDGE_CURVE('',#365,#318,#219,.T.);
#459=EDGE_CURVE('',#311,#368,#220,.T.);
#460=EDGE_CURVE('',#368,#368,#56,.T.);
#461=EDGE_CURVE('',#369,#362,#221,.T.);
#462=EDGE_CURVE('',#325,#369,#222,.T.);
#463=EDGE_CURVE('',#369,#320,#223,.T.);
#464=EDGE_CURVE('',#370,#364,#224,.T.);
#465=EDGE_CURVE('',#370,#314,#225,.T.);
#466=EDGE_CURVE('',#321,#370,#226,.T.);
#467=ORIENTED_EDGE('',*,*,#371,.F.);
#468=ORIENTED_EDGE('',*,*,#372,.F.);
#469=ORIENTED_EDGE('',*,*,#373,.T.);
#470=ORIENTED_EDGE('',*,*,#374,.F.);
#471=ORIENTED_EDGE('',*,*,#375,.F.);
#472=ORIENTED_EDGE('',*,*,#376,.F.);
#473=ORIENTED_EDGE('',*,*,#377,.F.);
#474=ORIENTED_EDGE('',*,*,#378,.F.);
#475=ORIENTED_EDGE('',*,*,#379,.T.);
#476=ORIENTED_EDGE('',*,*,#380,.F.);
#477=ORIENTED_EDGE('',*,*,#381,.F.);
#478=ORIENTED_EDGE('',*,*,#382,.F.);
#479=ORIENTED_EDGE('',*,*,#371,.T.);
#480=ORIENTED_EDGE('',*,*,#383,.T.);
#481=ORIENTED_EDGE('',*,*,#384,.F.);
#482=ORIENTED_EDGE('',*,*,#385,.F.);
#483=ORIENTED_EDGE('',*,*,#374,.T.);
#484=ORIENTED_EDGE('',*,*,#386,.T.);
#485=ORIENTED_EDGE('',*,*,#378,.T.);
#486=ORIENTED_EDGE('',*,*,#387,.F.);
#487=ORIENTED_EDGE('',*,*,#388,.F.);
#488=ORIENTED_EDGE('',*,*,#389,.F.);
#489=ORIENTED_EDGE('',*,*,#390,.T.);
#490=ORIENTED_EDGE('',*,*,#391,.F.);
#491=ORIENTED_EDGE('',*,*,#392,.F.);
#492=ORIENTED_EDGE('',*,*,#383,.F.);
#493=ORIENTED_EDGE('',*,*,#393,.F.);
#494=ORIENTED_EDGE('',*,*,#394,.F.);
#495=ORIENTED_EDGE('',*,*,#395,.T.);
#496=ORIENTED_EDGE('',*,*,#396,.F.);
#497=ORIENTED_EDGE('',*,*,#397,.F.);
#498=ORIENTED_EDGE('',*,*,#398,.F.);
#499=ORIENTED_EDGE('',*,*,#399,.F.);
#500=ORIENTED_EDGE('',*,*,#400,.F.);
#501=ORIENTED_EDGE('',*,*,#401,.T.);
#502=ORIENTED_EDGE('',*,*,#402,.F.);
#503=ORIENTED_EDGE('',*,*,#403,.F.);
#504=ORIENTED_EDGE('',*,*,#404,.F.);
#505=ORIENTED_EDGE('',*,*,#393,.T.);
#506=ORIENTED_EDGE('',*,*,#405,.F.);
#507=ORIENTED_EDGE('',*,*,#406,.F.);
#508=ORIENTED_EDGE('',*,*,#407,.T.);
#509=ORIENTED_EDGE('',*,*,#396,.T.);
#510=ORIENTED_EDGE('',*,*,#408,.T.);
#511=ORIENTED_EDGE('',*,*,#400,.T.);
#512=ORIENTED_EDGE('',*,*,#409,.T.);
#513=ORIENTED_EDGE('',*,*,#410,.F.);
#514=ORIENTED_EDGE('',*,*,#411,.T.);
#515=ORIENTED_EDGE('',*,*,#412,.T.);
#516=ORIENTED_EDGE('',*,*,#413,.T.);
#517=ORIENTED_EDGE('',*,*,#414,.F.);
#518=ORIENTED_EDGE('',*,*,#405,.T.);
#519=ORIENTED_EDGE('',*,*,#415,.F.);
#520=ORIENTED_EDGE('',*,*,#401,.F.);
#521=ORIENTED_EDGE('',*,*,#408,.F.);
#522=ORIENTED_EDGE('',*,*,#395,.F.);
#523=ORIENTED_EDGE('',*,*,#386,.F.);
#524=ORIENTED_EDGE('',*,*,#373,.F.);
#525=ORIENTED_EDGE('',*,*,#416,.F.);
#526=ORIENTED_EDGE('',*,*,#379,.F.);
#527=ORIENTED_EDGE('',*,*,#399,.T.);
#528=ORIENTED_EDGE('',*,*,#417,.T.);
#529=ORIENTED_EDGE('',*,*,#418,.F.);
#530=ORIENTED_EDGE('',*,*,#409,.F.);
#531=ORIENTED_EDGE('',*,*,#419,.T.);
#532=ORIENTED_EDGE('',*,*,#420,.T.);
#533=ORIENTED_EDGE('',*,*,#410,.T.);
#534=ORIENTED_EDGE('',*,*,#418,.T.);
#535=ORIENTED_EDGE('',*,*,#421,.T.);
#536=ORIENTED_EDGE('',*,*,#406,.T.);
#537=ORIENTED_EDGE('',*,*,#414,.T.);
#538=ORIENTED_EDGE('',*,*,#422,.T.);
#539=ORIENTED_EDGE('',*,*,#423,.T.);
#540=ORIENTED_EDGE('',*,*,#411,.F.);
#541=ORIENTED_EDGE('',*,*,#420,.F.);
#542=ORIENTED_EDGE('',*,*,#424,.T.);
#543=ORIENTED_EDGE('',*,*,#425,.T.);
#544=ORIENTED_EDGE('',*,*,#426,.T.);
#545=ORIENTED_EDGE('',*,*,#426,.F.);
#546=ORIENTED_EDGE('',*,*,#427,.T.);
#547=ORIENTED_EDGE('',*,*,#403,.T.);
#548=ORIENTED_EDGE('',*,*,#427,.F.);
#549=ORIENTED_EDGE('',*,*,#398,.T.);
#550=ORIENTED_EDGE('',*,*,#428,.T.);
#551=ORIENTED_EDGE('',*,*,#429,.F.);
#552=ORIENTED_EDGE('',*,*,#428,.F.);
#553=ORIENTED_EDGE('',*,*,#425,.F.);
#554=ORIENTED_EDGE('',*,*,#430,.T.);
#555=ORIENTED_EDGE('',*,*,#404,.T.);
#556=ORIENTED_EDGE('',*,*,#430,.F.);
#557=ORIENTED_EDGE('',*,*,#397,.T.);
#558=ORIENTED_EDGE('',*,*,#431,.T.);
#559=ORIENTED_EDGE('',*,*,#432,.F.);
#560=ORIENTED_EDGE('',*,*,#431,.F.);
#561=ORIENTED_EDGE('',*,*,#394,.T.);
#562=ORIENTED_EDGE('',*,*,#407,.F.);
#563=ORIENTED_EDGE('',*,*,#421,.F.);
#564=ORIENTED_EDGE('',*,*,#433,.F.);
#565=ORIENTED_EDGE('',*,*,#434,.T.);
#566=ORIENTED_EDGE('',*,*,#424,.F.);
#567=ORIENTED_EDGE('',*,*,#419,.F.);
#568=ORIENTED_EDGE('',*,*,#417,.F.);
#569=ORIENTED_EDGE('',*,*,#402,.T.);
#570=ORIENTED_EDGE('',*,*,#415,.T.);
#571=ORIENTED_EDGE('',*,*,#435,.T.);
#572=ORIENTED_EDGE('',*,*,#433,.T.);
#573=ORIENTED_EDGE('',*,*,#422,.F.);
#574=ORIENTED_EDGE('',*,*,#413,.F.);
#575=ORIENTED_EDGE('',*,*,#429,.T.);
#576=ORIENTED_EDGE('',*,*,#432,.T.);
#577=ORIENTED_EDGE('',*,*,#412,.F.);
#578=ORIENTED_EDGE('',*,*,#423,.F.);
#579=ORIENTED_EDGE('',*,*,#434,.F.);
#580=ORIENTED_EDGE('',*,*,#435,.F.);
#581=ORIENTED_EDGE('',*,*,#436,.F.);
#582=ORIENTED_EDGE('',*,*,#437,.F.);
#583=ORIENTED_EDGE('',*,*,#438,.F.);
#584=ORIENTED_EDGE('',*,*,#439,.F.);
#585=ORIENTED_EDGE('',*,*,#440,.F.);
#586=ORIENTED_EDGE('',*,*,#441,.T.);
#587=ORIENTED_EDGE('',*,*,#442,.F.);
#588=ORIENTED_EDGE('',*,*,#438,.T.);
#589=ORIENTED_EDGE('',*,*,#442,.T.);
#590=ORIENTED_EDGE('',*,*,#443,.T.);
#591=ORIENTED_EDGE('',*,*,#444,.T.);
#592=ORIENTED_EDGE('',*,*,#439,.T.);
#593=ORIENTED_EDGE('',*,*,#445,.T.);
#594=ORIENTED_EDGE('',*,*,#446,.T.);
#595=ORIENTED_EDGE('',*,*,#440,.T.);
#596=ORIENTED_EDGE('',*,*,#437,.T.);
#597=ORIENTED_EDGE('',*,*,#444,.F.);
#598=ORIENTED_EDGE('',*,*,#447,.T.);
#599=ORIENTED_EDGE('',*,*,#445,.F.);
#600=ORIENTED_EDGE('',*,*,#436,.T.);
#601=ORIENTED_EDGE('',*,*,#448,.F.);
#602=ORIENTED_EDGE('',*,*,#449,.F.);
#603=ORIENTED_EDGE('',*,*,#390,.F.);
#604=ORIENTED_EDGE('',*,*,#450,.F.);
#605=ORIENTED_EDGE('',*,*,#443,.F.);
#606=ORIENTED_EDGE('',*,*,#441,.F.);
#607=ORIENTED_EDGE('',*,*,#446,.F.);
#608=ORIENTED_EDGE('',*,*,#447,.F.);
#609=ORIENTED_EDGE('',*,*,#450,.T.);
#610=ORIENTED_EDGE('',*,*,#389,.T.);
#611=ORIENTED_EDGE('',*,*,#451,.F.);
#612=ORIENTED_EDGE('',*,*,#452,.F.);
#613=ORIENTED_EDGE('',*,*,#453,.T.);
#614=ORIENTED_EDGE('',*,*,#454,.T.);
#615=ORIENTED_EDGE('',*,*,#454,.F.);
#616=ORIENTED_EDGE('',*,*,#455,.T.);
#617=ORIENTED_EDGE('',*,*,#381,.T.);
#618=ORIENTED_EDGE('',*,*,#455,.F.);
#619=ORIENTED_EDGE('',*,*,#376,.T.);
#620=ORIENTED_EDGE('',*,*,#456,.T.);
#621=ORIENTED_EDGE('',*,*,#457,.F.);
#622=ORIENTED_EDGE('',*,*,#456,.F.);
#623=ORIENTED_EDGE('',*,*,#453,.F.);
#624=ORIENTED_EDGE('',*,*,#458,.T.);
#625=ORIENTED_EDGE('',*,*,#382,.T.);
#626=ORIENTED_EDGE('',*,*,#458,.F.);
#627=ORIENTED_EDGE('',*,*,#375,.T.);
#628=ORIENTED_EDGE('',*,*,#459,.T.);
#629=ORIENTED_EDGE('',*,*,#460,.F.);
#630=ORIENTED_EDGE('',*,*,#459,.F.);
#631=ORIENTED_EDGE('',*,*,#449,.T.);
#632=ORIENTED_EDGE('',*,*,#461,.F.);
#633=ORIENTED_EDGE('',*,*,#462,.F.);
#634=ORIENTED_EDGE('',*,*,#391,.T.);
#635=ORIENTED_EDGE('',*,*,#457,.T.);
#636=ORIENTED_EDGE('',*,*,#460,.T.);
#637=ORIENTED_EDGE('',*,*,#372,.T.);
#638=ORIENTED_EDGE('',*,*,#385,.T.);
#639=ORIENTED_EDGE('',*,*,#463,.F.);
#640=ORIENTED_EDGE('',*,*,#461,.T.);
#641=ORIENTED_EDGE('',*,*,#448,.T.);
#642=ORIENTED_EDGE('',*,*,#452,.T.);
#643=ORIENTED_EDGE('',*,*,#464,.F.);
#644=ORIENTED_EDGE('',*,*,#465,.T.);
#645=ORIENTED_EDGE('',*,*,#380,.T.);
#646=ORIENTED_EDGE('',*,*,#416,.T.);
#647=ORIENTED_EDGE('',*,*,#463,.T.);
#648=ORIENTED_EDGE('',*,*,#384,.T.);
#649=ORIENTED_EDGE('',*,*,#392,.T.);
#650=ORIENTED_EDGE('',*,*,#462,.T.);
#651=ORIENTED_EDGE('',*,*,#388,.T.);
#652=ORIENTED_EDGE('',*,*,#466,.T.);
#653=ORIENTED_EDGE('',*,*,#464,.T.);
#654=ORIENTED_EDGE('',*,*,#451,.T.);
#655=ORIENTED_EDGE('',*,*,#377,.T.);
#656=ORIENTED_EDGE('',*,*,#465,.F.);
#657=ORIENTED_EDGE('',*,*,#466,.F.);
#658=ORIENTED_EDGE('',*,*,#387,.T.);
#659=PLANE('',#737);
#660=PLANE('',#740);
#661=PLANE('',#743);
#662=PLANE('',#744);
#663=PLANE('',#745);
#664=PLANE('',#748);
#665=PLANE('',#751);
#666=PLANE('',#752);
#667=PLANE('',#753);
#668=PLANE('',#754);
#669=PLANE('',#755);
#670=PLANE('',#756);
#671=PLANE('',#757);
#672=PLANE('',#758);
#673=PLANE('',#767);
#674=PLANE('',#768);
#675=PLANE('',#769);
#676=PLANE('',#770);
#677=PLANE('',#771);
#678=PLANE('',#772);
#679=PLANE('',#773);
#680=PLANE('',#774);
#681=PLANE('',#775);
#682=PLANE('',#784);
#683=PLANE('',#785);
#684=PLANE('',#786);
#685=PLANE('',#787);
#686=PLANE('',#788);
#687=ADVANCED_FACE('',(#57,#23,#24),#659,.F.);
#688=ADVANCED_FACE('',(#58,#25,#26),#660,.F.);
#689=ADVANCED_FACE('',(#59),#661,.T.);
#690=ADVANCED_FACE('',(#60),#662,.F.);
#691=ADVANCED_FACE('',(#61,#27,#28),#663,.F.);
#692=ADVANCED_FACE('',(#62,#29,#30),#664,.F.);
#693=ADVANCED_FACE('',(#63),#665,.T.);
#694=ADVANCED_FACE('',(#64),#666,.T.);
#695=ADVANCED_FACE('',(#65),#667,.F.);
#696=ADVANCED_FACE('',(#66),#668,.F.);
#697=ADVANCED_FACE('',(#67),#669,.T.);
#698=ADVANCED_FACE('',(#68),#670,.T.);
#699=ADVANCED_FACE('',(#69),#671,.T.);
#700=ADVANCED_FACE('',(#70,#31,#32),#672,.F.);
#701=ADVANCED_FACE('',(#71),#15,.F.);
#702=ADVANCED_FACE('',(#72),#16,.F.);
#703=ADVANCED_FACE('',(#73),#17,.F.);
#704=ADVANCED_FACE('',(#74),#18,.F.);
#705=ADVANCED_FACE('',(#75),#673,.F.);
#706=ADVANCED_FACE('',(#76,#33,#34),#674,.F.);
#707=ADVANCED_FACE('',(#77,#35),#675,.F.);
#708=ADVANCED_FACE('',(#78),#676,.F.);
#709=ADVANCED_FACE('',(#79),#677,.F.);
#710=ADVANCED_FACE('',(#80),#678,.F.);
#711=ADVANCED_FACE('',(#81),#679,.F.);
#712=ADVANCED_FACE('',(#82,#36),#680,.F.);
#713=ADVANCED_FACE('',(#83,#37,#38),#681,.F.);
#714=ADVANCED_FACE('',(#84),#19,.F.);
#715=ADVANCED_FACE('',(#85),#20,.F.);
#716=ADVANCED_FACE('',(#86),#21,.F.);
#717=ADVANCED_FACE('',(#87),#22,.F.);
#718=ADVANCED_FACE('',(#88,#39,#40),#682,.F.);
#719=ADVANCED_FACE('',(#89),#683,.T.);
#720=ADVANCED_FACE('',(#90),#684,.T.);
#721=ADVANCED_FACE('',(#91),#685,.T.);
#722=ADVANCED_FACE('',(#92),#686,.T.);
#723=CLOSED_SHELL('',(#687,#688,#689,#690,#691,#692,#693,#694,#695,#696,
#697,#698,#699,#700,#701,#702,#703,#704,#705,#706,#707,#708,#709,#710,#711,
#712,#713,#714,#715,#716,#717,#718,#719,#720,#721,#722));
#724=DERIVED_UNIT_ELEMENT(#726,1.);
#725=DERIVED_UNIT_ELEMENT(#1177,-3.);
#726=(
MASS_UNIT()
NAMED_UNIT(*)
SI_UNIT(.KILO.,.GRAM.)
);
#727=DERIVED_UNIT((#724,#725));
#728=MEASURE_REPRESENTATION_ITEM('density measure',
POSITIVE_RATIO_MEASURE(7850.),#727);
#729=PROPERTY_DEFINITION_REPRESENTATION(#734,#731);
#730=PROPERTY_DEFINITION_REPRESENTATION(#735,#732);
#731=REPRESENTATION('material name',(#733),#1174);
#732=REPRESENTATION('density',(#728),#1174);
#733=DESCRIPTIVE_REPRESENTATION_ITEM('Steel','Steel');
#734=PROPERTY_DEFINITION('material property','material name',#1184);
#735=PROPERTY_DEFINITION('material property','density of part',#1184);
#736=AXIS2_PLACEMENT_3D('',#975,#789,#790);
#737=AXIS2_PLACEMENT_3D('',#976,#791,#792);
#738=AXIS2_PLACEMENT_3D('',#986,#797,#798);
#739=AXIS2_PLACEMENT_3D('',#988,#799,#800);
#740=AXIS2_PLACEMENT_3D('',#989,#801,#802);
#741=AXIS2_PLACEMENT_3D('',#999,#807,#808);
#742=AXIS2_PLACEMENT_3D('',#1001,#809,#810);
#743=AXIS2_PLACEMENT_3D('',#1002,#811,#812);
#744=AXIS2_PLACEMENT_3D('',#1008,#816,#817);
#745=AXIS2_PLACEMENT_3D('',#1021,#825,#826);
#746=AXIS2_PLACEMENT_3D('',#1031,#831,#832);
#747=AXIS2_PLACEMENT_3D('',#1033,#833,#834);
#748=AXIS2_PLACEMENT_3D('',#1034,#835,#836);
#749=AXIS2_PLACEMENT_3D('',#1044,#841,#842);
#750=AXIS2_PLACEMENT_3D('',#1046,#843,#844);
#751=AXIS2_PLACEMENT_3D('',#1047,#845,#846);
#752=AXIS2_PLACEMENT_3D('',#1053,#850,#851);
#753=AXIS2_PLACEMENT_3D('',#1066,#859,#860);
#754=AXIS2_PLACEMENT_3D('',#1068,#862,#863);
#755=AXIS2_PLACEMENT_3D('',#1070,#865,#866);
#756=AXIS2_PLACEMENT_3D('',#1074,#869,#870);
#757=AXIS2_PLACEMENT_3D('',#1078,#873,#874);
#758=AXIS2_PLACEMENT_3D('',#1082,#877,#878);
#759=AXIS2_PLACEMENT_3D('',#1087,#881,#882);
#760=AXIS2_PLACEMENT_3D('',#1089,#883,#884);
#761=AXIS2_PLACEMENT_3D('',#1090,#885,#886);
#762=AXIS2_PLACEMENT_3D('',#1092,#888,#889);
#763=AXIS2_PLACEMENT_3D('',#1095,#891,#892);
#764=AXIS2_PLACEMENT_3D('',#1096,#893,#894);
#765=AXIS2_PLACEMENT_3D('',#1098,#896,#897);
#766=AXIS2_PLACEMENT_3D('',#1101,#899,#900);
#767=AXIS2_PLACEMENT_3D('',#1102,#901,#902);
#768=AXIS2_PLACEMENT_3D('',#1106,#905,#906);
#769=AXIS2_PLACEMENT_3D('',#1108,#908,#909);
#770=AXIS2_PLACEMENT_3D('',#1117,#914,#915);
#771=AXIS2_PLACEMENT_3D('',#1123,#919,#920);
#772=AXIS2_PLACEMENT_3D('',#1127,#923,#924);
#773=AXIS2_PLACEMENT_3D('',#1131,#927,#928);
#774=AXIS2_PLACEMENT_3D('',#1133,#930,#931);
#775=AXIS2_PLACEMENT_3D('',#1139,#935,#936);
#776=AXIS2_PLACEMENT_3D('',#1144,#939,#940);
#777=AXIS2_PLACEMENT_3D('',#1146,#941,#942);
#778=AXIS2_PLACEMENT_3D('',#1147,#943,#944);
#779=AXIS2_PLACEMENT_3D('',#1149,#946,#947);
#780=AXIS2_PLACEMENT_3D('',#1152,#949,#950);
#781=AXIS2_PLACEMENT_3D('',#1153,#951,#952);
#782=AXIS2_PLACEMENT_3D('',#1155,#954,#955);
#783=AXIS2_PLACEMENT_3D('',#1158,#957,#958);
#784=AXIS2_PLACEMENT_3D('',#1159,#959,#960);
#785=AXIS2_PLACEMENT_3D('',#1163,#963,#964);
#786=AXIS2_PLACEMENT_3D('',#1168,#968,#969);
#787=AXIS2_PLACEMENT_3D('',#1169,#970,#971);
#788=AXIS2_PLACEMENT_3D('',#1171,#973,#974);
#789=DIRECTION('axis',(0.,0.,1.));
#790=DIRECTION('refdir',(1.,0.,0.));
#791=DIRECTION('center_axis',(0.,0.,-1.));
#792=DIRECTION('ref_axis',(0.,1.,0.));
#793=DIRECTION('',(0.,-1.,0.));
#794=DIRECTION('',(1.,0.,0.));
#795=DIRECTION('',(0.,-1.,0.));
#796=DIRECTION('',(-1.,0.,0.));
#797=DIRECTION('center_axis',(0.,0.,1.));
#798=DIRECTION('ref_axis',(-1.,0.,0.));
#799=DIRECTION('center_axis',(0.,0.,1.));
#800=DIRECTION('ref_axis',(-1.,0.,0.));
#801=DIRECTION('center_axis',(0.,0.,1.));
#802=DIRECTION('ref_axis',(0.,-1.,0.));
#803=DIRECTION('',(0.,1.,0.));
#804=DIRECTION('',(1.,0.,0.));
#805=DIRECTION('',(0.,1.,0.));
#806=DIRECTION('',(-1.,0.,0.));
#807=DIRECTION('center_axis',(0.,0.,-1.));
#808=DIRECTION('ref_axis',(-1.,0.,0.));
#809=DIRECTION('center_axis',(0.,0.,-1.));
#810=DIRECTION('ref_axis',(-1.,0.,0.));
#811=DIRECTION('center_axis',(1.,0.,-2.22044604925031E-16));
#812=DIRECTION('ref_axis',(-2.22044604925031E-16,0.,-1.));
#813=DIRECTION('',(-2.22044604925031E-16,0.,-1.));
#814=DIRECTION('',(0.,-1.,0.));
#815=DIRECTION('',(0.,0.,-1.));
#816=DIRECTION('center_axis',(0.,1.,0.));
#817=DIRECTION('ref_axis',(0.,0.,1.));
#818=DIRECTION('',(0.,0.,1.));
#819=DIRECTION('',(-2.22044604925031E-16,0.,-1.));
#820=DIRECTION('',(0.707106781186546,0.,-0.707106781186548));
#821=DIRECTION('',(1.,0.,0.));
#822=DIRECTION('',(0.,0.,-1.));
#823=DIRECTION('',(-1.,0.,0.));
#824=DIRECTION('',(-0.707106781186548,0.,-0.707106781186547));
#825=DIRECTION('center_axis',(0.,0.,-1.));
#826=DIRECTION('ref_axis',(0.,-1.,0.));
#827=DIRECTION('',(0.,1.,0.));
#828=DIRECTION('',(-1.,0.,0.));
#829=DIRECTION('',(0.,1.,0.));
#830=DIRECTION('',(1.,0.,0.));
#831=DIRECTION('center_axis',(0.,0.,1.));
#832=DIRECTION('ref_axis',(-1.,0.,0.));
#833=DIRECTION('center_axis',(0.,0.,1.));
#834=DIRECTION('ref_axis',(-1.,0.,0.));
#835=DIRECTION('center_axis',(0.,0.,1.));
#836=DIRECTION('ref_axis',(0.,1.,0.));
#837=DIRECTION('',(0.,-1.,0.));
#838=DIRECTION('',(-1.,0.,0.));
#839=DIRECTION('',(0.,-1.,0.));
#840=DIRECTION('',(1.,0.,0.));
#841=DIRECTION('center_axis',(0.,0.,-1.));
#842=DIRECTION('ref_axis',(-1.,0.,0.));
#843=DIRECTION('center_axis',(0.,0.,-1.));
#844=DIRECTION('ref_axis',(-1.,0.,0.));
#845=DIRECTION('center_axis',(-1.,0.,0.));
#846=DIRECTION('ref_axis',(0.,0.,1.));
#847=DIRECTION('',(0.,0.,1.));
#848=DIRECTION('',(0.,1.,0.));
#849=DIRECTION('',(0.,0.,1.));
#850=DIRECTION('center_axis',(0.,1.,0.));
#851=DIRECTION('ref_axis',(2.22044604925031E-16,0.,1.));
#852=DIRECTION('',(0.,0.,1.));
#853=DIRECTION('',(0.,0.,1.));
#854=DIRECTION('',(-0.707106781186548,0.,-0.707106781186548));
#855=DIRECTION('',(1.,0.,0.));
#856=DIRECTION('',(0.,0.,-1.));
#857=DIRECTION('',(-1.,0.,0.));
#858=DIRECTION('',(0.707106781186548,0.,-0.707106781186548));
#859=DIRECTION('center_axis',(1.,0.,0.));
#860=DIRECTION('ref_axis',(0.,0.,-1.));
#861=DIRECTION('',(0.,0.,-1.));
#862=DIRECTION('center_axis',(-1.,0.,0.));
#863=DIRECTION('ref_axis',(0.,0.,1.));
#864=DIRECTION('',(0.,0.,-1.));
#865=DIRECTION('center_axis',(-1.,0.,0.));
#866=DIRECTION('ref_axis',(0.,0.,1.));
#867=DIRECTION('',(0.,0.,1.));
#868=DIRECTION('',(0.,-1.,0.));
#869=DIRECTION('center_axis',(-0.707106781186548,0.,0.707106781186548));
#870=DIRECTION('ref_axis',(0.707106781186548,0.,0.707106781186548));
#871=DIRECTION('',(0.707106781186548,0.,0.707106781186548));
#872=DIRECTION('',(0.,1.,0.));
#873=DIRECTION('center_axis',(-0.707106781186548,0.,-0.707106781186548));
#874=DIRECTION('ref_axis',(-0.707106781186548,0.,0.707106781186548));
#875=DIRECTION('',(-0.707106781186548,0.,0.707106781186548));
#876=DIRECTION('',(0.,-1.,0.));
#877=DIRECTION('center_axis',(0.,0.,-1.));
#878=DIRECTION('ref_axis',(-1.,0.,0.));
#879=DIRECTION('',(0.,1.,0.));
#880=DIRECTION('',(1.,0.,0.));
#881=DIRECTION('center_axis',(0.,0.,-1.));
#882=DIRECTION('ref_axis',(-1.,0.,0.));
#883=DIRECTION('center_axis',(0.,0.,-1.));
#884=DIRECTION('ref_axis',(-1.,0.,0.));
#885=DIRECTION('center_axis',(0.,0.,-1.));
#886=DIRECTION('ref_axis',(-1.,0.,0.));
#887=DIRECTION('',(0.,0.,-1.));
#888=DIRECTION('center_axis',(0.,0.,-1.));
#889=DIRECTION('ref_axis',(-1.,0.,0.));
#890=DIRECTION('',(0.,0.,-1.));
#891=DIRECTION('center_axis',(0.,0.,1.));
#892=DIRECTION('ref_axis',(-1.,0.,0.));
#893=DIRECTION('center_axis',(0.,0.,-1.));
#894=DIRECTION('ref_axis',(-1.,0.,0.));
#895=DIRECTION('',(0.,0.,-1.));
#896=DIRECTION('center_axis',(0.,0.,-1.));
#897=DIRECTION('ref_axis',(-1.,0.,0.));
#898=DIRECTION('',(0.,0.,-1.));
#899=DIRECTION('center_axis',(0.,0.,1.));
#900=DIRECTION('ref_axis',(-1.,0.,0.));
#901=DIRECTION('center_axis',(0.,1.,0.));
#902=DIRECTION('ref_axis',(0.,0.,1.));
#903=DIRECTION('',(-1.,0.,0.));
#904=DIRECTION('',(0.,0.,1.));
#905=DIRECTION('center_axis',(0.,0.,1.));
#906=DIRECTION('ref_axis',(1.,0.,0.));
#907=DIRECTION('',(0.,-1.,0.));
#908=DIRECTION('center_axis',(-1.,0.,0.));
#909=DIRECTION('ref_axis',(0.,0.,1.));
#910=DIRECTION('',(0.,0.,1.));
#911=DIRECTION('',(0.,1.,0.));
#912=DIRECTION('',(0.,0.,-1.));
#913=DIRECTION('',(0.,-1.,0.));
#914=DIRECTION('center_axis',(0.,1.,0.));
#915=DIRECTION('ref_axis',(0.,0.,1.));
#916=DIRECTION('',(-1.,0.,0.));
#917=DIRECTION('',(0.,0.,1.));
#918=DIRECTION('',(1.,0.,0.));
#919=DIRECTION('center_axis',(0.,0.,-1.));
#920=DIRECTION('ref_axis',(-1.,0.,0.));
#921=DIRECTION('',(0.,1.,0.));
#922=DIRECTION('',(-1.,0.,0.));
#923=DIRECTION('center_axis',(0.,0.,1.));
#924=DIRECTION('ref_axis',(1.,0.,0.));
#925=DIRECTION('',(1.,0.,0.));
#926=DIRECTION('',(0.,-1.,0.));
#927=DIRECTION('center_axis',(0.,-1.,0.));
#928=DIRECTION('ref_axis',(0.,0.,-1.));
#929=DIRECTION('',(0.,0.,-1.));
#930=DIRECTION('center_axis',(1.,0.,0.));
#931=DIRECTION('ref_axis',(0.,0.,-1.));
#932=DIRECTION('',(0.,0.,1.));
#933=DIRECTION('',(0.,1.,0.));
#934=DIRECTION('',(0.,-1.,0.));
#935=DIRECTION('center_axis',(0.,0.,-1.));
#936=DIRECTION('ref_axis',(-1.,0.,0.));
#937=DIRECTION('',(0.,-1.,0.));
#938=DIRECTION('',(1.,0.,0.));
#939=DIRECTION('center_axis',(0.,0.,-1.));
#940=DIRECTION('ref_axis',(-1.,0.,0.));
#941=DIRECTION('center_axis',(0.,0.,-1.));
#942=DIRECTION('ref_axis',(-1.,0.,0.));
#943=DIRECTION('center_axis',(0.,0.,-1.));
#944=DIRECTION('ref_axis',(-1.,0.,0.));
#945=DIRECTION('',(0.,0.,-1.));
#946=DIRECTION('center_axis',(0.,0.,-1.));
#947=DIRECTION('ref_axis',(-1.,0.,0.));
#948=DIRECTION('',(0.,0.,-1.));
#949=DIRECTION('center_axis',(0.,0.,1.));
#950=DIRECTION('ref_axis',(-1.,0.,0.));
#951=DIRECTION('center_axis',(0.,0.,-1.));
#952=DIRECTION('ref_axis',(-1.,0.,0.));
#953=DIRECTION('',(0.,0.,-1.));
#954=DIRECTION('center_axis',(0.,0.,-1.));
#955=DIRECTION('ref_axis',(-1.,0.,0.));
#956=DIRECTION('',(0.,0.,-1.));
#957=DIRECTION('center_axis',(0.,0.,1.));
#958=DIRECTION('ref_axis',(-1.,0.,0.));
#959=DIRECTION('center_axis',(0.,0.,1.));
#960=DIRECTION('ref_axis',(1.,0.,0.));
#961=DIRECTION('',(-1.,0.,0.));
#962=DIRECTION('',(0.,1.,0.));
#963=DIRECTION('center_axis',(0.,1.,0.));
#964=DIRECTION('ref_axis',(2.22044604925031E-16,0.,1.));
#965=DIRECTION('',(0.707106781186548,0.,0.707106781186547));
#966=DIRECTION('',(-0.707106781186546,0.,0.707106781186548));
#967=DIRECTION('',(-2.22044605870381E-16,0.,-1.));
#968=DIRECTION('center_axis',(0.707106781186547,0.,-0.707106781186548));
#969=DIRECTION('ref_axis',(-0.707106781186548,0.,-0.707106781186547));
#970=DIRECTION('center_axis',(0.707106781186549,0.,0.707106781186547));
#971=DIRECTION('ref_axis',(0.707106781186546,0.,-0.707106781186548));
#972=DIRECTION('',(0.,1.,0.));
#973=DIRECTION('center_axis',(1.,0.,-2.22044604925031E-16));
#974=DIRECTION('ref_axis',(-2.22044604925031E-16,0.,-1.));
#975=CARTESIAN_POINT('',(0.,0.,0.));
#976=CARTESIAN_POINT('Origin',(-0.200000074505805,140.999996848404,47.8999989293516));
#977=CARTESIAN_POINT('',(9.99999992549419,180.999995954335,47.8999989293516));
#978=CARTESIAN_POINT('',(9.99999992549419,141.000001952052,47.8999989293516));
#979=CARTESIAN_POINT('',(9.99999992549419,148.499999586493,47.8999989293516));
#980=CARTESIAN_POINT('',(-0.200000074505805,180.999995954335,47.8999989293516));
#981=CARTESIAN_POINT('',(-7.60000007450581,181.00000269711,47.8999989293516));
#982=CARTESIAN_POINT('',(-0.200000074505805,140.999996848404,47.8999989293516));
#983=CARTESIAN_POINT('',(-0.200000074505805,180.999995954335,47.8999989293516));
#984=CARTESIAN_POINT('',(-7.60000007450581,141.000001952052,47.8999989293516));
#985=CARTESIAN_POINT('',(4.6000001937151,178.000002652407,47.8999989293516));
#986=CARTESIAN_POINT('Origin',(3.0000001937151,178.000002652407,47.8999989293516));
#987=CARTESIAN_POINT('',(4.6000001937151,144.000002145767,47.8999989293516));
#988=CARTESIAN_POINT('Origin',(3.0000001937151,144.000002145767,47.8999989293516));
#989=CARTESIAN_POINT('Origin',(-0.200000074505805,180.999995954335,69.0999984554946));
#990=CARTESIAN_POINT('',(9.99999992549419,140.999996848404,69.0999984554946));
#991=CARTESIAN_POINT('',(9.99999992549419,180.999995954335,69.0999984554946));
#992=CARTESIAN_POINT('',(9.99999992549419,168.499999139458,69.0999984554946));
#993=CARTESIAN_POINT('',(-0.200000074505805,140.999996848404,69.0999984554946));
#994=CARTESIAN_POINT('',(-7.60000007450581,141.000001952052,69.0999984554946));
#995=CARTESIAN_POINT('',(-0.200000074505805,180.999995954335,69.0999984554946));
#996=CARTESIAN_POINT('',(-0.200000074505805,140.999996848404,69.0999984554946));
#997=CARTESIAN_POINT('',(-7.60000007450581,181.00000269711,69.0999984554946));
#998=CARTESIAN_POINT('',(4.6000001937151,144.000002145767,69.0999984554946));
#999=CARTESIAN_POINT('Origin',(3.0000001937151,144.000002145767,69.0999984554946));
#1000=CARTESIAN_POINT('',(4.6000001937151,178.000002652407,69.0999984554946));
#1001=CARTESIAN_POINT('Origin',(3.0000001937151,178.000002652407,69.0999984554946));
#1002=CARTESIAN_POINT('Origin',(9.99999992549419,156.000002324581,78.4999999627471));
#1003=CARTESIAN_POINT('',(9.99999992549419,141.000001952052,44.9999993294477));
#1004=CARTESIAN_POINT('',(9.99999992549419,141.000001952052,39.7499997764826));
#1005=CARTESIAN_POINT('',(9.99999992549419,181.00000269711,44.9999993294477));
#1006=CARTESIAN_POINT('',(9.99999992549419,143.500002138317,44.9999993294477));
#1007=CARTESIAN_POINT('',(9.99999992549419,181.00000269711,35.9999993294477));
#1008=CARTESIAN_POINT('Origin',(-15.0000000745058,141.000001952052,40.9999999254942));
#1009=CARTESIAN_POINT('',(-0.200000074505804,141.000001952052,49.7499993089586));
#1010=CARTESIAN_POINT('',(9.99999992549419,141.000001952052,72.));
#1011=CARTESIAN_POINT('',(9.99999992549419,141.000001952052,59.7499999441206));
#1012=CARTESIAN_POINT('',(5.9999999254942,141.000001952052,76.));
#1013=CARTESIAN_POINT('',(10.4999999441207,141.000001952052,71.4999999813735));
#1014=CARTESIAN_POINT('',(-5.00000010430813,141.000001952052,76.0000011324883));
#1015=CARTESIAN_POINT('',(-15.0000000745058,141.000001952052,76.));
#1016=CARTESIAN_POINT('',(-5.00000010430813,141.000001952052,41.0000006109476));
#1017=CARTESIAN_POINT('',(-5.00000010430813,141.000001952052,44.500000320375));
#1018=CARTESIAN_POINT('',(5.99999992549418,141.000001952052,40.9999993294477));
#1019=CARTESIAN_POINT('',(-15.0000000745058,141.000001952052,40.9999993294477));
#1020=CARTESIAN_POINT('',(1.75000007450579,141.000001952052,36.7499994784594));
#1021=CARTESIAN_POINT('Origin',(-41.8000000745058,180.999995954335,47.8999989293516));
#1022=CARTESIAN_POINT('',(-52.0000000745058,140.999996848404,47.8999989293516));
#1023=CARTESIAN_POINT('',(-52.0000000745058,180.999995954335,47.8999989293516));
#1024=CARTESIAN_POINT('',(-52.0000000745058,168.499999139458,47.8999989293516));
#1025=CARTESIAN_POINT('',(-41.8000000745058,141.000001952052,47.8999989293516));
#1026=CARTESIAN_POINT('',(-23.4000000745058,141.000001952052,47.8999989293516));
#1027=CARTESIAN_POINT('',(-41.8000000745058,181.00000269711,47.8999989293516));
#1028=CARTESIAN_POINT('',(-41.8000000745058,140.999996848404,47.8999989293516));
#1029=CARTESIAN_POINT('',(-23.4000000745058,181.00000269711,47.8999989293516));
#1030=CARTESIAN_POINT('',(-43.4000006705523,144.000002145767,47.8999989293516));
#1031=CARTESIAN_POINT('Origin',(-45.0000006705523,144.000002145767,47.8999989293516));
#1032=CARTESIAN_POINT('',(-43.4000006705523,178.000002652407,47.8999989293516));
#1033=CARTESIAN_POINT('Origin',(-45.0000006705523,178.000002652407,47.8999989293516));
#1034=CARTESIAN_POINT('Origin',(-41.8000000745058,140.999996848404,69.0999984554946));
#1035=CARTESIAN_POINT('',(-52.0000000745058,180.999995954335,69.0999984554946));
#1036=CARTESIAN_POINT('',(-52.0000000745058,140.999996848404,69.0999984554946));
#1037=CARTESIAN_POINT('',(-52.0000000745058,148.499999586493,69.0999984554946));
#1038=CARTESIAN_POINT('',(-41.8000000745058,181.00000269711,69.0999984554946));
#1039=CARTESIAN_POINT('',(-23.4000000745058,181.00000269711,69.0999984554946));
#1040=CARTESIAN_POINT('',(-41.8000000745058,141.000001952052,69.0999984554946));
#1041=CARTESIAN_POINT('',(-41.8000000745058,180.999995954335,69.0999984554946));
#1042=CARTESIAN_POINT('',(-23.4000000745058,141.000001952052,69.0999984554946));
#1043=CARTESIAN_POINT('',(-43.4000006705523,178.000002652407,69.0999984554946));
#1044=CARTESIAN_POINT('Origin',(-45.0000006705523,178.000002652407,69.0999984554946));
#1045=CARTESIAN_POINT('',(-43.4000006705523,144.000002145767,69.0999984554946));
#1046=CARTESIAN_POINT('Origin',(-45.0000006705523,144.000002145767,69.0999984554946));
#1047=CARTESIAN_POINT('Origin',(-52.0000000745058,156.000002324581,78.5000005662441));
#1048=CARTESIAN_POINT('',(-52.0000000745058,181.00000269711,44.9999993294477));
#1049=CARTESIAN_POINT('',(-52.0000000745058,181.00000269711,41.0000006109476));
#1050=CARTESIAN_POINT('',(-52.0000000745058,141.000001952052,44.9999993294477));
#1051=CARTESIAN_POINT('',(-52.0000000745058,143.500002138317,44.9999993294477));
#1052=CARTESIAN_POINT('',(-52.0000000745058,141.000001952052,39.7499999478459));
#1053=CARTESIAN_POINT('Origin',(-5.00000007450581,181.00000269711,35.9999993294477));
#1054=CARTESIAN_POINT('',(-41.8000000745058,181.00000269711,41.9750037354925));
#1055=CARTESIAN_POINT('',(-52.0000000745058,181.00000269711,72.));
#1056=CARTESIAN_POINT('',(-52.0000000745058,181.00000269711,81.));
#1057=CARTESIAN_POINT('',(-48.0000000745058,181.00000269711,76.));
#1058=CARTESIAN_POINT('',(-48.2500002421439,181.00000269711,75.7499998323619));
#1059=CARTESIAN_POINT('',(-37.000000372529,181.00000269711,76.0000011324883));
#1060=CARTESIAN_POINT('',(-5.00000007450581,181.00000269711,76.));
#1061=CARTESIAN_POINT('',(-37.000000372529,181.00000269711,40.9999993294477));
#1062=CARTESIAN_POINT('',(-37.000000372529,181.00000269711,52.500000230968));
#1063=CARTESIAN_POINT('',(-48.0000000745058,181.00000269711,40.9999993294477));
#1064=CARTESIAN_POINT('',(-5.00000007450581,181.00000269711,40.9999993294477));
#1065=CARTESIAN_POINT('',(-37.0000000745058,181.00000269711,29.9999993294477));
#1066=CARTESIAN_POINT('Origin',(-41.8000000745058,156.000002324581,38.499999627471));
#1067=CARTESIAN_POINT('',(-41.8000000745058,141.000001952052,44.4750040335158));
#1068=CARTESIAN_POINT('Origin',(-0.200000074505805,156.000002324581,58.4999999254942));
#1069=CARTESIAN_POINT('',(-0.200000074505804,181.00000269711,47.2499990109354));
#1070=CARTESIAN_POINT('Origin',(-52.0000000745058,156.000002324581,78.5000005662441));
#1071=CARTESIAN_POINT('',(-52.0000000745058,141.000001952052,72.));
#1072=CARTESIAN_POINT('',(-52.0000000745058,141.000001952052,59.7500002458692));
#1073=CARTESIAN_POINT('',(-52.0000000745058,168.500002510846,72.));
#1074=CARTESIAN_POINT('Origin',(-50.0000000745058,168.500002510846,74.));
#1075=CARTESIAN_POINT('',(-48.0000000745058,141.000001952052,76.));
#1076=CARTESIAN_POINT('',(-47.0000000931323,141.000001952052,76.9999999813735));
#1077=CARTESIAN_POINT('',(-48.0000000745058,168.500002510846,76.));
#1078=CARTESIAN_POINT('Origin',(-50.0000000745058,143.500002138317,42.9999993294477));
#1079=CARTESIAN_POINT('',(-48.0000000745058,141.000001952052,40.9999993294477));
#1080=CARTESIAN_POINT('',(-38.2500002235174,141.000001952052,31.2499994784594));
#1081=CARTESIAN_POINT('',(-48.0000000745058,143.500002138317,40.9999993294477));
#1082=CARTESIAN_POINT('Origin',(-5.00000007450581,181.00000269711,76.));
#1083=CARTESIAN_POINT('',(-37.000000372529,141.000001952052,76.0000011324883));
#1084=CARTESIAN_POINT('',(-37.000000372529,161.000002324581,76.));
#1085=CARTESIAN_POINT('',(-5.00000007450581,141.000001952052,76.));
#1086=CARTESIAN_POINT('',(-43.4000006705523,144.000002145767,76.));
#1087=CARTESIAN_POINT('Origin',(-45.0000006705523,144.000002145767,76.));
#1088=CARTESIAN_POINT('',(-43.4000006705523,178.000002652407,76.));
#1089=CARTESIAN_POINT('Origin',(-45.0000006705523,178.000002652407,76.));
#1090=CARTESIAN_POINT('Origin',(-45.0000006705523,178.000002652407,76.));
#1091=CARTESIAN_POINT('',(-43.4000006705523,178.000002652407,76.));
#1092=CARTESIAN_POINT('Origin',(-45.0000006705523,178.000002652407,76.));
#1093=CARTESIAN_POINT('',(-43.4000006705523,178.000002652407,40.9999993294477));
#1094=CARTESIAN_POINT('',(-43.4000006705523,178.000002652407,76.));
#1095=CARTESIAN_POINT('Origin',(-45.0000006705523,178.000002652407,40.9999993294477));
#1096=CARTESIAN_POINT('Origin',(-45.0000006705523,144.000002145767,76.));
#1097=CARTESIAN_POINT('',(-43.4000006705523,144.000002145767,76.));
#1098=CARTESIAN_POINT('Origin',(-45.0000006705523,144.000002145767,76.));
#1099=CARTESIAN_POINT('',(-43.4000006705523,144.000002145767,40.9999993294477));
#1100=CARTESIAN_POINT('',(-43.4000006705523,144.000002145767,76.));
#1101=CARTESIAN_POINT('Origin',(-45.0000006705523,144.000002145767,40.9999993294477));
#1102=CARTESIAN_POINT('Origin',(-5.00000007450581,141.000001952052,40.9999999254942));
#1103=CARTESIAN_POINT('',(-37.000000372529,141.000001952052,41.0000006109476));
#1104=CARTESIAN_POINT('',(-5.00000007450581,141.000001952052,40.9999993294477));
#1105=CARTESIAN_POINT('',(-37.000000372529,141.000001952052,55.0000005289912));
#1106=CARTESIAN_POINT('Origin',(-5.00000007450581,131.000001952052,40.9999993294477));
#1107=CARTESIAN_POINT('',(-37.000000372529,136.000001952052,40.9999993294477));
#1108=CARTESIAN_POINT('Origin',(-37.000000372529,141.000001952052,69.0000011324883));
#1109=CARTESIAN_POINT('',(-37.000000372529,174.00000269711,51.0000007152557));
#1110=CARTESIAN_POINT('',(-37.000000372529,174.00000269711,66.0000011324883));
#1111=CARTESIAN_POINT('',(-37.000000372529,174.00000269711,66.0000011324883));
#1112=CARTESIAN_POINT('',(-37.000000372529,148.000001952052,51.0000007152557));
#1113=CARTESIAN_POINT('',(-37.000000372529,141.000001952052,51.0000007152557));
#1114=CARTESIAN_POINT('',(-37.000000372529,148.000001952052,66.0000011324883));
#1115=CARTESIAN_POINT('',(-37.000000372529,148.000001952052,51.0000007152557));
#1116=CARTESIAN_POINT('',(-37.000000372529,141.000001952052,66.0000011324883));
#1117=CARTESIAN_POINT('Origin',(-26.0000002384186,148.000001952052,58.500000923872));
#1118=CARTESIAN_POINT('',(-5.00000010430813,148.000001952052,51.0000007152557));
#1119=CARTESIAN_POINT('',(-32.000000372529,148.000001952052,51.0000007152557));
#1120=CARTESIAN_POINT('',(-5.00000010430813,148.000001952052,66.0000011324883));
#1121=CARTESIAN_POINT('',(-5.00000010430813,148.000001952052,66.0000011324883));
#1122=CARTESIAN_POINT('',(-10.0000001043081,148.000001952052,66.0000011324883));
#1123=CARTESIAN_POINT('Origin',(-17.0000001043081,141.000001952052,66.0000011324883));
#1124=CARTESIAN_POINT('',(-5.00000010430813,174.00000269711,66.0000011324883));
#1125=CARTESIAN_POINT('',(-5.00000010430813,141.000001952052,66.0000011324883));
#1126=CARTESIAN_POINT('',(-42.000000372529,174.00000269711,66.0000011324883));
#1127=CARTESIAN_POINT('Origin',(-35.000000372529,141.000001952052,51.0000007152557));
#1128=CARTESIAN_POINT('',(-5.00000010430813,174.00000269711,51.0000007152557));
#1129=CARTESIAN_POINT('',(-10.0000001043081,174.00000269711,51.0000007152557));
#1130=CARTESIAN_POINT('',(-5.00000010430813,141.000001952052,51.0000007152557));
#1131=CARTESIAN_POINT('Origin',(-26.0000002384186,174.00000269711,58.500000923872));
#1132=CARTESIAN_POINT('',(-5.00000010430813,174.00000269711,51.0000007152557));
#1133=CARTESIAN_POINT('Origin',(-5.00000010430813,141.000001952052,48.0000007152557));
#1134=CARTESIAN_POINT('',(-5.00000010430813,181.00000269711,40.9999993294477));
#1135=CARTESIAN_POINT('',(-5.00000010430813,181.00000269711,76.0000011324883));
#1136=CARTESIAN_POINT('',(-5.00000010430813,181.00000269711,42.0000000223517));
#1137=CARTESIAN_POINT('',(-5.00000010430813,136.000001952052,40.9999993294477));
#1138=CARTESIAN_POINT('',(-5.00000010430813,161.000002324581,76.));
#1139=CARTESIAN_POINT('Origin',(-15.0000000745058,181.00000269711,76.));
#1140=CARTESIAN_POINT('',(5.9999999254942,181.00000269711,76.));
#1141=CARTESIAN_POINT('',(5.9999999254942,168.500002510846,76.));
#1142=CARTESIAN_POINT('',(-15.0000000745058,181.00000269711,76.));
#1143=CARTESIAN_POINT('',(4.6000001937151,178.000002652407,76.));
#1144=CARTESIAN_POINT('Origin',(3.0000001937151,178.000002652407,76.));
#1145=CARTESIAN_POINT('',(4.6000001937151,144.000002145767,76.));
#1146=CARTESIAN_POINT('Origin',(3.0000001937151,144.000002145767,76.));
#1147=CARTESIAN_POINT('Origin',(3.0000001937151,144.000002145767,76.));
#1148=CARTESIAN_POINT('',(4.6000001937151,144.000002145767,76.));
#1149=CARTESIAN_POINT('Origin',(3.0000001937151,144.000002145767,76.));
#1150=CARTESIAN_POINT('',(4.6000001937151,144.000002145767,40.9999993294477));
#1151=CARTESIAN_POINT('',(4.6000001937151,144.000002145767,76.));
#1152=CARTESIAN_POINT('Origin',(3.0000001937151,144.000002145767,40.9999993294477));
#1153=CARTESIAN_POINT('Origin',(3.0000001937151,178.000002652407,76.));
#1154=CARTESIAN_POINT('',(4.6000001937151,178.000002652407,76.));
#1155=CARTESIAN_POINT('Origin',(3.0000001937151,178.000002652407,76.));
#1156=CARTESIAN_POINT('',(4.6000001937151,178.000002652407,40.9999993294477));
#1157=CARTESIAN_POINT('',(4.6000001937151,178.000002652407,76.));
#1158=CARTESIAN_POINT('Origin',(3.0000001937151,178.000002652407,40.9999993294477));
#1159=CARTESIAN_POINT('Origin',(-15.0000000745058,131.000001952052,40.9999993294477));
#1160=CARTESIAN_POINT('',(5.99999992549418,181.00000269711,40.9999993294477));
#1161=CARTESIAN_POINT('',(-15.0000000745058,181.00000269711,40.9999993294477));
#1162=CARTESIAN_POINT('',(5.99999992549418,143.500002138317,40.9999993294477));
#1163=CARTESIAN_POINT('Origin',(-15.0000000745058,181.00000269711,35.9999993294477));
#1164=CARTESIAN_POINT('',(0.499999925494179,181.00000269711,35.4999993294477));
#1165=CARTESIAN_POINT('',(9.99999992549419,181.00000269711,72.));
#1166=CARTESIAN_POINT('',(11.7500000931323,181.00000269711,70.2499998323619));
#1167=CARTESIAN_POINT('',(9.99999992549419,181.00000269711,75.9999999254942));
#1168=CARTESIAN_POINT('Origin',(7.99999992549418,143.500002138317,42.9999993294477));
#1169=CARTESIAN_POINT('Origin',(7.9999999254942,168.500002510846,74.));
#1170=CARTESIAN_POINT('',(9.99999992549419,168.500002510846,72.));
#1171=CARTESIAN_POINT('Origin',(9.99999992549419,156.000002324581,78.4999999627471));
#1172=UNCERTAINTY_MEASURE_WITH_UNIT(LENGTH_MEASURE(0.01),#1176,
'DISTANCE_ACCURACY_VALUE',
'Maximum model space distance between geometric entities at asserted c
onnectivities');
#1173=UNCERTAINTY_MEASURE_WITH_UNIT(LENGTH_MEASURE(0.01),#1176,
'DISTANCE_ACCURACY_VALUE',
'Maximum model space distance between geometric entities at asserted c
onnectivities');
#1174=(
GEOMETRIC_REPRESENTATION_CONTEXT(3)
GLOBAL_UNCERTAINTY_ASSIGNED_CONTEXT((#1172))
GLOBAL_UNIT_ASSIGNED_CONTEXT((#1176,#1178,#1179))
REPRESENTATION_CONTEXT('','3D')
);
#1175=(
GEOMETRIC_REPRESENTATION_CONTEXT(3)
GLOBAL_UNCERTAINTY_ASSIGNED_CONTEXT((#1173))
GLOBAL_UNIT_ASSIGNED_CONTEXT((#1176,#1178,#1179))
REPRESENTATION_CONTEXT('','3D')
);
#1176=(
LENGTH_UNIT()
NAMED_UNIT(*)
SI_UNIT(.MILLI.,.METRE.)
);
#1177=(
LENGTH_UNIT()
NAMED_UNIT(*)
SI_UNIT($,.METRE.)
);
#1178=(
NAMED_UNIT(*)
PLANE_ANGLE_UNIT()
SI_UNIT($,.RADIAN.)
);
#1179=(
NAMED_UNIT(*)
SI_UNIT($,.STERADIAN.)
SOLID_ANGLE_UNIT()
);
#1180=SHAPE_DEFINITION_REPRESENTATION(#1181,#1182);
#1181=PRODUCT_DEFINITION_SHAPE('',$,#1184);
#1182=SHAPE_REPRESENTATION('',(#736),#1174);
#1183=PRODUCT_DEFINITION_CONTEXT('part definition',#1188,'design');
#1184=PRODUCT_DEFINITION('2026-09-26-21-37-13-636',
'elbow small gear holder',#1185,#1183);
#1185=PRODUCT_DEFINITION_FORMATION('',$,#1190);
#1186=PRODUCT_RELATED_PRODUCT_CATEGORY('elbow small gear holder',
'elbow small gear holder',(#1190));
#1187=APPLICATION_PROTOCOL_DEFINITION('international standard',
'automotive_design',2009,#1188);
#1188=APPLICATION_CONTEXT(
'Core Data for Automotive Mechanical Design Process');
#1189=PRODUCT_CONTEXT('part definition',#1188,'mechanical');
#1190=PRODUCT('2026-09-26-21-37-13-636','elbow small gear holder',$,(#1189));
#1191=PRESENTATION_STYLE_ASSIGNMENT((#1192));
#1192=SURFACE_STYLE_USAGE(.BOTH.,#1193);
#1193=SURFACE_SIDE_STYLE('',(#1194));
#1194=SURFACE_STYLE_FILL_AREA(#1195);
#1195=FILL_AREA_STYLE('Steel - Satin',(#1196));
#1196=FILL_AREA_STYLE_COLOUR('Steel - Satin',#1197);
#1197=COLOUR_RGB('Steel - Satin',0.627450980392157,0.627450980392157,0.627450980392157);
ENDSEC;
END-ISO-10303-21;
