ISO-10303-21;
HEADER;
/* Generated by software containing ST-Developer
 * from STEP Tools, Inc. (www.steptools.com) 
 */

FILE_DESCRIPTION(
/* description */ (''),
/* implementation_level */ '2;1');

FILE_NAME(
/* name */ 'stepper motor support.step',
/* time_stamp */ '2026-09-26T21:41:31-07:00',
/* author */ (''),
/* organization */ (''),
/* preprocessor_version */ 'ST-DEVELOPER v20.2',
/* originating_system */ 'Autodesk Translation Framework v15.15.0.0',
/* authorisation */ '');

FILE_SCHEMA (('AUTOMOTIVE_DESIGN { 1 0 10303 214 3 1 1 }'));
ENDSEC;

DATA;
#10=MECHANICAL_DESIGN_GEOMETRIC_PRESENTATION_REPRESENTATION('',(#13),#554);
#11=SHAPE_REPRESENTATION_RELATIONSHIP('SRR','None',#561,#12);
#12=ADVANCED_BREP_SHAPE_REPRESENTATION('',(#14),#553);
#13=STYLED_ITEM('',(#570),#14);
#14=MANIFOLD_SOLID_BREP('Body1',#346);
#15=FACE_BOUND('',#44,.T.);
#16=FACE_BOUND('',#47,.T.);
#17=FACE_BOUND('',#50,.T.);
#18=FACE_BOUND('',#56,.T.);
#19=FACE_OUTER_BOUND('',#36,.T.);
#20=FACE_OUTER_BOUND('',#37,.T.);
#21=FACE_OUTER_BOUND('',#38,.T.);
#22=FACE_OUTER_BOUND('',#39,.T.);
#23=FACE_OUTER_BOUND('',#40,.T.);
#24=FACE_OUTER_BOUND('',#41,.T.);
#25=FACE_OUTER_BOUND('',#42,.T.);
#26=FACE_OUTER_BOUND('',#43,.T.);
#27=FACE_OUTER_BOUND('',#45,.T.);
#28=FACE_OUTER_BOUND('',#46,.T.);
#29=FACE_OUTER_BOUND('',#48,.T.);
#30=FACE_OUTER_BOUND('',#49,.T.);
#31=FACE_OUTER_BOUND('',#51,.T.);
#32=FACE_OUTER_BOUND('',#52,.T.);
#33=FACE_OUTER_BOUND('',#53,.T.);
#34=FACE_OUTER_BOUND('',#54,.T.);
#35=FACE_OUTER_BOUND('',#55,.T.);
#36=EDGE_LOOP('',(#222,#223,#224,#225));
#37=EDGE_LOOP('',(#226,#227,#228,#229));
#38=EDGE_LOOP('',(#230,#231,#232,#233,#234,#235));
#39=EDGE_LOOP('',(#236,#237,#238,#239,#240,#241));
#40=EDGE_LOOP('',(#242,#243,#244,#245));
#41=EDGE_LOOP('',(#246,#247,#248,#249,#250,#251));
#42=EDGE_LOOP('',(#252,#253,#254,#255));
#43=EDGE_LOOP('',(#256,#257,#258,#259));
#44=EDGE_LOOP('',(#260,#261,#262,#263));
#45=EDGE_LOOP('',(#264,#265,#266,#267));
#46=EDGE_LOOP('',(#268,#269,#270,#271));
#47=EDGE_LOOP('',(#272,#273,#274,#275));
#48=EDGE_LOOP('',(#276,#277,#278,#279));
#49=EDGE_LOOP('',(#280,#281,#282,#283));
#50=EDGE_LOOP('',(#284,#285,#286,#287));
#51=EDGE_LOOP('',(#288,#289,#290,#291));
#52=EDGE_LOOP('',(#292,#293,#294,#295));
#53=EDGE_LOOP('',(#296,#297,#298,#299));
#54=EDGE_LOOP('',(#300,#301,#302,#303));
#55=EDGE_LOOP('',(#304,#305,#306,#307));
#56=EDGE_LOOP('',(#308,#309,#310,#311));
#57=LINE('',#462,#102);
#58=LINE('',#464,#103);
#59=LINE('',#466,#104);
#60=LINE('',#467,#105);
#61=LINE('',#470,#106);
#62=LINE('',#472,#107);
#63=LINE('',#473,#108);
#64=LINE('',#476,#109);
#65=LINE('',#478,#110);
#66=LINE('',#480,#111);
#67=LINE('',#481,#112);
#68=LINE('',#484,#113);
#69=LINE('',#486,#114);
#70=LINE('',#488,#115);
#71=LINE('',#489,#116);
#72=LINE('',#492,#117);
#73=LINE('',#493,#118);
#74=LINE('',#495,#119);
#75=LINE('',#497,#120);
#76=LINE('',#498,#121);
#77=LINE('',#502,#122);
#78=LINE('',#504,#123);
#79=LINE('',#506,#124);
#80=LINE('',#507,#125);
#81=LINE('',#509,#126);
#82=LINE('',#511,#127);
#83=LINE('',#513,#128);
#84=LINE('',#514,#129);
#85=LINE('',#517,#130);
#86=LINE('',#518,#131);
#87=LINE('',#521,#132);
#88=LINE('',#522,#133);
#89=LINE('',#524,#134);
#90=LINE('',#528,#135);
#91=LINE('',#530,#136);
#92=LINE('',#532,#137);
#93=LINE('',#533,#138);
#94=LINE('',#536,#139);
#95=LINE('',#538,#140);
#96=LINE('',#539,#141);
#97=LINE('',#542,#142);
#98=LINE('',#543,#143);
#99=LINE('',#546,#144);
#100=LINE('',#547,#145);
#101=LINE('',#549,#146);
#102=VECTOR('',#381,10.);
#103=VECTOR('',#382,10.);
#104=VECTOR('',#383,10.);
#105=VECTOR('',#384,10.);
#106=VECTOR('',#387,10.);
#107=VECTOR('',#388,10.);
#108=VECTOR('',#389,10.);
#109=VECTOR('',#392,10.);
#110=VECTOR('',#393,10.);
#111=VECTOR('',#394,10.);
#112=VECTOR('',#395,10.);
#113=VECTOR('',#398,10.);
#114=VECTOR('',#399,10.);
#115=VECTOR('',#400,10.);
#116=VECTOR('',#401,10.);
#117=VECTOR('',#404,10.);
#118=VECTOR('',#405,10.);
#119=VECTOR('',#408,10.);
#120=VECTOR('',#409,10.);
#121=VECTOR('',#410,10.);
#122=VECTOR('',#413,10.);
#123=VECTOR('',#414,10.);
#124=VECTOR('',#415,10.);
#125=VECTOR('',#416,10.);
#126=VECTOR('',#419,10.);
#127=VECTOR('',#420,10.);
#128=VECTOR('',#421,10.);
#129=VECTOR('',#422,10.);
#130=VECTOR('',#425,10.);
#131=VECTOR('',#426,10.);
#132=VECTOR('',#429,10.);
#133=VECTOR('',#430,10.);
#134=VECTOR('',#433,10.);
#135=VECTOR('',#436,10.);
#136=VECTOR('',#437,10.);
#137=VECTOR('',#438,10.);
#138=VECTOR('',#439,10.);
#139=VECTOR('',#442,10.);
#140=VECTOR('',#443,10.);
#141=VECTOR('',#444,10.);
#142=VECTOR('',#447,10.);
#143=VECTOR('',#448,10.);
#144=VECTOR('',#451,10.);
#145=VECTOR('',#452,10.);
#146=VECTOR('',#455,10.);
#147=VERTEX_POINT('',#460);
#148=VERTEX_POINT('',#461);
#149=VERTEX_POINT('',#463);
#150=VERTEX_POINT('',#465);
#151=VERTEX_POINT('',#469);
#152=VERTEX_POINT('',#471);
#153=VERTEX_POINT('',#475);
#154=VERTEX_POINT('',#477);
#155=VERTEX_POINT('',#479);
#156=VERTEX_POINT('',#483);
#157=VERTEX_POINT('',#485);
#158=VERTEX_POINT('',#487);
#159=VERTEX_POINT('',#491);
#160=VERTEX_POINT('',#496);
#161=VERTEX_POINT('',#500);
#162=VERTEX_POINT('',#501);
#163=VERTEX_POINT('',#503);
#164=VERTEX_POINT('',#505);
#165=VERTEX_POINT('',#510);
#166=VERTEX_POINT('',#512);
#167=VERTEX_POINT('',#516);
#168=VERTEX_POINT('',#520);
#169=VERTEX_POINT('',#526);
#170=VERTEX_POINT('',#527);
#171=VERTEX_POINT('',#529);
#172=VERTEX_POINT('',#531);
#173=VERTEX_POINT('',#535);
#174=VERTEX_POINT('',#537);
#175=VERTEX_POINT('',#541);
#176=VERTEX_POINT('',#545);
#177=EDGE_CURVE('',#147,#148,#57,.T.);
#178=EDGE_CURVE('',#147,#149,#58,.T.);
#179=EDGE_CURVE('',#149,#150,#59,.T.);
#180=EDGE_CURVE('',#148,#150,#60,.T.);
#181=EDGE_CURVE('',#151,#147,#61,.T.);
#182=EDGE_CURVE('',#152,#151,#62,.T.);
#183=EDGE_CURVE('',#152,#149,#63,.T.);
#184=EDGE_CURVE('',#153,#152,#64,.T.);
#185=EDGE_CURVE('',#154,#153,#65,.T.);
#186=EDGE_CURVE('',#155,#154,#66,.T.);
#187=EDGE_CURVE('',#150,#155,#67,.T.);
#188=EDGE_CURVE('',#155,#156,#68,.T.);
#189=EDGE_CURVE('',#157,#156,#69,.T.);
#190=EDGE_CURVE('',#158,#157,#70,.T.);
#191=EDGE_CURVE('',#148,#158,#71,.T.);
#192=EDGE_CURVE('',#154,#159,#72,.T.);
#193=EDGE_CURVE('',#156,#159,#73,.T.);
#194=EDGE_CURVE('',#158,#151,#74,.T.);
#195=EDGE_CURVE('',#160,#157,#75,.T.);
#196=EDGE_CURVE('',#153,#160,#76,.T.);
#197=EDGE_CURVE('',#161,#162,#77,.T.);
#198=EDGE_CURVE('',#163,#161,#78,.T.);
#199=EDGE_CURVE('',#164,#163,#79,.T.);
#200=EDGE_CURVE('',#162,#164,#80,.T.);
#201=EDGE_CURVE('',#159,#160,#81,.T.);
#202=EDGE_CURVE('',#165,#162,#82,.T.);
#203=EDGE_CURVE('',#164,#166,#83,.T.);
#204=EDGE_CURVE('',#166,#165,#84,.T.);
#205=EDGE_CURVE('',#166,#167,#85,.T.);
#206=EDGE_CURVE('',#167,#163,#86,.T.);
#207=EDGE_CURVE('',#161,#168,#87,.T.);
#208=EDGE_CURVE('',#168,#167,#88,.T.);
#209=EDGE_CURVE('',#168,#165,#89,.T.);
#210=EDGE_CURVE('',#169,#170,#90,.T.);
#211=EDGE_CURVE('',#170,#171,#91,.T.);
#212=EDGE_CURVE('',#171,#172,#92,.T.);
#213=EDGE_CURVE('',#172,#169,#93,.T.);
#214=EDGE_CURVE('',#170,#173,#94,.T.);
#215=EDGE_CURVE('',#174,#173,#95,.T.);
#216=EDGE_CURVE('',#171,#174,#96,.T.);
#217=EDGE_CURVE('',#169,#175,#97,.T.);
#218=EDGE_CURVE('',#173,#175,#98,.T.);
#219=EDGE_CURVE('',#176,#174,#99,.T.);
#220=EDGE_CURVE('',#172,#176,#100,.T.);
#221=EDGE_CURVE('',#175,#176,#101,.T.);
#222=ORIENTED_EDGE('',*,*,#177,.F.);
#223=ORIENTED_EDGE('',*,*,#178,.T.);
#224=ORIENTED_EDGE('',*,*,#179,.T.);
#225=ORIENTED_EDGE('',*,*,#180,.F.);
#226=ORIENTED_EDGE('',*,*,#181,.F.);
#227=ORIENTED_EDGE('',*,*,#182,.F.);
#228=ORIENTED_EDGE('',*,*,#183,.T.);
#229=ORIENTED_EDGE('',*,*,#178,.F.);
#230=ORIENTED_EDGE('',*,*,#184,.F.);
#231=ORIENTED_EDGE('',*,*,#185,.F.);
#232=ORIENTED_EDGE('',*,*,#186,.F.);
#233=ORIENTED_EDGE('',*,*,#187,.F.);
#234=ORIENTED_EDGE('',*,*,#179,.F.);
#235=ORIENTED_EDGE('',*,*,#183,.F.);
#236=ORIENTED_EDGE('',*,*,#180,.T.);
#237=ORIENTED_EDGE('',*,*,#187,.T.);
#238=ORIENTED_EDGE('',*,*,#188,.T.);
#239=ORIENTED_EDGE('',*,*,#189,.F.);
#240=ORIENTED_EDGE('',*,*,#190,.F.);
#241=ORIENTED_EDGE('',*,*,#191,.F.);
#242=ORIENTED_EDGE('',*,*,#186,.T.);
#243=ORIENTED_EDGE('',*,*,#192,.T.);
#244=ORIENTED_EDGE('',*,*,#193,.F.);
#245=ORIENTED_EDGE('',*,*,#188,.F.);
#246=ORIENTED_EDGE('',*,*,#184,.T.);
#247=ORIENTED_EDGE('',*,*,#182,.T.);
#248=ORIENTED_EDGE('',*,*,#194,.F.);
#249=ORIENTED_EDGE('',*,*,#190,.T.);
#250=ORIENTED_EDGE('',*,*,#195,.F.);
#251=ORIENTED_EDGE('',*,*,#196,.F.);
#252=ORIENTED_EDGE('',*,*,#197,.F.);
#253=ORIENTED_EDGE('',*,*,#198,.F.);
#254=ORIENTED_EDGE('',*,*,#199,.F.);
#255=ORIENTED_EDGE('',*,*,#200,.F.);
#256=ORIENTED_EDGE('',*,*,#195,.T.);
#257=ORIENTED_EDGE('',*,*,#189,.T.);
#258=ORIENTED_EDGE('',*,*,#193,.T.);
#259=ORIENTED_EDGE('',*,*,#201,.T.);
#260=ORIENTED_EDGE('',*,*,#202,.T.);
#261=ORIENTED_EDGE('',*,*,#200,.T.);
#262=ORIENTED_EDGE('',*,*,#203,.T.);
#263=ORIENTED_EDGE('',*,*,#204,.T.);
#264=ORIENTED_EDGE('',*,*,#205,.F.);
#265=ORIENTED_EDGE('',*,*,#203,.F.);
#266=ORIENTED_EDGE('',*,*,#199,.T.);
#267=ORIENTED_EDGE('',*,*,#206,.F.);
#268=ORIENTED_EDGE('',*,*,#177,.T.);
#269=ORIENTED_EDGE('',*,*,#191,.T.);
#270=ORIENTED_EDGE('',*,*,#194,.T.);
#271=ORIENTED_EDGE('',*,*,#181,.T.);
#272=ORIENTED_EDGE('',*,*,#207,.T.);
#273=ORIENTED_EDGE('',*,*,#208,.T.);
#274=ORIENTED_EDGE('',*,*,#206,.T.);
#275=ORIENTED_EDGE('',*,*,#198,.T.);
#276=ORIENTED_EDGE('',*,*,#209,.F.);
#277=ORIENTED_EDGE('',*,*,#207,.F.);
#278=ORIENTED_EDGE('',*,*,#197,.T.);
#279=ORIENTED_EDGE('',*,*,#202,.F.);
#280=ORIENTED_EDGE('',*,*,#209,.T.);
#281=ORIENTED_EDGE('',*,*,#204,.F.);
#282=ORIENTED_EDGE('',*,*,#205,.T.);
#283=ORIENTED_EDGE('',*,*,#208,.F.);
#284=ORIENTED_EDGE('',*,*,#210,.T.);
#285=ORIENTED_EDGE('',*,*,#211,.T.);
#286=ORIENTED_EDGE('',*,*,#212,.T.);
#287=ORIENTED_EDGE('',*,*,#213,.T.);
#288=ORIENTED_EDGE('',*,*,#214,.T.);
#289=ORIENTED_EDGE('',*,*,#215,.F.);
#290=ORIENTED_EDGE('',*,*,#216,.F.);
#291=ORIENTED_EDGE('',*,*,#211,.F.);
#292=ORIENTED_EDGE('',*,*,#217,.T.);
#293=ORIENTED_EDGE('',*,*,#218,.F.);
#294=ORIENTED_EDGE('',*,*,#214,.F.);
#295=ORIENTED_EDGE('',*,*,#210,.F.);
#296=ORIENTED_EDGE('',*,*,#216,.T.);
#297=ORIENTED_EDGE('',*,*,#219,.F.);
#298=ORIENTED_EDGE('',*,*,#220,.F.);
#299=ORIENTED_EDGE('',*,*,#212,.F.);
#300=ORIENTED_EDGE('',*,*,#220,.T.);
#301=ORIENTED_EDGE('',*,*,#221,.F.);
#302=ORIENTED_EDGE('',*,*,#217,.F.);
#303=ORIENTED_EDGE('',*,*,#213,.F.);
#304=ORIENTED_EDGE('',*,*,#185,.T.);
#305=ORIENTED_EDGE('',*,*,#196,.T.);
#306=ORIENTED_EDGE('',*,*,#201,.F.);
#307=ORIENTED_EDGE('',*,*,#192,.F.);
#308=ORIENTED_EDGE('',*,*,#218,.T.);
#309=ORIENTED_EDGE('',*,*,#221,.T.);
#310=ORIENTED_EDGE('',*,*,#219,.T.);
#311=ORIENTED_EDGE('',*,*,#215,.T.);
#312=PLANE('',#360);
#313=PLANE('',#361);
#314=PLANE('',#362);
#315=PLANE('',#363);
#316=PLANE('',#364);
#317=PLANE('',#365);
#318=PLANE('',#366);
#319=PLANE('',#367);
#320=PLANE('',#368);
#321=PLANE('',#369);
#322=PLANE('',#370);
#323=PLANE('',#371);
#324=PLANE('',#372);
#325=PLANE('',#373);
#326=PLANE('',#374);
#327=PLANE('',#375);
#328=PLANE('',#376);
#329=ADVANCED_FACE('',(#19),#312,.F.);
#330=ADVANCED_FACE('',(#20),#313,.F.);
#331=ADVANCED_FACE('',(#21),#314,.F.);
#332=ADVANCED_FACE('',(#22),#315,.T.);
#333=ADVANCED_FACE('',(#23),#316,.T.);
#334=ADVANCED_FACE('',(#24),#317,.T.);
#335=ADVANCED_FACE('',(#25),#318,.F.);
#336=ADVANCED_FACE('',(#26,#15),#319,.T.);
#337=ADVANCED_FACE('',(#27),#320,.F.);
#338=ADVANCED_FACE('',(#28,#16),#321,.F.);
#339=ADVANCED_FACE('',(#29),#322,.T.);
#340=ADVANCED_FACE('',(#30,#17),#323,.T.);
#341=ADVANCED_FACE('',(#31),#324,.F.);
#342=ADVANCED_FACE('',(#32),#325,.F.);
#343=ADVANCED_FACE('',(#33),#326,.F.);
#344=ADVANCED_FACE('',(#34),#327,.F.);
#345=ADVANCED_FACE('',(#35,#18),#328,.T.);
#346=CLOSED_SHELL('',(#329,#330,#331,#332,#333,#334,#335,#336,#337,#338,
#339,#340,#341,#342,#343,#344,#345));
#347=DERIVED_UNIT_ELEMENT(#349,1.);
#348=DERIVED_UNIT_ELEMENT(#556,-3.);
#349=(
MASS_UNIT()
NAMED_UNIT(*)
SI_UNIT(.KILO.,.GRAM.)
);
#350=DERIVED_UNIT((#347,#348));
#351=MEASURE_REPRESENTATION_ITEM('density measure',
POSITIVE_RATIO_MEASURE(7850.),#350);
#352=PROPERTY_DEFINITION_REPRESENTATION(#357,#354);
#353=PROPERTY_DEFINITION_REPRESENTATION(#358,#355);
#354=REPRESENTATION('material name',(#356),#553);
#355=REPRESENTATION('density',(#351),#553);
#356=DESCRIPTIVE_REPRESENTATION_ITEM('Steel','Steel');
#357=PROPERTY_DEFINITION('material property','material name',#563);
#358=PROPERTY_DEFINITION('material property','density of part',#563);
#359=AXIS2_PLACEMENT_3D('',#458,#377,#378);
#360=AXIS2_PLACEMENT_3D('',#459,#379,#380);
#361=AXIS2_PLACEMENT_3D('',#468,#385,#386);
#362=AXIS2_PLACEMENT_3D('',#474,#390,#391);
#363=AXIS2_PLACEMENT_3D('',#482,#396,#397);
#364=AXIS2_PLACEMENT_3D('',#490,#402,#403);
#365=AXIS2_PLACEMENT_3D('',#494,#406,#407);
#366=AXIS2_PLACEMENT_3D('',#499,#411,#412);
#367=AXIS2_PLACEMENT_3D('',#508,#417,#418);
#368=AXIS2_PLACEMENT_3D('',#515,#423,#424);
#369=AXIS2_PLACEMENT_3D('',#519,#427,#428);
#370=AXIS2_PLACEMENT_3D('',#523,#431,#432);
#371=AXIS2_PLACEMENT_3D('',#525,#434,#435);
#372=AXIS2_PLACEMENT_3D('',#534,#440,#441);
#373=AXIS2_PLACEMENT_3D('',#540,#445,#446);
#374=AXIS2_PLACEMENT_3D('',#544,#449,#450);
#375=AXIS2_PLACEMENT_3D('',#548,#453,#454);
#376=AXIS2_PLACEMENT_3D('',#550,#456,#457);
#377=DIRECTION('axis',(0.,0.,1.));
#378=DIRECTION('refdir',(1.,0.,0.));
#379=DIRECTION('center_axis',(0.,1.,0.));
#380=DIRECTION('ref_axis',(-1.,0.,0.));
#381=DIRECTION('',(-1.,0.,0.));
#382=DIRECTION('',(0.,0.,1.));
#383=DIRECTION('',(-1.,0.,0.));
#384=DIRECTION('',(0.,0.,1.));
#385=DIRECTION('center_axis',(-1.,0.,0.));
#386=DIRECTION('ref_axis',(0.,-1.,0.));
#387=DIRECTION('',(0.,-1.,0.));
#388=DIRECTION('',(0.,0.,-1.));
#389=DIRECTION('',(0.,-1.,0.));
#390=DIRECTION('center_axis',(0.,0.,1.));
#391=DIRECTION('ref_axis',(1.,0.,0.));
#392=DIRECTION('',(-1.,0.,0.));
#393=DIRECTION('',(0.,1.,0.));
#394=DIRECTION('',(1.,0.,0.));
#395=DIRECTION('',(0.,-1.,0.));
#396=DIRECTION('center_axis',(-1.,0.,0.));
#397=DIRECTION('ref_axis',(0.,-1.,0.));
#398=DIRECTION('',(0.,0.,1.));
#399=DIRECTION('',(0.,-1.,0.));
#400=DIRECTION('',(0.,0.,1.));
#401=DIRECTION('',(0.,1.,0.));
#402=DIRECTION('center_axis',(0.,-1.,0.));
#403=DIRECTION('ref_axis',(1.,0.,0.));
#404=DIRECTION('',(0.,0.,1.));
#405=DIRECTION('',(1.,0.,0.));
#406=DIRECTION('center_axis',(0.,1.,0.));
#407=DIRECTION('ref_axis',(-1.,0.,0.));
#408=DIRECTION('',(1.,0.,0.));
#409=DIRECTION('',(-1.,0.,0.));
#410=DIRECTION('',(0.,0.,1.));
#411=DIRECTION('center_axis',(-1.,0.,0.));
#412=DIRECTION('ref_axis',(0.,0.,1.));
#413=DIRECTION('',(0.,0.,1.));
#414=DIRECTION('',(0.,-1.,0.));
#415=DIRECTION('',(0.,0.,-1.));
#416=DIRECTION('',(0.,1.,0.));
#417=DIRECTION('center_axis',(0.,0.,1.));
#418=DIRECTION('ref_axis',(1.,0.,0.));
#419=DIRECTION('',(0.,1.,0.));
#420=DIRECTION('',(-1.,0.,0.));
#421=DIRECTION('',(1.,0.,0.));
#422=DIRECTION('',(0.,-1.,0.));
#423=DIRECTION('center_axis',(0.,1.,0.));
#424=DIRECTION('ref_axis',(0.,0.,1.));
#425=DIRECTION('',(0.,0.,-1.));
#426=DIRECTION('',(-1.,0.,0.));
#427=DIRECTION('center_axis',(0.,0.,1.));
#428=DIRECTION('ref_axis',(1.,0.,0.));
#429=DIRECTION('',(1.,0.,0.));
#430=DIRECTION('',(0.,1.,0.));
#431=DIRECTION('center_axis',(0.,1.,0.));
#432=DIRECTION('ref_axis',(0.,0.,1.));
#433=DIRECTION('',(0.,0.,1.));
#434=DIRECTION('center_axis',(-1.,0.,0.));
#435=DIRECTION('ref_axis',(0.,0.,1.));
#436=DIRECTION('',(0.,0.,-1.));
#437=DIRECTION('',(0.,1.,0.));
#438=DIRECTION('',(0.,0.,1.));
#439=DIRECTION('',(0.,-1.,0.));
#440=DIRECTION('center_axis',(0.,0.,-1.));
#441=DIRECTION('ref_axis',(0.,1.,0.));
#442=DIRECTION('',(1.,0.,0.));
#443=DIRECTION('',(0.,-1.,0.));
#444=DIRECTION('',(1.,0.,0.));
#445=DIRECTION('center_axis',(0.,-1.,0.));
#446=DIRECTION('ref_axis',(0.,0.,-1.));
#447=DIRECTION('',(1.,0.,0.));
#448=DIRECTION('',(0.,0.,1.));
#449=DIRECTION('center_axis',(0.,1.,0.));
#450=DIRECTION('ref_axis',(0.,0.,1.));
#451=DIRECTION('',(0.,0.,-1.));
#452=DIRECTION('',(1.,0.,0.));
#453=DIRECTION('center_axis',(0.,0.,1.));
#454=DIRECTION('ref_axis',(0.,-1.,0.));
#455=DIRECTION('',(0.,1.,0.));
#456=DIRECTION('center_axis',(1.,0.,0.));
#457=DIRECTION('ref_axis',(0.,1.,0.));
#458=CARTESIAN_POINT('',(0.,0.,0.));
#459=CARTESIAN_POINT('Origin',(-2.00000002980232,1.99999995529652,0.));
#460=CARTESIAN_POINT('',(-2.00000002980232,1.99999995529652,0.));
#461=CARTESIAN_POINT('',(-70.2,1.99999995529652,0.));
#462=CARTESIAN_POINT('',(-18.5500000149012,1.99999995529652,0.));
#463=CARTESIAN_POINT('',(-2.00000002980232,1.99999995529652,2.));
#464=CARTESIAN_POINT('',(-2.00000002980232,1.99999995529652,0.));
#465=CARTESIAN_POINT('',(-70.2,1.99999995529652,2.));
#466=CARTESIAN_POINT('',(0.,1.99999995529652,2.));
#467=CARTESIAN_POINT('',(-70.2,1.99999995529652,0.));
#468=CARTESIAN_POINT('Origin',(-2.00000002980232,69.1,0.));
#469=CARTESIAN_POINT('',(-2.00000002980232,69.1,0.));
#470=CARTESIAN_POINT('',(-2.00000002980232,51.825,0.));
#471=CARTESIAN_POINT('',(-2.00000002980232,69.1,2.));
#472=CARTESIAN_POINT('',(-2.00000002980232,69.1,0.));
#473=CARTESIAN_POINT('',(-2.00000002980232,69.1,2.));
#474=CARTESIAN_POINT('Origin',(-35.1,34.55,2.));
#475=CARTESIAN_POINT('',(0.,69.1,2.));
#476=CARTESIAN_POINT('',(-17.55,69.1,2.));
#477=CARTESIAN_POINT('',(0.,0.,2.));
#478=CARTESIAN_POINT('',(0.,17.275,2.));
#479=CARTESIAN_POINT('',(-70.2,0.,2.));
#480=CARTESIAN_POINT('',(-52.65,0.,2.));
#481=CARTESIAN_POINT('',(-70.2,51.825,2.));
#482=CARTESIAN_POINT('Origin',(-70.2,69.1,0.));
#483=CARTESIAN_POINT('',(-70.2,0.,10.));
#484=CARTESIAN_POINT('',(-70.2,0.,0.));
#485=CARTESIAN_POINT('',(-70.2,69.1,10.));
#486=CARTESIAN_POINT('',(-70.2,0.,10.));
#487=CARTESIAN_POINT('',(-70.2,69.1,0.));
#488=CARTESIAN_POINT('',(-70.2,69.1,0.));
#489=CARTESIAN_POINT('',(-70.2,0.,0.));
#490=CARTESIAN_POINT('Origin',(-70.2,0.,0.));
#491=CARTESIAN_POINT('',(0.,0.,10.));
#492=CARTESIAN_POINT('',(0.,0.,0.));
#493=CARTESIAN_POINT('',(0.,0.,10.));
#494=CARTESIAN_POINT('Origin',(0.,69.1,0.));
#495=CARTESIAN_POINT('',(-70.2,69.1,0.));
#496=CARTESIAN_POINT('',(0.,69.1,10.));
#497=CARTESIAN_POINT('',(-70.2,69.1,10.));
#498=CARTESIAN_POINT('',(0.,69.1,0.));
#499=CARTESIAN_POINT('Origin',(-55.7,10.3,10.));
#500=CARTESIAN_POINT('',(-55.7,10.,0.));
#501=CARTESIAN_POINT('',(-55.7,10.,10.));
#502=CARTESIAN_POINT('',(-55.7,10.,10.));
#503=CARTESIAN_POINT('',(-55.7,53.,0.));
#504=CARTESIAN_POINT('',(-55.7,22.425,0.));
#505=CARTESIAN_POINT('',(-55.7,53.,10.));
#506=CARTESIAN_POINT('',(-55.7,53.,10.));
#507=CARTESIAN_POINT('',(-55.7,22.425,10.));
#508=CARTESIAN_POINT('Origin',(-35.1,34.55,10.));
#509=CARTESIAN_POINT('',(0.,69.1,10.));
#510=CARTESIAN_POINT('',(-12.7,10.,10.));
#511=CARTESIAN_POINT('',(-45.3,10.,10.));
#512=CARTESIAN_POINT('',(-12.7,53.,10.));
#513=CARTESIAN_POINT('',(-45.3,53.,10.));
#514=CARTESIAN_POINT('',(-12.7,43.675,10.));
#515=CARTESIAN_POINT('Origin',(-56.,53.,10.));
#516=CARTESIAN_POINT('',(-12.7,53.,0.));
#517=CARTESIAN_POINT('',(-12.7,53.,10.));
#518=CARTESIAN_POINT('',(-45.3,53.,0.));
#519=CARTESIAN_POINT('Origin',(-35.1,34.55,0.));
#520=CARTESIAN_POINT('',(-12.7,10.,0.));
#521=CARTESIAN_POINT('',(-45.3,10.,0.));
#522=CARTESIAN_POINT('',(-12.7,43.675,0.));
#523=CARTESIAN_POINT('Origin',(-13.,10.,10.));
#524=CARTESIAN_POINT('',(-12.7,10.,10.));
#525=CARTESIAN_POINT('Origin',(-12.7,53.3,10.));
#526=CARTESIAN_POINT('',(-12.7,24.6,6.5));
#527=CARTESIAN_POINT('',(-12.7,24.6,3.5));
#528=CARTESIAN_POINT('',(-12.7,24.6,8.25));
#529=CARTESIAN_POINT('',(-12.7,38.9,3.5));
#530=CARTESIAN_POINT('',(-12.7,38.95,3.5));
#531=CARTESIAN_POINT('',(-12.7,38.9,6.5));
#532=CARTESIAN_POINT('',(-12.7,38.9,6.75));
#533=CARTESIAN_POINT('',(-12.7,46.1,6.5));
#534=CARTESIAN_POINT('Origin',(-56.,24.6,3.5));
#535=CARTESIAN_POINT('',(0.,24.6,3.5));
#536=CARTESIAN_POINT('',(-56.,24.6,3.5));
#537=CARTESIAN_POINT('',(0.,38.9,3.5));
#538=CARTESIAN_POINT('',(0.,12.3,3.5));
#539=CARTESIAN_POINT('',(-56.,38.9,3.5));
#540=CARTESIAN_POINT('Origin',(-56.,24.6,6.5));
#541=CARTESIAN_POINT('',(0.,24.6,6.5));
#542=CARTESIAN_POINT('',(-56.,24.6,6.5));
#543=CARTESIAN_POINT('',(0.,24.6,3.25));
#544=CARTESIAN_POINT('Origin',(-56.,38.9,3.5));
#545=CARTESIAN_POINT('',(0.,38.9,6.5));
#546=CARTESIAN_POINT('',(0.,38.9,1.75));
#547=CARTESIAN_POINT('',(-56.,38.9,6.5));
#548=CARTESIAN_POINT('Origin',(-56.,38.9,6.5));
#549=CARTESIAN_POINT('',(0.,19.45,6.5));
#550=CARTESIAN_POINT('Origin',(0.,0.,0.));
#551=UNCERTAINTY_MEASURE_WITH_UNIT(LENGTH_MEASURE(0.01),#555,
'DISTANCE_ACCURACY_VALUE',
'Maximum model space distance between geometric entities at asserted c
onnectivities');
#552=UNCERTAINTY_MEASURE_WITH_UNIT(LENGTH_MEASURE(0.01),#555,
'DISTANCE_ACCURACY_VALUE',
'Maximum model space distance between geometric entities at asserted c
onnectivities');
#553=(
GEOMETRIC_REPRESENTATION_CONTEXT(3)
GLOBAL_UNCERTAINTY_ASSIGNED_CONTEXT((#551))
GLOBAL_UNIT_ASSIGNED_CONTEXT((#555,#557,#558))
REPRESENTATION_CONTEXT('','3D')
);
#554=(
GEOMETRIC_REPRESENTATION_CONTEXT(3)
GLOBAL_UNCERTAINTY_ASSIGNED_CONTEXT((#552))
GLOBAL_UNIT_ASSIGNED_CONTEXT((#555,#557,#558))
REPRESENTATION_CONTEXT('','3D')
);
#555=(
LENGTH_UNIT()
NAMED_UNIT(*)
SI_UNIT(.MILLI.,.METRE.)
);
#556=(
LENGTH_UNIT()
NAMED_UNIT(*)
SI_UNIT($,.METRE.)
);
#557=(
NAMED_UNIT(*)
PLANE_ANGLE_UNIT()
SI_UNIT($,.RADIAN.)
);
#558=(
NAMED_UNIT(*)
SI_UNIT($,.STERADIAN.)
SOLID_ANGLE_UNIT()
);
#559=SHAPE_DEFINITION_REPRESENTATION(#560,#561);
#560=PRODUCT_DEFINITION_SHAPE('',$,#563);
#561=SHAPE_REPRESENTATION('',(#359),#553);
#562=PRODUCT_DEFINITION_CONTEXT('part definition',#567,'design');
#563=PRODUCT_DEFINITION('2026-09-26-21-41-31-144',
'stepper motor support',#564,#562);
#564=PRODUCT_DEFINITION_FORMATION('',$,#569);
#565=PRODUCT_RELATED_PRODUCT_CATEGORY('stepper motor support',
'stepper motor support',(#569));
#566=APPLICATION_PROTOCOL_DEFINITION('international standard',
'automotive_design',2009,#567);
#567=APPLICATION_CONTEXT(
'Core Data for Automotive Mechanical Design Process');
#568=PRODUCT_CONTEXT('part definition',#567,'mechanical');
#569=PRODUCT('2026-09-26-21-41-31-144','stepper motor support',$,(#568));
#570=PRESENTATION_STYLE_ASSIGNMENT((#571));
#571=SURFACE_STYLE_USAGE(.BOTH.,#572);
#572=SURFACE_SIDE_STYLE('',(#573));
#573=SURFACE_STYLE_FILL_AREA(#574);
#574=FILL_AREA_STYLE('Steel - Satin',(#575));
#575=FILL_AREA_STYLE_COLOUR('Steel - Satin',#576);
#576=COLOUR_RGB('Steel - Satin',0.627450980392157,0.627450980392157,0.627450980392157);
ENDSEC;
END-ISO-10303-21;
