ISO-10303-21;
HEADER;
/* Generated by software containing ST-Developer
 * from STEP Tools, Inc. (www.steptools.com) 
 */

FILE_DESCRIPTION(
/* description */ (''),
/* implementation_level */ '2;1');

FILE_NAME(
/* name */ 'wrist holder.step',
/* time_stamp */ '2026-09-26T21:39:15-07:00',
/* author */ (''),
/* organization */ (''),
/* preprocessor_version */ 'ST-DEVELOPER v20.2',
/* originating_system */ 'Autodesk Translation Framework v15.15.0.0',
/* authorisation */ '');

FILE_SCHEMA (('AUTOMOTIVE_DESIGN { 1 0 10303 214 3 1 1 }'));
ENDSEC;

DATA;
#10=MECHANICAL_DESIGN_GEOMETRIC_PRESENTATION_REPRESENTATION('',(#14,#15),
#1840);
#11=SHAPE_REPRESENTATION_RELATIONSHIP('SRR','None',#1847,#12);
#12=ADVANCED_BREP_SHAPE_REPRESENTATION('',(#16,#17),#1839);
#13=CONICAL_SURFACE('',#1209,11.,0.78539816339745);
#14=STYLED_ITEM('',(#1856),#16);
#15=STYLED_ITEM('',(#1856),#17);
#16=MANIFOLD_SOLID_BREP('servo connect (1) (1)',#1097);
#17=MANIFOLD_SOLID_BREP('servo connect (1) (1) (1)',#1098);
#18=FACE_BOUND('',#158,.T.);
#19=FACE_BOUND('',#179,.T.);
#20=FACE_BOUND('',#181,.T.);
#21=FACE_BOUND('',#182,.T.);
#22=FACE_BOUND('',#185,.T.);
#23=FACE_BOUND('',#196,.T.);
#24=FACE_BOUND('',#197,.T.);
#25=FACE_BOUND('',#198,.T.);
#26=FACE_BOUND('',#199,.T.);
#27=FACE_BOUND('',#200,.T.);
#28=FACE_BOUND('',#204,.T.);
#29=FACE_BOUND('',#205,.T.);
#30=FACE_BOUND('',#206,.T.);
#31=FACE_BOUND('',#207,.T.);
#32=FACE_BOUND('',#218,.T.);
#33=FACE_BOUND('',#229,.T.);
#34=FACE_BOUND('',#232,.T.);
#35=FACE_BOUND('',#235,.T.);
#36=FACE_BOUND('',#240,.T.);
#37=FACE_BOUND('',#242,.T.);
#38=PLANE('',#1115);
#39=PLANE('',#1119);
#40=PLANE('',#1120);
#41=PLANE('',#1121);
#42=PLANE('',#1122);
#43=PLANE('',#1123);
#44=PLANE('',#1124);
#45=PLANE('',#1125);
#46=PLANE('',#1126);
#47=PLANE('',#1127);
#48=PLANE('',#1128);
#49=PLANE('',#1129);
#50=PLANE('',#1130);
#51=PLANE('',#1131);
#52=PLANE('',#1132);
#53=PLANE('',#1133);
#54=PLANE('',#1134);
#55=PLANE('',#1137);
#56=PLANE('',#1138);
#57=PLANE('',#1139);
#58=PLANE('',#1141);
#59=PLANE('',#1150);
#60=PLANE('',#1151);
#61=PLANE('',#1152);
#62=PLANE('',#1155);
#63=PLANE('',#1156);
#64=PLANE('',#1157);
#65=PLANE('',#1164);
#66=PLANE('',#1170);
#67=PLANE('',#1171);
#68=PLANE('',#1172);
#69=PLANE('',#1173);
#70=PLANE('',#1174);
#71=PLANE('',#1175);
#72=PLANE('',#1176);
#73=PLANE('',#1177);
#74=PLANE('',#1178);
#75=PLANE('',#1179);
#76=PLANE('',#1180);
#77=PLANE('',#1181);
#78=PLANE('',#1182);
#79=PLANE('',#1185);
#80=PLANE('',#1187);
#81=PLANE('',#1189);
#82=PLANE('',#1191);
#83=PLANE('',#1197);
#84=PLANE('',#1201);
#85=PLANE('',#1206);
#86=PLANE('',#1213);
#87=PLANE('',#1215);
#88=FACE_OUTER_BOUND('',#156,.T.);
#89=FACE_OUTER_BOUND('',#157,.T.);
#90=FACE_OUTER_BOUND('',#159,.T.);
#91=FACE_OUTER_BOUND('',#160,.T.);
#92=FACE_OUTER_BOUND('',#161,.T.);
#93=FACE_OUTER_BOUND('',#162,.T.);
#94=FACE_OUTER_BOUND('',#163,.T.);
#95=FACE_OUTER_BOUND('',#164,.T.);
#96=FACE_OUTER_BOUND('',#165,.T.);
#97=FACE_OUTER_BOUND('',#166,.T.);
#98=FACE_OUTER_BOUND('',#167,.T.);
#99=FACE_OUTER_BOUND('',#168,.T.);
#100=FACE_OUTER_BOUND('',#169,.T.);
#101=FACE_OUTER_BOUND('',#170,.T.);
#102=FACE_OUTER_BOUND('',#171,.T.);
#103=FACE_OUTER_BOUND('',#172,.T.);
#104=FACE_OUTER_BOUND('',#173,.T.);
#105=FACE_OUTER_BOUND('',#174,.T.);
#106=FACE_OUTER_BOUND('',#175,.T.);
#107=FACE_OUTER_BOUND('',#176,.T.);
#108=FACE_OUTER_BOUND('',#177,.T.);
#109=FACE_OUTER_BOUND('',#178,.T.);
#110=FACE_OUTER_BOUND('',#180,.T.);
#111=FACE_OUTER_BOUND('',#183,.T.);
#112=FACE_OUTER_BOUND('',#184,.T.);
#113=FACE_OUTER_BOUND('',#186,.T.);
#114=FACE_OUTER_BOUND('',#187,.T.);
#115=FACE_OUTER_BOUND('',#188,.T.);
#116=FACE_OUTER_BOUND('',#189,.T.);
#117=FACE_OUTER_BOUND('',#190,.T.);
#118=FACE_OUTER_BOUND('',#191,.T.);
#119=FACE_OUTER_BOUND('',#192,.T.);
#120=FACE_OUTER_BOUND('',#193,.T.);
#121=FACE_OUTER_BOUND('',#194,.T.);
#122=FACE_OUTER_BOUND('',#195,.T.);
#123=FACE_OUTER_BOUND('',#201,.T.);
#124=FACE_OUTER_BOUND('',#202,.T.);
#125=FACE_OUTER_BOUND('',#203,.T.);
#126=FACE_OUTER_BOUND('',#208,.T.);
#127=FACE_OUTER_BOUND('',#209,.T.);
#128=FACE_OUTER_BOUND('',#210,.T.);
#129=FACE_OUTER_BOUND('',#211,.T.);
#130=FACE_OUTER_BOUND('',#212,.T.);
#131=FACE_OUTER_BOUND('',#213,.T.);
#132=FACE_OUTER_BOUND('',#214,.T.);
#133=FACE_OUTER_BOUND('',#215,.T.);
#134=FACE_OUTER_BOUND('',#216,.T.);
#135=FACE_OUTER_BOUND('',#217,.T.);
#136=FACE_OUTER_BOUND('',#219,.T.);
#137=FACE_OUTER_BOUND('',#220,.T.);
#138=FACE_OUTER_BOUND('',#221,.T.);
#139=FACE_OUTER_BOUND('',#222,.T.);
#140=FACE_OUTER_BOUND('',#223,.T.);
#141=FACE_OUTER_BOUND('',#224,.T.);
#142=FACE_OUTER_BOUND('',#225,.T.);
#143=FACE_OUTER_BOUND('',#226,.T.);
#144=FACE_OUTER_BOUND('',#227,.T.);
#145=FACE_OUTER_BOUND('',#228,.T.);
#146=FACE_OUTER_BOUND('',#230,.T.);
#147=FACE_OUTER_BOUND('',#231,.T.);
#148=FACE_OUTER_BOUND('',#233,.T.);
#149=FACE_OUTER_BOUND('',#234,.T.);
#150=FACE_OUTER_BOUND('',#236,.T.);
#151=FACE_OUTER_BOUND('',#237,.T.);
#152=FACE_OUTER_BOUND('',#238,.T.);
#153=FACE_OUTER_BOUND('',#239,.T.);
#154=FACE_OUTER_BOUND('',#241,.T.);
#155=FACE_OUTER_BOUND('',#243,.T.);
#156=EDGE_LOOP('',(#724,#725,#726,#727));
#157=EDGE_LOOP('',(#728));
#158=EDGE_LOOP('',(#729));
#159=EDGE_LOOP('',(#730,#731,#732,#733));
#160=EDGE_LOOP('',(#734,#735,#736,#737));
#161=EDGE_LOOP('',(#738,#739,#740,#741));
#162=EDGE_LOOP('',(#742,#743,#744));
#163=EDGE_LOOP('',(#745,#746,#747));
#164=EDGE_LOOP('',(#748,#749,#750,#751));
#165=EDGE_LOOP('',(#752,#753,#754));
#166=EDGE_LOOP('',(#755,#756,#757,#758));
#167=EDGE_LOOP('',(#759,#760,#761));
#168=EDGE_LOOP('',(#762,#763,#764,#765));
#169=EDGE_LOOP('',(#766,#767,#768,#769));
#170=EDGE_LOOP('',(#770,#771,#772,#773));
#171=EDGE_LOOP('',(#774,#775,#776,#777));
#172=EDGE_LOOP('',(#778,#779,#780,#781));
#173=EDGE_LOOP('',(#782,#783,#784,#785));
#174=EDGE_LOOP('',(#786,#787,#788,#789));
#175=EDGE_LOOP('',(#790,#791,#792,#793,#794,#795,#796,#797));
#176=EDGE_LOOP('',(#798,#799,#800,#801));
#177=EDGE_LOOP('',(#802,#803,#804,#805,#806,#807,#808,#809));
#178=EDGE_LOOP('',(#810,#811,#812,#813));
#179=EDGE_LOOP('',(#814));
#180=EDGE_LOOP('',(#815,#816,#817,#818,#819,#820,#821,#822,#823,#824,#825,
#826,#827,#828,#829,#830,#831,#832));
#181=EDGE_LOOP('',(#833));
#182=EDGE_LOOP('',(#834));
#183=EDGE_LOOP('',(#835,#836,#837,#838));
#184=EDGE_LOOP('',(#839,#840,#841,#842));
#185=EDGE_LOOP('',(#843));
#186=EDGE_LOOP('',(#844,#845,#846,#847));
#187=EDGE_LOOP('',(#848,#849,#850,#851));
#188=EDGE_LOOP('',(#852,#853,#854,#855,#856,#857,#858,#859));
#189=EDGE_LOOP('',(#860,#861,#862,#863,#864,#865,#866,#867));
#190=EDGE_LOOP('',(#868,#869,#870,#871));
#191=EDGE_LOOP('',(#872,#873,#874,#875));
#192=EDGE_LOOP('',(#876,#877,#878,#879));
#193=EDGE_LOOP('',(#880,#881,#882,#883));
#194=EDGE_LOOP('',(#884,#885,#886,#887,#888,#889,#890,#891));
#195=EDGE_LOOP('',(#892));
#196=EDGE_LOOP('',(#893));
#197=EDGE_LOOP('',(#894));
#198=EDGE_LOOP('',(#895));
#199=EDGE_LOOP('',(#896));
#200=EDGE_LOOP('',(#897));
#201=EDGE_LOOP('',(#898,#899,#900,#901));
#202=EDGE_LOOP('',(#902,#903,#904,#905));
#203=EDGE_LOOP('',(#906,#907,#908,#909));
#204=EDGE_LOOP('',(#910));
#205=EDGE_LOOP('',(#911));
#206=EDGE_LOOP('',(#912));
#207=EDGE_LOOP('',(#913));
#208=EDGE_LOOP('',(#914,#915,#916,#917));
#209=EDGE_LOOP('',(#918,#919,#920));
#210=EDGE_LOOP('',(#921,#922,#923));
#211=EDGE_LOOP('',(#924,#925,#926));
#212=EDGE_LOOP('',(#927,#928,#929));
#213=EDGE_LOOP('',(#930,#931,#932,#933));
#214=EDGE_LOOP('',(#934,#935,#936,#937));
#215=EDGE_LOOP('',(#938,#939,#940,#941));
#216=EDGE_LOOP('',(#942,#943,#944,#945));
#217=EDGE_LOOP('',(#946,#947,#948,#949));
#218=EDGE_LOOP('',(#950));
#219=EDGE_LOOP('',(#951,#952,#953,#954));
#220=EDGE_LOOP('',(#955));
#221=EDGE_LOOP('',(#956));
#222=EDGE_LOOP('',(#957));
#223=EDGE_LOOP('',(#958));
#224=EDGE_LOOP('',(#959,#960,#961,#962));
#225=EDGE_LOOP('',(#963,#964,#965,#966));
#226=EDGE_LOOP('',(#967,#968,#969,#970));
#227=EDGE_LOOP('',(#971,#972,#973,#974));
#228=EDGE_LOOP('',(#975,#976,#977,#978));
#229=EDGE_LOOP('',(#979));
#230=EDGE_LOOP('',(#980,#981,#982,#983));
#231=EDGE_LOOP('',(#984));
#232=EDGE_LOOP('',(#985));
#233=EDGE_LOOP('',(#986,#987,#988,#989));
#234=EDGE_LOOP('',(#990));
#235=EDGE_LOOP('',(#991));
#236=EDGE_LOOP('',(#992,#993,#994,#995));
#237=EDGE_LOOP('',(#996,#997,#998,#999));
#238=EDGE_LOOP('',(#1000,#1001,#1002,#1003));
#239=EDGE_LOOP('',(#1004));
#240=EDGE_LOOP('',(#1005));
#241=EDGE_LOOP('',(#1006));
#242=EDGE_LOOP('',(#1007));
#243=EDGE_LOOP('',(#1008,#1009,#1010,#1011));
#244=LINE('',#1543,#350);
#245=LINE('',#1551,#351);
#246=LINE('',#1555,#352);
#247=LINE('',#1557,#353);
#248=LINE('',#1559,#354);
#249=LINE('',#1560,#355);
#250=LINE('',#1563,#356);
#251=LINE('',#1565,#357);
#252=LINE('',#1566,#358);
#253=LINE('',#1570,#359);
#254=LINE('',#1572,#360);
#255=LINE('',#1573,#361);
#256=LINE('',#1577,#362);
#257=LINE('',#1579,#363);
#258=LINE('',#1580,#364);
#259=LINE('',#1583,#365);
#260=LINE('',#1585,#366);
#261=LINE('',#1586,#367);
#262=LINE('',#1590,#368);
#263=LINE('',#1592,#369);
#264=LINE('',#1593,#370);
#265=LINE('',#1595,#371);
#266=LINE('',#1596,#372);
#267=LINE('',#1600,#373);
#268=LINE('',#1602,#374);
#269=LINE('',#1603,#375);
#270=LINE('',#1606,#376);
#271=LINE('',#1608,#377);
#272=LINE('',#1609,#378);
#273=LINE('',#1611,#379);
#274=LINE('',#1612,#380);
#275=LINE('',#1614,#381);
#276=LINE('',#1615,#382);
#277=LINE('',#1617,#383);
#278=LINE('',#1618,#384);
#279=LINE('',#1621,#385);
#280=LINE('',#1623,#386);
#281=LINE('',#1624,#387);
#282=LINE('',#1626,#388);
#283=LINE('',#1627,#389);
#284=LINE('',#1630,#390);
#285=LINE('',#1632,#391);
#286=LINE('',#1633,#392);
#287=LINE('',#1636,#393);
#288=LINE('',#1640,#394);
#289=LINE('',#1642,#395);
#290=LINE('',#1644,#396);
#291=LINE('',#1648,#397);
#292=LINE('',#1649,#398);
#293=LINE('',#1652,#399);
#294=LINE('',#1653,#400);
#295=LINE('',#1657,#401);
#296=LINE('',#1659,#402);
#297=LINE('',#1661,#403);
#298=LINE('',#1662,#404);
#299=LINE('',#1671,#405);
#300=LINE('',#1672,#406);
#301=LINE('',#1674,#407);
#302=LINE('',#1676,#408);
#303=LINE('',#1678,#409);
#304=LINE('',#1680,#410);
#305=LINE('',#1684,#411);
#306=LINE('',#1691,#412);
#307=LINE('',#1695,#413);
#308=LINE('',#1697,#414);
#309=LINE('',#1698,#415);
#310=LINE('',#1700,#416);
#311=LINE('',#1701,#417);
#312=LINE('',#1703,#418);
#313=LINE('',#1704,#419);
#314=LINE('',#1707,#420);
#315=LINE('',#1710,#421);
#316=LINE('',#1712,#422);
#317=LINE('',#1716,#423);
#318=LINE('',#1720,#424);
#319=LINE('',#1724,#425);
#320=LINE('',#1739,#426);
#321=LINE('',#1740,#427);
#322=LINE('',#1743,#428);
#323=LINE('',#1744,#429);
#324=LINE('',#1747,#430);
#325=LINE('',#1748,#431);
#326=LINE('',#1750,#432);
#327=LINE('',#1753,#433);
#328=LINE('',#1754,#434);
#329=LINE('',#1757,#435);
#330=LINE('',#1758,#436);
#331=LINE('',#1761,#437);
#332=LINE('',#1762,#438);
#333=LINE('',#1765,#439);
#334=LINE('',#1766,#440);
#335=LINE('',#1768,#441);
#336=LINE('',#1770,#442);
#337=LINE('',#1772,#443);
#338=LINE('',#1774,#444);
#339=LINE('',#1779,#445);
#340=LINE('',#1793,#446);
#341=LINE('',#1795,#447);
#342=LINE('',#1797,#448);
#343=LINE('',#1799,#449);
#344=LINE('',#1805,#450);
#345=LINE('',#1814,#451);
#346=LINE('',#1819,#452);
#347=LINE('',#1823,#453);
#348=LINE('',#1828,#454);
#349=LINE('',#1836,#455);
#350=VECTOR('',#1224,3.59999999999999);
#351=VECTOR('',#1235,12.5);
#352=VECTOR('',#1238,10.);
#353=VECTOR('',#1239,10.);
#354=VECTOR('',#1240,10.);
#355=VECTOR('',#1241,10.);
#356=VECTOR('',#1244,10.);
#357=VECTOR('',#1245,10.);
#358=VECTOR('',#1246,10.);
#359=VECTOR('',#1249,10.);
#360=VECTOR('',#1250,10.);
#361=VECTOR('',#1251,10.);
#362=VECTOR('',#1254,10.);
#363=VECTOR('',#1255,10.);
#364=VECTOR('',#1256,10.);
#365=VECTOR('',#1259,10.);
#366=VECTOR('',#1260,10.);
#367=VECTOR('',#1261,10.);
#368=VECTOR('',#1264,10.);
#369=VECTOR('',#1265,10.);
#370=VECTOR('',#1266,10.);
#371=VECTOR('',#1269,10.);
#372=VECTOR('',#1270,10.);
#373=VECTOR('',#1273,10.);
#374=VECTOR('',#1274,10.);
#375=VECTOR('',#1275,10.);
#376=VECTOR('',#1278,10.);
#377=VECTOR('',#1279,10.);
#378=VECTOR('',#1280,10.);
#379=VECTOR('',#1283,10.);
#380=VECTOR('',#1284,10.);
#381=VECTOR('',#1287,10.);
#382=VECTOR('',#1288,10.);
#383=VECTOR('',#1291,10.);
#384=VECTOR('',#1292,10.);
#385=VECTOR('',#1295,10.);
#386=VECTOR('',#1296,10.);
#387=VECTOR('',#1297,10.);
#388=VECTOR('',#1300,10.);
#389=VECTOR('',#1301,10.);
#390=VECTOR('',#1304,10.);
#391=VECTOR('',#1305,10.);
#392=VECTOR('',#1306,10.);
#393=VECTOR('',#1309,10.);
#394=VECTOR('',#1312,10.);
#395=VECTOR('',#1313,10.);
#396=VECTOR('',#1314,10.);
#397=VECTOR('',#1319,10.);
#398=VECTOR('',#1320,10.);
#399=VECTOR('',#1323,10.);
#400=VECTOR('',#1324,10.);
#401=VECTOR('',#1327,10.);
#402=VECTOR('',#1328,10.);
#403=VECTOR('',#1329,10.);
#404=VECTOR('',#1330,10.);
#405=VECTOR('',#1339,10.);
#406=VECTOR('',#1340,10.);
#407=VECTOR('',#1341,10.);
#408=VECTOR('',#1342,10.);
#409=VECTOR('',#1343,10.);
#410=VECTOR('',#1344,10.);
#411=VECTOR('',#1349,10.);
#412=VECTOR('',#1356,1.50000000000002);
#413=VECTOR('',#1361,10.);
#414=VECTOR('',#1362,10.);
#415=VECTOR('',#1363,10.);
#416=VECTOR('',#1366,10.);
#417=VECTOR('',#1367,10.);
#418=VECTOR('',#1370,10.);
#419=VECTOR('',#1371,10.);
#420=VECTOR('',#1374,2.5);
#421=VECTOR('',#1379,10.);
#422=VECTOR('',#1382,10.);
#423=VECTOR('',#1387,2.5);
#424=VECTOR('',#1392,2.5);
#425=VECTOR('',#1397,2.5);
#426=VECTOR('',#1414,10.);
#427=VECTOR('',#1415,10.);
#428=VECTOR('',#1418,10.);
#429=VECTOR('',#1419,10.);
#430=VECTOR('',#1422,10.);
#431=VECTOR('',#1423,10.);
#432=VECTOR('',#1426,10.);
#433=VECTOR('',#1429,10.);
#434=VECTOR('',#1430,10.);
#435=VECTOR('',#1433,10.);
#436=VECTOR('',#1434,10.);
#437=VECTOR('',#1437,10.);
#438=VECTOR('',#1438,10.);
#439=VECTOR('',#1441,10.);
#440=VECTOR('',#1442,10.);
#441=VECTOR('',#1445,10.);
#442=VECTOR('',#1448,10.);
#443=VECTOR('',#1451,10.);
#444=VECTOR('',#1454,10.);
#445=VECTOR('',#1461,10.5);
#446=VECTOR('',#1480,0.600000000000023);
#447=VECTOR('',#1483,0.600000000000023);
#448=VECTOR('',#1486,0.599999999999987);
#449=VECTOR('',#1489,0.599999999999987);
#450=VECTOR('',#1496,3.49999999999998);
#451=VECTOR('',#1507,12.5);
#452=VECTOR('',#1514,1.6);
#453=VECTOR('',#1519,11.);
#454=VECTOR('',#1526,9.49999999999999);
#455=VECTOR('',#1537,4.90000000000002);
#456=CIRCLE('',#1113,3.59999999999999);
#457=CIRCLE('',#1114,3.59999999999999);
#458=CIRCLE('',#1116,12.5);
#459=CIRCLE('',#1118,12.5);
#460=CIRCLE('',#1135,2.5);
#461=CIRCLE('',#1136,2.5);
#462=CIRCLE('',#1140,1.50000000000002);
#463=CIRCLE('',#1142,2.5);
#464=CIRCLE('',#1143,2.5);
#465=CIRCLE('',#1144,2.5);
#466=CIRCLE('',#1145,2.5);
#467=CIRCLE('',#1146,2.5);
#468=CIRCLE('',#1147,2.5);
#469=CIRCLE('',#1149,1.50000000000002);
#470=CIRCLE('',#1154,2.5);
#471=CIRCLE('',#1159,2.5);
#472=CIRCLE('',#1161,2.5);
#473=CIRCLE('',#1163,2.5);
#474=CIRCLE('',#1165,10.5);
#475=CIRCLE('',#1166,0.599999999999987);
#476=CIRCLE('',#1167,0.599999999999987);
#477=CIRCLE('',#1168,0.600000000000023);
#478=CIRCLE('',#1169,0.600000000000023);
#479=CIRCLE('',#1183,10.5);
#480=CIRCLE('',#1186,0.600000000000023);
#481=CIRCLE('',#1188,0.600000000000023);
#482=CIRCLE('',#1190,0.599999999999987);
#483=CIRCLE('',#1192,0.599999999999987);
#484=CIRCLE('',#1199,3.49999999999998);
#485=CIRCLE('',#1200,3.49999999999998);
#486=CIRCLE('',#1202,1.6);
#487=CIRCLE('',#1204,12.5);
#488=CIRCLE('',#1205,12.5);
#489=CIRCLE('',#1208,1.6);
#490=CIRCLE('',#1210,9.49999999999999);
#491=CIRCLE('',#1212,9.49999999999999);
#492=CIRCLE('',#1214,4.90000000000002);
#493=CIRCLE('',#1216,4.90000000000002);
#494=VERTEX_POINT('',#1540);
#495=VERTEX_POINT('',#1542);
#496=VERTEX_POINT('',#1546);
#497=VERTEX_POINT('',#1549);
#498=VERTEX_POINT('',#1553);
#499=VERTEX_POINT('',#1554);
#500=VERTEX_POINT('',#1556);
#501=VERTEX_POINT('',#1558);
#502=VERTEX_POINT('',#1562);
#503=VERTEX_POINT('',#1564);
#504=VERTEX_POINT('',#1568);
#505=VERTEX_POINT('',#1569);
#506=VERTEX_POINT('',#1571);
#507=VERTEX_POINT('',#1575);
#508=VERTEX_POINT('',#1576);
#509=VERTEX_POINT('',#1578);
#510=VERTEX_POINT('',#1582);
#511=VERTEX_POINT('',#1584);
#512=VERTEX_POINT('',#1588);
#513=VERTEX_POINT('',#1589);
#514=VERTEX_POINT('',#1591);
#515=VERTEX_POINT('',#1598);
#516=VERTEX_POINT('',#1599);
#517=VERTEX_POINT('',#1601);
#518=VERTEX_POINT('',#1605);
#519=VERTEX_POINT('',#1607);
#520=VERTEX_POINT('',#1620);
#521=VERTEX_POINT('',#1622);
#522=VERTEX_POINT('',#1629);
#523=VERTEX_POINT('',#1631);
#524=VERTEX_POINT('',#1635);
#525=VERTEX_POINT('',#1637);
#526=VERTEX_POINT('',#1639);
#527=VERTEX_POINT('',#1641);
#528=VERTEX_POINT('',#1643);
#529=VERTEX_POINT('',#1647);
#530=VERTEX_POINT('',#1651);
#531=VERTEX_POINT('',#1655);
#532=VERTEX_POINT('',#1656);
#533=VERTEX_POINT('',#1658);
#534=VERTEX_POINT('',#1660);
#535=VERTEX_POINT('',#1663);
#536=VERTEX_POINT('',#1666);
#537=VERTEX_POINT('',#1668);
#538=VERTEX_POINT('',#1670);
#539=VERTEX_POINT('',#1673);
#540=VERTEX_POINT('',#1675);
#541=VERTEX_POINT('',#1677);
#542=VERTEX_POINT('',#1679);
#543=VERTEX_POINT('',#1681);
#544=VERTEX_POINT('',#1685);
#545=VERTEX_POINT('',#1687);
#546=VERTEX_POINT('',#1690);
#547=VERTEX_POINT('',#1694);
#548=VERTEX_POINT('',#1696);
#549=VERTEX_POINT('',#1706);
#550=VERTEX_POINT('',#1715);
#551=VERTEX_POINT('',#1719);
#552=VERTEX_POINT('',#1723);
#553=VERTEX_POINT('',#1727);
#554=VERTEX_POINT('',#1729);
#555=VERTEX_POINT('',#1731);
#556=VERTEX_POINT('',#1733);
#557=VERTEX_POINT('',#1735);
#558=VERTEX_POINT('',#1738);
#559=VERTEX_POINT('',#1742);
#560=VERTEX_POINT('',#1746);
#561=VERTEX_POINT('',#1752);
#562=VERTEX_POINT('',#1756);
#563=VERTEX_POINT('',#1760);
#564=VERTEX_POINT('',#1764);
#565=VERTEX_POINT('',#1776);
#566=VERTEX_POINT('',#1781);
#567=VERTEX_POINT('',#1784);
#568=VERTEX_POINT('',#1787);
#569=VERTEX_POINT('',#1790);
#570=VERTEX_POINT('',#1802);
#571=VERTEX_POINT('',#1804);
#572=VERTEX_POINT('',#1808);
#573=VERTEX_POINT('',#1811);
#574=VERTEX_POINT('',#1813);
#575=VERTEX_POINT('',#1818);
#576=VERTEX_POINT('',#1822);
#577=VERTEX_POINT('',#1826);
#578=VERTEX_POINT('',#1830);
#579=VERTEX_POINT('',#1833);
#580=EDGE_CURVE('',#494,#494,#456,.T.);
#581=EDGE_CURVE('',#494,#495,#244,.T.);
#582=EDGE_CURVE('',#495,#495,#457,.T.);
#583=EDGE_CURVE('',#496,#496,#458,.T.);
#584=EDGE_CURVE('',#497,#497,#459,.T.);
#585=EDGE_CURVE('',#497,#496,#245,.T.);
#586=EDGE_CURVE('',#498,#499,#246,.T.);
#587=EDGE_CURVE('',#499,#500,#247,.T.);
#588=EDGE_CURVE('',#500,#501,#248,.T.);
#589=EDGE_CURVE('',#498,#501,#249,.T.);
#590=EDGE_CURVE('',#502,#498,#250,.T.);
#591=EDGE_CURVE('',#501,#503,#251,.T.);
#592=EDGE_CURVE('',#503,#502,#252,.T.);
#593=EDGE_CURVE('',#504,#505,#253,.T.);
#594=EDGE_CURVE('',#506,#504,#254,.T.);
#595=EDGE_CURVE('',#505,#506,#255,.T.);
#596=EDGE_CURVE('',#507,#508,#256,.T.);
#597=EDGE_CURVE('',#509,#507,#257,.T.);
#598=EDGE_CURVE('',#508,#509,#258,.T.);
#599=EDGE_CURVE('',#510,#509,#259,.T.);
#600=EDGE_CURVE('',#507,#511,#260,.T.);
#601=EDGE_CURVE('',#511,#510,#261,.T.);
#602=EDGE_CURVE('',#512,#513,#262,.T.);
#603=EDGE_CURVE('',#514,#512,#263,.T.);
#604=EDGE_CURVE('',#513,#514,#264,.T.);
#605=EDGE_CURVE('',#505,#513,#265,.T.);
#606=EDGE_CURVE('',#514,#504,#266,.T.);
#607=EDGE_CURVE('',#515,#516,#267,.T.);
#608=EDGE_CURVE('',#517,#515,#268,.T.);
#609=EDGE_CURVE('',#516,#517,#269,.T.);
#610=EDGE_CURVE('',#518,#517,#270,.T.);
#611=EDGE_CURVE('',#515,#519,#271,.T.);
#612=EDGE_CURVE('',#519,#518,#272,.T.);
#613=EDGE_CURVE('',#513,#516,#273,.T.);
#614=EDGE_CURVE('',#517,#512,#274,.T.);
#615=EDGE_CURVE('',#516,#508,#275,.T.);
#616=EDGE_CURVE('',#509,#515,#276,.T.);
#617=EDGE_CURVE('',#508,#505,#277,.T.);
#618=EDGE_CURVE('',#506,#507,#278,.T.);
#619=EDGE_CURVE('',#520,#518,#279,.T.);
#620=EDGE_CURVE('',#519,#521,#280,.T.);
#621=EDGE_CURVE('',#521,#520,#281,.T.);
#622=EDGE_CURVE('',#499,#520,#282,.T.);
#623=EDGE_CURVE('',#521,#500,#283,.T.);
#624=EDGE_CURVE('',#500,#522,#284,.T.);
#625=EDGE_CURVE('',#522,#523,#285,.T.);
#626=EDGE_CURVE('',#501,#523,#286,.T.);
#627=EDGE_CURVE('',#524,#521,#287,.T.);
#628=EDGE_CURVE('',#524,#525,#460,.T.);
#629=EDGE_CURVE('',#526,#525,#288,.T.);
#630=EDGE_CURVE('',#527,#526,#289,.T.);
#631=EDGE_CURVE('',#528,#527,#290,.T.);
#632=EDGE_CURVE('',#528,#522,#461,.T.);
#633=EDGE_CURVE('',#529,#519,#291,.T.);
#634=EDGE_CURVE('',#524,#529,#292,.T.);
#635=EDGE_CURVE('',#512,#530,#293,.T.);
#636=EDGE_CURVE('',#530,#502,#294,.T.);
#637=EDGE_CURVE('',#531,#532,#295,.T.);
#638=EDGE_CURVE('',#533,#531,#296,.T.);
#639=EDGE_CURVE('',#534,#533,#297,.T.);
#640=EDGE_CURVE('',#532,#534,#298,.T.);
#641=EDGE_CURVE('',#535,#535,#462,.T.);
#642=EDGE_CURVE('',#523,#536,#463,.T.);
#643=EDGE_CURVE('',#536,#537,#464,.T.);
#644=EDGE_CURVE('',#537,#538,#299,.T.);
#645=EDGE_CURVE('',#532,#538,#300,.T.);
#646=EDGE_CURVE('',#534,#539,#301,.T.);
#647=EDGE_CURVE('',#540,#539,#302,.T.);
#648=EDGE_CURVE('',#541,#540,#303,.T.);
#649=EDGE_CURVE('',#541,#542,#304,.T.);
#650=EDGE_CURVE('',#542,#543,#465,.T.);
#651=EDGE_CURVE('',#543,#529,#466,.T.);
#652=EDGE_CURVE('',#503,#510,#305,.T.);
#653=EDGE_CURVE('',#544,#544,#467,.T.);
#654=EDGE_CURVE('',#545,#545,#468,.T.);
#655=EDGE_CURVE('',#535,#546,#306,.T.);
#656=EDGE_CURVE('',#546,#546,#469,.T.);
#657=EDGE_CURVE('',#547,#540,#307,.T.);
#658=EDGE_CURVE('',#539,#548,#308,.T.);
#659=EDGE_CURVE('',#548,#547,#309,.T.);
#660=EDGE_CURVE('',#528,#537,#310,.T.);
#661=EDGE_CURVE('',#538,#527,#311,.T.);
#662=EDGE_CURVE('',#525,#542,#312,.T.);
#663=EDGE_CURVE('',#526,#541,#313,.T.);
#664=EDGE_CURVE('',#543,#549,#314,.T.);
#665=EDGE_CURVE('',#549,#549,#470,.T.);
#666=EDGE_CURVE('',#531,#547,#315,.T.);
#667=EDGE_CURVE('',#533,#548,#316,.T.);
#668=EDGE_CURVE('',#545,#550,#317,.T.);
#669=EDGE_CURVE('',#550,#550,#471,.T.);
#670=EDGE_CURVE('',#544,#551,#318,.T.);
#671=EDGE_CURVE('',#551,#551,#472,.T.);
#672=EDGE_CURVE('',#536,#552,#319,.T.);
#673=EDGE_CURVE('',#552,#552,#473,.T.);
#674=EDGE_CURVE('',#553,#553,#474,.T.);
#675=EDGE_CURVE('',#554,#554,#475,.T.);
#676=EDGE_CURVE('',#555,#555,#476,.T.);
#677=EDGE_CURVE('',#556,#556,#477,.T.);
#678=EDGE_CURVE('',#557,#557,#478,.T.);
#679=EDGE_CURVE('',#558,#506,#320,.T.);
#680=EDGE_CURVE('',#511,#558,#321,.T.);
#681=EDGE_CURVE('',#504,#559,#322,.T.);
#682=EDGE_CURVE('',#559,#558,#323,.T.);
#683=EDGE_CURVE('',#560,#514,#324,.T.);
#684=EDGE_CURVE('',#559,#560,#325,.T.);
#685=EDGE_CURVE('',#530,#560,#326,.T.);
#686=EDGE_CURVE('',#558,#561,#327,.T.);
#687=EDGE_CURVE('',#561,#559,#328,.T.);
#688=EDGE_CURVE('',#502,#562,#329,.T.);
#689=EDGE_CURVE('',#562,#503,#330,.T.);
#690=EDGE_CURVE('',#510,#563,#331,.T.);
#691=EDGE_CURVE('',#563,#511,#332,.T.);
#692=EDGE_CURVE('',#560,#564,#333,.T.);
#693=EDGE_CURVE('',#564,#530,#334,.T.);
#694=EDGE_CURVE('',#562,#564,#335,.T.);
#695=EDGE_CURVE('',#564,#561,#336,.T.);
#696=EDGE_CURVE('',#561,#563,#337,.T.);
#697=EDGE_CURVE('',#563,#562,#338,.T.);
#698=EDGE_CURVE('',#565,#565,#479,.T.);
#699=EDGE_CURVE('',#565,#553,#339,.T.);
#700=EDGE_CURVE('',#566,#566,#480,.T.);
#701=EDGE_CURVE('',#567,#567,#481,.T.);
#702=EDGE_CURVE('',#568,#568,#482,.T.);
#703=EDGE_CURVE('',#569,#569,#483,.T.);
#704=EDGE_CURVE('',#566,#557,#340,.T.);
#705=EDGE_CURVE('',#567,#556,#341,.T.);
#706=EDGE_CURVE('',#568,#555,#342,.T.);
#707=EDGE_CURVE('',#569,#554,#343,.T.);
#708=EDGE_CURVE('',#570,#570,#484,.T.);
#709=EDGE_CURVE('',#570,#571,#344,.T.);
#710=EDGE_CURVE('',#571,#571,#485,.T.);
#711=EDGE_CURVE('',#572,#572,#486,.T.);
#712=EDGE_CURVE('',#573,#573,#487,.T.);
#713=EDGE_CURVE('',#573,#574,#345,.T.);
#714=EDGE_CURVE('',#574,#574,#488,.T.);
#715=EDGE_CURVE('',#572,#575,#346,.T.);
#716=EDGE_CURVE('',#575,#575,#489,.T.);
#717=EDGE_CURVE('',#574,#576,#347,.T.);
#718=EDGE_CURVE('',#576,#576,#490,.T.);
#719=EDGE_CURVE('',#577,#577,#491,.T.);
#720=EDGE_CURVE('',#577,#576,#348,.T.);
#721=EDGE_CURVE('',#578,#578,#492,.T.);
#722=EDGE_CURVE('',#579,#579,#493,.T.);
#723=EDGE_CURVE('',#579,#578,#349,.T.);
#724=ORIENTED_EDGE('',*,*,#580,.F.);
#725=ORIENTED_EDGE('',*,*,#581,.T.);
#726=ORIENTED_EDGE('',*,*,#582,.F.);
#727=ORIENTED_EDGE('',*,*,#581,.F.);
#728=ORIENTED_EDGE('',*,*,#583,.F.);
#729=ORIENTED_EDGE('',*,*,#580,.T.);
#730=ORIENTED_EDGE('',*,*,#584,.F.);
#731=ORIENTED_EDGE('',*,*,#585,.T.);
#732=ORIENTED_EDGE('',*,*,#583,.T.);
#733=ORIENTED_EDGE('',*,*,#585,.F.);
#734=ORIENTED_EDGE('',*,*,#586,.T.);
#735=ORIENTED_EDGE('',*,*,#587,.T.);
#736=ORIENTED_EDGE('',*,*,#588,.T.);
#737=ORIENTED_EDGE('',*,*,#589,.F.);
#738=ORIENTED_EDGE('',*,*,#590,.T.);
#739=ORIENTED_EDGE('',*,*,#589,.T.);
#740=ORIENTED_EDGE('',*,*,#591,.T.);
#741=ORIENTED_EDGE('',*,*,#592,.T.);
#742=ORIENTED_EDGE('',*,*,#593,.F.);
#743=ORIENTED_EDGE('',*,*,#594,.F.);
#744=ORIENTED_EDGE('',*,*,#595,.F.);
#745=ORIENTED_EDGE('',*,*,#596,.F.);
#746=ORIENTED_EDGE('',*,*,#597,.F.);
#747=ORIENTED_EDGE('',*,*,#598,.F.);
#748=ORIENTED_EDGE('',*,*,#599,.T.);
#749=ORIENTED_EDGE('',*,*,#597,.T.);
#750=ORIENTED_EDGE('',*,*,#600,.T.);
#751=ORIENTED_EDGE('',*,*,#601,.T.);
#752=ORIENTED_EDGE('',*,*,#602,.F.);
#753=ORIENTED_EDGE('',*,*,#603,.F.);
#754=ORIENTED_EDGE('',*,*,#604,.F.);
#755=ORIENTED_EDGE('',*,*,#593,.T.);
#756=ORIENTED_EDGE('',*,*,#605,.T.);
#757=ORIENTED_EDGE('',*,*,#604,.T.);
#758=ORIENTED_EDGE('',*,*,#606,.T.);
#759=ORIENTED_EDGE('',*,*,#607,.F.);
#760=ORIENTED_EDGE('',*,*,#608,.F.);
#761=ORIENTED_EDGE('',*,*,#609,.F.);
#762=ORIENTED_EDGE('',*,*,#610,.T.);
#763=ORIENTED_EDGE('',*,*,#608,.T.);
#764=ORIENTED_EDGE('',*,*,#611,.T.);
#765=ORIENTED_EDGE('',*,*,#612,.T.);
#766=ORIENTED_EDGE('',*,*,#602,.T.);
#767=ORIENTED_EDGE('',*,*,#613,.T.);
#768=ORIENTED_EDGE('',*,*,#609,.T.);
#769=ORIENTED_EDGE('',*,*,#614,.T.);
#770=ORIENTED_EDGE('',*,*,#607,.T.);
#771=ORIENTED_EDGE('',*,*,#615,.T.);
#772=ORIENTED_EDGE('',*,*,#598,.T.);
#773=ORIENTED_EDGE('',*,*,#616,.T.);
#774=ORIENTED_EDGE('',*,*,#596,.T.);
#775=ORIENTED_EDGE('',*,*,#617,.T.);
#776=ORIENTED_EDGE('',*,*,#595,.T.);
#777=ORIENTED_EDGE('',*,*,#618,.T.);
#778=ORIENTED_EDGE('',*,*,#619,.T.);
#779=ORIENTED_EDGE('',*,*,#612,.F.);
#780=ORIENTED_EDGE('',*,*,#620,.T.);
#781=ORIENTED_EDGE('',*,*,#621,.T.);
#782=ORIENTED_EDGE('',*,*,#622,.T.);
#783=ORIENTED_EDGE('',*,*,#621,.F.);
#784=ORIENTED_EDGE('',*,*,#623,.T.);
#785=ORIENTED_EDGE('',*,*,#587,.F.);
#786=ORIENTED_EDGE('',*,*,#588,.F.);
#787=ORIENTED_EDGE('',*,*,#624,.T.);
#788=ORIENTED_EDGE('',*,*,#625,.T.);
#789=ORIENTED_EDGE('',*,*,#626,.F.);
#790=ORIENTED_EDGE('',*,*,#623,.F.);
#791=ORIENTED_EDGE('',*,*,#627,.F.);
#792=ORIENTED_EDGE('',*,*,#628,.T.);
#793=ORIENTED_EDGE('',*,*,#629,.F.);
#794=ORIENTED_EDGE('',*,*,#630,.F.);
#795=ORIENTED_EDGE('',*,*,#631,.F.);
#796=ORIENTED_EDGE('',*,*,#632,.T.);
#797=ORIENTED_EDGE('',*,*,#624,.F.);
#798=ORIENTED_EDGE('',*,*,#620,.F.);
#799=ORIENTED_EDGE('',*,*,#633,.F.);
#800=ORIENTED_EDGE('',*,*,#634,.F.);
#801=ORIENTED_EDGE('',*,*,#627,.T.);
#802=ORIENTED_EDGE('',*,*,#635,.F.);
#803=ORIENTED_EDGE('',*,*,#614,.F.);
#804=ORIENTED_EDGE('',*,*,#610,.F.);
#805=ORIENTED_EDGE('',*,*,#619,.F.);
#806=ORIENTED_EDGE('',*,*,#622,.F.);
#807=ORIENTED_EDGE('',*,*,#586,.F.);
#808=ORIENTED_EDGE('',*,*,#590,.F.);
#809=ORIENTED_EDGE('',*,*,#636,.F.);
#810=ORIENTED_EDGE('',*,*,#637,.F.);
#811=ORIENTED_EDGE('',*,*,#638,.F.);
#812=ORIENTED_EDGE('',*,*,#639,.F.);
#813=ORIENTED_EDGE('',*,*,#640,.F.);
#814=ORIENTED_EDGE('',*,*,#641,.F.);
#815=ORIENTED_EDGE('',*,*,#591,.F.);
#816=ORIENTED_EDGE('',*,*,#626,.T.);
#817=ORIENTED_EDGE('',*,*,#642,.T.);
#818=ORIENTED_EDGE('',*,*,#643,.T.);
#819=ORIENTED_EDGE('',*,*,#644,.T.);
#820=ORIENTED_EDGE('',*,*,#645,.F.);
#821=ORIENTED_EDGE('',*,*,#640,.T.);
#822=ORIENTED_EDGE('',*,*,#646,.T.);
#823=ORIENTED_EDGE('',*,*,#647,.F.);
#824=ORIENTED_EDGE('',*,*,#648,.F.);
#825=ORIENTED_EDGE('',*,*,#649,.T.);
#826=ORIENTED_EDGE('',*,*,#650,.T.);
#827=ORIENTED_EDGE('',*,*,#651,.T.);
#828=ORIENTED_EDGE('',*,*,#633,.T.);
#829=ORIENTED_EDGE('',*,*,#611,.F.);
#830=ORIENTED_EDGE('',*,*,#616,.F.);
#831=ORIENTED_EDGE('',*,*,#599,.F.);
#832=ORIENTED_EDGE('',*,*,#652,.F.);
#833=ORIENTED_EDGE('',*,*,#653,.T.);
#834=ORIENTED_EDGE('',*,*,#654,.T.);
#835=ORIENTED_EDGE('',*,*,#641,.T.);
#836=ORIENTED_EDGE('',*,*,#655,.T.);
#837=ORIENTED_EDGE('',*,*,#656,.T.);
#838=ORIENTED_EDGE('',*,*,#655,.F.);
#839=ORIENTED_EDGE('',*,*,#657,.T.);
#840=ORIENTED_EDGE('',*,*,#647,.T.);
#841=ORIENTED_EDGE('',*,*,#658,.T.);
#842=ORIENTED_EDGE('',*,*,#659,.T.);
#843=ORIENTED_EDGE('',*,*,#582,.T.);
#844=ORIENTED_EDGE('',*,*,#660,.F.);
#845=ORIENTED_EDGE('',*,*,#631,.T.);
#846=ORIENTED_EDGE('',*,*,#661,.F.);
#847=ORIENTED_EDGE('',*,*,#644,.F.);
#848=ORIENTED_EDGE('',*,*,#662,.T.);
#849=ORIENTED_EDGE('',*,*,#649,.F.);
#850=ORIENTED_EDGE('',*,*,#663,.F.);
#851=ORIENTED_EDGE('',*,*,#629,.T.);
#852=ORIENTED_EDGE('',*,*,#634,.T.);
#853=ORIENTED_EDGE('',*,*,#651,.F.);
#854=ORIENTED_EDGE('',*,*,#664,.T.);
#855=ORIENTED_EDGE('',*,*,#665,.F.);
#856=ORIENTED_EDGE('',*,*,#664,.F.);
#857=ORIENTED_EDGE('',*,*,#650,.F.);
#858=ORIENTED_EDGE('',*,*,#662,.F.);
#859=ORIENTED_EDGE('',*,*,#628,.F.);
#860=ORIENTED_EDGE('',*,*,#661,.T.);
#861=ORIENTED_EDGE('',*,*,#630,.T.);
#862=ORIENTED_EDGE('',*,*,#663,.T.);
#863=ORIENTED_EDGE('',*,*,#648,.T.);
#864=ORIENTED_EDGE('',*,*,#657,.F.);
#865=ORIENTED_EDGE('',*,*,#666,.F.);
#866=ORIENTED_EDGE('',*,*,#637,.T.);
#867=ORIENTED_EDGE('',*,*,#645,.T.);
#868=ORIENTED_EDGE('',*,*,#666,.T.);
#869=ORIENTED_EDGE('',*,*,#659,.F.);
#870=ORIENTED_EDGE('',*,*,#667,.F.);
#871=ORIENTED_EDGE('',*,*,#638,.T.);
#872=ORIENTED_EDGE('',*,*,#667,.T.);
#873=ORIENTED_EDGE('',*,*,#658,.F.);
#874=ORIENTED_EDGE('',*,*,#646,.F.);
#875=ORIENTED_EDGE('',*,*,#639,.T.);
#876=ORIENTED_EDGE('',*,*,#654,.F.);
#877=ORIENTED_EDGE('',*,*,#668,.T.);
#878=ORIENTED_EDGE('',*,*,#669,.F.);
#879=ORIENTED_EDGE('',*,*,#668,.F.);
#880=ORIENTED_EDGE('',*,*,#653,.F.);
#881=ORIENTED_EDGE('',*,*,#670,.T.);
#882=ORIENTED_EDGE('',*,*,#671,.F.);
#883=ORIENTED_EDGE('',*,*,#670,.F.);
#884=ORIENTED_EDGE('',*,*,#625,.F.);
#885=ORIENTED_EDGE('',*,*,#632,.F.);
#886=ORIENTED_EDGE('',*,*,#660,.T.);
#887=ORIENTED_EDGE('',*,*,#643,.F.);
#888=ORIENTED_EDGE('',*,*,#672,.T.);
#889=ORIENTED_EDGE('',*,*,#673,.F.);
#890=ORIENTED_EDGE('',*,*,#672,.F.);
#891=ORIENTED_EDGE('',*,*,#642,.F.);
#892=ORIENTED_EDGE('',*,*,#674,.T.);
#893=ORIENTED_EDGE('',*,*,#675,.F.);
#894=ORIENTED_EDGE('',*,*,#676,.F.);
#895=ORIENTED_EDGE('',*,*,#677,.F.);
#896=ORIENTED_EDGE('',*,*,#678,.F.);
#897=ORIENTED_EDGE('',*,*,#656,.F.);
#898=ORIENTED_EDGE('',*,*,#600,.F.);
#899=ORIENTED_EDGE('',*,*,#618,.F.);
#900=ORIENTED_EDGE('',*,*,#679,.F.);
#901=ORIENTED_EDGE('',*,*,#680,.F.);
#902=ORIENTED_EDGE('',*,*,#679,.T.);
#903=ORIENTED_EDGE('',*,*,#594,.T.);
#904=ORIENTED_EDGE('',*,*,#681,.T.);
#905=ORIENTED_EDGE('',*,*,#682,.T.);
#906=ORIENTED_EDGE('',*,*,#681,.F.);
#907=ORIENTED_EDGE('',*,*,#606,.F.);
#908=ORIENTED_EDGE('',*,*,#683,.F.);
#909=ORIENTED_EDGE('',*,*,#684,.F.);
#910=ORIENTED_EDGE('',*,*,#673,.T.);
#911=ORIENTED_EDGE('',*,*,#665,.T.);
#912=ORIENTED_EDGE('',*,*,#671,.T.);
#913=ORIENTED_EDGE('',*,*,#669,.T.);
#914=ORIENTED_EDGE('',*,*,#683,.T.);
#915=ORIENTED_EDGE('',*,*,#603,.T.);
#916=ORIENTED_EDGE('',*,*,#635,.T.);
#917=ORIENTED_EDGE('',*,*,#685,.T.);
#918=ORIENTED_EDGE('',*,*,#686,.F.);
#919=ORIENTED_EDGE('',*,*,#682,.F.);
#920=ORIENTED_EDGE('',*,*,#687,.F.);
#921=ORIENTED_EDGE('',*,*,#688,.F.);
#922=ORIENTED_EDGE('',*,*,#592,.F.);
#923=ORIENTED_EDGE('',*,*,#689,.F.);
#924=ORIENTED_EDGE('',*,*,#690,.F.);
#925=ORIENTED_EDGE('',*,*,#601,.F.);
#926=ORIENTED_EDGE('',*,*,#691,.F.);
#927=ORIENTED_EDGE('',*,*,#692,.F.);
#928=ORIENTED_EDGE('',*,*,#685,.F.);
#929=ORIENTED_EDGE('',*,*,#693,.F.);
#930=ORIENTED_EDGE('',*,*,#688,.T.);
#931=ORIENTED_EDGE('',*,*,#694,.T.);
#932=ORIENTED_EDGE('',*,*,#693,.T.);
#933=ORIENTED_EDGE('',*,*,#636,.T.);
#934=ORIENTED_EDGE('',*,*,#692,.T.);
#935=ORIENTED_EDGE('',*,*,#695,.T.);
#936=ORIENTED_EDGE('',*,*,#687,.T.);
#937=ORIENTED_EDGE('',*,*,#684,.T.);
#938=ORIENTED_EDGE('',*,*,#686,.T.);
#939=ORIENTED_EDGE('',*,*,#696,.T.);
#940=ORIENTED_EDGE('',*,*,#691,.T.);
#941=ORIENTED_EDGE('',*,*,#680,.T.);
#942=ORIENTED_EDGE('',*,*,#690,.T.);
#943=ORIENTED_EDGE('',*,*,#697,.T.);
#944=ORIENTED_EDGE('',*,*,#689,.T.);
#945=ORIENTED_EDGE('',*,*,#652,.T.);
#946=ORIENTED_EDGE('',*,*,#694,.F.);
#947=ORIENTED_EDGE('',*,*,#697,.F.);
#948=ORIENTED_EDGE('',*,*,#696,.F.);
#949=ORIENTED_EDGE('',*,*,#695,.F.);
#950=ORIENTED_EDGE('',*,*,#698,.T.);
#951=ORIENTED_EDGE('',*,*,#698,.F.);
#952=ORIENTED_EDGE('',*,*,#699,.T.);
#953=ORIENTED_EDGE('',*,*,#674,.F.);
#954=ORIENTED_EDGE('',*,*,#699,.F.);
#955=ORIENTED_EDGE('',*,*,#700,.T.);
#956=ORIENTED_EDGE('',*,*,#701,.T.);
#957=ORIENTED_EDGE('',*,*,#702,.T.);
#958=ORIENTED_EDGE('',*,*,#703,.T.);
#959=ORIENTED_EDGE('',*,*,#700,.F.);
#960=ORIENTED_EDGE('',*,*,#704,.T.);
#961=ORIENTED_EDGE('',*,*,#678,.T.);
#962=ORIENTED_EDGE('',*,*,#704,.F.);
#963=ORIENTED_EDGE('',*,*,#701,.F.);
#964=ORIENTED_EDGE('',*,*,#705,.T.);
#965=ORIENTED_EDGE('',*,*,#677,.T.);
#966=ORIENTED_EDGE('',*,*,#705,.F.);
#967=ORIENTED_EDGE('',*,*,#702,.F.);
#968=ORIENTED_EDGE('',*,*,#706,.T.);
#969=ORIENTED_EDGE('',*,*,#676,.T.);
#970=ORIENTED_EDGE('',*,*,#706,.F.);
#971=ORIENTED_EDGE('',*,*,#703,.F.);
#972=ORIENTED_EDGE('',*,*,#707,.T.);
#973=ORIENTED_EDGE('',*,*,#675,.T.);
#974=ORIENTED_EDGE('',*,*,#707,.F.);
#975=ORIENTED_EDGE('',*,*,#605,.F.);
#976=ORIENTED_EDGE('',*,*,#617,.F.);
#977=ORIENTED_EDGE('',*,*,#615,.F.);
#978=ORIENTED_EDGE('',*,*,#613,.F.);
#979=ORIENTED_EDGE('',*,*,#584,.T.);
#980=ORIENTED_EDGE('',*,*,#708,.F.);
#981=ORIENTED_EDGE('',*,*,#709,.T.);
#982=ORIENTED_EDGE('',*,*,#710,.F.);
#983=ORIENTED_EDGE('',*,*,#709,.F.);
#984=ORIENTED_EDGE('',*,*,#708,.T.);
#985=ORIENTED_EDGE('',*,*,#711,.T.);
#986=ORIENTED_EDGE('',*,*,#712,.F.);
#987=ORIENTED_EDGE('',*,*,#713,.T.);
#988=ORIENTED_EDGE('',*,*,#714,.F.);
#989=ORIENTED_EDGE('',*,*,#713,.F.);
#990=ORIENTED_EDGE('',*,*,#712,.T.);
#991=ORIENTED_EDGE('',*,*,#710,.T.);
#992=ORIENTED_EDGE('',*,*,#711,.F.);
#993=ORIENTED_EDGE('',*,*,#715,.T.);
#994=ORIENTED_EDGE('',*,*,#716,.F.);
#995=ORIENTED_EDGE('',*,*,#715,.F.);
#996=ORIENTED_EDGE('',*,*,#714,.T.);
#997=ORIENTED_EDGE('',*,*,#717,.T.);
#998=ORIENTED_EDGE('',*,*,#718,.T.);
#999=ORIENTED_EDGE('',*,*,#717,.F.);
#1000=ORIENTED_EDGE('',*,*,#719,.T.);
#1001=ORIENTED_EDGE('',*,*,#720,.T.);
#1002=ORIENTED_EDGE('',*,*,#718,.F.);
#1003=ORIENTED_EDGE('',*,*,#720,.F.);
#1004=ORIENTED_EDGE('',*,*,#719,.F.);
#1005=ORIENTED_EDGE('',*,*,#721,.F.);
#1006=ORIENTED_EDGE('',*,*,#722,.T.);
#1007=ORIENTED_EDGE('',*,*,#716,.T.);
#1008=ORIENTED_EDGE('',*,*,#722,.F.);
#1009=ORIENTED_EDGE('',*,*,#723,.T.);
#1010=ORIENTED_EDGE('',*,*,#721,.T.);
#1011=ORIENTED_EDGE('',*,*,#723,.F.);
#1012=CYLINDRICAL_SURFACE('',#1112,3.59999999999999);
#1013=CYLINDRICAL_SURFACE('',#1117,12.5);
#1014=CYLINDRICAL_SURFACE('',#1148,1.50000000000002);
#1015=CYLINDRICAL_SURFACE('',#1153,2.5);
#1016=CYLINDRICAL_SURFACE('',#1158,2.5);
#1017=CYLINDRICAL_SURFACE('',#1160,2.5);
#1018=CYLINDRICAL_SURFACE('',#1162,2.5);
#1019=CYLINDRICAL_SURFACE('',#1184,10.5);
#1020=CYLINDRICAL_SURFACE('',#1193,0.600000000000023);
#1021=CYLINDRICAL_SURFACE('',#1194,0.600000000000023);
#1022=CYLINDRICAL_SURFACE('',#1195,0.599999999999987);
#1023=CYLINDRICAL_SURFACE('',#1196,0.599999999999987);
#1024=CYLINDRICAL_SURFACE('',#1198,3.49999999999998);
#1025=CYLINDRICAL_SURFACE('',#1203,12.5);
#1026=CYLINDRICAL_SURFACE('',#1207,1.6);
#1027=CYLINDRICAL_SURFACE('',#1211,9.49999999999999);
#1028=CYLINDRICAL_SURFACE('',#1217,4.90000000000002);
#1029=ADVANCED_FACE('',(#88),#1012,.F.);
#1030=ADVANCED_FACE('',(#89,#18),#38,.T.);
#1031=ADVANCED_FACE('',(#90),#1013,.F.);
#1032=ADVANCED_FACE('',(#91),#39,.T.);
#1033=ADVANCED_FACE('',(#92),#40,.T.);
#1034=ADVANCED_FACE('',(#93),#41,.T.);
#1035=ADVANCED_FACE('',(#94),#42,.T.);
#1036=ADVANCED_FACE('',(#95),#43,.T.);
#1037=ADVANCED_FACE('',(#96),#44,.T.);
#1038=ADVANCED_FACE('',(#97),#45,.T.);
#1039=ADVANCED_FACE('',(#98),#46,.T.);
#1040=ADVANCED_FACE('',(#99),#47,.T.);
#1041=ADVANCED_FACE('',(#100),#48,.T.);
#1042=ADVANCED_FACE('',(#101),#49,.T.);
#1043=ADVANCED_FACE('',(#102),#50,.T.);
#1044=ADVANCED_FACE('',(#103),#51,.T.);
#1045=ADVANCED_FACE('',(#104),#52,.T.);
#1046=ADVANCED_FACE('',(#105),#53,.F.);
#1047=ADVANCED_FACE('',(#106),#54,.F.);
#1048=ADVANCED_FACE('',(#107),#55,.F.);
#1049=ADVANCED_FACE('',(#108),#56,.T.);
#1050=ADVANCED_FACE('',(#109,#19),#57,.T.);
#1051=ADVANCED_FACE('',(#110,#20,#21),#58,.T.);
#1052=ADVANCED_FACE('',(#111),#1014,.F.);
#1053=ADVANCED_FACE('',(#112,#22),#59,.F.);
#1054=ADVANCED_FACE('',(#113),#60,.F.);
#1055=ADVANCED_FACE('',(#114),#61,.F.);
#1056=ADVANCED_FACE('',(#115),#1015,.F.);
#1057=ADVANCED_FACE('',(#116),#62,.T.);
#1058=ADVANCED_FACE('',(#117),#63,.T.);
#1059=ADVANCED_FACE('',(#118),#64,.T.);
#1060=ADVANCED_FACE('',(#119),#1016,.F.);
#1061=ADVANCED_FACE('',(#120),#1017,.F.);
#1062=ADVANCED_FACE('',(#121),#1018,.F.);
#1063=ADVANCED_FACE('',(#122,#23,#24,#25,#26,#27),#65,.T.);
#1064=ADVANCED_FACE('',(#123),#66,.T.);
#1065=ADVANCED_FACE('',(#124),#67,.T.);
#1066=ADVANCED_FACE('',(#125,#28,#29,#30,#31),#68,.T.);
#1067=ADVANCED_FACE('',(#126),#69,.T.);
#1068=ADVANCED_FACE('',(#127),#70,.T.);
#1069=ADVANCED_FACE('',(#128),#71,.T.);
#1070=ADVANCED_FACE('',(#129),#72,.T.);
#1071=ADVANCED_FACE('',(#130),#73,.T.);
#1072=ADVANCED_FACE('',(#131),#74,.T.);
#1073=ADVANCED_FACE('',(#132),#75,.T.);
#1074=ADVANCED_FACE('',(#133),#76,.T.);
#1075=ADVANCED_FACE('',(#134),#77,.T.);
#1076=ADVANCED_FACE('',(#135,#32),#78,.T.);
#1077=ADVANCED_FACE('',(#136),#1019,.F.);
#1078=ADVANCED_FACE('',(#137),#79,.T.);
#1079=ADVANCED_FACE('',(#138),#80,.T.);
#1080=ADVANCED_FACE('',(#139),#81,.T.);
#1081=ADVANCED_FACE('',(#140),#82,.T.);
#1082=ADVANCED_FACE('',(#141),#1020,.T.);
#1083=ADVANCED_FACE('',(#142),#1021,.T.);
#1084=ADVANCED_FACE('',(#143),#1022,.T.);
#1085=ADVANCED_FACE('',(#144),#1023,.T.);
#1086=ADVANCED_FACE('',(#145,#33),#83,.T.);
#1087=ADVANCED_FACE('',(#146),#1024,.T.);
#1088=ADVANCED_FACE('',(#147,#34),#84,.T.);
#1089=ADVANCED_FACE('',(#148),#1025,.T.);
#1090=ADVANCED_FACE('',(#149,#35),#85,.F.);
#1091=ADVANCED_FACE('',(#150),#1026,.F.);
#1092=ADVANCED_FACE('',(#151),#13,.T.);
#1093=ADVANCED_FACE('',(#152),#1027,.T.);
#1094=ADVANCED_FACE('',(#153,#36),#86,.T.);
#1095=ADVANCED_FACE('',(#154,#37),#87,.T.);
#1096=ADVANCED_FACE('',(#155),#1028,.T.);
#1097=CLOSED_SHELL('',(#1029,#1030,#1031,#1032,#1033,#1034,#1035,#1036,
#1037,#1038,#1039,#1040,#1041,#1042,#1043,#1044,#1045,#1046,#1047,#1048,
#1049,#1050,#1051,#1052,#1053,#1054,#1055,#1056,#1057,#1058,#1059,#1060,
#1061,#1062,#1063,#1064,#1065,#1066,#1067,#1068,#1069,#1070,#1071,#1072,
#1073,#1074,#1075,#1076,#1077,#1078,#1079,#1080,#1081,#1082,#1083,#1084,
#1085,#1086));
#1098=CLOSED_SHELL('',(#1087,#1088,#1089,#1090,#1091,#1092,#1093,#1094,
#1095,#1096));
#1099=DERIVED_UNIT_ELEMENT(#1101,1.);
#1100=DERIVED_UNIT_ELEMENT(#1842,-3.);
#1101=(
MASS_UNIT()
NAMED_UNIT(*)
SI_UNIT(.KILO.,.GRAM.)
);
#1102=DERIVED_UNIT((#1099,#1100));
#1103=MEASURE_REPRESENTATION_ITEM('density measure',
POSITIVE_RATIO_MEASURE(7850.),#1102);
#1104=PROPERTY_DEFINITION_REPRESENTATION(#1109,#1106);
#1105=PROPERTY_DEFINITION_REPRESENTATION(#1110,#1107);
#1106=REPRESENTATION('material name',(#1108),#1839);
#1107=REPRESENTATION('density',(#1103),#1839);
#1108=DESCRIPTIVE_REPRESENTATION_ITEM('Steel','Steel');
#1109=PROPERTY_DEFINITION('material property','material name',#1849);
#1110=PROPERTY_DEFINITION('material property','density of part',#1849);
#1111=AXIS2_PLACEMENT_3D('',#1538,#1218,#1219);
#1112=AXIS2_PLACEMENT_3D('',#1539,#1220,#1221);
#1113=AXIS2_PLACEMENT_3D('',#1541,#1222,#1223);
#1114=AXIS2_PLACEMENT_3D('',#1544,#1225,#1226);
#1115=AXIS2_PLACEMENT_3D('',#1545,#1227,#1228);
#1116=AXIS2_PLACEMENT_3D('',#1547,#1229,#1230);
#1117=AXIS2_PLACEMENT_3D('',#1548,#1231,#1232);
#1118=AXIS2_PLACEMENT_3D('',#1550,#1233,#1234);
#1119=AXIS2_PLACEMENT_3D('',#1552,#1236,#1237);
#1120=AXIS2_PLACEMENT_3D('',#1561,#1242,#1243);
#1121=AXIS2_PLACEMENT_3D('',#1567,#1247,#1248);
#1122=AXIS2_PLACEMENT_3D('',#1574,#1252,#1253);
#1123=AXIS2_PLACEMENT_3D('',#1581,#1257,#1258);
#1124=AXIS2_PLACEMENT_3D('',#1587,#1262,#1263);
#1125=AXIS2_PLACEMENT_3D('',#1594,#1267,#1268);
#1126=AXIS2_PLACEMENT_3D('',#1597,#1271,#1272);
#1127=AXIS2_PLACEMENT_3D('',#1604,#1276,#1277);
#1128=AXIS2_PLACEMENT_3D('',#1610,#1281,#1282);
#1129=AXIS2_PLACEMENT_3D('',#1613,#1285,#1286);
#1130=AXIS2_PLACEMENT_3D('',#1616,#1289,#1290);
#1131=AXIS2_PLACEMENT_3D('',#1619,#1293,#1294);
#1132=AXIS2_PLACEMENT_3D('',#1625,#1298,#1299);
#1133=AXIS2_PLACEMENT_3D('',#1628,#1302,#1303);
#1134=AXIS2_PLACEMENT_3D('',#1634,#1307,#1308);
#1135=AXIS2_PLACEMENT_3D('',#1638,#1310,#1311);
#1136=AXIS2_PLACEMENT_3D('',#1645,#1315,#1316);
#1137=AXIS2_PLACEMENT_3D('',#1646,#1317,#1318);
#1138=AXIS2_PLACEMENT_3D('',#1650,#1321,#1322);
#1139=AXIS2_PLACEMENT_3D('',#1654,#1325,#1326);
#1140=AXIS2_PLACEMENT_3D('',#1664,#1331,#1332);
#1141=AXIS2_PLACEMENT_3D('',#1665,#1333,#1334);
#1142=AXIS2_PLACEMENT_3D('',#1667,#1335,#1336);
#1143=AXIS2_PLACEMENT_3D('',#1669,#1337,#1338);
#1144=AXIS2_PLACEMENT_3D('',#1682,#1345,#1346);
#1145=AXIS2_PLACEMENT_3D('',#1683,#1347,#1348);
#1146=AXIS2_PLACEMENT_3D('',#1686,#1350,#1351);
#1147=AXIS2_PLACEMENT_3D('',#1688,#1352,#1353);
#1148=AXIS2_PLACEMENT_3D('',#1689,#1354,#1355);
#1149=AXIS2_PLACEMENT_3D('',#1692,#1357,#1358);
#1150=AXIS2_PLACEMENT_3D('',#1693,#1359,#1360);
#1151=AXIS2_PLACEMENT_3D('',#1699,#1364,#1365);
#1152=AXIS2_PLACEMENT_3D('',#1702,#1368,#1369);
#1153=AXIS2_PLACEMENT_3D('',#1705,#1372,#1373);
#1154=AXIS2_PLACEMENT_3D('',#1708,#1375,#1376);
#1155=AXIS2_PLACEMENT_3D('',#1709,#1377,#1378);
#1156=AXIS2_PLACEMENT_3D('',#1711,#1380,#1381);
#1157=AXIS2_PLACEMENT_3D('',#1713,#1383,#1384);
#1158=AXIS2_PLACEMENT_3D('',#1714,#1385,#1386);
#1159=AXIS2_PLACEMENT_3D('',#1717,#1388,#1389);
#1160=AXIS2_PLACEMENT_3D('',#1718,#1390,#1391);
#1161=AXIS2_PLACEMENT_3D('',#1721,#1393,#1394);
#1162=AXIS2_PLACEMENT_3D('',#1722,#1395,#1396);
#1163=AXIS2_PLACEMENT_3D('',#1725,#1398,#1399);
#1164=AXIS2_PLACEMENT_3D('',#1726,#1400,#1401);
#1165=AXIS2_PLACEMENT_3D('',#1728,#1402,#1403);
#1166=AXIS2_PLACEMENT_3D('',#1730,#1404,#1405);
#1167=AXIS2_PLACEMENT_3D('',#1732,#1406,#1407);
#1168=AXIS2_PLACEMENT_3D('',#1734,#1408,#1409);
#1169=AXIS2_PLACEMENT_3D('',#1736,#1410,#1411);
#1170=AXIS2_PLACEMENT_3D('',#1737,#1412,#1413);
#1171=AXIS2_PLACEMENT_3D('',#1741,#1416,#1417);
#1172=AXIS2_PLACEMENT_3D('',#1745,#1420,#1421);
#1173=AXIS2_PLACEMENT_3D('',#1749,#1424,#1425);
#1174=AXIS2_PLACEMENT_3D('',#1751,#1427,#1428);
#1175=AXIS2_PLACEMENT_3D('',#1755,#1431,#1432);
#1176=AXIS2_PLACEMENT_3D('',#1759,#1435,#1436);
#1177=AXIS2_PLACEMENT_3D('',#1763,#1439,#1440);
#1178=AXIS2_PLACEMENT_3D('',#1767,#1443,#1444);
#1179=AXIS2_PLACEMENT_3D('',#1769,#1446,#1447);
#1180=AXIS2_PLACEMENT_3D('',#1771,#1449,#1450);
#1181=AXIS2_PLACEMENT_3D('',#1773,#1452,#1453);
#1182=AXIS2_PLACEMENT_3D('',#1775,#1455,#1456);
#1183=AXIS2_PLACEMENT_3D('',#1777,#1457,#1458);
#1184=AXIS2_PLACEMENT_3D('',#1778,#1459,#1460);
#1185=AXIS2_PLACEMENT_3D('',#1780,#1462,#1463);
#1186=AXIS2_PLACEMENT_3D('',#1782,#1464,#1465);
#1187=AXIS2_PLACEMENT_3D('',#1783,#1466,#1467);
#1188=AXIS2_PLACEMENT_3D('',#1785,#1468,#1469);
#1189=AXIS2_PLACEMENT_3D('',#1786,#1470,#1471);
#1190=AXIS2_PLACEMENT_3D('',#1788,#1472,#1473);
#1191=AXIS2_PLACEMENT_3D('',#1789,#1474,#1475);
#1192=AXIS2_PLACEMENT_3D('',#1791,#1476,#1477);
#1193=AXIS2_PLACEMENT_3D('',#1792,#1478,#1479);
#1194=AXIS2_PLACEMENT_3D('',#1794,#1481,#1482);
#1195=AXIS2_PLACEMENT_3D('',#1796,#1484,#1485);
#1196=AXIS2_PLACEMENT_3D('',#1798,#1487,#1488);
#1197=AXIS2_PLACEMENT_3D('',#1800,#1490,#1491);
#1198=AXIS2_PLACEMENT_3D('',#1801,#1492,#1493);
#1199=AXIS2_PLACEMENT_3D('',#1803,#1494,#1495);
#1200=AXIS2_PLACEMENT_3D('',#1806,#1497,#1498);
#1201=AXIS2_PLACEMENT_3D('',#1807,#1499,#1500);
#1202=AXIS2_PLACEMENT_3D('',#1809,#1501,#1502);
#1203=AXIS2_PLACEMENT_3D('',#1810,#1503,#1504);
#1204=AXIS2_PLACEMENT_3D('',#1812,#1505,#1506);
#1205=AXIS2_PLACEMENT_3D('',#1815,#1508,#1509);
#1206=AXIS2_PLACEMENT_3D('',#1816,#1510,#1511);
#1207=AXIS2_PLACEMENT_3D('',#1817,#1512,#1513);
#1208=AXIS2_PLACEMENT_3D('',#1820,#1515,#1516);
#1209=AXIS2_PLACEMENT_3D('',#1821,#1517,#1518);
#1210=AXIS2_PLACEMENT_3D('',#1824,#1520,#1521);
#1211=AXIS2_PLACEMENT_3D('',#1825,#1522,#1523);
#1212=AXIS2_PLACEMENT_3D('',#1827,#1524,#1525);
#1213=AXIS2_PLACEMENT_3D('',#1829,#1527,#1528);
#1214=AXIS2_PLACEMENT_3D('',#1831,#1529,#1530);
#1215=AXIS2_PLACEMENT_3D('',#1832,#1531,#1532);
#1216=AXIS2_PLACEMENT_3D('',#1834,#1533,#1534);
#1217=AXIS2_PLACEMENT_3D('',#1835,#1535,#1536);
#1218=DIRECTION('axis',(0.,0.,1.));
#1219=DIRECTION('refdir',(1.,0.,0.));
#1220=DIRECTION('center_axis',(-1.,0.,0.));
#1221=DIRECTION('ref_axis',(0.,1.,0.));
#1222=DIRECTION('center_axis',(-1.,0.,0.));
#1223=DIRECTION('ref_axis',(0.,1.,0.));
#1224=DIRECTION('',(-1.,0.,0.));
#1225=DIRECTION('center_axis',(1.,0.,0.));
#1226=DIRECTION('ref_axis',(0.,1.,0.));
#1227=DIRECTION('center_axis',(1.,0.,0.));
#1228=DIRECTION('ref_axis',(0.,0.,-1.));
#1229=DIRECTION('center_axis',(-1.,0.,0.));
#1230=DIRECTION('ref_axis',(0.,1.,0.));
#1231=DIRECTION('center_axis',(-1.,0.,0.));
#1232=DIRECTION('ref_axis',(0.,1.,0.));
#1233=DIRECTION('center_axis',(-1.,0.,0.));
#1234=DIRECTION('ref_axis',(0.,1.,0.));
#1235=DIRECTION('',(-1.,0.,0.));
#1236=DIRECTION('center_axis',(0.707106781186548,0.,0.707106781186548));
#1237=DIRECTION('ref_axis',(0.707106781186548,0.,-0.707106781186548));
#1238=DIRECTION('',(0.,-1.,0.));
#1239=DIRECTION('',(0.577350269189622,0.577350269189633,-0.577350269189622));
#1240=DIRECTION('',(0.,1.,0.));
#1241=DIRECTION('',(0.577350269189622,0.577350269189633,-0.577350269189622));
#1242=DIRECTION('center_axis',(0.,0.707106781186541,0.707106781186554));
#1243=DIRECTION('ref_axis',(1.,0.,0.));
#1244=DIRECTION('',(1.,0.,0.));
#1245=DIRECTION('',(-1.,0.,0.));
#1246=DIRECTION('',(1.63289615703112E-13,-0.707106781186554,0.707106781186541));
#1247=DIRECTION('center_axis',(0.577350269189629,-0.57735026918962,-0.577350269189629));
#1248=DIRECTION('ref_axis',(-0.707106781186547,0.,-0.707106781186547));
#1249=DIRECTION('',(0.707106781186544,0.707106781186551,6.28036983473504E-15));
#1250=DIRECTION('',(0.,-0.707106781186553,0.707106781186542));
#1251=DIRECTION('',(-0.707106781186548,0.,-0.707106781186548));
#1252=DIRECTION('center_axis',(0.577350269189628,0.577350269189621,-0.577350269189628));
#1253=DIRECTION('ref_axis',(-0.707106781186547,0.,-0.707106781186548));
#1254=DIRECTION('',(0.707106781186548,0.,0.707106781186548));
#1255=DIRECTION('',(0.,-0.707106781186552,-0.707106781186543));
#1256=DIRECTION('',(-0.707106781186544,0.707106781186551,-3.14018491736752E-15));
#1257=DIRECTION('center_axis',(0.,0.707106781186543,-0.707106781186552));
#1258=DIRECTION('ref_axis',(-1.,0.,0.));
#1259=DIRECTION('',(1.,0.,0.));
#1260=DIRECTION('',(-1.,0.,0.));
#1261=DIRECTION('',(-1.44448506198906E-13,0.707106781186552,0.707106781186543));
#1262=DIRECTION('center_axis',(0.577350269189626,-0.577350269189621,0.577350269189631));
#1263=DIRECTION('ref_axis',(0.707106781186551,0.,-0.707106781186544));
#1264=DIRECTION('',(0.707106781186551,0.,-0.707106781186544));
#1265=DIRECTION('',(0.,0.707106781186554,0.707106781186541));
#1266=DIRECTION('',(-0.707106781186544,-0.707106781186551,0.));
#1267=DIRECTION('center_axis',(0.707106781186551,-0.707106781186544,0.));
#1268=DIRECTION('ref_axis',(0.,0.,-1.));
#1269=DIRECTION('',(0.,0.,1.));
#1270=DIRECTION('',(0.,0.,-1.));
#1271=DIRECTION('center_axis',(0.577350269189626,0.577350269189621,0.577350269189631));
#1272=DIRECTION('ref_axis',(0.707106781186551,0.,-0.707106781186544));
#1273=DIRECTION('',(0.707106781186544,-0.707106781186551,0.));
#1274=DIRECTION('',(0.,0.707106781186554,-0.707106781186541));
#1275=DIRECTION('',(-0.707106781186551,0.,0.707106781186544));
#1276=DIRECTION('center_axis',(0.,0.707106781186541,0.707106781186554));
#1277=DIRECTION('ref_axis',(1.,0.,0.));
#1278=DIRECTION('',(1.,0.,0.));
#1279=DIRECTION('',(-1.,0.,0.));
#1280=DIRECTION('',(0.577350269189622,-0.577350269189633,0.577350269189622));
#1281=DIRECTION('center_axis',(0.707106781186544,0.,0.707106781186551));
#1282=DIRECTION('ref_axis',(0.707106781186551,0.,-0.707106781186544));
#1283=DIRECTION('',(0.,1.,0.));
#1284=DIRECTION('',(0.,-1.,0.));
#1285=DIRECTION('center_axis',(0.707106781186551,0.707106781186544,0.));
#1286=DIRECTION('ref_axis',(0.,0.,-1.));
#1287=DIRECTION('',(0.,0.,-1.));
#1288=DIRECTION('',(0.,0.,1.));
#1289=DIRECTION('center_axis',(0.707106781186548,0.,-0.707106781186548));
#1290=DIRECTION('ref_axis',(-0.707106781186548,0.,-0.707106781186548));
#1291=DIRECTION('',(0.,-1.,0.));
#1292=DIRECTION('',(0.,1.,0.));
#1293=DIRECTION('center_axis',(-0.707106781186548,0.,0.707106781186548));
#1294=DIRECTION('ref_axis',(0.707106781186548,0.,0.707106781186548));
#1295=DIRECTION('',(0.,1.,0.));
#1296=DIRECTION('',(0.,-1.,0.));
#1297=DIRECTION('',(0.577350269189622,-0.577350269189633,0.577350269189622));
#1298=DIRECTION('center_axis',(0.,0.707106781186541,0.707106781186554));
#1299=DIRECTION('ref_axis',(1.,0.,0.));
#1300=DIRECTION('',(1.,0.,0.));
#1301=DIRECTION('',(-1.,0.,0.));
#1302=DIRECTION('center_axis',(-1.,0.,0.));
#1303=DIRECTION('ref_axis',(0.,0.,-1.));
#1304=DIRECTION('',(0.,0.,-1.));
#1305=DIRECTION('',(0.,1.,0.));
#1306=DIRECTION('',(0.,0.,-1.));
#1307=DIRECTION('center_axis',(0.,-1.,0.));
#1308=DIRECTION('ref_axis',(0.,0.,-1.));
#1309=DIRECTION('',(0.,0.,1.));
#1310=DIRECTION('center_axis',(0.,-1.,0.));
#1311=DIRECTION('ref_axis',(0.,0.,1.));
#1312=DIRECTION('',(0.,0.,1.));
#1313=DIRECTION('',(1.,0.,0.));
#1314=DIRECTION('',(0.,0.,-1.));
#1315=DIRECTION('center_axis',(0.,-1.,0.));
#1316=DIRECTION('ref_axis',(0.,0.,1.));
#1317=DIRECTION('center_axis',(1.,0.,0.));
#1318=DIRECTION('ref_axis',(0.,0.,1.));
#1319=DIRECTION('',(0.,0.,1.));
#1320=DIRECTION('',(0.,1.,0.));
#1321=DIRECTION('center_axis',(0.,0.,1.));
#1322=DIRECTION('ref_axis',(1.,0.,0.));
#1323=DIRECTION('',(-1.,0.,0.));
#1324=DIRECTION('',(0.,1.,0.));
#1325=DIRECTION('center_axis',(1.,0.,0.));
#1326=DIRECTION('ref_axis',(0.,1.,0.));
#1327=DIRECTION('',(0.,1.,0.));
#1328=DIRECTION('',(0.,0.,1.));
#1329=DIRECTION('',(0.,-1.,0.));
#1330=DIRECTION('',(0.,0.,-1.));
#1331=DIRECTION('center_axis',(1.,0.,2.22044604925031E-16));
#1332=DIRECTION('ref_axis',(0.,1.,0.));
#1333=DIRECTION('center_axis',(0.,1.,0.));
#1334=DIRECTION('ref_axis',(0.,0.,1.));
#1335=DIRECTION('center_axis',(0.,-1.,0.));
#1336=DIRECTION('ref_axis',(0.,0.,1.));
#1337=DIRECTION('center_axis',(0.,-1.,0.));
#1338=DIRECTION('ref_axis',(0.,0.,1.));
#1339=DIRECTION('',(0.,0.,-1.));
#1340=DIRECTION('',(1.,0.,0.));
#1341=DIRECTION('',(1.,0.,0.));
#1342=DIRECTION('',(0.,0.,-1.));
#1343=DIRECTION('',(1.,0.,0.));
#1344=DIRECTION('',(0.,0.,1.));
#1345=DIRECTION('center_axis',(0.,-1.,0.));
#1346=DIRECTION('ref_axis',(0.,0.,1.));
#1347=DIRECTION('center_axis',(0.,-1.,0.));
#1348=DIRECTION('ref_axis',(0.,0.,1.));
#1349=DIRECTION('',(2.22044604925031E-16,0.,-1.));
#1350=DIRECTION('center_axis',(0.,-1.,0.));
#1351=DIRECTION('ref_axis',(0.,0.,1.));
#1352=DIRECTION('center_axis',(0.,-1.,0.));
#1353=DIRECTION('ref_axis',(0.,0.,1.));
#1354=DIRECTION('center_axis',(-1.,0.,0.));
#1355=DIRECTION('ref_axis',(0.,1.,0.));
#1356=DIRECTION('',(-1.,0.,0.));
#1357=DIRECTION('center_axis',(-1.,0.,0.));
#1358=DIRECTION('ref_axis',(0.,1.,0.));
#1359=DIRECTION('center_axis',(1.,0.,0.));
#1360=DIRECTION('ref_axis',(0.,1.,0.));
#1361=DIRECTION('',(0.,1.,0.));
#1362=DIRECTION('',(0.,-1.,0.));
#1363=DIRECTION('',(0.,0.,1.));
#1364=DIRECTION('center_axis',(-1.,0.,0.));
#1365=DIRECTION('ref_axis',(0.,0.,-1.));
#1366=DIRECTION('',(0.,1.,0.));
#1367=DIRECTION('',(0.,-1.,0.));
#1368=DIRECTION('center_axis',(1.,0.,0.));
#1369=DIRECTION('ref_axis',(0.,0.,1.));
#1370=DIRECTION('',(0.,1.,0.));
#1371=DIRECTION('',(0.,1.,0.));
#1372=DIRECTION('center_axis',(0.,-1.,0.));
#1373=DIRECTION('ref_axis',(0.,0.,1.));
#1374=DIRECTION('',(0.,-1.,0.));
#1375=DIRECTION('center_axis',(0.,1.,0.));
#1376=DIRECTION('ref_axis',(0.,0.,1.));
#1377=DIRECTION('center_axis',(0.,0.,-1.));
#1378=DIRECTION('ref_axis',(0.,1.,0.));
#1379=DIRECTION('',(1.,0.,0.));
#1380=DIRECTION('center_axis',(0.,1.,0.));
#1381=DIRECTION('ref_axis',(0.,0.,1.));
#1382=DIRECTION('',(1.,0.,0.));
#1383=DIRECTION('center_axis',(0.,0.,1.));
#1384=DIRECTION('ref_axis',(0.,-1.,0.));
#1385=DIRECTION('center_axis',(0.,-1.,0.));
#1386=DIRECTION('ref_axis',(0.,0.,1.));
#1387=DIRECTION('',(0.,-1.,0.));
#1388=DIRECTION('center_axis',(0.,1.,0.));
#1389=DIRECTION('ref_axis',(0.,0.,1.));
#1390=DIRECTION('center_axis',(0.,-1.,0.));
#1391=DIRECTION('ref_axis',(0.,0.,1.));
#1392=DIRECTION('',(0.,-1.,0.));
#1393=DIRECTION('center_axis',(0.,1.,0.));
#1394=DIRECTION('ref_axis',(0.,0.,1.));
#1395=DIRECTION('center_axis',(0.,-1.,0.));
#1396=DIRECTION('ref_axis',(0.,0.,1.));
#1397=DIRECTION('',(0.,-1.,0.));
#1398=DIRECTION('center_axis',(0.,1.,0.));
#1399=DIRECTION('ref_axis',(0.,0.,1.));
#1400=DIRECTION('center_axis',(-1.,0.,0.));
#1401=DIRECTION('ref_axis',(0.,-1.,0.));
#1402=DIRECTION('center_axis',(-1.,0.,0.));
#1403=DIRECTION('ref_axis',(0.,-1.,0.));
#1404=DIRECTION('center_axis',(-1.,0.,0.));
#1405=DIRECTION('ref_axis',(0.,-1.,0.));
#1406=DIRECTION('center_axis',(-1.,0.,0.));
#1407=DIRECTION('ref_axis',(0.,-1.,0.));
#1408=DIRECTION('center_axis',(-1.,0.,0.));
#1409=DIRECTION('ref_axis',(0.,-1.,0.));
#1410=DIRECTION('center_axis',(-1.,0.,0.));
#1411=DIRECTION('ref_axis',(0.,-1.,0.));
#1412=DIRECTION('center_axis',(0.,0.,-1.));
#1413=DIRECTION('ref_axis',(-1.,0.,0.));
#1414=DIRECTION('',(1.,0.,0.));
#1415=DIRECTION('',(0.,-1.,0.));
#1416=DIRECTION('center_axis',(0.,-0.707106781186542,-0.707106781186553));
#1417=DIRECTION('ref_axis',(-1.,0.,0.));
#1418=DIRECTION('',(-1.,0.,0.));
#1419=DIRECTION('',(-6.28036983473506E-15,0.707106781186553,-0.707106781186542));
#1420=DIRECTION('center_axis',(0.,-1.,0.));
#1421=DIRECTION('ref_axis',(0.,0.,-1.));
#1422=DIRECTION('',(1.,0.,0.));
#1423=DIRECTION('',(-2.22044604925031E-16,0.,1.));
#1424=DIRECTION('center_axis',(0.,-0.707106781186541,0.707106781186554));
#1425=DIRECTION('ref_axis',(1.,0.,0.));
#1426=DIRECTION('',(-1.25607396694701E-14,-0.707106781186554,-0.707106781186541));
#1427=DIRECTION('center_axis',(-0.577350223305895,-0.577350292131488,-0.577350292131492));
#1428=DIRECTION('ref_axis',(-0.707106823333445,0.,0.707106739039647));
#1429=DIRECTION('',(-0.707106823333432,-2.51214778415824E-14,0.70710673903966));
#1430=DIRECTION('',(0.70710682333344,-0.707106739039652,6.28036946039561E-15));
#1431=DIRECTION('center_axis',(-0.577350389634229,0.577350208967243,0.577350208967387));
#1432=DIRECTION('ref_axis',(0.70710667055115,0.,0.707106891821927));
#1433=DIRECTION('',(-0.70710682333341,-3.05564618417988E-7,-0.707106739039616));
#1434=DIRECTION('',(0.707106670551062,0.707106891822015,0.));
#1435=DIRECTION('center_axis',(-0.577350389634235,0.577350208967249,-0.577350208967375));
#1436=DIRECTION('ref_axis',(-0.70710667055114,0.,0.707106891821938));
#1437=DIRECTION('',(-0.707106670551062,-0.707106891822015,-6.28036810341695E-15));
#1438=DIRECTION('',(0.707106823333399,3.05564618417994E-7,-0.707106739039627));
#1439=DIRECTION('center_axis',(-0.577350223305889,-0.577350292131482,0.577350292131503));
#1440=DIRECTION('ref_axis',(0.707106823333456,0.,0.707106739039637));
#1441=DIRECTION('',(-0.70710682333344,0.707106739039652,0.));
#1442=DIRECTION('',(0.707106823333443,2.51214778415819E-14,0.707106739039649));
#1443=DIRECTION('center_axis',(-0.707106739039649,0.,0.707106823333443));
#1444=DIRECTION('ref_axis',(0.707106823333443,0.,0.707106739039649));
#1445=DIRECTION('',(0.,-1.,0.));
#1446=DIRECTION('center_axis',(-0.707106739039653,-0.70710682333344,-1.57009236509887E-16));
#1447=DIRECTION('ref_axis',(-2.22044604925031E-16,0.,1.));
#1448=DIRECTION('',(2.22044604925031E-16,0.,-1.));
#1449=DIRECTION('center_axis',(-0.70710673903966,0.,-0.707106823333432));
#1450=DIRECTION('ref_axis',(-0.707106823333432,0.,0.70710673903966));
#1451=DIRECTION('',(0.,1.,0.));
#1452=DIRECTION('center_axis',(-0.707106891822015,0.707106670551062,-1.57009270434386E-16));
#1453=DIRECTION('ref_axis',(-2.22044604925031E-16,0.,1.));
#1454=DIRECTION('',(-2.22044604925031E-16,0.,1.));
#1455=DIRECTION('center_axis',(-1.,0.,-2.22044604925031E-16));
#1456=DIRECTION('ref_axis',(-2.22044604925031E-16,0.,1.));
#1457=DIRECTION('center_axis',(1.,0.,2.22044604925031E-16));
#1458=DIRECTION('ref_axis',(0.,-1.,0.));
#1459=DIRECTION('center_axis',(1.,0.,0.));
#1460=DIRECTION('ref_axis',(0.,-1.,0.));
#1461=DIRECTION('',(1.,0.,0.));
#1462=DIRECTION('center_axis',(-1.,0.,0.));
#1463=DIRECTION('ref_axis',(0.,-1.,0.));
#1464=DIRECTION('center_axis',(-1.,0.,0.));
#1465=DIRECTION('ref_axis',(0.,-1.,0.));
#1466=DIRECTION('center_axis',(-1.,0.,0.));
#1467=DIRECTION('ref_axis',(0.,-1.,0.));
#1468=DIRECTION('center_axis',(-1.,0.,0.));
#1469=DIRECTION('ref_axis',(0.,-1.,0.));
#1470=DIRECTION('center_axis',(-1.,0.,0.));
#1471=DIRECTION('ref_axis',(0.,-1.,0.));
#1472=DIRECTION('center_axis',(-1.,0.,0.));
#1473=DIRECTION('ref_axis',(0.,-1.,0.));
#1474=DIRECTION('center_axis',(-1.,0.,0.));
#1475=DIRECTION('ref_axis',(0.,-1.,0.));
#1476=DIRECTION('center_axis',(-1.,0.,0.));
#1477=DIRECTION('ref_axis',(0.,-1.,0.));
#1478=DIRECTION('center_axis',(1.,0.,0.));
#1479=DIRECTION('ref_axis',(0.,-1.,0.));
#1480=DIRECTION('',(1.,0.,0.));
#1481=DIRECTION('center_axis',(1.,0.,0.));
#1482=DIRECTION('ref_axis',(0.,-1.,0.));
#1483=DIRECTION('',(1.,0.,0.));
#1484=DIRECTION('center_axis',(1.,0.,0.));
#1485=DIRECTION('ref_axis',(0.,-1.,0.));
#1486=DIRECTION('',(1.,0.,0.));
#1487=DIRECTION('center_axis',(1.,0.,0.));
#1488=DIRECTION('ref_axis',(0.,-1.,0.));
#1489=DIRECTION('',(1.,0.,0.));
#1490=DIRECTION('center_axis',(1.,0.,0.));
#1491=DIRECTION('ref_axis',(0.,0.,-1.));
#1492=DIRECTION('center_axis',(-1.,0.,0.));
#1493=DIRECTION('ref_axis',(0.,-1.,0.));
#1494=DIRECTION('center_axis',(-1.,0.,0.));
#1495=DIRECTION('ref_axis',(0.,-1.,0.));
#1496=DIRECTION('',(1.,0.,0.));
#1497=DIRECTION('center_axis',(1.,0.,0.));
#1498=DIRECTION('ref_axis',(0.,-1.,0.));
#1499=DIRECTION('center_axis',(-1.,0.,0.));
#1500=DIRECTION('ref_axis',(0.,-1.,0.));
#1501=DIRECTION('center_axis',(1.,0.,0.));
#1502=DIRECTION('ref_axis',(0.,-1.,0.));
#1503=DIRECTION('center_axis',(-1.,0.,0.));
#1504=DIRECTION('ref_axis',(0.,1.,0.));
#1505=DIRECTION('center_axis',(-1.,0.,0.));
#1506=DIRECTION('ref_axis',(0.,1.,0.));
#1507=DIRECTION('',(1.,0.,0.));
#1508=DIRECTION('center_axis',(1.,0.,0.));
#1509=DIRECTION('ref_axis',(0.,1.,0.));
#1510=DIRECTION('center_axis',(1.,0.,0.));
#1511=DIRECTION('ref_axis',(0.,0.,-1.));
#1512=DIRECTION('center_axis',(-1.,0.,0.));
#1513=DIRECTION('ref_axis',(0.,1.,0.));
#1514=DIRECTION('',(1.,0.,0.));
#1515=DIRECTION('center_axis',(-1.,0.,0.));
#1516=DIRECTION('ref_axis',(0.,1.,0.));
#1517=DIRECTION('center_axis',(-1.,0.,0.));
#1518=DIRECTION('ref_axis',(0.,1.,0.));
#1519=DIRECTION('',(0.707106781186546,0.707106781186549,-8.65956056235494E-17));
#1520=DIRECTION('center_axis',(-1.,0.,0.));
#1521=DIRECTION('ref_axis',(0.,1.,0.));
#1522=DIRECTION('center_axis',(1.,0.,0.));
#1523=DIRECTION('ref_axis',(0.,1.,0.));
#1524=DIRECTION('center_axis',(-1.,0.,0.));
#1525=DIRECTION('ref_axis',(0.,1.,0.));
#1526=DIRECTION('',(-1.,0.,0.));
#1527=DIRECTION('center_axis',(1.,0.,0.));
#1528=DIRECTION('ref_axis',(0.,1.,0.));
#1529=DIRECTION('center_axis',(1.,0.,0.));
#1530=DIRECTION('ref_axis',(0.,1.,0.));
#1531=DIRECTION('center_axis',(1.,0.,0.));
#1532=DIRECTION('ref_axis',(0.,1.,0.));
#1533=DIRECTION('center_axis',(1.,0.,0.));
#1534=DIRECTION('ref_axis',(0.,1.,0.));
#1535=DIRECTION('center_axis',(-1.,0.,0.));
#1536=DIRECTION('ref_axis',(0.,1.,0.));
#1537=DIRECTION('',(-1.,0.,0.));
#1538=CARTESIAN_POINT('',(0.,0.,0.));
#1539=CARTESIAN_POINT('Origin',(-33.699502346102,-216.687657356263,104.245821163241));
#1540=CARTESIAN_POINT('',(-33.699502346102,-220.287657356263,104.245821163241));
#1541=CARTESIAN_POINT('Origin',(-33.699502346102,-216.687657356263,104.245821163241));
#1542=CARTESIAN_POINT('',(-35.499502346102,-220.287657356263,104.245821163241));
#1543=CARTESIAN_POINT('',(-33.699502346102,-220.287657356263,104.245821163241));
#1544=CARTESIAN_POINT('Origin',(-35.499502346102,-216.687657356263,104.245821163241));
#1545=CARTESIAN_POINT('Origin',(-33.699502346102,-221.500003255904,105.000000163913));
#1546=CARTESIAN_POINT('',(-33.699502346102,-229.187657356263,104.245821163241));
#1547=CARTESIAN_POINT('Origin',(-33.699502346102,-216.687657356263,104.245821163241));
#1548=CARTESIAN_POINT('Origin',(-21.499502346102,-216.687657356263,104.245821163241));
#1549=CARTESIAN_POINT('',(-32.499502346102,-229.187657356263,104.245821163241));
#1550=CARTESIAN_POINT('Origin',(-32.499502346102,-216.687657356263,104.245821163241));
#1551=CARTESIAN_POINT('',(-21.499502346102,-229.187657356263,104.245821163241));
#1552=CARTESIAN_POINT('Origin',(-51.5000007599592,-202.000003010035,135.500000536442));
#1553=CARTESIAN_POINT('',(-52.0000007599592,-203.000003010035,136.000000536442));
#1554=CARTESIAN_POINT('',(-52.0000007599592,-228.000003010035,136.000000536442));
#1555=CARTESIAN_POINT('',(-52.0000007599592,-202.000003010035,136.000000536442));
#1556=CARTESIAN_POINT('',(-51.0000007599592,-227.000003010035,135.000000536442));
#1557=CARTESIAN_POINT('',(-52.0000007599592,-228.000003010035,136.000000536442));
#1558=CARTESIAN_POINT('',(-51.0000007599592,-202.000003010035,135.000000536442));
#1559=CARTESIAN_POINT('',(-51.0000007599592,-202.000003010035,135.000000536442));
#1560=CARTESIAN_POINT('',(-52.0000007599592,-203.000003010035,136.000000536442));
#1561=CARTESIAN_POINT('Origin',(-61.499502346102,-202.500003010035,135.500000536442));
#1562=CARTESIAN_POINT('',(-62.499502346102,-203.000003010035,136.000000536442));
#1563=CARTESIAN_POINT('',(-61.499502346102,-203.000003010035,136.000000536442));
#1564=CARTESIAN_POINT('',(-62.4995023461023,-202.000003010035,135.000000536442));
#1565=CARTESIAN_POINT('',(-61.499502346102,-202.000003010035,135.000000536442));
#1566=CARTESIAN_POINT('',(-62.4995023461023,-202.000003010035,135.000000536442));
#1567=CARTESIAN_POINT('Origin',(-33.499502346102,-240.000003501773,73.9999997913837));
#1568=CARTESIAN_POINT('',(-33.499502346102,-241.000003501773,74.9999997913837));
#1569=CARTESIAN_POINT('',(-32.499502346102,-240.000003501773,74.9999997913837));
#1570=CARTESIAN_POINT('',(-33.499502346102,-241.000003501773,74.9999997913837));
#1571=CARTESIAN_POINT('',(-33.499502346102,-240.000003501773,73.9999997913837));
#1572=CARTESIAN_POINT('',(-33.499502346102,-240.000003501773,73.9999997913837));
#1573=CARTESIAN_POINT('',(-32.499502346102,-240.000003501773,74.9999997913837));
#1574=CARTESIAN_POINT('Origin',(-33.499502346102,-202.000003010035,74.9999997913837));
#1575=CARTESIAN_POINT('',(-33.499502346102,-203.000003010035,73.9999997913837));
#1576=CARTESIAN_POINT('',(-32.499502346102,-203.000003010035,74.9999997913837));
#1577=CARTESIAN_POINT('',(-33.499502346102,-203.000003010035,73.9999997913837));
#1578=CARTESIAN_POINT('',(-33.499502346102,-202.000003010035,74.9999997913837));
#1579=CARTESIAN_POINT('',(-33.499502346102,-202.000003010035,74.9999997913837));
#1580=CARTESIAN_POINT('',(-32.499502346102,-203.000003010035,74.9999997913837));
#1581=CARTESIAN_POINT('Origin',(-61.499502346102,-202.500003010035,74.4999997913837));
#1582=CARTESIAN_POINT('',(-62.4995023461023,-202.000003010035,74.9999997913837));
#1583=CARTESIAN_POINT('',(-61.499502346102,-202.000003010035,74.9999997913837));
#1584=CARTESIAN_POINT('',(-62.499502346102,-203.000003010035,73.9999997913837));
#1585=CARTESIAN_POINT('',(-61.499502346102,-203.000003010035,73.9999997913837));
#1586=CARTESIAN_POINT('',(-62.499502346102,-203.000003010035,73.9999997913837));
#1587=CARTESIAN_POINT('Origin',(-33.499502346102,-241.000003501773,135.000000536442));
#1588=CARTESIAN_POINT('',(-33.499502346102,-240.000003501773,136.000000536442));
#1589=CARTESIAN_POINT('',(-32.499502346102,-240.000003501773,135.000000536442));
#1590=CARTESIAN_POINT('',(-33.499502346102,-240.000003501773,136.000000536442));
#1591=CARTESIAN_POINT('',(-33.499502346102,-241.000003501773,135.000000536442));
#1592=CARTESIAN_POINT('',(-33.499502346102,-241.000003501773,135.000000536442));
#1593=CARTESIAN_POINT('',(-32.499502346102,-240.000003501773,135.000000536442));
#1594=CARTESIAN_POINT('Origin',(-32.999502346102,-240.500003501773,117.500000350177));
#1595=CARTESIAN_POINT('',(-32.499502346102,-240.000003501773,117.500000350177));
#1596=CARTESIAN_POINT('',(-33.499502346102,-241.000003501773,117.500000350177));
#1597=CARTESIAN_POINT('Origin',(-33.499502346102,-203.000003010035,136.000000536442));
#1598=CARTESIAN_POINT('',(-33.499502346102,-202.000003010035,135.000000536442));
#1599=CARTESIAN_POINT('',(-32.499502346102,-203.000003010035,135.000000536442));
#1600=CARTESIAN_POINT('',(-33.499502346102,-202.000003010035,135.000000536442));
#1601=CARTESIAN_POINT('',(-33.499502346102,-203.000003010035,136.000000536442));
#1602=CARTESIAN_POINT('',(-33.499502346102,-203.000003010035,136.000000536442));
#1603=CARTESIAN_POINT('',(-32.499502346102,-203.000003010035,135.000000536442));
#1604=CARTESIAN_POINT('Origin',(-61.499502346102,-202.500003010035,135.500000536442));
#1605=CARTESIAN_POINT('',(-43.0000006556511,-203.000003010035,136.000000536442));
#1606=CARTESIAN_POINT('',(-61.499502346102,-203.000003010035,136.000000536442));
#1607=CARTESIAN_POINT('',(-44.0000006556511,-202.000003010035,135.000000536442));
#1608=CARTESIAN_POINT('',(-61.499502346102,-202.000003010035,135.000000536442));
#1609=CARTESIAN_POINT('',(-44.0000006556511,-202.000003010035,135.000000536442));
#1610=CARTESIAN_POINT('Origin',(-32.999502346102,-211.750003132969,135.500000536442));
#1611=CARTESIAN_POINT('',(-32.499502346102,-211.750003132969,135.000000536442));
#1612=CARTESIAN_POINT('',(-33.499502346102,-211.750003132969,136.000000536442));
#1613=CARTESIAN_POINT('Origin',(-32.999502346102,-202.500003010035,92.4999999776483));
#1614=CARTESIAN_POINT('',(-32.499502346102,-203.000003010035,92.4999999776483));
#1615=CARTESIAN_POINT('',(-33.499502346102,-202.000003010035,92.4999999776483));
#1616=CARTESIAN_POINT('Origin',(-32.999502346102,-228.250003378838,74.4999997913837));
#1617=CARTESIAN_POINT('',(-32.499502346102,-228.250003378838,74.9999997913837));
#1618=CARTESIAN_POINT('',(-33.499502346102,-228.250003378838,73.9999997913837));
#1619=CARTESIAN_POINT('Origin',(-43.5000006556511,-202.000003010035,135.500000536442));
#1620=CARTESIAN_POINT('',(-43.0000006556511,-228.000003010035,136.000000536442));
#1621=CARTESIAN_POINT('',(-43.0000006556511,-202.000003010035,136.000000536442));
#1622=CARTESIAN_POINT('',(-44.0000006556511,-227.000003010035,135.000000536442));
#1623=CARTESIAN_POINT('',(-44.0000006556511,-202.000003010035,135.000000536442));
#1624=CARTESIAN_POINT('',(-44.0000006556511,-227.000003010035,135.000000536442));
#1625=CARTESIAN_POINT('Origin',(-54.4997515269536,-227.500003010035,135.500000536442));
#1626=CARTESIAN_POINT('',(-54.4997515269536,-228.000003010035,136.000000536442));
#1627=CARTESIAN_POINT('',(-54.4997515269536,-227.000003010035,135.000000536442));
#1628=CARTESIAN_POINT('Origin',(-51.0000007599592,-202.000003010035,136.000000625849));
#1629=CARTESIAN_POINT('',(-51.0000007599592,-227.000003010035,131.906894247259));
#1630=CARTESIAN_POINT('',(-51.0000007599592,-227.000003010035,136.000000625849));
#1631=CARTESIAN_POINT('',(-51.0000007599592,-202.000003010035,131.906894247259));
#1632=CARTESIAN_POINT('',(-51.0000007599592,-220.000003278255,131.906894247259));
#1633=CARTESIAN_POINT('',(-51.0000007599592,-202.000003010035,108.000000208616));
#1634=CARTESIAN_POINT('Origin',(-47.5000007078052,-227.000003010035,131.000000551343));
#1635=CARTESIAN_POINT('',(-44.0000006556511,-227.000003010035,131.984440873063));
#1636=CARTESIAN_POINT('',(-44.0000006556511,-227.000003010035,126.000000476837));
#1637=CARTESIAN_POINT('',(-44.0000006556511,-227.000003010035,127.916484919956));
#1638=CARTESIAN_POINT('Origin',(-42.5464073181264,-227.000003010035,129.95046289651));
#1639=CARTESIAN_POINT('',(-44.0000006556511,-227.000003010035,126.000000476837));
#1640=CARTESIAN_POINT('',(-44.0000006556511,-227.000003010035,126.000000476837));
#1641=CARTESIAN_POINT('',(-51.0000007599592,-227.000003010035,126.000000476837));
#1642=CARTESIAN_POINT('',(-54.4997515269536,-227.000003010035,126.000000476837));
#1643=CARTESIAN_POINT('',(-51.0000007599592,-227.000003010035,127.952481461764));
#1644=CARTESIAN_POINT('',(-51.0000007599592,-227.000003010035,136.000000625849));
#1645=CARTESIAN_POINT('Origin',(-52.5299206534438,-227.000003010035,129.929687854512));
#1646=CARTESIAN_POINT('Origin',(-44.0000006556511,-202.000003010035,126.000000476837));
#1647=CARTESIAN_POINT('',(-44.0000006556511,-202.000003010035,131.984440873063));
#1648=CARTESIAN_POINT('',(-44.0000006556511,-202.000003010035,103.00000013411));
#1649=CARTESIAN_POINT('',(-44.0000006556511,-229.000003010035,131.984440873063));
#1650=CARTESIAN_POINT('Origin',(-61.499502346102,-202.000003010035,136.000000536442));
#1651=CARTESIAN_POINT('',(-62.499502346102,-240.000003501773,136.000000536442));
#1652=CARTESIAN_POINT('',(-61.499502346102,-240.000003501773,136.000000536442));
#1653=CARTESIAN_POINT('',(-62.499502346102,-209.362979095936,136.000000536442));
#1654=CARTESIAN_POINT('Origin',(-60.4995023461022,-216.500003442168,105.000000476837));
#1655=CARTESIAN_POINT('',(-60.4995023461022,-231.000003442168,126.000000476837));
#1656=CARTESIAN_POINT('',(-60.4995023461022,-202.000003442168,126.000000476837));
#1657=CARTESIAN_POINT('',(-60.4995023461022,-202.000003442168,126.000000476837));
#1658=CARTESIAN_POINT('',(-60.4995023461022,-231.000003442168,84.0000004768372));
#1659=CARTESIAN_POINT('',(-60.4995023461022,-231.000003442168,126.000000476837));
#1660=CARTESIAN_POINT('',(-60.4995023461022,-202.000003442168,84.0000004768372));
#1661=CARTESIAN_POINT('',(-60.4995023461022,-231.000003442168,84.0000004768372));
#1662=CARTESIAN_POINT('',(-60.4995023461022,-202.000003010035,92.5000001341105));
#1663=CARTESIAN_POINT('',(-60.4995023461022,-218.187665488602,104.246622295459));
#1664=CARTESIAN_POINT('Origin',(-60.4995023461022,-216.687665488602,104.246622295459));
#1665=CARTESIAN_POINT('Origin',(-61.499502346102,-202.000003010035,79.9999997913837));
#1666=CARTESIAN_POINT('',(-52.5299206534438,-202.000003010035,127.429687854512));
#1667=CARTESIAN_POINT('Origin',(-52.5299206534438,-202.000003010035,129.929687854512));
#1668=CARTESIAN_POINT('',(-51.0000007599592,-202.000003010035,127.952481461764));
#1669=CARTESIAN_POINT('Origin',(-52.5299206534438,-202.000003010035,129.929687854512));
#1670=CARTESIAN_POINT('',(-51.0000007599592,-202.000003010035,126.000000476837));
#1671=CARTESIAN_POINT('',(-51.0000007599592,-202.000003010035,108.000000208616));
#1672=CARTESIAN_POINT('',(-61.499502346102,-202.000003010035,126.000000476837));
#1673=CARTESIAN_POINT('',(-35.499502346102,-202.000003010035,83.9999998509884));
#1674=CARTESIAN_POINT('',(-61.499502346102,-202.000003010035,83.9999998509884));
#1675=CARTESIAN_POINT('',(-35.499502346102,-202.000003010035,126.000000476837));
#1676=CARTESIAN_POINT('',(-35.499502346102,-202.000003010035,136.000000536442));
#1677=CARTESIAN_POINT('',(-44.0000006556511,-202.000003010035,126.000000476837));
#1678=CARTESIAN_POINT('',(-61.499502346102,-202.000003010035,126.000000476837));
#1679=CARTESIAN_POINT('',(-44.0000006556511,-202.000003010035,127.916484919956));
#1680=CARTESIAN_POINT('',(-44.0000006556511,-202.000003010035,103.00000013411));
#1681=CARTESIAN_POINT('',(-42.5464073181264,-202.000003010035,127.45046289651));
#1682=CARTESIAN_POINT('Origin',(-42.5464073181264,-202.000003010035,129.95046289651));
#1683=CARTESIAN_POINT('Origin',(-42.5464073181264,-202.000003010035,129.95046289651));
#1684=CARTESIAN_POINT('',(-62.4995023461023,-202.000003010035,92.0830373317565));
#1685=CARTESIAN_POINT('',(-52.5817932501106,-202.000003010035,77.835597990279));
#1686=CARTESIAN_POINT('Origin',(-52.5817932501106,-202.000003010035,80.335597990279));
#1687=CARTESIAN_POINT('',(-42.5778145134082,-202.000003010035,77.8262773361165));
#1688=CARTESIAN_POINT('Origin',(-42.5778145134082,-202.000003010035,80.3262773361165));
#1689=CARTESIAN_POINT('Origin',(-58.4995023461022,-216.687665488602,104.246622295459));
#1690=CARTESIAN_POINT('',(-61.4995024653115,-218.187665488602,104.246622295459));
#1691=CARTESIAN_POINT('',(-58.4995023461022,-218.187665488602,104.246622295459));
#1692=CARTESIAN_POINT('Origin',(-61.4995024653115,-216.687665488602,104.246622295459));
#1693=CARTESIAN_POINT('Origin',(-35.499502346102,-221.500003255904,105.000000163913));
#1694=CARTESIAN_POINT('',(-35.499502346102,-231.000003442168,126.000000476837));
#1695=CARTESIAN_POINT('',(-35.499502346102,-231.000003442168,126.000000476837));
#1696=CARTESIAN_POINT('',(-35.499502346102,-231.000003442168,83.9999998509884));
#1697=CARTESIAN_POINT('',(-35.499502346102,-231.000003442168,83.9999998509884));
#1698=CARTESIAN_POINT('',(-35.499502346102,-231.000003442168,126.000000476837));
#1699=CARTESIAN_POINT('Origin',(-51.0000007599592,-202.000003010035,136.000000625849));
#1700=CARTESIAN_POINT('',(-51.0000007599592,-229.000003010035,127.952481461764));
#1701=CARTESIAN_POINT('',(-51.0000007599592,-216.500003226101,126.000000476837));
#1702=CARTESIAN_POINT('Origin',(-44.0000006556511,-202.000003010035,126.000000476837));
#1703=CARTESIAN_POINT('',(-44.0000006556511,-220.000003278255,127.916484919956));
#1704=CARTESIAN_POINT('',(-44.0000006556511,-216.500003226101,126.000000476837));
#1705=CARTESIAN_POINT('Origin',(-42.5464073181264,-229.000003010035,129.95046289651));
#1706=CARTESIAN_POINT('',(-42.5464073181264,-241.000003501773,127.45046289651));
#1707=CARTESIAN_POINT('',(-42.5464073181264,-229.000003010035,127.45046289651));
#1708=CARTESIAN_POINT('Origin',(-42.5464073181264,-241.000003501773,129.95046289651));
#1709=CARTESIAN_POINT('Origin',(-61.499502346102,-231.000003442168,126.000000476837));
#1710=CARTESIAN_POINT('',(-61.499502346102,-231.000003442168,126.000000476837));
#1711=CARTESIAN_POINT('Origin',(-61.499502346102,-231.000003442168,83.9999998509884));
#1712=CARTESIAN_POINT('',(-61.499502346102,-231.000003442168,83.9999998509884));
#1713=CARTESIAN_POINT('Origin',(-61.499502346102,-202.000003010035,83.9999998509884));
#1714=CARTESIAN_POINT('Origin',(-42.5778145134082,-229.000003010035,80.3262773361165));
#1715=CARTESIAN_POINT('',(-42.5778145134082,-241.000003501773,77.8262773361165));
#1716=CARTESIAN_POINT('',(-42.5778145134082,-229.000003010035,77.8262773361165));
#1717=CARTESIAN_POINT('Origin',(-42.5778145134082,-241.000003501773,80.3262773361165));
#1718=CARTESIAN_POINT('Origin',(-52.5817932501106,-229.000003010035,80.335597990279));
#1719=CARTESIAN_POINT('',(-52.5817932501106,-241.000003501773,77.835597990279));
#1720=CARTESIAN_POINT('',(-52.5817932501106,-229.000003010035,77.835597990279));
#1721=CARTESIAN_POINT('Origin',(-52.5817932501106,-241.000003501773,80.335597990279));
#1722=CARTESIAN_POINT('Origin',(-52.5299206534438,-229.000003010035,129.929687854512));
#1723=CARTESIAN_POINT('',(-52.5299206534438,-241.000003501773,127.429687854512));
#1724=CARTESIAN_POINT('',(-52.5299206534438,-229.000003010035,127.429687854512));
#1725=CARTESIAN_POINT('Origin',(-52.5299206534438,-241.000003501773,129.929687854512));
#1726=CARTESIAN_POINT('Origin',(-61.4995024653115,-216.687657356262,104.245821163241));
#1727=CARTESIAN_POINT('',(-61.4995024653115,-206.187657356262,104.245821163241));
#1728=CARTESIAN_POINT('Origin',(-61.4995024653115,-216.687657356262,104.245821163241));
#1729=CARTESIAN_POINT('',(-61.4995025845208,-223.33767645466,104.246603856824));
#1730=CARTESIAN_POINT('Origin',(-61.4995025845208,-223.93767645466,104.246603856824));
#1731=CARTESIAN_POINT('',(-61.4995025845208,-208.837698133471,104.24661664001));
#1732=CARTESIAN_POINT('Origin',(-61.4995025845208,-209.437698133471,104.24661664001));
#1733=CARTESIAN_POINT('',(-61.4995025845208,-216.087697721027,111.49660867734));
#1734=CARTESIAN_POINT('Origin',(-61.4995025845208,-216.687697721027,111.49660867734));
#1735=CARTESIAN_POINT('',(-61.4995025845208,-216.087696734866,96.9966316560189));
#1736=CARTESIAN_POINT('Origin',(-61.4995025845208,-216.687696734866,96.9966316560189));
#1737=CARTESIAN_POINT('Origin',(-61.499502346102,-235.000003501773,73.9999997913837));
#1738=CARTESIAN_POINT('',(-62.499502346102,-240.000003501773,73.9999997913837));
#1739=CARTESIAN_POINT('',(-61.499502346102,-240.000003501773,73.9999997913837));
#1740=CARTESIAN_POINT('',(-62.499502346102,-225.862979341806,73.9999997913837));
#1741=CARTESIAN_POINT('Origin',(-61.499502346102,-240.500003501773,74.4999997913837));
#1742=CARTESIAN_POINT('',(-62.499502346102,-241.000003501773,74.9999997913837));
#1743=CARTESIAN_POINT('',(-61.499502346102,-241.000003501773,74.9999997913837));
#1744=CARTESIAN_POINT('',(-62.499502346102,-241.000003501773,74.9999997913837));
#1745=CARTESIAN_POINT('Origin',(-61.499502346102,-241.000003501773,130.000000536442));
#1746=CARTESIAN_POINT('',(-62.499502346102,-241.000003501773,135.000000536442));
#1747=CARTESIAN_POINT('',(-61.499502346102,-241.000003501773,135.000000536442));
#1748=CARTESIAN_POINT('',(-62.499502346102,-241.000003501773,117.083037704286));
#1749=CARTESIAN_POINT('Origin',(-61.499502346102,-240.500003501773,135.500000536442));
#1750=CARTESIAN_POINT('',(-62.499502346102,-240.000003501773,136.000000536442));
#1751=CARTESIAN_POINT('Origin',(-62.499502346102,-241.000003501773,74.9999997913837));
#1752=CARTESIAN_POINT('',(-63.4995024653114,-240.000003501773,74.9999997913837));
#1753=CARTESIAN_POINT('',(-62.499502346102,-240.000003501773,73.9999997913837));
#1754=CARTESIAN_POINT('',(-63.4995024653114,-240.000003501773,74.9999997913837));
#1755=CARTESIAN_POINT('Origin',(-62.4995023461023,-202.000003010035,135.000000536442));
#1756=CARTESIAN_POINT('',(-63.4995024653115,-203.000003442168,135.000000536442));
#1757=CARTESIAN_POINT('',(-62.499502346102,-203.000003010035,136.000000536442));
#1758=CARTESIAN_POINT('',(-63.4995024653115,-203.000003442168,135.000000536442));
#1759=CARTESIAN_POINT('Origin',(-62.499502346102,-203.000003010035,73.9999997913837));
#1760=CARTESIAN_POINT('',(-63.4995024653115,-203.000003442168,74.9999997913837));
#1761=CARTESIAN_POINT('',(-62.4995023461023,-202.000003010035,74.9999997913837));
#1762=CARTESIAN_POINT('',(-63.4995024653114,-203.000003442168,74.9999997913837));
#1763=CARTESIAN_POINT('Origin',(-62.499502346102,-240.000003501773,136.000000536442));
#1764=CARTESIAN_POINT('',(-63.4995024653115,-240.000003501773,135.000000536442));
#1765=CARTESIAN_POINT('',(-62.499502346102,-241.000003501773,135.000000536442));
#1766=CARTESIAN_POINT('',(-63.4995024653115,-240.000003501773,135.000000536442));
#1767=CARTESIAN_POINT('Origin',(-62.9995024057067,-209.362979095936,135.500000536442));
#1768=CARTESIAN_POINT('',(-63.4995024653115,-209.362979095936,135.000000536442));
#1769=CARTESIAN_POINT('Origin',(-62.9995024057067,-240.500003501773,117.083037704286));
#1770=CARTESIAN_POINT('',(-63.4995024653115,-240.000003501773,117.083037704286));
#1771=CARTESIAN_POINT('Origin',(-62.9995024057067,-225.862979341806,74.4999997913837));
#1772=CARTESIAN_POINT('',(-63.4995024653114,-225.862979341806,74.9999997913837));
#1773=CARTESIAN_POINT('Origin',(-62.9995024057069,-202.500003226101,92.0830373317565));
#1774=CARTESIAN_POINT('',(-63.4995024653115,-203.000003442168,92.0830373317565));
#1775=CARTESIAN_POINT('Origin',(-63.4995024653115,-216.725955181838,104.166074872129));
#1776=CARTESIAN_POINT('',(-63.4995024653115,-206.187657356262,104.245821163241));
#1777=CARTESIAN_POINT('Origin',(-63.4995024653115,-216.687657356262,104.245821163241));
#1778=CARTESIAN_POINT('Origin',(-63.4995024653115,-216.687657356262,104.245821163241));
#1779=CARTESIAN_POINT('',(-63.4995024653115,-206.187657356262,104.245821163241));
#1780=CARTESIAN_POINT('Origin',(-62.4995025845208,-216.687696734866,96.9966316560189));
#1781=CARTESIAN_POINT('',(-62.4995025845208,-216.087696734866,96.9966316560189));
#1782=CARTESIAN_POINT('Origin',(-62.4995025845208,-216.687696734866,96.9966316560189));
#1783=CARTESIAN_POINT('Origin',(-62.4995025845208,-216.687697721027,111.49660867734));
#1784=CARTESIAN_POINT('',(-62.4995025845208,-216.087697721027,111.49660867734));
#1785=CARTESIAN_POINT('Origin',(-62.4995025845208,-216.687697721027,111.49660867734));
#1786=CARTESIAN_POINT('Origin',(-62.4995025845208,-209.437698133471,104.24661664001));
#1787=CARTESIAN_POINT('',(-62.4995025845208,-208.837698133471,104.24661664001));
#1788=CARTESIAN_POINT('Origin',(-62.4995025845208,-209.437698133471,104.24661664001));
#1789=CARTESIAN_POINT('Origin',(-62.4995025845208,-223.93767645466,104.246603856824));
#1790=CARTESIAN_POINT('',(-62.4995025845208,-223.33767645466,104.246603856824));
#1791=CARTESIAN_POINT('Origin',(-62.4995025845208,-223.93767645466,104.246603856824));
#1792=CARTESIAN_POINT('Origin',(-62.4995025845208,-216.687696734866,96.9966316560189));
#1793=CARTESIAN_POINT('',(-62.4995025845208,-216.087696734866,96.9966316560189));
#1794=CARTESIAN_POINT('Origin',(-62.4995025845208,-216.687697721027,111.49660867734));
#1795=CARTESIAN_POINT('',(-62.4995025845208,-216.087697721027,111.49660867734));
#1796=CARTESIAN_POINT('Origin',(-62.4995025845208,-209.437698133471,104.24661664001));
#1797=CARTESIAN_POINT('',(-62.4995025845208,-208.837698133471,104.24661664001));
#1798=CARTESIAN_POINT('Origin',(-62.4995025845208,-223.93767645466,104.246603856824));
#1799=CARTESIAN_POINT('',(-62.4995025845208,-223.33767645466,104.246603856824));
#1800=CARTESIAN_POINT('Origin',(-32.499502346102,-221.500003255904,105.000000163913));
#1801=CARTESIAN_POINT('Origin',(-33.499502346102,-216.687657356263,104.245821163241));
#1802=CARTESIAN_POINT('',(-35.499502346102,-213.187657356263,104.245821163241));
#1803=CARTESIAN_POINT('Origin',(-35.499502346102,-216.687657356263,104.245821163241));
#1804=CARTESIAN_POINT('',(-33.499502346102,-213.187657356263,104.245821163241));
#1805=CARTESIAN_POINT('',(-33.499502346102,-213.187657356263,104.245821163241));
#1806=CARTESIAN_POINT('Origin',(-33.499502346102,-216.687657356263,104.245821163241));
#1807=CARTESIAN_POINT('Origin',(-35.499502346102,-216.687657356263,104.245821163241));
#1808=CARTESIAN_POINT('',(-35.499502346102,-218.287657356263,104.245821163241));
#1809=CARTESIAN_POINT('Origin',(-35.499502346102,-216.687657356263,104.245821163241));
#1810=CARTESIAN_POINT('Origin',(-32.499502346102,-216.687657356263,104.245821163241));
#1811=CARTESIAN_POINT('',(-33.499502346102,-229.187657356263,104.245821163241));
#1812=CARTESIAN_POINT('Origin',(-33.499502346102,-216.687657356263,104.245821163241));
#1813=CARTESIAN_POINT('',(-32.499502346102,-229.187657356263,104.245821163241));
#1814=CARTESIAN_POINT('',(-32.499502346102,-229.187657356263,104.245821163241));
#1815=CARTESIAN_POINT('Origin',(-32.499502346102,-216.687657356263,104.245821163241));
#1816=CARTESIAN_POINT('Origin',(-33.499502346102,-221.500003255904,105.000000163913));
#1817=CARTESIAN_POINT('Origin',(-6.69950234610204,-216.687657356263,104.245821163241));
#1818=CARTESIAN_POINT('',(-6.69950234610204,-218.287657356263,104.245821163241));
#1819=CARTESIAN_POINT('',(-6.69950234610204,-218.287657356263,104.245821163241));
#1820=CARTESIAN_POINT('Origin',(-6.69950234610204,-216.687657356263,104.245821163241));
#1821=CARTESIAN_POINT('Origin',(-30.999502346102,-216.687657356263,104.245821163241));
#1822=CARTESIAN_POINT('',(-29.499502346102,-226.187657356263,104.245821163241));
#1823=CARTESIAN_POINT('',(-30.999502346102,-227.687657356263,104.245821163241));
#1824=CARTESIAN_POINT('Origin',(-29.499502346102,-216.687657356263,104.245821163241));
#1825=CARTESIAN_POINT('Origin',(-32.499502346102,-216.687657356263,104.245821163241));
#1826=CARTESIAN_POINT('',(-26.999502346102,-226.187657356263,104.245821163241));
#1827=CARTESIAN_POINT('Origin',(-26.999502346102,-216.687657356263,104.245821163241));
#1828=CARTESIAN_POINT('',(-32.499502346102,-226.187657356263,104.245821163241));
#1829=CARTESIAN_POINT('Origin',(-26.999502346102,-216.687657356263,104.245821163241));
#1830=CARTESIAN_POINT('',(-26.999502346102,-221.587657356263,104.245821163241));
#1831=CARTESIAN_POINT('Origin',(-26.999502346102,-216.687657356263,104.245821163241));
#1832=CARTESIAN_POINT('Origin',(-6.69950234610204,-216.687657356263,104.245821163241));
#1833=CARTESIAN_POINT('',(-6.69950234610204,-221.587657356263,104.245821163241));
#1834=CARTESIAN_POINT('Origin',(-6.69950234610204,-216.687657356263,104.245821163241));
#1835=CARTESIAN_POINT('Origin',(-6.69950234610204,-216.687657356263,104.245821163241));
#1836=CARTESIAN_POINT('',(-6.69950234610204,-221.587657356263,104.245821163241));
#1837=UNCERTAINTY_MEASURE_WITH_UNIT(LENGTH_MEASURE(0.01),#1841,
'DISTANCE_ACCURACY_VALUE',
'Maximum model space distance between geometric entities at asserted c
onnectivities');
#1838=UNCERTAINTY_MEASURE_WITH_UNIT(LENGTH_MEASURE(0.01),#1841,
'DISTANCE_ACCURACY_VALUE',
'Maximum model space distance between geometric entities at asserted c
onnectivities');
#1839=(
GEOMETRIC_REPRESENTATION_CONTEXT(3)
GLOBAL_UNCERTAINTY_ASSIGNED_CONTEXT((#1837))
GLOBAL_UNIT_ASSIGNED_CONTEXT((#1841,#1843,#1844))
REPRESENTATION_CONTEXT('','3D')
);
#1840=(
GEOMETRIC_REPRESENTATION_CONTEXT(3)
GLOBAL_UNCERTAINTY_ASSIGNED_CONTEXT((#1838))
GLOBAL_UNIT_ASSIGNED_CONTEXT((#1841,#1843,#1844))
REPRESENTATION_CONTEXT('','3D')
);
#1841=(
LENGTH_UNIT()
NAMED_UNIT(*)
SI_UNIT(.MILLI.,.METRE.)
);
#1842=(
LENGTH_UNIT()
NAMED_UNIT(*)
SI_UNIT($,.METRE.)
);
#1843=(
NAMED_UNIT(*)
PLANE_ANGLE_UNIT()
SI_UNIT($,.RADIAN.)
);
#1844=(
NAMED_UNIT(*)
SI_UNIT($,.STERADIAN.)
SOLID_ANGLE_UNIT()
);
#1845=SHAPE_DEFINITION_REPRESENTATION(#1846,#1847);
#1846=PRODUCT_DEFINITION_SHAPE('',$,#1849);
#1847=SHAPE_REPRESENTATION('',(#1111),#1839);
#1848=PRODUCT_DEFINITION_CONTEXT('part definition',#1853,'design');
#1849=PRODUCT_DEFINITION('2026-09-26-21-39-14-915','wrist holder',#1850,
#1848);
#1850=PRODUCT_DEFINITION_FORMATION('',$,#1855);
#1851=PRODUCT_RELATED_PRODUCT_CATEGORY('wrist holder','wrist holder',(#1855));
#1852=APPLICATION_PROTOCOL_DEFINITION('international standard',
'automotive_design',2009,#1853);
#1853=APPLICATION_CONTEXT(
'Core Data for Automotive Mechanical Design Process');
#1854=PRODUCT_CONTEXT('part definition',#1853,'mechanical');
#1855=PRODUCT('2026-09-26-21-39-14-915','wrist holder',$,(#1854));
#1856=PRESENTATION_STYLE_ASSIGNMENT((#1857));
#1857=SURFACE_STYLE_USAGE(.BOTH.,#1858);
#1858=SURFACE_SIDE_STYLE('',(#1859));
#1859=SURFACE_STYLE_FILL_AREA(#1860);
#1860=FILL_AREA_STYLE('Steel - Satin',(#1861));
#1861=FILL_AREA_STYLE_COLOUR('Steel - Satin',#1862);
#1862=COLOUR_RGB('Steel - Satin',0.627450980392157,0.627450980392157,0.627450980392157);
ENDSEC;
END-ISO-10303-21;
